<?xml version="1.0" encoding="utf-8"?>
<!-- Generator: Adobe Illustrator 27.5.0, SVG Export Plug-In . SVG Version: 6.00 Build 0)  -->
<svg version="1.1" xmlns="http://www.w3.org/2000/svg" xmlns:xlink="http://www.w3.org/1999/xlink" x="0px" y="0px"
	 viewBox="0 0 500 500" style="enable-background:new 0 0 500 500;" xml:space="preserve">
<g id="Background_Complete">
	<g>
		<rect y="382.398" style="fill:#EBEBEB;" width="500" height="0.25"/>
		<rect x="416.779" y="398.494" style="fill:#EBEBEB;" width="33.122" height="0.25"/>
		<rect x="322.527" y="401.208" style="fill:#EBEBEB;" width="8.693" height="0.25"/>
		<rect x="396.586" y="389.208" style="fill:#EBEBEB;" width="19.192" height="0.25"/>
		<rect x="52.459" y="390.888" style="fill:#EBEBEB;" width="43.193" height="0.25"/>
		<rect x="104.556" y="390.888" style="fill:#EBEBEB;" width="6.333" height="0.25"/>
		<rect x="131.471" y="395.111" style="fill:#EBEBEB;" width="93.676" height="0.25"/>
		<path style="fill:#EBEBEB;" d="M237.014,337.8H43.915c-3.147,0-5.708-2.561-5.708-5.708V60.66c0-3.147,2.561-5.708,5.708-5.708
			h193.099c3.146,0,5.707,2.561,5.707,5.708v271.432C242.721,335.239,240.16,337.8,237.014,337.8z M43.915,55.203
			c-3.01,0-5.458,2.448-5.458,5.458v271.432c0,3.01,2.448,5.458,5.458,5.458h193.099c3.009,0,5.457-2.448,5.457-5.458V60.66
			c0-3.009-2.448-5.458-5.457-5.458H43.915z"/>
		<path style="fill:#EBEBEB;" d="M453.31,337.8H260.212c-3.147,0-5.707-2.561-5.707-5.708V60.66c0-3.147,2.561-5.708,5.707-5.708
			H453.31c3.148,0,5.708,2.561,5.708,5.708v271.432C459.019,335.239,456.458,337.8,453.31,337.8z M260.212,55.203
			c-3.009,0-5.457,2.448-5.457,5.458v271.432c0,3.01,2.448,5.458,5.457,5.458H453.31c3.01,0,5.458-2.448,5.458-5.458V60.66
			c0-3.009-2.448-5.458-5.458-5.458H260.212z"/>
	</g>
	<g>
		<g>
			<g>
				
					<rect x="17.959" y="288.97" transform="matrix(-1.836970e-16 1 -1 -1.836970e-16 400.3577 222.9498)" style="fill:#F0F0F0;" width="141.489" height="45.367"/>
				
					<rect x="67.879" y="245.089" transform="matrix(-1.836970e-16 1 -1 -1.836970e-16 353.9867 176.5788)" style="fill:#E6E6E6;" width="41.65" height="40.387"/>
				
					<rect x="67.879" y="290.478" transform="matrix(-1.836970e-16 1 -1 -1.836970e-16 399.3751 221.9672)" style="fill:#E6E6E6;" width="41.65" height="40.387"/>
				
					<rect x="67.879" y="335.866" transform="matrix(-1.836970e-16 1 -1 -1.836970e-16 444.7634 267.3555)" style="fill:#E6E6E6;" width="41.65" height="40.387"/>
				
					<rect x="80.13" y="257.34" transform="matrix(-1.836970e-16 1 -1 -1.836970e-16 366.2374 164.3281)" style="fill:#E0E0E0;" width="41.65" height="15.885"/>
				
					<rect x="80.13" y="302.728" transform="matrix(-1.836970e-16 1 -1 -1.836970e-16 411.6258 209.7165)" style="fill:#E0E0E0;" width="41.65" height="15.885"/>
				<g>
					<g>
						<rect x="91.835" y="269.471" style="fill:#F0F0F0;" width="11.004" height="16.637"/>
						
							<rect x="87.189" y="269.471" transform="matrix(-1 -1.224647e-16 1.224647e-16 -1 179.0245 555.5785)" style="fill:#E0E0E0;" width="4.646" height="16.637"/>
						<g>
							<rect x="75.379" y="273.798" style="fill:#F0F0F0;" width="14.133" height="12.31"/>
							
								<rect x="69.412" y="273.798" transform="matrix(-1 -1.224647e-16 1.224647e-16 -1 144.7913 559.9053)" style="fill:#E0E0E0;" width="5.967" height="12.31"/>
						</g>
					</g>
				</g>
				
					<rect x="80.13" y="348.117" transform="matrix(-1.836970e-16 1 -1 -1.836970e-16 457.0141 255.1048)" style="fill:#E0E0E0;" width="41.65" height="15.885"/>
				
					<rect x="-10.884" y="305.495" transform="matrix(-1.836970e-16 1 -1 -1.836970e-16 371.5149 251.7926)" style="fill:#F5F5F5;" width="141.489" height="12.318"/>
			</g>
			<rect x="74.377" y="352.465" style="fill:#F0F0F0;" width="29.999" height="24.417"/>
			
				<rect x="68.51" y="352.465" transform="matrix(-1 -1.224647e-16 1.224647e-16 -1 142.8864 729.3476)" style="fill:#E0E0E0;" width="5.867" height="24.417"/>
			<rect x="72.455" y="312.121" style="fill:#FAFAFA;" width="26.656" height="19.375"/>
			
				<rect x="68.51" y="312.121" transform="matrix(-1 -1.224647e-16 1.224647e-16 -1 140.9652 643.6172)" style="fill:#F0F0F0;" width="3.944" height="19.375"/>
		</g>
		<g>
			<g>
				
					<rect x="352.977" y="288.97" transform="matrix(-1.836970e-16 1 -1 -1.836970e-16 735.3752 -112.0677)" style="fill:#F0F0F0;" width="141.489" height="45.367"/>
				
					<rect x="402.897" y="245.089" transform="matrix(-1.836970e-16 1 -1 -1.836970e-16 689.0043 -158.4388)" style="fill:#E6E6E6;" width="41.65" height="40.387"/>
				
					<rect x="402.897" y="290.478" transform="matrix(-1.836970e-16 1 -1 -1.836970e-16 734.3926 -113.0503)" style="fill:#E6E6E6;" width="41.65" height="40.387"/>
				
					<rect x="402.897" y="335.866" transform="matrix(-1.836970e-16 1 -1 -1.836970e-16 779.7809 -67.662)" style="fill:#E6E6E6;" width="41.65" height="40.387"/>
				
					<rect x="415.147" y="257.34" transform="matrix(-1.836970e-16 1 -1 -1.836970e-16 701.2549 -170.6895)" style="fill:#E0E0E0;" width="41.65" height="15.886"/>
				
					<rect x="415.147" y="302.728" transform="matrix(-1.836970e-16 1 -1 -1.836970e-16 746.6434 -125.301)" style="fill:#E0E0E0;" width="41.65" height="15.886"/>
				<g>
					<g>
						<rect x="409.914" y="319.405" style="fill:#F0F0F0;" width="11.004" height="12.092"/>
						
							<rect x="405.268" y="319.405" transform="matrix(-1 -1.224647e-16 1.224647e-16 -1 815.1819 650.9007)" style="fill:#E0E0E0;" width="4.646" height="12.092"/>
					</g>
					<g>
						<rect x="419.866" y="307.313" style="fill:#F0F0F0;" width="11.004" height="12.091"/>
						
							<rect x="415.22" y="307.313" transform="matrix(-1 -1.224647e-16 1.224647e-16 -1 835.0868 626.7178)" style="fill:#E0E0E0;" width="4.646" height="12.091"/>
					</g>
					<g>
						<rect x="427.691" y="319.405" style="fill:#F0F0F0;" width="11.003" height="12.092"/>
						
							<rect x="423.045" y="319.405" transform="matrix(-1 -1.224647e-16 1.224647e-16 -1 850.7364 650.9007)" style="fill:#E0E0E0;" width="4.646" height="12.092"/>
					</g>
				</g>
				
					<rect x="415.147" y="348.117" transform="matrix(-1.836970e-16 1 -1 -1.836970e-16 792.0317 -79.9128)" style="fill:#E0E0E0;" width="41.65" height="15.886"/>
				
					<rect x="324.134" y="305.495" transform="matrix(-1.836970e-16 1 -1 -1.836970e-16 706.5324 -83.2249)" style="fill:#F5F5F5;" width="141.489" height="12.318"/>
			</g>
			<rect x="408.38" y="343.819" style="fill:#F0F0F0;" width="24.813" height="33.066"/>
			
				<rect x="403.528" y="343.819" transform="matrix(-1 -1.224647e-16 1.224647e-16 -1 811.9084 720.7029)" style="fill:#E0E0E0;" width="4.852" height="33.066"/>
			<rect x="408.38" y="259.862" style="fill:#FAFAFA;" width="32.793" height="26.246"/>
			
				<rect x="403.528" y="259.862" transform="matrix(-1 -1.224647e-16 1.224647e-16 -1 811.9084 545.9695)" style="fill:#F0F0F0;" width="4.852" height="26.246"/>
		</g>
		<g>
			<g>
				<g>
					<rect x="130.731" y="81.575" style="fill:#E6E6E6;" width="231.555" height="152.092"/>
					<rect x="133.857" y="81.575" style="fill:#F5F5F5;" width="231.555" height="152.092"/>
					
						<rect x="179.889" y="47.453" transform="matrix(-1.836970e-16 1 -1 -1.836970e-16 407.2549 -92.013)" style="fill:#FFFFFF;" width="139.489" height="220.335"/>
					
						<rect x="288.876" y="156.44" transform="matrix(-1.836970e-16 1 -1 -1.836970e-16 516.2413 -200.9995)" style="fill:#E6E6E6;" width="139.489" height="2.363"/>
					<rect x="136.177" y="183.667" style="fill:#F5F5F5;" width="226.914" height="8.459"/>
				</g>
				<g>
					<path style="fill:#E6E6E6;" d="M371.527,71.145H124.617c-0.475,0-0.864,0.389-0.864,0.864l0,0c0,0.475,0.389,0.864,0.864,0.864
						h246.911c0.475,0,0.864-0.389,0.864-0.864l0,0C372.391,71.534,372.002,71.145,371.527,71.145z"/>
					<path style="fill:#E6E6E6;" d="M374.55,72.009c0,1.192-0.967,2.159-2.159,2.159c-1.192,0-2.159-0.967-2.159-2.159
						c0-1.192,0.967-2.159,2.159-2.159C373.583,69.85,374.55,70.817,374.55,72.009z"/>
					<path style="fill:#E6E6E6;" d="M131.897,76.845L131.897,76.845c-0.641,0-1.166-0.525-1.166-1.166v-2.504
						c0-0.641,0.525-1.166,1.166-1.166l0,0c0.641,0,1.166,0.525,1.166,1.166v2.504C133.063,76.321,132.539,76.845,131.897,76.845z"
						/>
					<path style="fill:#E6E6E6;" d="M358.503,76.845L358.503,76.845c-0.641,0-1.166-0.525-1.166-1.166v-2.504
						c0-0.641,0.525-1.166,1.166-1.166l0,0c0.641,0,1.166,0.525,1.166,1.166v2.504C359.669,76.321,359.144,76.845,358.503,76.845z"
						/>
				</g>
			</g>
			<rect x="136.177" y="72.009" style="opacity:0.4;fill:#E0E0E0;" width="235.074" height="149.44"/>
			<path style="fill:#E6E6E6;" d="M147.945,72.009c0,1.192-0.967,2.159-2.159,2.159s-2.159-0.967-2.159-2.159
				c0-1.192,0.967-2.159,2.159-2.159S147.945,70.817,147.945,72.009z"/>
		</g>
		<g>
			
				<rect x="162.965" y="292.778" transform="matrix(-1 -1.224647e-16 1.224647e-16 -1 538.2431 594.2778)" style="fill:#F0F0F0;" width="212.313" height="8.722"/>
			<rect x="137.827" y="292.778" style="fill:#E6E6E6;" width="25.138" height="8.722"/>
			<rect x="141.71" y="301.5" style="fill:#E0E0E0;" width="230.077" height="5.058"/>
			
				<rect x="332.077" y="342.689" transform="matrix(6.123234e-17 -1 1 6.123234e-17 26.6326 714.4754)" style="fill:#E0E0E0;" width="76.954" height="2.465"/>
			
				<rect x="125.72" y="342.689" transform="matrix(6.123234e-17 -1 1 6.123234e-17 -179.724 508.1188)" style="fill:#E0E0E0;" width="76.954" height="2.465"/>
			
				<rect x="104.465" y="342.689" transform="matrix(6.123234e-17 -1 1 6.123234e-17 -200.9794 486.8633)" style="fill:#E0E0E0;" width="76.954" height="2.465"/>
			
				<rect x="310.822" y="342.689" transform="matrix(6.123234e-17 -1 1 6.123234e-17 5.3772 693.22)" style="fill:#E0E0E0;" width="76.954" height="2.465"/>
		</g>
		<g>
			<g>
				<path style="fill:#E0E0E0;" d="M299.848,212.784l8.532,15.205c-0.261,32.863,2.664,34.757,2.69,40.41h-9.026
					C301.22,240.891,295.903,243.233,299.848,212.784z"/>
			</g>
			<path style="fill:#E0E0E0;" d="M306.425,252.629c-3.031-31.691-52.918-26.615-57.655-11.733
				C244.033,255.778,308.169,270.856,306.425,252.629z"/>
			<path style="fill:#E0E0E0;" d="M302.661,239.775c6.594-23.381-23.441-27.794-36.855-21.033
				C257.906,226.677,298.868,253.222,302.661,239.775z"/>
			<path style="fill:#E0E0E0;" d="M294.391,225.044c15.463-5.022,5.449-21.24-3.78-25.406
				C283.022,198.578,285.497,227.932,294.391,225.044z"/>
			<path style="fill:#E0E0E0;" d="M311.379,240.419c-17.489-13.237,3.72-25.953,17.795-25.885
				C339.546,217.177,321.438,248.031,311.379,240.419z"/>
			<path style="fill:#E0E0E0;" d="M308.238,227.104c-23.304-5.888-9.366-22.499,4.119-26.499
				C323.584,199.798,321.64,230.491,308.238,227.104z"/>
			<path style="fill:#E0E0E0;" d="M303.955,254.55c-4.34-28.594,42.577-27.217,46.373-15.884
				C354.125,250,306.452,270.996,303.955,254.55z"/>
			<g>
				<path style="fill:#FAFAFA;" d="M301.497,292.778L301.497,292.778c-16.98,0-31.306-0.745-34.791-16.86
					c-0.922-4.263-1.971-8.497-3.626-12.532l-0.267-0.65h77.368l-0.267,0.65c-1.655,4.035-2.705,8.269-3.626,12.532
					C332.803,292.033,318.477,292.778,301.497,292.778z"/>
				<polygon style="fill:#F0F0F0;" points="345.191,264.212 257.804,264.212 255.301,256.915 347.694,256.915 				"/>
			</g>
		</g>
	</g>
</g>
<g id="Background_Simple" style="display:none;">
	<g style="display:inline;">
		<path style="fill:#407BFF;" d="M185.554,97.299c45.952,29.545,65.542,28.891,116.725,40.819
			c41.845,9.752,87.531,34.818,110.96,71.793c61.72,97.405-82.588,135.648-157.051,130.784
			c-52.426-3.424-79.623-27.347-104.565-70.492c-9.7-16.78-16.368-35.585-28.968-50.977c-13.536-16.536-33.497-22.295-46.593-36.606
			C12.587,113.254,124.302,57.917,185.554,97.299z"/>
		<path style="opacity:0.9;fill:#FFFFFF;" d="M185.554,97.299c45.952,29.545,65.542,28.891,116.725,40.819
			c41.845,9.752,87.531,34.818,110.96,71.793c61.72,97.405-82.588,135.648-157.051,130.784
			c-52.426-3.424-79.623-27.347-104.565-70.492c-9.7-16.78-16.368-35.585-28.968-50.977c-13.536-16.536-33.497-22.295-46.593-36.606
			C12.587,113.254,124.302,57.917,185.554,97.299z"/>
	</g>
</g>
<g id="Shadow_1_">
	<ellipse id="_x3C_Path_x3E__319_" style="fill:#F5F5F5;" cx="250" cy="416.238" rx="193.889" ry="11.323"/>
</g>
<g id="Character_2">
	<g>
		<polygon style="fill:#FFB573;" points="380.497,408.013 372.483,407.887 372.45,389.268 380.464,389.393 		"/>
		<polygon style="fill:#FFB573;" points="421.222,408.042 413.195,408.042 410.814,389.454 418.841,389.454 		"/>
		<path style="fill:#263238;" d="M412.35,407.113h9.786c0.328,0,0.603,0.228,0.66,0.548l1.285,7.135
			c0.133,0.74-0.478,1.44-1.236,1.427c-3.146-0.054-5.436-0.239-9.401-0.239c-2.44,0-9.808,0.254-13.177,0.254
			c-3.295,0-3.669-3.331-2.277-3.633c6.242-1.353,10.981-3.219,13.036-4.998C411.397,407.285,411.87,407.113,412.35,407.113z"/>
		<path style="fill:#263238;" d="M372.091,406.959l8.757,0.137c0.328,0.005,0.596,0.237,0.645,0.559l1.094,7.159
			c0.113,0.742-0.496,1.434-1.252,1.409c-3.155-0.103-7.707-0.36-11.678-0.423c-4.643-0.073-5.155,0.118-10.6,0.032
			c-3.292-0.052-3.977-3.397-2.578-3.677c6.368-1.275,7.986-1.342,13.637-4.602C370.73,407.199,371.399,406.948,372.091,406.959z"/>
		<path style="fill:#FFB573;" d="M375.65,169.126c-2.191,5.862-4.597,11.404-7.348,16.954c-1.372,2.761-2.813,5.507-4.388,8.211
			c-1.542,2.713-3.249,5.395-5.144,8.029l-1.515,2.029c-0.832,1.062-1.983,2.134-3.409,2.896c-1.418,0.783-3.048,1.143-4.473,1.18
			c-1.44,0.043-2.703-0.186-3.797-0.503c-2.186-0.656-3.867-1.588-5.363-2.591c-1.492-1.006-2.808-2.076-4.041-3.178
			c-4.867-4.472-8.594-9.336-11.99-14.656l4.753-3.706c2.05,1.974,4.215,4.017,6.395,5.882c2.178,1.882,4.392,3.684,6.633,5.2
			c1.11,0.765,2.232,1.448,3.31,1.985c1.072,0.531,2.114,0.929,2.835,1.024c0.356,0.055,0.597,0.022,0.654-0.023
			c0.067-0.05-0.07-0.063-0.188-0.033c-0.119,0.027-0.152,0.055-0.086-0.08l1.052-1.661c2.872-4.699,5.44-9.921,7.847-15.207
			c2.409-5.27,4.73-10.753,6.885-16.062L375.65,169.126z"/>
		<g>
			<path style="fill:#407BFF;" d="M378.655,163.889c2.641,7.206-11.252,28.231-11.252,28.231l-15.975-8.861
				c0,0,3.836-10.515,9.444-18.708C366.629,156.138,375.757,155.981,378.655,163.889z"/>
			<path style="opacity:0.5;fill:#FFFFFF;" d="M378.655,163.889c2.641,7.206-11.252,28.231-11.252,28.231l-15.975-8.861
				c0,0,3.836-10.515,9.444-18.708C366.629,156.138,375.757,155.981,378.655,163.889z"/>
		</g>
		<path style="opacity:0.2;fill:#407BFF;" d="M369.785,171.778c-3.065,1.554-10.048,9.168-12.095,14.954l9.71,5.386
			c0,0,5.353-8.097,8.776-15.967C373.973,174.03,371.405,170.96,369.785,171.778z"/>
		<path style="fill:#FFB573;" d="M329.489,183.906l-4.878-4.413l-4.607,7.89c0,0,4.683,5.499,9.88,2.822l0.698-1.965
			C331.126,186.708,330.695,184.997,329.489,183.906z"/>
		<polygon style="fill:#FFB573;" points="316.73,176.173 315.376,183.837 320.004,187.383 324.611,179.493 		"/>
		<polygon style="opacity:0.2;" points="372.452,389.273 372.467,398.87 380.484,398.996 380.468,389.399 		"/>
		<polygon style="opacity:0.2;" points="418.843,389.459 410.813,389.459 412.045,399.04 420.075,399.04 		"/>
		<g>
			<path style="fill:#407BFF;" d="M414.146,158.302c-6.636,30.99-2.782,63.17-3.133,69.755c-6.295-0.045-30.007-0.259-42.933-0.378
				c-8.587-45.222,1.095-69.379,1.095-69.379s2.712-0.714,6.423-1.341c1.164-0.197,2.421-0.385,3.732-0.54
				c0.724-0.091,1.461-0.163,2.209-0.227c4.828-0.395,12.772-0.144,18.253,0.165c1.148,0.067,2.319,0.162,3.451,0.272
				c1.052,0.109,2.085,0.231,3.059,0.361C410.719,157.574,414.146,158.302,414.146,158.302z"/>
			<path style="opacity:0.5;fill:#FFFFFF;" d="M414.146,158.302c-6.636,30.99-2.782,63.17-3.133,69.755
				c-6.295-0.045-30.007-0.259-42.933-0.378c-8.587-45.222,1.095-69.379,1.095-69.379s2.712-0.714,6.423-1.341
				c1.164-0.197,2.421-0.385,3.732-0.54c0.724-0.091,1.461-0.163,2.209-0.227c4.828-0.395,12.772-0.144,18.253,0.165
				c1.148,0.067,2.319,0.162,3.451,0.272c1.052,0.109,2.085,0.231,3.059,0.361C410.719,157.574,414.146,158.302,414.146,158.302z"/>
		</g>
		<path style="opacity:0.2;" d="M405.885,171.951c-0.576,2.994,1.182,16.368,4.472,19.479c0.138-4.328,0.402-8.855,0.84-13.494
			L405.885,171.951z"/>
		<path style="fill:#FFB573;" d="M398.164,135.79c-1.204,5.862-2.449,16.61,1.625,20.565c-3.22,3.144-7.424,6.772-14.399,6.955
			c-6.975,0.183-5.714-4.602-3.85-7.117c6.562-1.505,6.436-6.365,5.336-10.938L398.164,135.79z"/>
		<path style="fill:#FFFFFF;" d="M398.6,154.111c0,0-2.117,5.555-13.486,9.203c2.93,1.242,4.223,4.13,4.223,4.13
			s13.296-3.385,12.286-11.799C400.781,154.904,398.6,154.111,398.6,154.111z"/>
		<path style="fill:#FFFFFF;" d="M380.766,166.971c0,0,1.556-2.749,4.348-3.657c-1.287-1.174-3.35-4.825-2.443-7.668
			c-1.8,0.034-2.67,0.342-2.67,0.342S375.251,160.54,380.766,166.971z"/>
		<path style="fill:#FFFFFF;" d="M384.789,169.783c-0.086,0.793-0.503,1.398-0.93,1.352c-0.427-0.047-0.703-0.727-0.617-1.52
			c0.087-0.793,0.503-1.398,0.93-1.352C384.6,168.31,384.876,168.99,384.789,169.783z"/>
		<path style="fill:#FFFFFF;" d="M384.016,178.003c-0.016,0.798-0.377,1.437-0.807,1.429c-0.429-0.009-0.765-0.662-0.749-1.46
			c0.016-0.798,0.377-1.437,0.807-1.429C383.696,176.552,384.031,177.205,384.016,178.003z"/>
		<path style="opacity:0.2;" d="M393.561,139.652l-6.681,5.598c0.264,1.082,0.467,2.179,0.534,3.244
			c2.505-0.339,5.966-3.054,6.254-5.671C393.813,141.519,393.769,140.263,393.561,139.652z"/>
		<path style="fill:#263238;" d="M386.298,122.417c-3.811,4.117-3.652,8.994-3.222,10.467c-1.847,1.594-5.191,1.311-5.191,1.311
			l-1.06-1.064c-1.029-1.033-1.554-2.459-1.435-3.912c0.191-2.34,0.723-5.888,2.203-8.135
			C379.956,117.493,386.298,122.417,386.298,122.417z"/>
		<path style="fill:#FFB573;" d="M398.941,126.96c-0.559,7.947-0.483,12.626-4.535,16.671c-6.095,6.085-15.877,2.356-17.703-5.598
			c-1.644-7.159-0.453-18.952,7.358-22.046C391.756,112.938,399.5,119.013,398.941,126.96z"/>
		<path style="fill:#263238;" d="M392.302,122.139c1.681,3.84,1.129,7.354,0.372,9.407c-0.483,1.309,0.189,2.796,1.523,3.205
			c1.11,0.341,2.133,0.293,2.133,0.293l3.833-0.73c0,0,1.611-5.703,0.556-9.87C399.663,120.278,392.302,122.139,392.302,122.139z"/>
		<path style="fill:#263238;" d="M392.274,123.194c-9.13,0.946-17.583-0.917-17.583-0.917s1.88-5.945,6.1-7.986
			c4.22-2.042,13.136-1.875,15.886-0.708c2.75,1.167,6.347,4.695,4.992,13.333C398.834,130.042,392.274,123.194,392.274,123.194z"/>
		<g>
			<path style="fill:#407BFF;" d="M402.874,125.632c0,0-22.397-3.25-31.676-4.88c-0.686-0.12-0.658-1.108,0.032-1.203
				c5.248-0.725,11.634,0.524,11.634,0.524L402.874,125.632z"/>
			<path style="fill:#407BFF;" d="M374.849,119.564c0.405-1.988,3.865-12.337,18.385-9.197c13.445,2.907,9.64,15.265,9.64,15.265
				L374.849,119.564z"/>
			<polygon style="fill:#407BFF;" points="383.949,110.68 388.812,109.24 394.667,109.719 394.667,110.731 390.948,111.594 			"/>
			<path style="opacity:0.2;" d="M384.677,120.604C384.677,120.604,384.677,120.604,384.677,120.604
				c-0.207-0.001-0.375-0.168-0.375-0.375c0-0.081,0.11-8.122,9.626-10.255c0.203-0.042,0.403,0.083,0.448,0.284
				c0.045,0.202-0.082,0.402-0.284,0.448c-8.916,1.998-9.039,9.217-9.04,9.523C385.051,120.437,384.884,120.604,384.677,120.604z"/>
		</g>
		<path style="fill:#FFB573;" d="M402.335,135.061c-1.071,1.862-2.902,3.056-4.614,3.488c-2.574,0.65-3.795-1.669-3.024-4.064
			c0.694-2.156,2.87-5.091,5.427-4.678C402.645,130.214,403.56,132.932,402.335,135.061z"/>
		<path style="fill:#263238;" d="M369.97,396.969l13.59,0.207c0,0,3.685-53.771,3.275-78.78c-0.124-7.608,0.705-18.315,1.964-29.813
			c1.593-14.489,2.436-20.282,4.523-38.598c1.488-13.06,2.982-22.052,2.982-22.052l-28.223-0.249c0,0-3.615,65.496-2.872,89.983
			C365.977,343.128,369.97,396.969,369.97,396.969z"/>
		<path style="opacity:0.2;" d="M387.542,245.686c-4.226,12.904-2.398,42.367,0.47,50.507c0.239-2.481,0.503-5.024,0.785-7.607
			c1.597-14.495,2.44-20.283,4.529-38.599c0.036-0.363,0.083-0.717,0.12-1.07C391.61,247.505,389.62,246.342,387.542,245.686z"/>
		<path style="fill:#263238;" d="M383.308,227.818c0,0,9.582,67.412,12.996,90.682c3.738,25.482,12.026,78.685,12.026,78.685h14.702
			c0,0-2.764-50.143-5.926-75.055c-3.602-28.377-6.095-94.065-6.095-94.065L383.308,227.818z"/>
		<polygon style="fill:#407BFF;" points="406.569,397.503 423.881,397.503 423.881,392.331 404.53,391.995 		"/>
		<polygon style="fill:#407BFF;" points="367.925,397.259 384.088,397.513 384.83,392.28 366.802,391.721 		"/>
		<path style="fill:#263238;" d="M386.861,129.075c-0.006,0.647-0.353,1.169-0.777,1.165c-0.423-0.004-0.762-0.532-0.756-1.179
			s0.354-1.169,0.777-1.165C386.528,127.899,386.867,128.427,386.861,129.075z"/>
		<path style="fill:#263238;" d="M379.543,129.009c-0.006,0.647-0.354,1.169-0.777,1.165s-0.762-0.532-0.756-1.179
			c0.006-0.647,0.353-1.169,0.777-1.165C379.211,127.834,379.549,128.362,379.543,129.009z"/>
		<path style="fill:#ED893E;" d="M381.646,129.686c0,0-1.505,3.722-3.142,5.509c1.136,1.079,3.087,0.608,3.087,0.608
			L381.646,129.686z"/>
		<path style="fill:#263238;" d="M384.526,137.728c2.466-0.31,3.623-2.009,3.676-2.089c0.058-0.087,0.034-0.205-0.053-0.263
			c-0.087-0.058-0.205-0.035-0.264,0.053c-0.013,0.02-1.366,1.993-4.199,1.968c-0.105,0-0.191,0.083-0.192,0.188
			c-0.001,0.105,0.083,0.191,0.189,0.192C383.979,137.779,384.26,137.762,384.526,137.728z"/>
		<path style="fill:#263238;" d="M389.138,126.731c0.063-0.008,0.124-0.032,0.179-0.072c0.169-0.125,0.204-0.363,0.079-0.532
			c-1.254-1.689-3.007-1.602-3.081-1.597c-0.21,0.013-0.369,0.193-0.356,0.403c0.013,0.209,0.192,0.368,0.401,0.356l0,0
			c0.058-0.003,1.425-0.057,2.426,1.291C388.87,126.695,389.007,126.748,389.138,126.731z"/>
		<path style="fill:#263238;" d="M376.413,126.464c0.122-0.015,0.235-0.09,0.293-0.208c0.747-1.503,2.103-1.692,2.16-1.699
			c0.207-0.026,0.356-0.216,0.33-0.423c-0.025-0.208-0.213-0.356-0.421-0.332c-0.075,0.011-1.815,0.233-2.751,2.116
			c-0.093,0.188-0.017,0.416,0.171,0.51C376.266,126.462,376.341,126.473,376.413,126.464z"/>
		<g>
			<path style="fill:#407BFF;" d="M409.636,408.515c0.742,0,1.55-0.154,2.113-0.289c0.075-0.018,0.134-0.079,0.149-0.154
				c0.016-0.076-0.016-0.151-0.079-0.192c-0.285-0.183-2.807-1.773-3.714-1.317c-0.141,0.071-0.315,0.221-0.348,0.538
				c-0.045,0.425,0.073,0.763,0.351,1.005C408.459,408.411,409.026,408.515,409.636,408.515z M411.209,407.96
				c-1.374,0.273-2.421,0.224-2.844-0.145c-0.186-0.162-0.261-0.387-0.229-0.69c0.016-0.148,0.077-0.197,0.13-0.223
				C408.737,406.665,410.182,407.351,411.209,407.96z"/>
			<path style="fill:#407BFF;" d="M411.704,408.232c0.036,0,0.072-0.01,0.105-0.031c0.06-0.038,0.096-0.105,0.093-0.174
				c-0.004-0.098-0.098-2.414-0.998-3.176c-0.234-0.198-0.504-0.281-0.8-0.245c0,0,0,0,0,0c-0.457,0.056-0.588,0.336-0.626,0.498
				c-0.208,0.895,1.324,2.653,2.136,3.104C411.642,408.225,411.673,408.232,411.704,408.232z M410.221,404.979
				c0.156,0,0.298,0.055,0.43,0.167c0.577,0.488,0.777,1.838,0.842,2.515c-0.799-0.627-1.766-1.956-1.644-2.484
				c0.011-0.048,0.038-0.161,0.286-0.192l0,0C410.164,404.98,410.193,404.979,410.221,404.979z"/>
			<path style="fill:#407BFF;" d="M371.226,408.055c0.068-0.022,0.121-0.08,0.136-0.151c0.017-0.08-0.018-0.159-0.087-0.197
				c-0.351-0.194-3.463-1.88-4.474-1.352c-0.195,0.102-0.316,0.275-0.348,0.501v0c-0.055,0.378,0.044,0.691,0.292,0.93
				c0.826,0.793,3.146,0.513,4.456,0.276C371.209,408.06,371.217,408.058,371.226,408.055z M367.034,406.66
				c0.619-0.2,2.321,0.494,3.551,1.121c-1.791,0.267-3.105,0.169-3.569-0.276c-0.163-0.156-0.224-0.358-0.187-0.615
				c0.014-0.099,0.054-0.159,0.134-0.201C366.984,406.678,367.008,406.669,367.034,406.66z"/>
			<path style="fill:#407BFF;" d="M371.226,408.055c0.017-0.006,0.034-0.014,0.05-0.024c0.058-0.039,0.092-0.104,0.09-0.171
				c-0.002-0.092-0.07-2.257-1.033-3.111c-0.294-0.261-0.64-0.376-1.031-0.343l0,0c-0.526,0.045-0.695,0.307-0.744,0.52
				c-0.209,0.905,1.59,2.671,2.528,3.121C371.13,408.068,371.18,408.07,371.226,408.055z M369.118,404.821
				c0.05-0.016,0.115-0.029,0.197-0.036l0,0c0.289-0.025,0.537,0.058,0.757,0.254c0.633,0.561,0.829,1.859,0.889,2.491
				c-0.947-0.609-2.157-1.994-2.031-2.537C368.937,404.959,368.957,404.873,369.118,404.821z M369.309,404.595l-0.004,0.001
				L369.309,404.595z"/>
		</g>
		<g>
			<path style="fill:#407BFF;" d="M402.794,154.294c-1.023-0.143-2.047,0.215-2.751,0.97c-2.761,2.963-9.342,12.165-10.707,33.569
				c-1.737,27.25,4.416,48.083,4.416,48.083l17.096-4.852c1.135-0.322,1.869-1.416,1.733-2.588
				c-0.467-4.036-1.457-13.625-1.733-24.393c-0.194-7.587,0.377-14.41,0.348-17.51c-1.876-3.685-5.261-9.694-4.042-16.24
				c1.361-7.311,5.388-8.315,8.121-9.654c1.593-0.781,1.54-3.087-0.056-3.86C410.648,155.604,405.346,154.65,402.794,154.294z"/>
			<path style="fill:#407BFF;" d="M378.725,236.917l-11.724-3.675c-0.895-0.281-1.544-1.054-1.666-1.984
				c-1.016-7.736-5.176-43.266,0.224-69.645c0.371-1.814,1.652-3.305,3.402-3.91c2.293-0.792,5.867-1.794,10.404-2.275
				c0.447-0.048,0.797,0.375,0.678,0.808C377.815,164.367,374.123,209.04,378.725,236.917z"/>
			<g>
				<path style="fill:#FFFFFF;" d="M363.35,209.72c0.21,3.74,0.48,7.19,0.75,10.22c4.25,0.48,8.6,0.81,12.92,1.02
					c-0.2-3.31-0.34-6.7-0.41-10.11C372.13,210.61,367.67,210.25,363.35,209.72z"/>
				<path style="fill:#FFFFFF;" d="M376.72,192.08c-4.75-0.2-9.42-0.57-13.86-1.14c-0.03,3.46,0.01,6.86,0.11,10.13
					c4.41,0.54,8.97,0.89,13.57,1.08C376.55,198.74,376.62,195.36,376.72,192.08z"/>
			</g>
			<path style="fill:#FFFFFF;" d="M411.03,210.18c-6.25,0.61-13.68,0.98-21.5,0.99c0.28,3.67,0.66,7.05,1.09,10.06
				c7.65-0.05,14.88-0.45,21.08-1.06C411.44,217.13,411.2,213.73,411.03,210.18z"/>
			<path style="fill:#FFFFFF;" d="M411.109,191c-6.65,0.69-14.21,1.16-21.95,1.26c-0.14,3.49-0.16,6.86-0.09,10.07
				c7.65-0.1,15.09-0.55,21.75-1.22C410.83,197.21,411,193.68,411.109,191z"/>
			<g>
				<path style="fill:#407BFF;" d="M442.497,242.998l-45.427,7.578c-1.269,0.212-2.378-0.653-2.477-1.931l-2.17-28.158
					c-0.099-1.278,0.851-2.486,2.12-2.698l45.427-7.578c1.269-0.212,2.378,0.653,2.477,1.931l2.17,28.158
					C444.716,241.579,443.767,242.787,442.497,242.998z"/>
				<path style="opacity:0.4;" d="M442.497,242.998l-44.377,7.403c-1.269,0.212-2.378-0.653-2.477-1.931l-2.17-28.158
					c-0.098-1.278,0.851-2.486,2.12-2.697l44.377-7.403c1.269-0.212,2.378,0.653,2.477,1.931l2.17,28.158
					C444.716,241.579,443.767,242.787,442.497,242.998z"/>
			</g>
			<path style="fill:#FFB573;" d="M415.965,163.395c2.527,5.76,4.77,11.498,6.799,17.411c1.034,2.942,1.972,5.924,2.891,8.927
				c0.447,1.51,0.876,3.021,1.283,4.555l0.308,1.146l0.324,1.32c0.235,0.899,0.358,1.794,0.519,2.688
				c0.976,7.171-0.076,13.877-1.772,20.149c-0.861,3.141-1.933,6.182-3.155,9.14c-0.626,1.474-1.287,2.929-1.983,4.366
				c-0.697,1.455-1.411,2.822-2.273,4.293l-5.443-2.588c0.867-2.708,1.749-5.627,2.402-8.485c0.707-2.863,1.276-5.743,1.702-8.599
				c0.396-2.859,0.699-5.698,0.686-8.465c0.04-2.765-0.206-5.45-0.757-7.923c-0.161-0.604-0.28-1.228-0.483-1.8l-0.288-0.897
				l-0.377-1.049c-0.491-1.399-1.035-2.796-1.55-4.199c-1.038-2.81-2.17-5.602-3.265-8.413l-6.757-16.8L415.965,163.395z"/>
			<g>
				<path style="fill:#407BFF;" d="M414.144,158.304c7.205,2.643,11.88,23.387,11.88,23.387l-15.957,10.999
					c0,0-4.898-12.25-7.594-21.795C399.536,160.497,405.417,155.102,414.144,158.304z"/>
				<path style="opacity:0.5;fill:#FFFFFF;" d="M414.144,158.304c7.205,2.643,11.88,23.387,11.88,23.387l-15.957,10.999
					c0,0-4.898-12.25-7.594-21.795C399.536,160.497,405.417,155.102,414.144,158.304z"/>
			</g>
			<path style="fill:#FFB573;" d="M412.831,236.056l-1.391,6.151l9.614-0.278c0,0,0.769-7.428-3.035-8.603l-2.968,0.577
				C413.949,234.117,413.079,234.962,412.831,236.056z"/>
			<path style="fill:#FFB573;" d="M414.454,249.885l5.772-1.176c0.702-0.143,1.192-0.781,1.149-1.497l-0.321-5.283l-9.614,0.278
				l1.317,6.552C412.913,249.54,413.674,250.044,414.454,249.885z"/>
		</g>
	</g>
</g>
<g id="QA">
	<g>
		<g>
			<path style="fill:#407BFF;" d="M330.478,115.028H157.852c-2.056,0-3.706,1.699-3.645,3.754l6.964,237.743
				c0.058,1.972,1.673,3.54,3.645,3.54h172.626c2.056,0,3.706-1.699,3.646-3.754l-6.964-237.743
				C334.065,116.596,332.45,115.028,330.478,115.028z"/>
			<path style="opacity:0.2;" d="M330.478,115.028H157.852c-2.056,0-3.706,1.699-3.645,3.754l6.964,237.743
				c0.058,1.972,1.673,3.54,3.645,3.54h172.626c2.056,0,3.706-1.699,3.646-3.754l-6.964-237.743
				C334.065,116.596,332.45,115.028,330.478,115.028z"/>
		</g>
		<rect x="179.556" y="111.528" style="fill:#407BFF;" width="16.196" height="1"/>
		<rect x="169.667" y="111.528" style="fill:#407BFF;" width="4.11" height="1"/>
		<path style="fill:#407BFF;" d="M332.143,115.028H159.517c-2.056,0-3.706,1.699-3.645,3.754l6.964,237.743
			c0.058,1.972,1.673,3.54,3.646,3.54h172.626c2.056,0,3.706-1.699,3.646-3.754l-6.964-237.743
			C335.73,116.596,334.115,115.028,332.143,115.028z"/>
		<g>
			<path style="opacity:0.2;" d="M163.268,127.91l6.486,221.435c0.058,1.967,1.699,3.561,3.665,3.561h156.319
				c1.966,0,3.514-1.594,3.456-3.561l-6.486-221.435c-0.058-1.966-1.698-3.561-3.665-3.561H166.724
				C164.758,124.349,163.21,125.943,163.268,127.91z"/>
			<path style="fill:#FFFFFF;" d="M164.348,126.829l6.486,221.435c0.058,1.967,1.698,3.561,3.665,3.561h156.319
				c1.966,0,3.514-1.594,3.456-3.561l-6.486-221.435c-0.058-1.966-1.699-3.561-3.665-3.561H167.805
				C165.838,123.269,164.291,124.863,164.348,126.829z"/>
			<g>
				<polygon style="fill:#F5F5F5;" points="212.409,198.146 182.367,198.146 181.488,168.105 211.529,168.105 				"/>
				<g>
					<polygon style="fill:#E0E0E0;" points="310.212,180.035 225.272,180.035 225.107,174.429 310.048,174.429 					"/>
					<polygon style="fill:#E0E0E0;" points="292.083,191.822 225.617,191.822 225.453,186.216 291.919,186.216 					"/>
				</g>
			</g>
			<g>
				<polygon style="fill:#F5F5F5;" points="213.988,252.04 183.946,252.04 183.066,221.999 213.108,221.999 				"/>
				<g>
					<polygon style="fill:#E0E0E0;" points="258.055,233.929 226.85,233.929 226.686,228.323 257.89,228.323 					"/>
					<polygon style="fill:#E0E0E0;" points="287.612,233.929 264.659,233.929 264.494,228.323 287.448,228.323 					"/>
					<polygon style="fill:#E0E0E0;" points="301.524,245.716 227.195,245.716 227.031,240.11 301.36,240.11 					"/>
				</g>
			</g>
			<g>
				<polygon style="fill:#F5F5F5;" points="215.566,305.935 185.525,305.935 184.645,275.893 214.686,275.893 				"/>
				<g>
					<polygon style="fill:#E0E0E0;" points="313.55,294.004 228.61,294.004 228.774,299.611 313.714,299.611 					"/>
					<polygon style="fill:#E0E0E0;" points="294.731,282.217 228.264,282.217 228.429,287.823 294.895,287.823 					"/>
				</g>
			</g>
			<path style="fill:#407BFF;" d="M198.877,190.343c-0.53,0.772-1.698,0.716-2.199-0.105l0,0c-1.951-3.202-5.679-6.12-7.823-7.567
				c-0.58-0.391-0.761-1.157-0.422-1.748l0.002-0.003c0.372-0.647,1.219-0.827,1.855-0.399c1.827,1.229,4.379,3.22,6.466,5.557
				c0.546,0.611,1.491,0.622,1.988,0.001c3.628-4.527,8.638-9.193,15.203-14.168c0.57-0.432,1.402-0.304,1.847,0.282l0,0.001
				c0.44,0.581,0.332,1.396-0.234,1.824C207.885,179.835,202.421,185.182,198.877,190.343L198.877,190.343z"/>
			<path style="fill:#407BFF;" d="M200.456,244.237c-0.53,0.772-1.698,0.716-2.199-0.105v0c-1.951-3.202-5.679-6.12-7.823-7.566
				c-0.58-0.391-0.761-1.157-0.422-1.748l0.001-0.003c0.372-0.647,1.219-0.827,1.855-0.399c1.827,1.229,4.379,3.22,6.466,5.557
				c0.546,0.611,1.491,0.622,1.988,0.001c3.628-4.527,8.638-9.193,15.203-14.168c0.57-0.432,1.403-0.305,1.847,0.282l0,0
				c0.441,0.582,0.332,1.396-0.234,1.824C209.464,233.729,203.999,239.077,200.456,244.237L200.456,244.237z"/>
			<path style="fill:#407BFF;" d="M202.038,298.248c-0.53,0.772-1.698,0.717-2.199-0.105l0,0c-1.951-3.202-5.679-6.12-7.823-7.567
				c-0.58-0.391-0.761-1.157-0.422-1.747l0.001-0.003c0.372-0.647,1.219-0.827,1.855-0.399c1.827,1.229,4.379,3.22,6.466,5.557
				c0.546,0.611,1.491,0.622,1.988,0.001c3.628-4.527,8.638-9.194,15.203-14.168c0.57-0.432,1.403-0.304,1.847,0.282l0,0.001
				c0.44,0.581,0.332,1.396-0.234,1.824C211.046,287.739,205.581,293.087,202.038,298.248L202.038,298.248z"/>
			<path style="fill:#EBEBEB;" d="M271.415,338.371c-4.604,0-7.065-1.702-9.237-3.203c-2.076-1.436-4.038-2.792-7.928-2.792
				c-3.891,0-5.773,1.356-7.765,2.792c-2.083,1.501-4.445,3.203-9.049,3.203c-4.603,0-7.064-1.702-9.236-3.203
				c-2.076-1.436-4.037-2.792-7.927-2.792c-3.89,0-5.771,1.356-7.763,2.792c-2.083,1.501-4.444,3.203-9.048,3.203
				c-4.604,0-7.064-1.702-9.235-3.203c-2.076-1.436-4.037-2.792-7.927-2.792l-0.066-2.248c4.603,0,7.064,1.702,9.235,3.203
				c2.076,1.436,4.037,2.792,7.927,2.792s5.771-1.356,7.763-2.792c2.083-1.501,4.444-3.203,9.048-3.203
				c4.604,0,7.064,1.702,9.236,3.203c2.076,1.436,4.037,2.792,7.927,2.792c3.891,0,5.773-1.356,7.765-2.792
				c2.083-1.501,4.445-3.203,9.049-3.203c4.604,0,7.065,1.702,9.237,3.203c2.076,1.436,4.038,2.792,7.929,2.792L271.415,338.371z"/>
		</g>
		<path style="fill:#263238;" d="M286.285,121.882h-0.181l-0.017-0.053c-2.305-7.33-7.843-12.19-13.893-12.19H259.88
			c-1.838,0-3.537-1.277-4.229-3.235c-1.655-4.675-5.7-8.005-10.348-8.005c-4.648,0-8.521,3.33-9.935,8.005
			c-0.592,1.957-2.225,3.235-4.063,3.235h-12.314c-6.049,0-11.338,4.86-13.264,12.19l-0.014,0.053h-0.181
			c-1.391,0-2.496,1.293-2.455,2.874c0.041,1.581,1.212,2.874,2.603,2.874h80.754c1.391,0,2.496-1.293,2.455-2.874
			C288.847,123.175,287.676,121.882,286.285,121.882z"/>
		<g>
			<path style="fill:#263238;" d="M194.723,146.649c0.271,0.184,0.447,0.3,0.53,0.347c0.124,0.069,0.29,0.148,0.499,0.239
				l-0.555,1.19c-0.301-0.144-0.6-0.315-0.896-0.513c-0.296-0.198-0.504-0.347-0.622-0.447c-0.462,0.203-1.047,0.305-1.753,0.305
				c-1.043,0-1.874-0.272-2.493-0.815c-0.731-0.643-1.113-1.547-1.148-2.712c-0.033-1.131,0.253-2.009,0.857-2.635
				c0.605-0.626,1.466-0.939,2.584-0.939c1.14,0,2.029,0.306,2.667,0.918c0.638,0.612,0.974,1.488,1.007,2.628
				C195.431,145.228,195.205,146.04,194.723,146.649z M193.066,145.562c0.16-0.303,0.231-0.756,0.213-1.359
				c-0.02-0.693-0.164-1.188-0.43-1.485c-0.266-0.297-0.626-0.445-1.079-0.445c-0.422,0-0.759,0.151-1.013,0.454
				c-0.253,0.303-0.371,0.776-0.352,1.419c0.022,0.749,0.165,1.276,0.43,1.579c0.265,0.303,0.621,0.454,1.067,0.454
				c0.144,0,0.279-0.014,0.406-0.042c-0.183-0.172-0.469-0.334-0.857-0.487l0.31-0.763c0.188,0.034,0.336,0.076,0.442,0.126
				c0.106,0.05,0.314,0.181,0.623,0.393C192.9,145.458,192.98,145.509,193.066,145.562z"/>
			<path style="fill:#263238;" d="M200.913,140.784h2.117l0.12,4.092c0.012,0.405-0.04,0.789-0.156,1.149
				c-0.116,0.361-0.305,0.676-0.567,0.946c-0.262,0.27-0.54,0.459-0.834,0.568c-0.408,0.153-0.9,0.23-1.478,0.23
				c-0.334,0-0.7-0.023-1.096-0.07c-0.396-0.047-0.729-0.14-0.999-0.279c-0.27-0.139-0.518-0.336-0.746-0.592
				c-0.228-0.256-0.386-0.52-0.475-0.791c-0.144-0.437-0.221-0.824-0.231-1.161l-0.12-4.092h2.117l0.123,4.189
				c0.011,0.375,0.123,0.667,0.337,0.878c0.214,0.211,0.505,0.316,0.874,0.316c0.365,0,0.649-0.104,0.85-0.311
				c0.202-0.207,0.297-0.501,0.286-0.882L200.913,140.784z"/>
			<path style="fill:#263238;" d="M208.498,146.518h-2.409l-0.302,1.134h-2.167l2.38-6.867h2.315l2.782,6.867h-2.222
				L208.498,146.518z M208.014,145.033l-0.83-2.469l-0.678,2.469H208.014z"/>
			<path style="fill:#263238;" d="M211.57,140.784h2.122l0.152,5.176h3.312l0.049,1.691h-5.434L211.57,140.784z"/>
			<path style="fill:#263238;" d="M218.053,140.784h2.127l0.201,6.867h-2.127L218.053,140.784z"/>
			<path style="fill:#263238;" d="M221.22,140.784h6.451l0.05,1.696h-2.164l0.151,5.172h-2.122l-0.151-5.172h-2.164L221.22,140.784z
				"/>
			<path style="fill:#263238;" d="M227.938,140.784h2.357l1.451,2.316l1.319-2.316h2.345l-2.553,3.991l0.084,2.876h-2.127
				l-0.084-2.876L227.938,140.784z"/>
			<path style="fill:#263238;" d="M243.683,146.518h-2.409l-0.301,1.134h-2.167l2.38-6.867h2.315l2.782,6.867h-2.222
				L243.683,146.518z M243.2,145.033l-0.83-2.469l-0.678,2.469H243.2z"/>
			<path style="fill:#263238;" d="M246.52,145.379l2.015-0.126c0.053,0.328,0.15,0.578,0.289,0.749
				c0.227,0.278,0.543,0.417,0.949,0.417c0.303,0,0.534-0.071,0.694-0.213c0.16-0.142,0.237-0.307,0.232-0.494
				c-0.005-0.178-0.088-0.337-0.248-0.478c-0.16-0.141-0.526-0.273-1.098-0.398c-0.937-0.209-1.609-0.487-2.015-0.834
				c-0.41-0.347-0.623-0.789-0.638-1.326c-0.01-0.353,0.082-0.686,0.278-1c0.195-0.314,0.496-0.561,0.901-0.74
				c0.405-0.179,0.966-0.269,1.681-0.269c0.878,0,1.551,0.163,2.022,0.49s0.76,0.846,0.868,1.558l-1.997,0.117
				c-0.062-0.309-0.18-0.534-0.355-0.674c-0.174-0.141-0.411-0.211-0.711-0.211c-0.247,0-0.431,0.052-0.553,0.157
				c-0.122,0.105-0.181,0.232-0.176,0.382c0.003,0.109,0.058,0.208,0.163,0.295c0.103,0.091,0.342,0.175,0.719,0.253
				c0.933,0.2,1.604,0.402,2.011,0.607c0.407,0.205,0.707,0.458,0.898,0.761c0.192,0.303,0.293,0.642,0.304,1.016
				c0.013,0.44-0.097,0.846-0.33,1.218c-0.233,0.372-0.565,0.654-0.996,0.846c-0.432,0.192-0.98,0.288-1.645,0.288
				c-1.168,0-1.983-0.225-2.446-0.675C246.871,146.644,246.6,146.073,246.52,145.379z"/>
			<path style="fill:#263238;" d="M253.449,145.379l2.015-0.126c0.053,0.328,0.15,0.578,0.289,0.749
				c0.227,0.278,0.543,0.417,0.949,0.417c0.303,0,0.534-0.071,0.694-0.213c0.16-0.142,0.237-0.307,0.231-0.494
				c-0.005-0.178-0.088-0.337-0.248-0.478c-0.16-0.141-0.526-0.273-1.099-0.398c-0.937-0.209-1.608-0.487-2.015-0.834
				c-0.41-0.347-0.623-0.789-0.638-1.326c-0.01-0.353,0.082-0.686,0.278-1c0.195-0.314,0.496-0.561,0.901-0.74
				c0.406-0.179,0.966-0.269,1.681-0.269c0.878,0,1.551,0.163,2.022,0.49c0.47,0.326,0.759,0.846,0.868,1.558l-1.997,0.117
				c-0.062-0.309-0.18-0.534-0.355-0.674c-0.174-0.141-0.411-0.211-0.711-0.211c-0.247,0-0.431,0.052-0.553,0.157
				c-0.122,0.105-0.181,0.232-0.176,0.382c0.003,0.109,0.058,0.208,0.163,0.295c0.102,0.091,0.342,0.175,0.719,0.253
				c0.933,0.2,1.604,0.402,2.011,0.607c0.407,0.205,0.707,0.458,0.898,0.761c0.192,0.303,0.293,0.642,0.304,1.016
				c0.013,0.44-0.097,0.846-0.33,1.218s-0.565,0.654-0.997,0.846c-0.432,0.192-0.98,0.288-1.645,0.288
				c-1.168,0-1.984-0.225-2.446-0.675C253.8,146.644,253.529,146.073,253.449,145.379z"/>
			<path style="fill:#263238;" d="M265.082,140.784h2.117l0.12,4.092c0.012,0.405-0.04,0.789-0.156,1.149
				c-0.116,0.361-0.305,0.676-0.567,0.946c-0.262,0.27-0.54,0.459-0.834,0.568c-0.408,0.153-0.901,0.23-1.478,0.23
				c-0.334,0-0.699-0.023-1.096-0.07c-0.396-0.047-0.729-0.14-0.999-0.279c-0.27-0.139-0.518-0.336-0.746-0.592
				c-0.228-0.256-0.386-0.52-0.475-0.791c-0.144-0.437-0.221-0.824-0.231-1.161l-0.12-4.092h2.117l0.123,4.189
				c0.011,0.375,0.123,0.667,0.337,0.878c0.214,0.211,0.505,0.316,0.874,0.316c0.365,0,0.649-0.104,0.851-0.311
				c0.202-0.207,0.297-0.501,0.286-0.882L265.082,140.784z"/>
			<path style="fill:#263238;" d="M268.834,147.651l-0.201-6.867h3.537c0.656,0,1.159,0.056,1.509,0.169
				c0.35,0.113,0.635,0.321,0.857,0.625c0.221,0.305,0.338,0.675,0.351,1.113c0.011,0.381-0.06,0.71-0.215,0.986
				c-0.154,0.276-0.371,0.5-0.651,0.672c-0.178,0.109-0.424,0.2-0.737,0.272c0.255,0.084,0.442,0.169,0.56,0.253
				c0.08,0.056,0.196,0.176,0.35,0.361c0.154,0.184,0.257,0.326,0.31,0.426l1.086,1.99h-2.398l-1.196-2.099
				c-0.152-0.272-0.285-0.448-0.4-0.529c-0.156-0.106-0.331-0.159-0.525-0.159h-0.187l0.082,2.787H268.834z M270.846,143.566h0.895
				c0.097,0,0.283-0.031,0.559-0.094c0.14-0.028,0.252-0.1,0.338-0.215c0.086-0.115,0.126-0.248,0.122-0.398
				c-0.007-0.222-0.082-0.392-0.226-0.511c-0.144-0.119-0.41-0.178-0.797-0.178h-0.932L270.846,143.566z"/>
			<path style="fill:#263238;" d="M280.457,146.518h-2.409l-0.302,1.134h-2.167l2.38-6.867h2.315l2.782,6.867h-2.222
				L280.457,146.518z M279.974,145.033l-0.83-2.469l-0.678,2.469H279.974z"/>
			<path style="fill:#263238;" d="M283.544,140.784h1.982l2.697,3.799l-0.111-3.799h2l0.201,6.867h-2l-2.682-3.771l0.111,3.771
				h-1.996L283.544,140.784z"/>
			<path style="fill:#263238;" d="M296.212,144.841l1.876,0.562c-0.11,0.521-0.294,0.957-0.552,1.307
				c-0.258,0.35-0.584,0.614-0.977,0.792c-0.393,0.178-0.897,0.267-1.512,0.267c-0.746,0-1.359-0.109-1.839-0.326
				c-0.479-0.216-0.899-0.598-1.258-1.145c-0.36-0.546-0.552-1.245-0.577-2.097c-0.033-1.136,0.243-2.009,0.83-2.619
				c0.586-0.61,1.432-0.915,2.538-0.915c0.865,0,1.55,0.175,2.056,0.525c0.505,0.35,0.889,0.887,1.15,1.611l-1.862,0.417
				c-0.072-0.209-0.145-0.362-0.22-0.459c-0.123-0.162-0.272-0.287-0.447-0.375c-0.174-0.087-0.368-0.131-0.58-0.131
				c-0.481,0-0.844,0.194-1.089,0.58c-0.185,0.287-0.269,0.738-0.251,1.352c0.022,0.761,0.153,1.283,0.393,1.565
				c0.239,0.282,0.568,0.423,0.987,0.423c0.406,0,0.71-0.114,0.91-0.342C295.991,145.606,296.132,145.275,296.212,144.841z"/>
			<path style="fill:#263238;" d="M298.979,140.784h5.687l0.043,1.466h-3.56l0.032,1.092h3.303l0.041,1.401h-3.303l0.04,1.354h3.663
				l0.046,1.555h-5.79L298.979,140.784z"/>
		</g>
	</g>
</g>
<g id="Character_1">
	<g>
		<path style="fill:#FF8B7B;" d="M125.746,227.227c0,0-2.836,62.231-3.378,87.435c-0.563,26.215-0.815,87.434-0.815,87.434h-6.616
			c0,0-10.553-50.879-7.43-87.434c-4.726-28.07-7.917-87.435-7.917-87.435H125.746z"/>
		<path style="fill:#FF8B7B;" d="M116.974,227.227c0,0-15.762,65.17-22.207,89.541c-6.768,25.595-15.91,83.43-15.963,85.328h-5.721
			c0,0-1.803-66.816,7.254-89.541c0.037-28.465,11.843-85.328,11.843-85.328H116.974z"/>
		<path style="fill:#263238;" d="M72.937,398.625c-1.086,1.241-1.95,7.661-0.321,10.522c1.629,2.861,0,7.091,5.505,7.091
			c5.505,0,6.048-1.198,4.652-3.757s-2.994-7.375-2.944-10.385C79.894,398.225,81.385,396.222,72.937,398.625z"/>
		<path style="fill:#263238;" d="M72.263,405.316c-0.119,3.299-0.05,8.695-0.05,8.695l0.871-0.025c0,0,0.645-5.894,1.2-8.081
			L72.263,405.316z"/>
		<path style="fill:#FF8B7B;" d="M131.383,187.422c0.712,5.073,1.34,10.157,1.916,15.248c0.604,5.088,1.148,10.185,1.655,15.29
			c0.129,1.269,0.23,2.608,0.451,3.665c0.085,0.555,0.195,1.129,0.325,1.732c0.128,0.594,0.226,1.188,0.379,1.783
			c0.545,2.38,1.229,4.771,1.961,7.158c0.731,2.389,1.514,4.785,2.39,7.153c0.85,2.369,1.764,4.768,2.677,7.081l-3.691,1.974
			c-2.894-4.462-5.309-9.08-7.463-13.939c-1.046-2.437-2.038-4.913-2.846-7.495c-0.22-0.636-0.393-1.299-0.591-1.949
			c-0.201-0.639-0.372-1.319-0.533-2.027c-0.386-1.446-0.53-2.671-0.738-3.951c-0.801-5.096-1.564-10.2-2.268-15.314
			c-0.732-5.109-1.411-10.227-2.006-15.355L131.383,187.422z"/>
		<path style="fill:#263238;" d="M129.927,180.011c2.104,3.928,3.197,19.434,4.948,30.094c0.127,0.774-0.326,1.517-1.062,1.788
			c-2.608,0.96-4.889,2.614-6.423,3.918c-0.938,0.798-2.385,0.298-2.644-0.906l-4.989-23.119l2.171-4.372
			C123.018,183.655,126.096,180.807,129.927,180.011L129.927,180.011z"/>
		<path style="fill:#FF8B7B;" d="M143.074,245.733l7.277,4.089l-7.87,2.949c0,0-4.028-3.455-3.287-6.81L143.074,245.733z"/>
		<polygon style="fill:#FF8B7B;" points="153.024,256.235 146.301,258.348 142.481,252.771 150.351,249.822 		"/>
		<polygon style="fill:#263238;" points="139.859,254.455 216.923,245.367 217.014,246.099 140.078,256.212 		"/>
		<path style="fill:#263238;" d="M130.665,182.878c0.132,5.992-0.234,22.925-4.446,48.819l-35.087,0
			c0.563-13.661,2.276-26.688-4.253-54.724c0,0,6.383-1.396,13.604-1.744c5.648-0.272,10.276-0.452,15.242,0.001
			c3.282,0.299,6.785,0.831,9.463,1.286C128.305,177.046,130.596,179.717,130.665,182.878z"/>
		<path style="opacity:0.2;fill:#FFFFFF;" d="M112.668,231.822c-0.004,0-0.009,0-0.014-0.001c-0.068-0.007-0.118-0.068-0.11-0.138
			c3.193-29.775,0.387-41.648,0.358-41.765c-0.017-0.067,0.024-0.135,0.091-0.151c0.074-0.019,0.135,0.024,0.151,0.091
			c0.029,0.117,2.846,12.033-0.353,41.853C112.785,231.774,112.731,231.822,112.668,231.822z"/>
		<path style="fill:#E0E0E0;" d="M115.725,175.23l-15.241-0.001c0,0,5.24,8.799,12.184,13.438
			C117.001,182.167,115.725,175.23,115.725,175.23z"/>
		<path style="fill:#263238;" d="M107.081,153.559c3.427,5.795,2.056,12.945-3.062,15.972c-5.118,3.027-12.045,0.783-15.471-5.012
			c-3.427-5.794-2.056-12.945,3.062-15.972C96.727,145.52,103.654,147.764,107.081,153.559z"/>
		<path style="fill:#263238;" d="M85.535,159.886c-0.163-3.313,0.824-6.485,2.78-8.933c1.963-2.456,4.666-3.888,7.61-4.033
			c2.955-0.148,5.776,1.015,7.971,3.267c2.187,2.243,3.48,5.304,3.644,8.616l-0.5,0.025c-0.157-3.191-1.4-6.137-3.502-8.293
			c-2.093-2.148-4.79-3.253-7.587-3.115c-2.8,0.138-5.373,1.503-7.245,3.846c-1.88,2.352-2.828,5.404-2.671,8.595L85.535,159.886z"
			/>
		
			<ellipse transform="matrix(0.4358 -0.9 0.9 0.4358 -77.2802 192.8504)" style="fill:#263238;" cx="115.186" cy="158.067" rx="11.297" ry="10.735"/>
		<path style="fill:#FF8B7B;" d="M101.994,158.067c0.961,4.904,1.921,13.89-1.51,17.162c0,0,2.651,5.188,10.485,7.021
			c4.875-3.042,4.757-7.02,4.757-7.02c-5.469-1.306-5.327-5.363-4.375-9.174L101.994,158.067z"/>
		<polygon style="fill:#FFFFFF;" points="107.772,181.222 100.94,173.167 98.579,174.417 98.19,186.056 103.246,179.417 		"/>
		<polygon style="fill:#FFFFFF;" points="112.404,181.217 114.624,173.979 117.413,175.229 120.468,185.028 115.908,179.417 		"/>
		<path style="opacity:0.2;" d="M105.808,161.327l5.538,4.725c-0.229,0.902-0.406,1.816-0.47,2.705
			c-2.089-0.302-4.959-2.595-5.181-4.783C105.585,162.884,105.63,161.835,105.808,161.327z"/>
		<path style="fill:#FF8B7B;" d="M96.821,149.072c1.923,7.974,2.567,11.39,7.371,14.806c7.227,5.139,16.6,1.033,17.098-7.354
			c0.448-7.549-2.771-19.321-11.231-21.131C101.726,133.609,94.898,141.098,96.821,149.072z"/>
		<path style="fill:#263238;" d="M98.643,152.75c4.992-3,4.338-11.966,4.338-11.966c8.654-0.117,12.03,0.012,14.634,0.364
			c2.603,0.352,1.027-3.144-2.852-6.021c-3.878-2.877-14.295-2.044-17.545,3.456C93.218,140.167,89.4,149.25,98.643,152.75z"/>
		<g>
			<path style="fill:#407BFF;" d="M91.85,145.033c0,0,28.138-6.053,34.069-7.739c0.009-3.531-14.482,0.838-14.482,0.838
				L91.85,145.033z"/>
			<path style="fill:#407BFF;" d="M119.4,137.081c-0.539-1.956-4.692-12.047-18.966-7.931c-13.218,3.811-8.584,15.883-8.584,15.883
				L119.4,137.081z"/>
			<polygon style="fill:#407BFF;" points="109.719,128.834 104.71,127.578 98.96,128.601 99.029,129.611 102.799,130.22 			"/>
			<path style="opacity:0.4;" d="M109.64,138.911c-0.261,0-0.479-0.202-0.499-0.465c-0.021-0.302-0.632-7.401-9.559-8.775
				c-0.272-0.042-0.46-0.297-0.418-0.57c0.043-0.273,0.295-0.453,0.57-0.418c9.737,1.499,10.398,9.613,10.404,9.694
				c0.019,0.275-0.189,0.514-0.464,0.532C109.663,138.91,109.65,138.911,109.64,138.911z"/>
		</g>
		<g>
			<path style="opacity:0.2;" d="M122.561,307.141l-16.721-4.076c-0.456-3.554-0.884-7.332-1.293-11.222l18.405,3.22
				C122.803,299.38,122.673,303.465,122.561,307.141z"/>
			<path style="opacity:0.2;" d="M82.123,287.926l19.14,3.341c-0.875,3.489-1.722,6.867-2.521,10.059l-17.577-4.29
				C81.434,294.086,81.751,291.034,82.123,287.926z"/>
		</g>
		<path style="fill:#263238;" d="M110.927,149.159c0.116,0.656,0.558,1.127,0.987,1.051c0.429-0.076,0.683-0.67,0.566-1.326
			s-0.558-1.127-0.987-1.051S110.811,148.503,110.927,149.159z"/>
		<path style="fill:#263238;" d="M118.347,147.845c0.116,0.656,0.558,1.127,0.987,1.051c0.429-0.076,0.683-0.67,0.566-1.326
			c-0.116-0.656-0.558-1.127-0.987-1.051C118.484,146.595,118.23,147.189,118.347,147.845z"/>
		<path style="fill:#263238;" d="M118.73,146.589l1.496-0.734C120.226,145.855,119.635,147.23,118.73,146.589z"/>
		<path style="fill:#FF5652;" d="M116.586,149.32c0,0,1.614,2.629,3.082,3.775c-0.723,0.962-2.262,0.854-2.262,0.854L116.586,149.32
			z"/>
		<path style="fill:#263238;" d="M113.484,157.043c0.351,0,0.723-0.031,1.118-0.1c0.106-0.019,0.177-0.12,0.159-0.227
			c-0.019-0.106-0.118-0.177-0.227-0.159c-2.878,0.512-4.582-1.263-4.599-1.281c-0.074-0.079-0.198-0.083-0.276-0.009
			c-0.079,0.074-0.083,0.198-0.009,0.277C109.713,155.613,111.084,157.043,113.484,157.043z"/>
		<path style="fill:#FF8B7B;" d="M95.706,153.619c0.641,1.575,1.95,2.706,3.247,3.228c1.95,0.785,3.155-0.904,2.806-2.865
			c-0.314-1.765-1.708-4.3-3.758-4.249C95.981,149.783,94.973,151.818,95.706,153.619z"/>
		<path style="fill:#263238;" d="M107.661,146.169c0.103-0.009,0.203-0.059,0.272-0.146c1.086-1.367,2.521-1.25,2.538-1.248
			c0.213,0.018,0.406-0.138,0.426-0.354c0.02-0.215-0.138-0.406-0.354-0.426c-0.075-0.007-1.876-0.156-3.224,1.541
			c-0.134,0.169-0.106,0.415,0.063,0.55C107.465,146.15,107.565,146.178,107.661,146.169z"/>
		<path style="fill:#263238;" d="M119.734,143.743c0.091-0.033,0.17-0.101,0.217-0.195c0.095-0.194,0.015-0.429-0.179-0.524
			c-1.943-0.955-3.508-0.05-3.574-0.01c-0.186,0.111-0.247,0.351-0.136,0.536c0.11,0.186,0.35,0.246,0.536,0.137
			c0.061-0.036,1.284-0.721,2.829,0.039C119.526,143.776,119.637,143.779,119.734,143.743z"/>
		<path style="fill:#263238;" d="M111.311,147.903l1.496-0.734C112.807,147.169,112.216,148.544,111.311,147.903z"/>
		<path style="fill:#263238;" d="M126.22,231.697l-1.442,69.628l-44.888-6.395c-1.796-36.414,4.497-55.519,11.243-63.233
			L126.22,231.697z"/>
		<polygon style="opacity:0.2;" points="114.442,272.444 103.754,259.583 103.754,249.428 		"/>
		<path style="fill:#FF8B7B;" d="M91.276,185.973c-1.339,4.007-2.627,8.173-3.847,12.271c-1.197,4.116-2.303,8.26-3.168,12.365
			c-0.406,2.05-0.815,4.103-1.026,6.091l-0.048,0.376l-0.024,0.188c-0.007,0.058-0.004,0.017-0.01,0.03
			c-0.015,0.003-0.03,0.01-0.037,0.039c-0.021,0.05-0.005,0.194,0.069,0.407c0.161,0.433,0.613,1.059,1.207,1.658
			c1.189,1.234,2.849,2.42,4.57,3.515c1.721,1.097,3.612,2.158,5.43,3.11l-1.282,3.985c-2.333-0.446-4.502-1.057-6.714-1.888
			c-2.194-0.853-4.37-1.86-6.521-3.471c-1.061-0.828-2.143-1.812-3.077-3.283c-0.459-0.743-0.869-1.623-1.084-2.653
			c-0.111-0.509-0.172-1.051-0.171-1.595l0.007-0.38l0.015-0.221l0.03-0.442c0.069-1.186,0.163-2.36,0.309-3.502
			c0.111-1.163,0.307-2.282,0.477-3.417c0.715-4.514,1.78-8.87,2.932-13.191c0.572-2.161,1.188-4.305,1.865-6.429
			c0.67-2.137,1.344-4.226,2.132-6.381L91.276,185.973z"/>
		<g>
			<polygon style="fill:#FAFAFA;" points="117.26,213.671 111.858,209.675 99.489,228.187 85.404,245.43 90.805,249.426 
				103.175,230.914 			"/>
			<path style="fill:#E6E6E6;" d="M111.854,209.676c1.285,2.032,3.088,3.365,5.407,4
				C115.975,211.644,114.172,210.311,111.854,209.676z"/>
			<path style="fill:#E6E6E6;" d="M85.401,245.428c1.286,2.032,3.088,3.365,5.407,4C89.523,247.396,87.72,246.063,85.401,245.428z"
				/>
		</g>
		<path style="fill:#FF8B7B;" d="M93.507,225.719l8.909,0.586l-5.826,6.057c0,0-5.125-1.379-5.904-4.725L93.507,225.719z"/>
		<path style="fill:#FF8B7B;" d="M105.309,230.99l-2.505,3.539c-0.459,0.648-1.332,0.844-2.024,0.456l-5.462-3.068l7.098-5.61
			l2.717,2.687C105.673,229.526,105.747,230.371,105.309,230.99z"/>
		<path style="fill:#263238;" d="M94.113,184.375c-0.629-3.862-3.526-6.15-7.234-7.402c-5.459,3.95-8.13,17.008-11.15,32.216
			c-0.18,0.908,0.309,1.821,1.163,2.177c2.388,0.995,4.424,1.964,5.795,2.646c1.014,0.505,2.238,0.034,2.662-1.016l9.759-24.213
			L94.113,184.375z"/>
		<path style="fill:#263238;" d="M134.118,414.612c-0.831-0.695-2.163-1.27-3.341-1.686h0.003c0,0-5.923-3.343-9.006-13.399
			l-6.845-1.711c-0.723-0.181-1.443,0.309-1.531,1.049c-0.065,0.542-0.104,1.16-0.174,1.662c-0.128,0.932-0.016,2.346,0.001,3.268
			c0.059,3.398,0.438,11.037,0.438,11.037h0.795c0,0,0.025-4.697,0.421-6.935c0.396-2.238,1.976,0.412,2.862,2.944
			c0.887,2.533,4.446,5.233,9.622,5.359C133.421,416.349,135.877,416.085,134.118,414.612z"/>
	</g>
</g>
</svg>
