<?xml version="1.0" encoding="utf-8"?>
<!-- Generator: Adobe Illustrator 27.5.0, SVG Export Plug-In . SVG Version: 6.00 Build 0)  -->
<svg version="1.1" id="_x3C_Layer_x3E_" xmlns="http://www.w3.org/2000/svg" xmlns:xlink="http://www.w3.org/1999/xlink" x="0px"
	 y="0px" viewBox="0 0 2760 1840" style="enable-background:new 0 0 2760 1840;" xml:space="preserve">
<rect style="fill: transparent;" width="2760" height="1840"/>
<g>
	<g style="opacity:0.2;">
		<path style="fill:#ABC7F2;" d="M376.421,1714.592h2196.037c0,0,296.165-1035.724-603.193-744.15
			c-507.812,164.634-616.766-398.689-1023.789-327.909c-504.287,87.694-86.257,553.433-488.479,562.113
			C62.976,1213.151,243.033,1645.247,376.421,1714.592z"/>
	</g>
	<g id="rvXmsv_1_">
		<g>
			<path style="fill:#222041;" d="M610.423,1553.386l224.656,33.771h1432.056l178.797-18.794l-54.453-197.491l-276.891-94.122
				c0,0-1432.182,63.412-1430.738,70.458C685.296,1354.255,610.423,1553.386,610.423,1553.386z"/>
		</g>
		<g>
			<path style="fill:#FFCA87;" d="M2551.692,1390.71l-15.883,156.081c-2.133,20.95-18.212,37.438-38.482,39.458l-86.75,8.596
				c-11.708,1.159-21.238-9.364-19.559-21.42c11.027-79.027-29.285-159.416-104.585-195.257
				c-83.196-39.615-180.792-11.415-231.526,62.445c-5.779,8.393-10.936,17.396-15.399,26.948
				c-20.421,43.655-22.659,91.256-9.802,134.097c4.644,15.47-5.4,31.504-20.981,33.039l-13.084,1.3l-948.629-13.043
				c-12.222-0.172-20.889-12.385-17.38-24.505l0.076-0.251c25.216-86.449-16.881-180.429-103.405-220.028
				c-86.509-39.615-188.023-11.415-240.784,62.445c-6.005,8.393-11.375,17.396-16.019,26.948
				c-13.357,27.48-19.241,56.51-18.424,84.93c0.499,17.709-14.794,31.473-31.72,28.796l-156-24.646
				c-9.59-1.503-18.394-6.436-24.777-13.983c-37.65-44.579-42.626-89.706-42.203-112.942c0.181-9.552,3.464-18.774,9.167-26.275
				l35.335-46.426c5.476-7.203,8.456-16.096,8.456-25.257v-110.719c0-15.439,10.604-28.686,25.246-31.582l176.783-34.808
				c10.18-2.004,20.103-5.308,29.481-9.865c217.186-105.63,382.595-172.584,696.984-166.54
				c103.602,1.989,206.689,26.149,299.611,58.436c170.218,59.125,306.387,145.511,349.301,172.897
				c5.839,3.727,12.207,6.436,18.832,8.049c3.237,0.814,6.55,1.346,9.908,1.628c260.191,21.092,400.958,81.657,461.887,116.011
				h0.015c3.585,2.036,6.898,3.962,9.938,5.794C2544.19,1351.189,2553.735,1370.621,2551.692,1390.71z"/>
		</g>
		<g>
			<g>
				<path style="fill:#28264B;" d="M988.762,1619.551c-37.733,82.769-133.155,118.207-213.113,79.148
					c-79.958-39.059-114.18-137.828-76.447-220.596c3.854-8.454,8.307-16.424,13.3-23.854
					c43.771-65.379,128.001-90.356,199.792-55.286s106.727,118.258,85.8,194.796
					C995.728,1602.472,992.616,1611.097,988.762,1619.551z"/>
			</g>
			<g>
				<path style="fill:#454375;" d="M988.762,1619.551c-37.733,82.769-133.155,118.207-213.113,79.148
					c-79.958-39.059-114.18-137.828-76.447-220.596c3.854-8.454,8.307-16.424,13.3-23.854c48.889-8.582,106.742-0.319,162.35,26.845
					c55.608,27.164,98.562,68.145,123.243,112.665C995.728,1602.472,992.616,1611.097,988.762,1619.551z"/>
			</g>
			<g>
				<g>
					<path style="fill:#2F2D57;" d="M792.456,1661.842c-60.351-29.481-86.281-104.292-57.801-166.765
						c28.48-62.473,100.751-89.312,161.102-59.831c60.351,29.481,86.28,104.29,57.8,166.763
						C925.077,1664.482,852.807,1691.324,792.456,1661.842z"/>
				</g>
			</g>
			<g>
				<g>
					<path style="fill:#7783B1;" d="M962.035,1576.438c12.235-56.008-14.207-115.412-66.409-140.913
						c-60.342-29.476-132.628-2.63-161.103,59.832c-15.758,34.566-14.855,72.908-0.693,105.243c0.584,1.324,1.174,2.634,1.805,3.929
						c3.029,6.345,6.565,12.418,10.623,18.157c11.539,16.441,27.106,30.174,46.066,39.436c19.494,9.523,40.212,13.168,60.309,11.644
						c8.093-0.618,16.066-2.073,23.805-4.301c32.698-9.462,61.399-32.978,76.989-67.176
						C957.274,1593.85,960.122,1585.182,962.035,1576.438z M878.199,1654.155c-10.442,3.643-21.421,5.638-32.547,5.83
						c-15.936,0.284-32.155-3.103-47.517-10.608c-15.759-7.698-28.888-18.89-38.912-32.271c-1.903-2.54-3.7-5.166-5.376-7.872
						c-4.334-6.93-7.9-14.334-10.634-22.059c-9.592-26.986-9.145-57.795,3.624-85.804c2.737-6.004,5.923-11.634,9.516-16.873
						c6.51-9.511,14.321-17.729,23.043-24.497c26.639-20.68,61.868-27.953,94.956-17.833c5.225,1.6,10.392,3.622,15.467,6.101
						c5.075,2.479,9.881,5.329,14.396,8.487c28.671,20.065,45.653,52.965,47.067,87.504c0.323,7.62-0.124,15.315-1.37,22.965
						c-0.589,3.677-1.368,7.365-2.343,11.01c-1.612,6.104-3.76,12.136-6.451,18.041
						C928.146,1624.724,904.952,1644.854,878.199,1654.155z"/>
				</g>
			</g>
			<g>
				<path style="fill:#7783B1;" d="M957.791,1572.979c-1.618,3.659-5.418,5.941-9.457,5.371l-0.767-0.115l-68.151-9.778
					c-2.946-0.435-5.899,0.685-7.892,2.966c-0.449,0.508-0.905,0.995-1.368,1.461c-2.058,2.094-3.015,5.072-2.585,8.018
					l10.628,73.254l1.028,7.064c0.476,3.176-0.675,6.215-2.789,8.247c-1.293,1.221-22.489,4.753-23.805,4.301
					c-3.103-1.083-5.539-3.883-6.058-7.478l-0.923-6.303l-10.572-72.828c-0.448-3.162-2.461-5.791-5.266-7.161l-0.041-0.02
					c-0.479-0.234-0.957-0.468-1.41-0.723c-2.732-1.491-6.03-1.301-8.667,0.337l-60.474,37.516l-4.266,2.643
					c-2.377,1.471-5.18,1.677-7.608,0.802c-1.937-0.704-3.638-2.072-4.771-4.027l-6.942-11.996l-0.759-1.306
					c-0.485-0.843-0.823-1.718-1.046-2.623c-0.883-3.86,0.689-8.043,4.141-10.184l5.241-3.24l62.01-38.463
					c2.33-1.442,3.968-3.897,4.285-6.685c0.052-0.407,0.097-0.801,0.163-1.202c0.448-3.036-0.628-6.107-2.805-8.192l-50.403-48.013
					c-0.035-0.034-0.083-0.075-0.111-0.124c-3.555-3.503-3.75-9.312-0.416-13.067l10.156-11.418
					c3.368-3.792,9.08-4.031,12.743-0.545l0.56,0.533l50.327,47.958c2.163,2.043,5.131,2.87,7.993,2.242
					c0.465-0.102,0.937-0.183,1.408-0.264c2.932-0.524,5.448-2.447,6.713-5.222l30.47-66.838c2.124-4.659,7.5-6.656,12.001-4.457
					l13.557,6.622c4.501,2.198,6.429,7.764,4.306,12.423l-30.47,66.838c-1.259,2.761-1.127,5.994,0.359,8.642
					c0.289,0.54,0.579,1.079,0.841,1.605c1.338,2.714,3.869,4.574,6.788,4.996l67.594,9.714l1.589,0.222
					c4.942,0.717,8.381,5.427,7.708,10.535l-2.072,15.367C958.39,1571.298,958.138,1572.18,957.791,1572.979z"/>
			</g>
			<g>
				<path style="fill:#8D9BC7;" d="M962.035,1576.438c-1.386-1.179-2.799-2.337-4.244-3.458c-2.548-2.006-5.175-3.913-7.881-5.754
					c-5.44-3.662-11.177-7.001-17.209-9.948c-63.57-31.054-138.152-8.93-176.898,48.948c-0.669,0.989-1.323,1.985-1.957,3.009
					c-2.323,3.627-4.479,7.404-6.498,11.318c-0.37,0.702-0.741,1.404-1.09,2.134c11.539,16.441,27.106,30.174,46.066,39.436
					c19.494,9.523,40.212,13.168,60.309,11.644c1.316,0.452,22.512-3.079,23.805-4.301c32.698-9.462,61.399-32.978,76.989-67.176
					C957.274,1593.85,960.122,1585.182,962.035,1576.438z M798.134,1649.378c-15.759-7.698-28.888-18.89-38.912-32.271
					l60.474-37.516c2.637-1.638,5.935-1.828,8.667-0.337c0.452,0.255,0.931,0.489,1.41,0.723l0.041,0.02
					c2.804,1.37,4.818,3.998,5.266,7.161l10.572,72.828C829.715,1660.269,813.496,1656.882,798.134,1649.378z M878.199,1654.155
					l-10.628-73.254c-0.43-2.946,0.526-5.924,2.585-8.018c0.463-0.466,0.92-0.953,1.368-1.461c1.993-2.281,4.946-3.401,7.892-2.966
					l68.151,9.778c-1.612,6.104-3.76,12.136-6.451,18.041C928.146,1624.724,904.952,1644.854,878.199,1654.155z"/>
			</g>
			<g>
				<ellipse style="fill:#595587;" cx="841.864" cy="1547.449" rx="20.368" ry="21.084"/>
			</g>
		</g>
		<g>
			<g>
				<path style="fill:#28264B;" d="M2353.603,1595.113c-24.695,87.88-113.549,138.404-198.445,112.841
					c-84.896-25.563-133.69-117.535-108.995-205.415c2.522-8.976,5.71-17.572,9.512-25.722
					c33.299-71.689,112.689-110.061,188.913-87.109c76.225,22.952,123.358,99.422,114.314,178.414
					C2357.889,1577.113,2356.125,1586.137,2353.603,1595.113z"/>
			</g>
			<g>
				<path style="fill:#454375;" d="M2353.603,1595.113c-24.695,87.88-113.549,138.404-198.445,112.841
					c-84.896-25.563-133.69-117.535-108.995-205.415c2.522-8.976,5.71-17.572,9.512-25.722
					c46.978-16.43,105.366-17.684,164.408,0.094s107.685,51.26,138.819,91.211
					C2357.889,1577.113,2356.125,1586.137,2353.603,1595.113z"/>
			</g>
			<g>
				<g>
					<path style="fill:#2F2D57;" d="M2166.159,1668.821c-64.078-19.295-101.045-88.957-82.406-155.287
						s85.936-104.595,150.014-85.301c64.078,19.295,101.044,88.955,82.405,155.285
						C2297.532,1649.848,2230.237,1688.116,2166.159,1668.821z"/>
				</g>
			</g>
			<g>
				<g>
					<path style="fill:#7783B1;" d="M2320.661,1556.885c3.578-57.302-31.556-111.666-86.981-128.355
						c-64.067-19.291-131.378,18.983-150.015,85.302c-10.313,36.701-3.599,74.419,15.297,104.047c0.778,1.212,1.56,2.41,2.379,3.587
						c3.954,5.773,8.37,11.196,13.248,16.203c13.893,14.359,31.351,25.389,51.482,31.45c20.698,6.232,41.711,6.461,61.327,1.686
						c7.898-1.927,15.551-4.661,22.856-8.12c30.854-14.665,55.628-42.559,65.832-78.868
						C2318.604,1574.856,2320.1,1565.832,2320.661,1556.885z M2249.669,1647.278c-9.759,5.297-20.298,9.054-31.258,11.053
						c-15.694,2.873-32.227,2.168-48.538-2.744c-16.732-5.038-31.397-13.955-43.329-25.538c-2.265-2.198-4.438-4.5-6.505-6.9
						c-5.332-6.139-9.979-12.87-13.852-20.054c-13.571-25.09-17.808-55.588-9.451-85.328c1.792-6.375,4.083-12.452,6.835-18.212
						c4.985-10.452,11.451-19.839,19.037-27.942c23.167-24.758,56.854-37.673,91.067-33.062c5.403,0.73,10.812,1.886,16.201,3.509
						c5.388,1.623,10.568,3.655,15.506,6.039c31.361,15.151,53.128,44.878,59.771,78.758c1.476,7.473,2.203,15.144,2.134,22.902
						c-0.024,3.727-0.232,7.496-0.642,11.254c-0.665,6.29-1.87,12.597-3.632,18.866
						C2294.526,1610.086,2274.677,1633.739,2249.669,1647.278z"/>
				</g>
			</g>
			<g>
				<path style="fill:#7783B1;" d="M2315.944,1554.16c-1.042,3.877-4.448,6.749-8.524,6.843l-0.775,0.011l-68.788,1.432
					c-2.976,0.05-5.722,1.637-7.344,4.214c-0.366,0.575-0.743,1.13-1.13,1.666c-1.715,2.403-2.207,5.5-1.335,8.339l21.62,70.614
					l2.088,6.809c0.952,3.059,0.277,6.247-1.502,8.598c-1.091,1.416-21.488,8.353-22.856,8.12c-3.228-0.564-6.06-2.934-7.118-6.4
					l-1.869-6.074l-21.499-70.202c-0.923-3.05-3.31-5.318-6.288-6.215l-0.044-0.013c-0.508-0.153-1.017-0.306-1.502-0.485
					c-2.925-1.027-6.153-0.304-8.508,1.743l-54.026,46.89l-3.811,3.304c-2.124,1.839-4.862,2.499-7.392,2.031
					c-2.02-0.38-3.908-1.454-5.323-3.201l-8.677-10.717l-0.948-1.166c-0.607-0.754-1.073-1.563-1.431-2.42
					c-1.458-3.668-0.541-8.056,2.543-10.731l4.683-4.053l55.398-48.075c2.082-1.803,3.327-4.494,3.217-7.299
					c-0.011-0.411-0.025-0.807-0.021-1.213c-0.019-3.072-1.548-5.929-4.014-7.634l-57.067-39.214
					c-0.039-0.028-0.093-0.061-0.128-0.104c-4.043-2.88-5.118-8.585-2.395-12.837l8.296-12.928c2.75-4.292,8.355-5.458,12.502-2.612
					l0.634,0.435l56.984,39.173c2.446,1.666,5.503,1.999,8.234,0.914c0.443-0.177,0.897-0.333,1.351-0.49
					c2.816-0.995,5.008-3.302,5.836-6.249l19.942-70.965c1.39-4.947,6.396-7.793,11.175-6.354l14.394,4.334
					c4.779,1.439,7.529,6.621,6.139,11.568l-19.942,70.965c-0.824,2.932-0.203,6.103,1.667,8.476
					c0.368,0.486,0.735,0.971,1.074,1.448c1.734,2.463,4.516,3.887,7.463,3.829l68.229-1.405l1.602-0.039
					c4.989-0.096,9.101,3.996,9.212,9.15l0.288,15.513C2316.281,1552.402,2316.166,1553.314,2315.944,1554.16z"/>
			</g>
			<g>
				<path style="fill:#8D9BC7;" d="M2320.661,1556.885c-1.548-0.939-3.119-1.852-4.717-2.725c-2.821-1.567-5.704-3.022-8.656-4.4
					c-5.928-2.731-12.101-5.095-18.506-7.024c-67.495-20.324-137.791,13.661-167.266,77.124c-0.51,1.086-1.005,2.176-1.476,3.29
					c-1.743,3.96-3.299,8.041-4.698,12.235c-0.259,0.754-0.518,1.507-0.752,2.285c13.893,14.359,31.351,25.389,51.482,31.45
					c20.698,6.232,41.711,6.461,61.327,1.686c1.368,0.232,21.765-6.704,22.856-8.12c30.854-14.665,55.628-42.559,65.832-78.868
					C2318.604,1574.856,2320.1,1565.832,2320.661,1556.885z M2169.874,1655.588c-16.732-5.038-31.397-13.955-43.329-25.538
					l54.026-46.89c2.355-2.047,5.583-2.771,8.508-1.743c0.486,0.179,0.994,0.332,1.502,0.485l0.044,0.013
					c2.978,0.897,5.365,3.165,6.288,6.215l21.499,70.202C2202.717,1661.204,2186.185,1660.499,2169.874,1655.588z
					 M2249.669,1647.278l-21.62-70.614c-0.872-2.839-0.38-5.936,1.335-8.339c0.387-0.536,0.763-1.091,1.13-1.666
					c1.622-2.577,4.368-4.164,7.344-4.214l68.788-1.432c-0.665,6.29-1.87,12.597-3.632,18.866
					C2294.526,1610.086,2274.677,1633.739,2249.669,1647.278z"/>
			</g>
			<g>
				<path style="fill:#595587;" d="M2178.025,1541.921c3.142-11.181,14.445-17.608,25.246-14.356
					c10.801,3.252,17.01,14.953,13.868,26.134c-3.142,11.181-14.445,17.608-25.246,14.356
					C2181.092,1564.803,2174.883,1553.102,2178.025,1541.921z"/>
			</g>
		</g>
		<g>
			<path style="fill:#6B699E;" d="M1918.285,1245.042l-104.221-3.836l-983.646-36.186c-25.594-0.955-35.139-35.231-13.916-50.075
				c77.281-54.052,236.624-136.806,501.111-151.242c254.065-13.857,439.228,88.391,540.092,164.379l0.015,0.016
				c30.661,23.111,53.548,43.78,68.19,58.013C1933.034,1233.032,1928.042,1245.402,1918.285,1245.042z"/>
		</g>
		<g style="opacity:0.5;">
			<path style="fill:#3A3866;" d="M1357.191,1002.43c0,0,3.405,132.206-9.835,221.606l79.044,2.908
				c0,0,7.139-144.639-16.101-223.235L1357.191,1002.43z"/>
		</g>
		<g>
			<path style="fill:#F9985A;" d="M1421.066,1566.177l-1.083-0.038c2.864-81.491,2.97-195.277-12.788-274.569
				c-9.401-47.309-20.101-59.886-20.207-60.007l0.813-0.717c0.445,0.505,11,12.917,20.458,60.513
				C1424.036,1370.754,1423.932,1484.629,1421.066,1566.177z"/>
		</g>
		<g style="opacity:0.4;">
			<path style="fill:#FFA550;" d="M2551.692,1390.71c-1111.435-181.65-2003.082-95.374-2102.357-84.789v-61.114
				c87.189-0.971,452.781-3.93,903.309,7.485c415.903,10.538,964.995,62.836,1164.725,82.973h0.015
				c3.585,2.036,6.898,3.962,9.938,5.794C2544.19,1351.189,2553.735,1370.621,2551.692,1390.71z"/>
		</g>
		<g>
			<path style="fill:#F9985A;" d="M1927.034,1575.065c-0.117,0.001-0.233,0-0.351-0.002l-789.77-13.049
				c-15.113-0.25-27.628-12.641-28.492-28.211c-6.504-117.321-83.449-176.309-116.23-196.225
				c-8.666-5.266-14.05-14.973-14.05-25.334v-96.669h1.085v96.669c0,9.985,5.184,19.336,13.529,24.407
				c32.927,20.006,110.216,79.257,116.749,197.092c0.832,15.004,12.88,26.946,27.427,27.186l789.77,13.048
				c10.461,0.194,19.165-7.786,20.318-18.51c13.916-129.269,5.048-231.338-26.355-303.37l0.994-0.434
				c19.733,45.265,30.712,103.004,32.632,171.616c1.66,59.357-4.044,112.353-6.192,132.304
				C1946.896,1566.75,1937.871,1575.065,1927.034,1575.065z"/>
		</g>
		<g>
			<path style="fill:#FFDEBD;" d="M2478.774,1354.45l-79.733-13.284c-5.961-0.993-11.365,3.772-11.365,10.023v20.201
				c0,26.214,20.024,47.736,45.33,48.722l69.824,2.72c9.296,0.362,16.592-8.162,15.124-17.671l-1.856-12.029
				C2513.03,1373.249,2497.979,1357.65,2478.774,1354.45z"/>
		</g>
		<g>
			<path style="fill:#F9985A;" d="M678.568,1451.543l-104.254-8.185c-13.443-1.788-25.617-8.674-34.31-19.395
				c-8.688-10.716-13.127-24.314-12.498-38.286l6.386-141.965l1.083,0.048l-6.386,141.965c-0.616,13.708,3.737,27.046,12.257,37.555
				c8.517,10.505,20.443,17.253,33.582,19.001l104.224,8.182L678.568,1451.543z"/>
		</g>
		<g>
			
				<rect x="527.916" y="1356.353" transform="matrix(0.1069 -0.9943 0.9943 0.1069 -1003.9034 1851.1772)" style="fill:#F9985A;" width="1.085" height="256.066"/>
		</g>
		<g>
			<ellipse style="fill:#2F2D57;" cx="1061.625" cy="1307.24" rx="38.474" ry="9.983"/>
		</g>
		<g>
			<ellipse style="fill:#2F2D57;" cx="1489.325" cy="1307.24" rx="38.474" ry="9.983"/>
		</g>
		<g>
			<path style="fill:#FFD4A1;" d="M1890.014,1234.539c0,11.117-8.034,19.561-19.685,25.148c-0.584,0.281-1.196,0.563-1.808,0.83
				c-10.835,4.799-24.443,7.262-37.562,7.262c-50.708,0-52.625-12.187-51.836-28.792c0.15-3.349,0.422-6.881,0.422-10.526
				c0-4.532,0-9.161,0.462-13.58c1.781-16.746,10.278-30.594,50.953-25.739C1859.168,1192.505,1890.014,1212.825,1890.014,1234.539z
				"/>
		</g>
		<g style="opacity:0.4;">
			<path style="fill:#FFA550;" d="M1868.521,1260.517c-10.835,4.799-24.443,7.262-37.562,7.262
				c-50.708,0-52.625-12.187-51.836-28.792C1796.687,1245.474,1832.209,1257.14,1868.521,1260.517z"/>
		</g>
		<g>
			<path style="fill:#FFDEBD;" d="M1870.329,1210.686c0,0-30.955-17.653-39.792-13.752c-8.837,3.901,29.623,31.429,39.792,31.034
				C1880.498,1227.573,1878.607,1215.079,1870.329,1210.686z"/>
		</g>
		<g>
			<path style="fill:#595587;" d="M2045.575,1217.625v0.016l-59.039,7.688c-7.321,0.955-14.582-2.004-19.423-7.782
				c-59.402-70.791-287.706-177.25-289.688-180.867h0.015c170.218,59.125,306.387,145.511,349.301,172.897
				C2032.581,1213.303,2038.949,1216.012,2045.575,1217.625z"/>
		</g>
		<g>
			<path style="fill:#FFDEBD;" d="M699.89,1383.072c0,0,71.987-51.823,141.083-46.376c69.096,5.447,118.509,43.027,128.593,32.588
				s-75.633-72.039-154.29-58.985C736.618,1323.354,665.179,1390.597,699.89,1383.072z"/>
		</g>
		<g>
			<path style="fill:#FFDEBD;" d="M2002.741,1457.517c0,0,31.508-75.93,102.825-97.705c0,0,16.878-14.276-13.116-11.927
				s-76.061,26.619-89.709,48.54C1989.092,1418.347,1983.868,1476.332,2002.741,1457.517z"/>
		</g>
		<g>
			<path style="fill:#FFDEBD;" d="M1893.196,1580.953c0,0-788.749-13.098-796.439-6.429c-7.691,6.668,360.892,8.756,443.583,11.888
				C1623.031,1589.543,1928.42,1588.52,1893.196,1580.953z"/>
		</g>
		<g>
			<path style="fill:#16152D;" d="M1387.935,1229.04l-1.081-0.084c4.767-61.25-5.719-224.264-5.825-225.904l1.083-0.07
				C1382.217,1004.623,1392.707,1167.715,1387.935,1229.04z"/>
		</g>
		<g>
			<path style="fill:#16152D;" d="M979.222,1208.458l-1.079-0.102c8.839-92.77,44.188-152.454,44.543-153.047l0.929,0.56
				C1023.261,1056.458,988.038,1115.95,979.222,1208.458z"/>
		</g>
	</g>
	<g>
		<g>
			<g>
				<path style="fill:#3F3D6B;" d="M1447.094,1714.592c-48.955,0-88.782-39.828-88.782-88.783v-30.565
					c0-10.169,8.243-18.411,18.411-18.411s18.411,8.243,18.411,18.411v30.565c0,28.651,23.309,51.96,51.959,51.96
					c28.651,0,51.96-23.309,51.96-51.96V78.29c0-10.169,8.243-18.411,18.411-18.411s18.411,8.243,18.411,18.411v1547.519
					C1535.877,1674.764,1496.049,1714.592,1447.094,1714.592z"/>
			</g>
		</g>
		<g>
			<g>
				<path style="fill:#F9496A;" d="M1519.238,117.347l-0.01,0.01l-268.266,503.166c-50.703-23.413-116.903-33.161-182.376-35.8
					c-128.727-5.186-254.682,17.133-254.682,17.133C903.659,122.553,1519.238,117.347,1519.238,117.347z"/>
			</g>
		</g>
		<g>
			<g>
				<path style="fill:#F9496A;" d="M2221.033,601.856c0,0-106.214-19.486-222.8-17.808c-71.61,1.033-147.139,10.055-204.368,36.475
					l-274.628-503.176C1519.238,117.347,2109.766,117.296,2221.033,601.856z"/>
			</g>
		</g>
		<g>
			<path style="fill:#E83F66;" d="M1519.228,117.357l-186.1,490.063c-51.439,6.485-82.166,13.103-82.166,13.103
				c-50.703-23.413-116.903-33.161-182.376-35.8c-1.647-0.051,28.804-118.607,130.333-264.831
				c113.983-164.161,313.824-200.028,320.094-202.453C1519.135,117.388,1519.207,117.357,1519.228,117.357z"/>
		</g>
		<g>
			<path style="fill:#E83F66;" d="M1998.233,584.048c-71.61,1.033-147.139,10.055-204.368,36.475l-274.628-503.176
				c0,0,190.826,22.741,339.067,212.142C1949.301,445.751,1967.72,530.433,1998.233,584.048z"/>
		</g>
		<g>
			<g>
				<path style="fill:#FF6576;" d="M1794.234,620.36c0,0.112,0,0.164,0,0.164c-0.082-0.021-0.174-0.031-0.256-0.051
					c-0.051-0.01-0.102-0.02-0.153-0.031c-123.572-25.51-244.945-28.231-341.482-23.444c-46.274,2.312-86.841,6.342-119.215,10.423
					c-51.439,6.485-82.166,13.103-82.166,13.103c-8.377-173.058,45.589-292.457,107.288-371.36c0.021-0.031,0.041-0.061,0.061-0.082
					c72.592-92.814,155.853-129.556,160.702-131.642c0.123-0.051,0.195-0.082,0.215-0.082l0.01-0.01
					C1795.492,216.871,1794.306,611.144,1794.234,620.36z"/>
			</g>
		</g>
		<g>
			<path style="fill:#FF536A;" d="M1452.343,596.997c-46.274,2.312-86.841,6.342-119.215,10.423
				c-51.439,6.485-82.166,13.103-82.166,13.103c-8.377-173.058,45.589-292.457,107.288-371.36
				C1353.329,256.763,1263.563,513.9,1452.343,596.997z"/>
		</g>
	</g>
	<g>
		<g>
			<g>
				<g>
					<path style="fill:#FFA68F;" d="M1335.566,1226.801c0,0,14.145,1.792,20.36,8.053c4.269,4.301,18.981,10.073,19.277,11.751
						c1.129,6.39-14.459-0.563-15.473,2.842c-0.692,2.323,10.474,20.629,13.322,26.054c1.505,2.865,0.773,8.661-6.618,0.536
						c-1.713-1.883-4.69-5.844-7.124-7.888c-1.54-1.294-3.272-1.82-1.661,2.052c2.014,4.841,11.28,19.168,7.456,20.444
						c-3.167,1.057-14.096-20.609-17.398-18.806c-1.766,0.964,6.545,19.644,4.05,20.833c-3.856,1.838-8.918-14.071-13.868-19.716
						c-5.241-5.977-2.926,10.886-5.477,11.006c-2.714,0.128-2.646-5.487-3.767-14.911c-0.964-8.111-7.9-17.144-7.782-23.833
						S1335.566,1226.801,1335.566,1226.801z"/>
				</g>
			</g>
			<g>
				<g>
					<path style="fill:#FFA68F;" d="M1309.654,1139.396c-3.788-7.98-26.389-99.048-21.05-107.041
						c8.514-12.744-78.78-14.563-67.946,10.519c13.914,32.212,26.003,100.778,46.974,128.993c0,0,51.389,61.241,53.231,73.353
						c0.409,2.689,32.378-12.632,27.198-15.16C1339.842,1226.049,1309.654,1139.396,1309.654,1139.396z"/>
				</g>
			</g>
		</g>
		<g>
			<g>
				<g>
					<polygon style="fill:#29274F;" points="1080.917,1654.93 1076.948,1658.371 1060.562,1639.472 1066.357,1630.637 					"/>
				</g>
				<g>
					<path style="fill:#383463;" d="M1131.678,1624.495c0,0-14.981,25.34-11.962,41.492c2.435,13.025,15.994,30.195,9.764,43.309
						c-1.387,2.919-5.33,3.515-7.365,1.167l-38.447-44.343c0,0-9.307-20.193-17.049-26.819
						c-7.742-6.625,11.804-22.937,20.798-26.924c8.994-3.987,19.584-16.345,19.584-16.345L1131.678,1624.495z"/>
				</g>
			</g>
			<g>
				<path style="fill:#FF6576;" d="M1104.75,1589.832c1.666,14.893,14.418,28.566,21.198,34.876
					c2.322,2.161,5.907,2.207,8.301,0.126c26.714-23.222,175.298-153.928,179.337-191.705c4.446-41.521-7.316-255.434-12.82-265.582
					c-5.496-10.156-5.68-58.922-5.68-58.922l-70.517,33.701c0,0-72.215,117.664-33.101,149.174
					c15.256,12.287,27.581,31.89,36.945,51.219c7.369,15.233,12.904,30.299,16.573,41.498c3.616,11.024,5.428,18.294,5.428,18.294
					s-48.601,26.462-58.946,61.854C1181.13,1499.765,1104.75,1589.832,1104.75,1589.832z"/>
			</g>
			<g>
				<g>
					<polygon style="fill:#29274F;" points="1189.108,1707.32 1189.108,1712.573 1164.094,1712.573 1161.215,1702.406 					"/>
				</g>
				<g>
					<path style="fill:#383463;" d="M1199.365,1649.03c0,0,9.332,27.919,23.514,36.219c11.436,6.693,33.292,7.696,39.119,20.995
						c1.297,2.96-0.836,6.329-3.943,6.329h-58.689c0,0-21.354-6.196-31.432-4.687c-10.077,1.509-9.598-23.944-6.718-33.351
						c2.879-9.407,0.48-25.504,0.48-25.504H1199.365z"/>
				</g>
			</g>
			<g>
				<path style="fill:#FF6576;" d="M1258.578,1117.092c-2.652,5.191-3.791,57.212-44.189,318.382
					c-15.021,97.113-11.73,217.965-11.73,217.965s-23.537,10.863-41.551,1.449c0,0-18.33-103.425-23.373-134.692
					c-5.043-31.267,6.052-62.533,10.086-76.653c3.278-11.473-33.576-110.33-20.726-219.937
					c5.082-43.347,54.963-97.554,75.161-109.154L1258.578,1117.092z"/>
			</g>
			<g>
				<g>
					<path style="fill:#F1455E;" d="M1168.423,1428.481c-0.698,7.456,15.068,11.842,9.194,20.006
						c-1.501,2.086-4.065,3.175-6.121,4.599c-2.957,2.048-5.625,4.513-7.985,7.224c-4.653,5.345-8.058,11.745-10.353,18.426
						c-5.393,15.707-4.349,32.549-1.532,48.664c3.001,17.168,7.228,34.15,10.824,51.201c4.15,19.679,8.139,39.391,11.978,59.133
						c0.308,1.585-2.122,2.264-2.432,0.67c-6.84-35.178-14.995-70.091-21.857-105.255c-5.247-26.887-6.466-60.26,16.73-79.674
						c2.574-2.154,7.073-3.876,8.754-6.733c1.692-2.876-0.825-5.217-2.812-7.158c-3.115-3.043-7.365-6.24-6.91-11.104
						C1166.052,1426.88,1168.575,1426.864,1168.423,1428.481L1168.423,1428.481z"/>
				</g>
			</g>
			<g>
				<g>
					<path style="fill:#F1455E;" d="M1165.286,1197.348c-9.205,12.371-11.02,27.875-11.457,42.859
						c-0.472,16.178-0.393,32.427-0.035,48.607c0.734,33.177,3.806,66.81,15.162,98.224c2.679,7.41,6.736,14.731,7.719,22.639
						c0.406,3.269,0.181,6.63-1.297,9.62c-1.763,3.567-6.001,5.625-7,9.52c-0.403,1.571-2.836,0.905-2.432-0.67
						c0.719-2.804,2.573-4.459,4.527-6.483c3.24-3.356,4.264-7.232,3.676-11.823c-0.959-7.493-4.827-14.469-7.39-21.49
						c-5.702-15.617-9.381-31.907-11.704-48.352c-4.593-32.508-4.586-65.8-3.779-98.567c0.388-15.777,2.126-32.311,11.834-45.357
						C1164.067,1194.788,1166.257,1196.044,1165.286,1197.348L1165.286,1197.348z"/>
				</g>
			</g>
			<g style="opacity:0.6;">
				<path style="fill:#F1455E;" d="M1228.413,1342.719c7.369,15.233,12.904,30.299,16.573,41.498c0,0,17.555-23.059,2.916-48.935
					s26.181-87.525,12.713-107.341C1260.616,1227.94,1229.479,1299.912,1228.413,1342.719z"/>
			</g>
			<g>
				<g>
					<path style="fill:#F1455E;" d="M1271.611,1400.896c-9.055-1.241-17.993,0.486-25.954,4.971
						c-0.534,0.301-1.014-0.521-0.48-0.822c8.202-4.621,17.364-6.345,26.687-5.067
						C1272.468,1400.061,1272.211,1400.978,1271.611,1400.896L1271.611,1400.896z"/>
				</g>
			</g>
			<g>
				<g>
					<path style="fill:#F1455E;" d="M1222.015,1174.157c-6.287,7.48-13.879,14.011-22.903,17.941
						c-10.461,4.556-22.222,4.347-33.429,4.336c-1.224-0.001-1.227-1.904,0-1.903c10.932,0.011,22.493,0.27,32.69-4.186
						c8.804-3.848,16.161-10.233,22.296-17.534C1221.458,1171.873,1222.798,1173.225,1222.015,1174.157L1222.015,1174.157z"/>
				</g>
			</g>
			<g>
				<g>
					<path style="fill:#F1455E;" d="M1271.78,1223.033c-12.255,3.244-15.226,16.71-18.863,27.112
						c-3.154,9.023-6.312,18.046-9.173,27.167c-6.73,21.456-11.327,43.395-14.413,65.66c-0.168,1.208-2.002,0.694-1.835-0.506
						c3.276-23.632,8.316-46.835,15.65-69.544c3.177-9.838,6.653-19.576,10.05-29.339c3.294-9.467,7.346-19.545,18.078-22.385
						C1272.459,1220.884,1272.964,1222.719,1271.78,1223.033L1271.78,1223.033z"/>
				</g>
			</g>
			<g>
				<g>
					<path style="fill:#F1455E;" d="M1216.065,1427.867c2.028,9.622-1.08,18.796-3.963,27.9
						c-3.478,10.982-4.751,22.155-5.627,33.606c-1.739,22.719-1.526,45.526-2.369,68.283c-0.022,0.61-0.974,0.614-0.951,0
						c0.824-22.254,0.647-44.551,2.256-66.771c0.742-10.25,1.489-20.727,4.328-30.648c3.004-10.497,7.755-20.988,5.409-32.118
						C1215.022,1427.523,1215.939,1427.267,1216.065,1427.867L1216.065,1427.867z"/>
				</g>
			</g>
			<g>
				<g>
					<path style="fill:#4B83DB;" d="M1141.957,1543.261c2.239,11.719,4.176,23.545,6.816,35.181
						c1.895,8.354,2.796,16.363,3.726,24.877c0.066,0.608-0.886,0.603-0.952,0c-0.472-4.319-0.742-8.661-1.251-12.976
						c-0.523-4.432-1.795-8.65-2.739-13c-2.433-11.215-4.364-22.557-6.518-33.829
						C1140.925,1542.915,1141.842,1542.659,1141.957,1543.261L1141.957,1543.261z"/>
				</g>
			</g>
		</g>
		<g>
			<g>
				<path style="fill:#6D2F3B;" d="M1737.391,735.267c0,0-3.334,20.637-1.251,26.683c2.083,6.046,9.086-24.101,9.086-24.101
					L1737.391,735.267z"/>
			</g>
		</g>
		<g>
			<g>
				<path style="fill:#6D2F3B;" d="M1315.039,895.521c0,0-2.3,4.333-6.776,8.795c-1.541-6.61-4.765-17.529-10.431-25.026
					c0.317,0.657,8.053,16.805,3.233,30.687c-5.348,3.176-12.193,5.138-20.453,3.411c-22.445-4.695-38.418-1.87-38.418-1.87
					l-15.121-138.648c0,0,26.484-4.534,45.225,12.271c18.741,16.805,23.911,42.485,20.792,59.638
					C1289.97,861.93,1310.171,866.156,1315.039,895.521z"/>
			</g>
		</g>
		<g>
			<g>
				<path style="fill:#FABBA5;" d="M1202.256,925.862c0,0,17.422,18.533,43.771,11.31c0,0-0.917-13.204,0.642-25.857
					c0.683-5.525,1.836-10.945,3.746-15.119c0.292-0.642,0.605-1.255,0.933-1.832c7.367-12.917-37.516-31.599-37.847-31.734
					c0.096,0.204,3.247,6.763,3.402,16.733c0.035,2.057-0.06,4.259-0.335,6.581c-0.3,2.521-0.81,5.182-1.602,7.949
					C1209.851,911.765,1202.256,925.862,1202.256,925.862z"/>
			</g>
		</g>
		<g>
			<g>
				<path style="fill:#ED938B;" d="M1216.902,879.363c0.035,2.057-0.06,4.259-0.335,6.581c7.669,14.013,29.736,25.187,30.101,25.371
					c0.683-5.525,1.836-10.945,3.746-15.119C1240.586,889.918,1222.937,879.235,1216.902,879.363z"/>
			</g>
		</g>
		<g>
			<g>
				<path style="fill:#FABBA5;" d="M1221.719,885.095c24.178,14.756,45.849,11.256,50.964,9.074
					c5.118-2.186,4.725-6.966,11.027-20.225c4.341-9.14,4.749-17.334,3.355-23.303c-0.626-2.693-1.621-4.931-2.786-6.6
					c-0.365-0.524-0.67-1.005-0.921-1.458c-2.363-4.204-0.354-5.84-0.829-13.537c-0.111-1.798-0.97-4.029-2.254-6.432
					c-0.573-1.067-1.227-2.171-1.939-3.282c-5.272-8.237-13.633-17.049-13.633-17.049c-39.382-21.459-63.689,11.246-64.736,25.534
					C1198.921,842.102,1197.544,870.339,1221.719,885.095z"/>
			</g>
		</g>
		<g>
			<g>
				<path style="fill:#752D4B;" d="M1227.808,829.789c0,0,3.031-10.033,21.328-7.029c10.878,1.786,9.73,6.908,3.59,6.707
					C1246.587,829.266,1244.226,823.635,1227.808,829.789z"/>
			</g>
		</g>
		<g>
			<g>
				<path style="fill:#752D4B;" d="M1274.313,827.674c2.331-0.719,4.223-3.771,5.962-5.059c-0.573-1.067-1.227-2.171-1.939-3.282
					c-0.754,0.098-1.601,0.385-2.551,0.917C1269.233,823.94,1270.421,828.884,1274.313,827.674z"/>
			</g>
		</g>
		<g>
			<g>
				<path style="fill:#752D4B;" d="M1270.697,840.912c0.162,2.786,3.363-5.826,6.014-6.696c2.428-0.797,5.674,0.456,7.768-0.929
					c0.537-0.355,0.2-1.193-0.436-1.096c-1.109,0.169-2.667,0.229-4.409-0.227C1276.214,831.069,1270.255,833.292,1270.697,840.912z
					"/>
			</g>
		</g>
		<g>
			<g>
				<path style="fill:#752D4B;" d="M1273.427,838.279c0.703,0.885,1.779,1.462,2.906,1.386c1.127-0.076,2.175-0.642,3.033-1.377
					c1.03-0.881,1.632-2.309,1.055-3.536c-0.357-0.758-0.708-1.488-0.708-1.488l-3.22-0.568l-1.164,0.765l-1.032,2.425l-0.707,0.645
					C1273.589,836.53,1273.01,837.754,1273.427,838.279z"/>
			</g>
		</g>
		<g>
			<g>
				<path style="fill:#EF9F8A;" d="M1255.29,839.715c0,0-2.396-6.933-5.99-8.846c-3.594-1.913-14.248-0.724-15.997,1.641
					c-1.749,2.364-1.988,6.147-1.988,6.147S1243.537,828.998,1255.29,839.715z"/>
			</g>
		</g>
		<g>
			<g>
				<path style="fill:#752D4B;" d="M1242.037,839.382c0.283,2.439,2.489,4.186,4.928,3.903s4.186-2.489,3.903-4.928
					c-0.093-0.802-0.393-1.526-0.844-2.131c-0.432-0.587-1.007-1.06-1.667-1.371c-1.669,0.18-3.301,0.407-4.826,0.665
					c-0.812,0.708-1.354,1.698-1.489,2.8C1241.998,838.665,1241.995,839.019,1242.037,839.382z"/>
			</g>
		</g>
		<g>
			<g>
				<path style="fill:#752D4B;" d="M1231.433,839.671c0.589,1.881,3.913,0.446,5.774-0.198c0.451-0.157,0.899-0.33,1.34-0.513
					c1.38-0.572,2.732-1.217,4.168-1.623c1.24-0.353,2.528-0.506,3.813-0.469c3.836,0.104,7.645,1.864,10.069,4.854
					c-0.132-0.211-4.329-8.492-13.676-8.413C1236.128,833.366,1231.005,838.311,1231.433,839.671z"/>
			</g>
		</g>
		<g style="opacity:0.2;">
			<g>
				<g>
					<path style="fill:#ED4C62;" d="M1225.029,850.658c2.694-2.362,6.758-3.444,10.559-2.811c2.084,0.347,4.169,0.694,6.253,1.041
						c4.097,0.682,8.451,1.472,11.043,4.048c0.744,0.739,1.244,1.628,1.314,2.589c0.175,2.392-2.18,3.592-4.449,4.409
						c-6.104,2.199-13.066,2.734-19.345,1.487c-1.002-0.199-2.001-0.456-2.964-0.772
						C1222.461,859.013,1221.25,853.971,1225.029,850.658L1225.029,850.658z"/>
				</g>
			</g>
		</g>
		<g style="opacity:0.2;">
			<g>
				<g>
					<path style="fill:#ED4C62;" d="M1276.791,850.124c0.224,1.586,1.257,2.086,2.215,2.346c2.57,0.697,5.264,0.202,7.481-1.378
						c0.196-0.137,0.388-0.288,0.578-0.452c-0.626-2.693-1.621-4.931-2.786-6.6c-0.365-0.524-0.67-1.005-0.921-1.458
						c-0.164,0.07-0.323,0.156-0.476,0.254c-0.744,0.481-1.49,0.962-2.234,1.443c-1.462,0.942-3.01,1.988-3.678,3.988
						C1276.78,848.844,1276.7,849.487,1276.791,850.124z"/>
				</g>
			</g>
		</g>
		<g>
			<g>
				<path style="fill:#EF9F8A;" d="M1270.466,829.886c-3.158,2.079-4.202,5.985-3.48,9.583c0.883,4.403,4.22,7.827,7.274,10.882
					c1.433,1.434,3.406,3.422,2.301,5.612c-1.234,2.448-5.316,3.779-7.684,4.558c-0.51,0.168-0.827-0.608-0.314-0.776
					c1.98-0.651,4.47-1.498,6.038-2.91c3.231-2.909-0.49-5.392-2.363-7.336c-2.097-2.177-4.076-4.537-5.267-7.344
					c-1.883-4.435-1.27-10.131,2.993-12.938C1270.411,828.92,1270.916,829.589,1270.466,829.886L1270.466,829.886z"/>
			</g>
		</g>
		<g>
			<g>
				<path style="fill:#FF676D;" d="M1254.889,869.221c0.909,2.366,4.584,10.174,13.596,10.452c8.86,0.28,8.524-9.183,8.439-11.854
					c-0.022-0.535-0.06-0.86-0.06-0.86c-0.008,0.001-0.009-0.007-0.009-0.007c-0.154-0.151-2.542-2.401-4.83-2.409
					c-0.9-0.008-1.791,0.336-2.514,1.295c-0.015,0.01-0.014,0.018-0.014,0.018s-3.255-1.974-5.493,0.036
					c-1.985,1.771-5.617,3.397-8.325,2.948c-0.008,0.001-0.024-0.005-0.032-0.004c-0.131-0.025-0.271-0.049-0.404-0.09
					c-0.05,0.054-0.092,0.107-0.126,0.159C1255.032,869.004,1254.957,869.117,1254.889,869.221z"/>
			</g>
		</g>
		<g>
			<g>
				<path style="fill:#FF8091;" d="M1264.589,875.23l0.258-0.063c1.269,0.343,2.559,0.689,3.873,0.663
					c0.497-0.01,1.008-0.072,1.479,0.085s0.891,0.623,0.789,1.109c-0.098,0.47-0.605,0.725-1.068,0.851
					c-1.503,0.41-3.117,0.172-4.592-0.331c-0.549-0.187-1.144-0.469-1.334-1.016C1263.824,876.033,1264.101,875.425,1264.589,875.23
					z"/>
			</g>
		</g>
		<g style="opacity:0.2;">
			<g>
				<g>
					<path style="fill:#FF6576;" d="M1273.885,856.091c-2.311,0.634-4.443,1.602-6.421,2.958c-0.889,0.609-1.897-0.729-1.006-1.339
						c2.092-1.433,4.352-2.501,6.799-3.172C1274.285,854.256,1274.923,855.807,1273.885,856.091L1273.885,856.091z"/>
				</g>
			</g>
		</g>
		<g>
			<g>
				<path style="fill:#FFFFFF;" d="M1255.249,868.73c0.132,0.033,0.265,0.074,0.398,0.106c0.008-0.001,0.025,0.005,0.033,0.004
					c8.811,2.204,21.177-1.888,21.177-1.888s-0.627,5.803-6.499,7.552c-5.103,1.531-13.222-4.115-15.24-5.599
					c0.034-0.052,0.076-0.105,0.126-0.159L1255.249,868.73z"/>
			</g>
		</g>
		<g>
			<g>
				<g>
					<path style="fill:#F13A56;" d="M1255.767,868.45c-0.571,0.578-1.016,1.278-1.348,2.018c-0.104,0.233-0.468,0.074-0.364-0.16
						c0.344-0.769,0.807-1.504,1.4-2.105C1255.634,868.023,1255.947,868.268,1255.767,868.45L1255.767,868.45z"/>
				</g>
			</g>
		</g>
		<g>
			<g>
				<g>
					<path style="fill:#F13A56;" d="M1277.009,866.007c-0.189,0.624,0.086,1.266,0.625,1.609c0.215,0.137-0.033,0.447-0.247,0.311
						c-0.702-0.446-0.98-1.295-0.742-2.079C1276.719,865.603,1277.082,865.764,1277.009,866.007L1277.009,866.007z"/>
				</g>
			</g>
		</g>
		<g>
			<g>
				<path style="fill:#FABBA5;" d="M1204.12,1086.31c-14.84-62.212-30.26-127.723-16.156-138.173
					c14.105-10.45-5.118-15.329,8.123-28.645c13.241-13.315,8.833-10.258,40.389-4.927c0.19,0.032,0.379,0.065,0.568,0.097
					c19.722,3.429,36.022,21.32,47.128,37.974c11.077,16.609,25.941,32.048,28.827,41.267c7.646,24.425-4.484,33.654-4.484,33.654
					s-17.212,44.87-16.504,64.189c0.207,5.632-2.703,30.367-2.703,30.367l-68.806,4.72c-13.055,0.896-22.398-11.894-18.1-24.254
					C1204.348,1096.98,1205.303,1091.271,1204.12,1086.31z"/>
			</g>
		</g>
		<g>
			<g>
				<path style="fill:#75ACF2;" d="M1315.796,1020.045c-3.028,4.891-6.924,7.284-7.263,7.496c0,0.021-0.021,0.021-0.021,0.021
					s0,0,0,0.021c-0.021,0.466-2.075,12.938-5.421,29.094c0,0,0,0,0,0.021c-2.266,10.968-5.124,23.63-8.343,35.382
					c-0.021,0.085-0.042,0.191-0.063,0.297c-0.148,0.995-0.191,3.324-0.191,6.373c0.064,11.498,1.038,33.328,1.059,33.434
					c0.466,2.351-0.847,5.019-3.663,7.453c-8.533,7.39-30.851,12.387-58.102-1.821c-16.686-8.681-48.15-7.75-50.183-10.015
					c-6.945-7.771,15.627-27.971,17.532-38.876c0.254-1.376,0.212-2.583-0.169-3.578c-3.473-8.83-28.691-81.712-32.1-115.675
					c-2.985-29.623,25.748-49.992,27.209-50.183c4.51-0.572,74.914,59.987,80.864,48.404c5.971-11.561-24.71-47.049-25.578-48.065
					c0.529,0.212,17.532,7.707,28.564,20.37c11.625,13.34,21.682,27.865,32.417,45.461
					C1322.444,1002.195,1319.925,1013.397,1315.796,1020.045z"/>
			</g>
		</g>
		<g style="opacity:0.2;">
			<g>
				<g>
					<path style="fill:#FF6576;" d="M1273.693,883.36c-2.901-0.676-5.724-0.41-8.441,0.812c-0.985,0.443-1.609-1.112-0.629-1.553
						c2.962-1.333,6.162-1.652,9.325-0.915C1274.991,881.948,1274.746,883.606,1273.693,883.36L1273.693,883.36z"/>
				</g>
			</g>
		</g>
		<g>
			<g>
				<path style="fill:#6388EE;" d="M1291.89,1139.637c-7.517-7.305-13.594-19.226-13.276-28.013
					c0.55-14.356-29.115-21.958-39.68-47.049c6.86,0.72,59.034,15.754,55.815,27.505c-0.021,0.085-0.042,0.191-0.063,0.297
					c-0.403,1.63-0.403,3.854-0.191,6.373c0.064,11.498,1.038,33.328,1.059,33.434
					C1296.019,1134.534,1294.706,1137.202,1291.89,1139.637z"/>
			</g>
		</g>
		<g>
			<g>
				<g>
					<path style="fill:#FF4F67;" d="M1262.79,1031.904c-4.055,4.676-10.299,5.62-16.165,5.993
						c-5.811,0.37-12.074,0.511-16.975-3.109c-0.732-0.54,0.108-1.675,0.84-1.134c4.579,3.382,10.51,3.19,15.927,2.848
						c5.427-0.343,11.463-1.083,15.239-5.437C1262.248,1030.381,1263.386,1031.216,1262.79,1031.904L1262.79,1031.904z"/>
				</g>
			</g>
		</g>
		<g>
			<g>
				<g>
					<path style="fill:#6388EE;" d="M1202.875,1084.339c4.219,2.931,8.833,5.068,13.788,6.416c0.875,0.238,0.344,1.547-0.525,1.31
						c-5.068-1.379-9.79-3.596-14.103-6.592C1201.288,1084.954,1202.129,1083.82,1202.875,1084.339L1202.875,1084.339z"/>
				</g>
			</g>
		</g>
		<g>
			<g>
				<g>
					<path style="fill:#6388EE;" d="M1202.923,1084.776c0.717,3.359,1.97,6.477,3.742,9.414c0.469,0.777-0.828,1.339-1.291,0.572
						c-1.84-3.051-3.104-6.297-3.848-9.778C1201.337,1084.095,1202.734,1083.891,1202.923,1084.776L1202.923,1084.776z"/>
				</g>
			</g>
		</g>
		<g>
			<g>
				<g>
					<path style="fill:#6D2F3B;" d="M1226.815,779.333c-25.879-1.523-54.301,4.165-70.784,25.98
						c-3.685,4.876-6.442,10.361-8.163,16.225c-1.95,6.645-2.41,13.512-3.787,20.265c-2.983,14.623-17.55,20.139-28.703,27.707
						c-5.165,3.505-10.05,7.609-13.316,13.008c-3.86,6.381-5.054,13.855-5.204,21.202c-0.012,0.576,0.884,0.72,0.896,0.138
						c0.14-6.845,1.157-13.798,4.501-19.874c3-5.451,7.733-9.625,12.779-13.139c8.931-6.221,21.385-10.963,27.077-20.763
						c2.939-5.06,3.34-11.086,4.209-16.744c1.041-6.776,2.507-13.513,5.588-19.685c5.611-11.24,15.512-20.034,26.704-25.518
						c14.863-7.282,31.743-8.867,48.066-7.907C1227.254,780.263,1227.397,779.368,1226.815,779.333L1226.815,779.333z"/>
				</g>
			</g>
		</g>
		<g>
			<g>
				<path style="fill:#6D2F3B;" d="M1247.901,804.147c0,0,16.714-3.248,27.139,10.431c0,0-7.117-22.245-17.01-22.313
					C1248.138,792.196,1247.901,804.147,1247.901,804.147z"/>
			</g>
		</g>
		<g>
			<g>
				<path style="fill:#6D2F3B;" d="M1250.031,795.51c-1.289,1.61-3.684,36.555-31.395,49.385
					c-27.711,12.829,4.548,43.376,10.154,62.324c5.606,18.948,2.537,43.274-24.293,34.471c-26.83-8.803-20.615-36.427-32.384-31.039
					l0.659-45.799l24.033-63.164l21.645-9.453l25.228,0.479L1250.031,795.51z"/>
			</g>
		</g>
		<g>
			<g>
				<path style="fill:#6D2F3B;" d="M1195.099,813.081l10.504,48.543c0,0,46.245,44.152,25.819,75.723
					c-13.859,21.421-36.287-4.826-59.053,0.795c-7.865-10.716-8.226-31.188-8.226-31.188c-8.234,11.767-2.33,25.653,1.732,33.102
					c-21.173,6.202-39.797,9.525-53.233-7.173c-14.502-18.027-1.048-34.189-1.048-34.189c-9.969,8.457-12.67,29.211-12.67,29.211
					c-9.325-23.738-0.726-50.286,28.607-61.721c29.333-11.435,10.393-36.247,34.337-68.956c23.944-32.709,60.744-23.84,60.744-23.84
					c32.664-1.601,41.218,28.066,41.218,28.066L1195.099,813.081z"/>
			</g>
		</g>
		<g>
			<g>
				<g>
					<path style="fill:#964D5F;" d="M1230.293,787.678c4.219,13.916-5.864,26.225-16.926,33.254
						c-10.817,6.874-23.422,10.659-33.577,18.622c-7.663,6.009-13.977,15.023-13.559,25.139
						c0.423,10.266,7.202,18.739,12.226,27.211c3.838,6.471,6.698,13.188,6.476,20.852c-0.223,7.71-2.729,15.136-4.4,22.607
						c-0.128,0.57,0.769,0.705,0.896,0.139c2.682-12,6.897-23.835,2.009-35.859c-4.349-10.698-13.396-19.4-15.786-30.906
						c-2.758-13.276,6.323-24.586,16.837-31.412c11.033-7.163,24.013-10.955,34.397-19.18c9.201-7.289,15.86-18.892,12.248-30.807
						C1230.965,786.781,1230.125,787.123,1230.293,787.678L1230.293,787.678z"/>
				</g>
			</g>
		</g>
		<g>
			<g>
				<g>
					<path style="fill:#964D5F;" d="M1224.313,785.831c-3.221,13.643-16.233,22.586-27.149,30.028
						c-10.951,7.467-24.229,13.122-32.077,24.268c-3.253,4.621-5.061,9.765-5.326,15.406c-0.338,7.196-0.148,13.508-3.074,20.272
						c-4.999,11.557-13.256,21.178-16.314,33.636c-3.011,12.267-0.715,26.039,9.329,34.463c0.448,0.376,1.01-0.336,0.563-0.711
						c-11.068-9.283-12.107-24.661-7.842-37.607c3.79-11.504,12.085-20.728,16.139-32.065c2.12-5.927,1.801-11.679,2.094-17.85
						c0.328-6.906,3.075-12.928,7.608-18.1c8.986-10.254,22.448-15.879,33.377-23.742c9.882-7.109,20.626-15.405,23.567-27.861
						C1225.344,785.401,1224.447,785.266,1224.313,785.831L1224.313,785.831z"/>
				</g>
			</g>
		</g>
		<g>
			<g>
				<g>
					<path style="fill:#964D5F;" d="M1188.078,891.397c6.449,7.078,9.142,16.257,9.705,25.665c0.465,7.761,0.96,18.204-4.063,24.713
						c-0.356,0.462,0.362,1.015,0.719,0.552c5.022-6.509,4.632-16.258,4.31-24.059c-0.414-10.003-3.087-19.889-9.953-27.425
						C1188.407,890.416,1187.684,890.964,1188.078,891.397L1188.078,891.397z"/>
				</g>
			</g>
		</g>
		<g>
			<g>
				<path style="fill:#8C4959;" d="M1213.997,786.031c0.955-0.775,0.351-2.469-0.76-2.996c-1.112-0.526-2.413-0.283-3.63-0.111
					c-1.218,0.172-2.594,0.217-3.525-0.587c-0.581-0.502-0.883-1.255-1.41-1.814c-1.311-1.388-3.54-1.201-5.408-0.809
					c-15.48,3.249-29.274,13.759-36.515,27.821c1.592-0.483,3.184-0.966,4.776-1.448c0.159,0.927,0.318,1.853,0.478,2.78
					c3.255-1.316,6.51-2.633,9.765-3.949c0.423-0.171,0.9-0.344,1.324-0.173c1.128,0.453,0.333,2.132,0.366,3.348
					c0.039,1.396,1.517,2.402,2.914,2.431c1.396,0.029,2.699-0.649,3.922-1.325c10.875-6.017,21.068-13.417,29.477-22.57
					L1213.997,786.031z"/>
			</g>
		</g>
		<g>
			<g>
				<path style="fill:#FABBA5;" d="M1220.262,851.985c0,0-9.26-11.146-15.984-4.83c-6.724,6.316,1.99,15.539,5.277,19.083
					c3.518,3.794,5.281,3.623,10.478,1.664C1225.229,865.944,1220.262,851.985,1220.262,851.985z"/>
			</g>
		</g>
		<g>
			<g>
				<g>
					<path style="fill:#EF9F8A;" d="M1220.32,866.878c-5.011,9.565-15.276-4.782-17.272-9.234c-1.527-3.405-2.199-7.745,0.819-10.55
						c3.279-3.048,7.795-2.146,11.031,0.415c0.472,0.374-0.108,1.106-0.58,0.732c-3.368-2.667-9.107-3.286-11.183,1.419
						c-1.311,2.972,0.134,6.559,1.587,9.179c2.046,3.688,10.541,15.683,14.743,7.664
						C1219.742,865.973,1220.6,866.343,1220.32,866.878L1220.32,866.878z"/>
				</g>
			</g>
		</g>
		<g>
			<g>
				<g>
					<path style="fill:#EF9F8A;" d="M1209.64,848.962c1.373,0.412,2.768,1.034,3.561,2.299c0.883,1.408,0.274,2.067,0.374,3.559
						c0.247,3.722,2.966,2.852,4.378,5.21c0.555,0.927,0.529,1.635,0.213,2.604c-0.186,0.571-1.041,0.193-0.855-0.375
						c0.4-1.224-1.422-2.827-2.299-3.378c-0.246-0.155-0.521-0.284-0.754-0.458c-0.586-0.438-1.118-0.897-1.446-1.566
						c-0.297-0.605-0.314-1.088-0.245-1.742c0.183-1.735,0.629-0.802-0.719-3.022c-1.072-1.766-0.935-1.78-2.584-2.275
						C1208.69,849.645,1209.069,848.791,1209.64,848.962L1209.64,848.962z"/>
				</g>
			</g>
		</g>
		<g>
			<g>
				<path style="fill:#FABBA5;" d="M1193.441,999.614c-4.03,14.284,48.347,77.578,101.644,109.011
					c0.766,0.452,1.447,1.037,2.319,1.214c8.258,1.667,29.225,7.941,77.199-19.833c46.936-27.174,58.805-20.361,58.805-20.361
					l-5.668-38.384c0,0-13.131,5.286-64.149,20.159c-28.291,8.248-37.55,5.136-37.55,5.136s-34.079-13.886-68.696-64.233
					C1246.387,976.383,1206.653,952.788,1193.441,999.614z"/>
			</g>
		</g>
		<g>
			<g>
				<path style="fill:#75ACF2;" d="M1266.111,989.798c0,0-27.671,44.822-66.608,40.489c0,0-28.404-53.034-0.586-60.975
					C1226.737,961.371,1266.111,989.798,1266.111,989.798z"/>
			</g>
		</g>
		<g>
			<g>
				<g>
					<path style="fill:#6388EE;" d="M1188.725,1003.245c2.67,6.996,4.643,17.996,9.136,23.925c2.783,3.672,3.375,3.921,8.57,3.824
						c12.441-0.233,24.773-5.953,34.662-13.145c6.743-4.904,14.182-11.148,18.739-18.257c4.13-6.442,0.061-8.827-3.16-15.643
						c-0.291-0.616-1.204-0.079-0.914,0.534c3.329,7.045,6.926,9.993,1.708,16.401c-3.955,4.857-8.447,9.32-13.305,13.271
						c-7.453,6.063-16.029,11.072-25.328,13.66c-8.947,2.49-16.516,2.908-21.951-6.153c-3.186-5.312-4.934-12.928-7.136-18.699
						C1189.506,1002.334,1188.482,1002.607,1188.725,1003.245L1188.725,1003.245z"/>
				</g>
			</g>
		</g>
		<g>
			<g>
				<g>
					<path style="fill:#F7A58F;" d="M1514.827,1037.069c0,0-32.124-16.926-49.341-19.329c-12.383-1.728-17.455,15.883-20.328,28.313
						c-5.922,25.619,20.086,21.579,20.086,21.579l51.171-4.977L1514.827,1037.069z"/>
				</g>
			</g>
			<g>
				<g>
					<path style="fill:#FABBA5;" d="M1417.613,1035.061c0,0,28.943-12.054,37.903-8.568c8.96,3.486,43.368,22.118,42.847,30.538
						c-0.521,8.42-20.323,16.223-31.842,15.555c-11.519-0.668-28.477-2.415-31.63-5.424c-3.153-3.009-21.407-2.379-21.407-2.379
						L1417.613,1035.061z"/>
				</g>
			</g>
			<g>
				<g>
					<path style="fill:#FABBA5;" d="M1481.206,1042.903c-0.877,0.871-0.993,2.115-0.585,3.556c-0.168-0.022-0.318,0.043-0.414,0.172
						c-3.454-2.51-6.456-3.762-8.056-2.173c-1.463,1.453-0.897,4.022,0.849,7.036c-0.108,0.021-0.201,0.081-0.272,0.163
						c-2.819-1.79-5.18-2.5-6.502-1.186c-2.025,2.01,0,6.321,3.717,11.044c-0.144-0.033-0.289-0.007-0.392,0.094
						c-2.886-1.919-5.438-2.74-6.972-1.217c-2.918,2.897,1.357,9.369,6.956,14.926c5.598,5.557,8.682,6.389,11.599,3.492
						c1.986-1.973,2.257-3.421,0.464-5.897c0.001,0,0.003,0.001,0.005,0.001c3.223,2.094,5.413,2.008,7.335,0.1
						c1.729-1.717,2.047-3.142,0.604-5.429c0.103-0.074,0.188-0.174,0.205-0.3c1.512,0.236,2.776-0.261,3.956-1.434
						c1.943-1.929,2.144-3.452,0.152-6.155c0.006-0.009,0.009-0.02,0.015-0.029c1.015-0.037,1.927-0.502,2.823-1.391
						c2.489-2.472,1.853-3.951-2.82-8.589C1489.201,1045.049,1483.695,1040.432,1481.206,1042.903z"/>
				</g>
			</g>
			<g>
				<g>
					<path style="fill:#F7A58F;" d="M1467.036,1018.128c-8.272-2.088-12.951-3.087-19.131,1.868
						c-6.18,4.955-13.743,18.332-8.885,19.05c6.895,1.019,13.882-12.54,17.18-11.462c24.488,8.01,33.661-3.41,27.442-3.813
						C1476.805,1023.329,1471.58,1019.275,1467.036,1018.128z"/>
				</g>
			</g>
			<g>
				<g>
					<g>
						<path style="fill:#F7A58F;" d="M1468.638,1071.919c-2.26,8.293-4.717,10.758-9.049,9.611
							c-4.331-1.147-4.561-3.231-2.301-11.524c2.26-8.293,5.459-17.11,9.79-15.963
							C1471.411,1055.189,1470.898,1063.626,1468.638,1071.919z"/>
					</g>
				</g>
				<g>
					<g>
						<path style="fill:#F7A58F;" d="M1458.801,1068.187c-2.766,10.151-5.401,13.266-9.733,12.119
							c-4.331-1.147-4.445-3.654-1.679-13.805s6.515-20.987,10.847-19.84C1462.567,1047.808,1461.567,1058.036,1458.801,1068.187z"
							/>
					</g>
				</g>
				<g>
					<g>
						<path style="fill:#F7A58F;" d="M1450.213,1064.72c-2.625,9.633-5.21,12.566-9.542,11.419
							c-4.332-1.147-4.478-3.536-1.853-13.168c2.625-9.633,6.221-19.905,10.552-18.759
							C1453.702,1045.359,1452.837,1055.087,1450.213,1064.72z"/>
					</g>
				</g>
				<g>
					<g>
						<path style="fill:#F7A58F;" d="M1441.388,1062.623c-1.886,6.922-3.968,8.971-7.663,7.993c-3.695-0.978-3.9-2.721-2.014-9.644
							c1.886-6.922,4.57-14.278,8.265-13.299C1443.671,1048.651,1443.274,1055.701,1441.388,1062.623z"/>
					</g>
				</g>
				<g>
					<g>
						<g>
							<path style="fill:#E68974;" d="M1460.604,1059.261c-1.78,5.504-3.56,11.008-5.34,16.511
								c-0.168,0.521,0.699,0.752,0.868,0.231c1.78-5.504,3.56-11.007,5.34-16.511
								C1461.641,1058.972,1460.773,1058.74,1460.604,1059.261L1460.604,1059.261z"/>
						</g>
					</g>
				</g>
				<g>
					<g>
						<g>
							<path style="fill:#E68974;" d="M1452.131,1051.567c-2.958,7.632-5.298,15.444-7.021,23.433
								c-0.115,0.532,0.752,0.768,0.868,0.231c1.722-7.99,4.062-15.801,7.021-23.433
								C1453.196,1051.288,1452.328,1051.059,1452.131,1051.567L1452.131,1051.567z"/>
						</g>
					</g>
				</g>
				<g>
					<g>
						<g>
							<path style="fill:#E68974;" d="M1442.306,1050.874c-2.364,6.208-4.161,12.562-5.396,19.079
								c-0.101,0.533,0.766,0.77,0.868,0.231c1.235-6.518,3.032-12.871,5.396-19.079
								C1443.368,1050.594,1442.5,1050.364,1442.306,1050.874L1442.306,1050.874z"/>
						</g>
					</g>
				</g>
			</g>
		</g>
		<g>
			<g>
				<g>
					<g>
						<g>
							<path style="fill:#383463;" d="M1982.352,1257.627c5.308-15.947,11.573-29.576,29.572-33.182
								c10.016-2.007,20.584-1.882,28.493,5.507c6.051,5.653,9.168,13.824,11.861,21.437c1.281,3.622,7.09,2.062,5.795-1.598
								c-7.12-20.137-18.983-34.928-42.181-32.085c-23.169,2.839-32.424,17.559-39.335,38.322
								C1975.332,1259.708,1981.134,1261.285,1982.352,1257.627L1982.352,1257.627z"/>
						</g>
					</g>
				</g>
				<g>
					<g>
						<path style="fill:#51497A;" d="M2112.07,1371.829l-167.336,15.873c-4.185,0.397-7.86-3.727-8.165-9.166l-6.377-113.487
							c-0.306-5.438,2.869-10.213,7.054-10.61l167.336-15.873c4.185-0.397,7.86,3.728,8.165,9.166l6.377,113.486
							C2119.43,1366.658,2116.256,1371.432,2112.07,1371.829z"/>
					</g>
				</g>
				<g>
					<g>
						<g>
							<path style="fill:#383463;" d="M1935.6,1310.263c2.425,12.543,11.369,21.378,24.227,22.848
								c10.286,1.176,21.207-1.078,31.436-2.128c10.815-1.111,21.631-2.222,32.446-3.333c19.906-2.045,40.243-3.073,59.995-6.279
								c13.926-2.26,24.447-9.133,28.713-22.984c0.607-1.973-2.48-2.816-3.086-0.851c-5.875,19.077-23.889,20.572-41.009,22.33
								c-14.871,1.528-29.742,3.055-44.614,4.583c-14.871,1.528-29.741,3.075-44.614,4.583c-17.458,1.77-36.362,1.318-40.409-19.62
								C1938.296,1307.393,1935.211,1308.248,1935.6,1310.263L1935.6,1310.263z"/>
						</g>
					</g>
				</g>
			</g>
			<g>
				<g>
					<path style="fill:#F1AC99;" d="M2031.695,1191.407c0,0,12.122,15.836,11.174,27.095c-0.948,11.259,1.105,24.585-4.526,26.832
						c-5.632,2.247-28.053-3.495-34.24-10.819s-9.266-27.313-3.348-35.659C2006.106,1191.311,2031.695,1191.407,2031.695,1191.407z"
						/>
				</g>
			</g>
			<g>
				<g>
					<path style="fill:#F1AC99;" d="M2014.595,1192.658c0,0-16.983,3.555-20.973,8.231c-3.99,4.676-6.704,19.504-11.345,23.407
						c-4.64,3.903,0.902,6.174,6.564,2.898c5.662-3.277,22.396-22.633,22.396-22.633L2014.595,1192.658z"/>
				</g>
			</g>
		</g>
		<g>
			<g>
				<g>
					<polygon style="fill:#29274F;" points="1757.976,1709.283 1757.976,1714.592 1783.256,1714.592 1786.166,1704.317 					"/>
				</g>
			</g>
			<g>
				<g>
					<path style="fill:#383463;" d="M1747.61,1650.372c0,0-9.431,28.216-23.765,36.605c-11.558,6.764-33.646,7.778-39.535,21.218
						c-1.311,2.992,0.845,6.397,3.985,6.397h59.315c0,0,21.582-6.262,31.767-4.737c10.185,1.525,9.7-24.2,6.79-33.707
						c-2.91-9.507-0.485-25.776-0.485-25.776H1747.61z"/>
				</g>
			</g>
		</g>
		<g>
			<g>
				<g>
					<polygon style="fill:#29274F;" points="1950.989,1709.283 1950.989,1714.592 1976.269,1714.592 1979.179,1704.317 					"/>
				</g>
			</g>
			<g>
				<g>
					<path style="fill:#383463;" d="M1940.623,1650.372c0,0-9.431,28.216-23.764,36.605c-11.558,6.764-33.646,7.778-39.536,21.218
						c-1.311,2.992,0.845,6.397,3.985,6.397h59.315c0,0,21.582-6.262,31.767-4.737c10.185,1.525,9.7-24.2,6.79-33.707
						s-0.485-25.776-0.485-25.776H1940.623z"/>
				</g>
			</g>
		</g>
		<g>
			<g>
				<path style="fill:#51497A;" d="M1712.628,1162.168c0,0-20.497,40.557-14.75,109.228c3.536,42.254,9.817,121.793,17.905,204.58
					c9.896,101.299,7.965,184.824,10.584,188.052c4.599,5.665,66.024-1.959,66.024-1.959s6.164-45.812,6.164-111.831
					c0-36.321-6.291-230.935-1.974-239.986c0,0,14.459,69.52,44.188,168.166c11.221,37.233,85.679,181.678,88.195,190.674
					c0,0,17.587,0.708,36.12-2.759c12.664-2.369,21.623-12.882,26.833-18.183c6.848-6.968-67.118-129.629-78.995-274.601
					c-10.746-131.167-30.782-185.305-40.531-208.81L1712.628,1162.168z"/>
			</g>
		</g>
		<g>
			<g>
				<g>
					<path style="fill:#383463;" d="M1774.683,1262.691c10.461,16.767,18.227,34.984,23.078,54.142
						c0.16,0.63,1.134,0.363,0.974-0.268c-4.872-19.241-12.673-37.544-23.18-54.383
						C1775.212,1261.631,1774.338,1262.137,1774.683,1262.691L1774.683,1262.691z"/>
				</g>
			</g>
		</g>
		<g>
			<g>
				<g>
					<path style="fill:#383463;" d="M1767.102,1275.285c4.953,2.166,8.546,5.925,10.404,11.019c0.247-0.19,0.495-0.38,0.742-0.57
						c-6.329-2.961-12.993-4.638-19.968-5.015c-0.649-0.035-0.647,0.975,0,1.01c6.817,0.369,13.276,1.984,19.458,4.877
						c0.358,0.167,0.907-0.117,0.742-0.57c-1.939-5.314-5.681-9.354-10.869-11.623
						C1767.022,1274.155,1766.507,1275.025,1767.102,1275.285L1767.102,1275.285z"/>
				</g>
			</g>
		</g>
		<g>
			<g>
				<g>
					<path style="fill:#383463;" d="M1833.306,1226.156c3.221,6.114,5.51,12.444,7.367,19.082c1.202,4.299,2.694,8.982,6.56,11.653
						c3.999,2.763,9.506,1.921,14.069,1.898c6.95-0.036,13.9-0.072,20.849-0.107c0.65-0.003,0.651-1.013,0-1.01
						c-5.663,0.029-11.325,0.058-16.988,0.087c-5.732,0.029-14.049,1.535-18.563-2.71c-4.005-3.767-4.726-9.754-6.277-14.754
						c-1.576-5.08-3.668-9.947-6.146-14.649C1833.875,1225.071,1833.003,1225.581,1833.306,1226.156L1833.306,1226.156z"/>
				</g>
			</g>
		</g>
		<g>
			<g>
				<g>
					<path style="fill:#383463;" d="M1884.415,1259.087c8.712,24.316,8.667,50.268,8.792,75.768
						c0.061,12.548,0.173,25.121,1.419,37.617c1.245,12.478,4.242,24.324,7.531,36.389c1.783,6.538,3.397,13.203,3.65,20.004
						c0.218,5.853-1.682,11.621-1.236,17.431c0.336,4.379,2.781,6.956,5.625,10.004c2.852,3.056,4.023,5.873,2.46,10.039
						c-0.947,2.524-1.913,4.696-1.684,7.465c0.478,5.771,4.372,11.494,6.85,16.556c3.069,6.269,6.138,12.537,9.207,18.806
						c6.256,12.779,12.512,25.557,18.769,38.336c13.929,28.451,27.858,56.901,41.786,85.352c0.286,0.584,1.157,0.072,0.872-0.51
						c-24.547-50.138-49.716-100.022-73.658-150.451c-1.994-4.201-3.624-8.16-2.141-12.818c0.735-2.309,2.099-4.482,1.916-6.997
						c-0.278-3.811-3.615-6.21-5.929-8.853c-4.824-5.509-2.517-12.066-1.957-18.551c0.506-5.86-0.218-11.747-1.427-17.48
						c-2.624-12.442-6.896-24.362-8.699-37.002c-1.832-12.842-2.184-25.844-2.303-38.798c-0.254-27.733,0.625-56.074-8.87-82.576
						C1885.171,1258.211,1884.194,1258.473,1884.415,1259.087L1884.415,1259.087z"/>
				</g>
			</g>
		</g>
		<g>
			<g>
				<g>
					<path style="fill:#383463;" d="M1780.06,1309.519c-6.705,87.808-3.939,176.026-2.564,263.977
						c0.386,24.722,0.773,49.443,1.159,74.165c0.01,0.649,1.02,0.651,1.01,0c-1.372-87.778-4.351-175.727-2.232-263.508
						c0.601-24.904,1.74-49.794,3.636-74.634C1781.12,1308.871,1780.11,1308.874,1780.06,1309.519L1780.06,1309.519z"/>
				</g>
			</g>
		</g>
		<g>
			<g>
				<g>
					<path style="fill:#383463;" d="M1705.004,1258.004c5.255,0.25,11.076,0.341,15.121-3.594c3.82-3.715,4.826-9.376,5.518-14.423
						c0.087-0.635-0.886-0.91-0.974-0.268c-0.623,4.539-1.432,9.609-4.529,13.199c-3.822,4.43-9.782,4.33-15.137,4.076
						C1704.354,1256.963,1704.356,1257.973,1705.004,1258.004L1705.004,1258.004z"/>
				</g>
			</g>
		</g>
		<g>
			<g>
				<g>
					<path style="fill:#383463;" d="M1898.5,1480.071c-4.864,11.516-12.103,21.677-21.407,30.029
						c-0.485,0.435,0.231,1.147,0.714,0.714c9.366-8.408,16.667-18.637,21.565-30.234
						C1899.622,1479.989,1898.753,1479.474,1898.5,1480.071L1898.5,1480.071z"/>
				</g>
			</g>
		</g>
		<g>
			<g>
				<g>
					<path style="fill:#383463;" d="M1900.463,1486.01c-3.298,8.052-6.596,16.104-9.893,24.157c-0.246,0.601,0.73,0.863,0.974,0.269
						c3.298-8.052,6.595-16.104,9.893-24.156C1901.683,1485.678,1900.706,1485.416,1900.463,1486.01L1900.463,1486.01z"/>
				</g>
			</g>
		</g>
		<g>
			<g>
				<g>
					<path style="fill:#383463;" d="M1767.993,1496.404c-7.311,14.253-14.621,28.506-21.932,42.76
						c-0.296,0.577,0.575,1.089,0.872,0.51c7.31-14.253,14.621-28.506,21.932-42.76
						C1769.162,1496.337,1768.291,1495.825,1767.993,1496.404L1767.993,1496.404z"/>
				</g>
			</g>
		</g>
		<g>
			<g>
				<g>
					<path style="fill:#383463;" d="M1761.424,1525.439c-4.589,8.343-9.178,16.685-13.767,25.028c-0.313,0.57,0.558,1.08,0.872,0.51
						c4.589-8.343,9.178-16.685,13.767-25.028C1762.609,1525.378,1761.738,1524.868,1761.424,1525.439L1761.424,1525.439z"/>
				</g>
			</g>
		</g>
		<g>
			<g>
				<path style="fill:#4B83DB;" d="M1795.721,857.669c0,0-1.267,2.504-3.543,6.785c-1.224,2.315-2.751,5.151-4.529,8.396
					c-4.256,7.761-9.952,17.836-16.514,28.616c-19.194,31.529-45.732,69.06-64.986,72.297c-3.735,0.623-53.459,8.232-42.057-41.123
					c7.866-34.048,30.711-60.125,60.235-65.201c8.387-1.444,17.437-2.82,26.185-4.06c16.341-2.312,31.623-4.148,39.548-5.062
					C1793.644,857.898,1795.721,857.669,1795.721,857.669z"/>
			</g>
		</g>
		<g>
			<g>
				<path style="fill:#4B83DB;" d="M1690.788,1029.87c-3.155,3.113-6.141,6.035-9.02,8.745
					c-17.448,16.601-30.47,26.552-41.247,31.338c-2.329,1.038-4.553,1.842-6.691,2.393c-0.042,0.021-0.064,0.021-0.105,0.042
					c-8.004,2.117-14.864,1.122-21.809-2.223l-0.064-0.021c-1.377-0.677-2.774-1.461-4.193-2.329
					c-5.294-3.24-9.253-6.818-11.985-10.757c-0.868-1.249-1.609-2.541-2.223-3.875c-8.639-18.273-22.53-33.625,15.224-52.089
					c9.232-4.51,44.868-54.016,60.664-84.993c8.66-17.024,74.872,15.246,74.872,15.246S1751.558,969.735,1690.788,1029.87z"/>
			</g>
		</g>
		<g>
			<g>
				<path style="fill:#C3D7F0;" d="M1903.009,929.455c-0.636,7.062-4.187,29.671-8.491,56.349c-0.71,4.408-1.442,8.93-2.188,13.505
					v0.008c-7.232,44.538-15.736,140.17-5.3,186.861c5.171,23.135-189.928,25.444-188.609,10.15
					c9.13-105.917-2.357-251.534-2.357-251.534l27.135-61.924c78.452-21.66,146.325-2.129,146.325-2.129
					S1906.903,886.651,1903.009,929.455z"/>
			</g>
		</g>
		<g>
			<g>
				<path style="fill:#4B83DB;" d="M1805.392,898.745c0,0-26.244,195.767,10.036,334.897c0,0,51.636,13.956,94.304-6.478
					c0,0-23.91-121.28-22.803-158.693c1.107-37.412,4.909-98.424,4.909-98.424L1805.392,898.745z"/>
			</g>
		</g>
		<g>
			<g>
				<path style="fill:#4B83DB;" d="M2007.98,1073.298c0,0-53.244,45.322-66.937,11.479c-4.237-10.472-70.444-110.551-82.591-112.438
					c-19.368-3.008-39.458-41.436-53.06-73.594c-4.026-9.523-7.481-18.487-10.177-25.826c-1.157-3.152-2.176-6.001-3.036-8.465
					c-0.868-2.456-1.569-4.527-2.119-6.137c-0.817-2.434-1.251-3.802-1.251-3.802s15.986,3.903,36.415,8.066
					c7.913,1.611,16.498,3.267,25.082,4.749c29.525,5.093,62.595,18.22,76.841,50.123
					C1945.443,958.427,1999.554,1029.136,2007.98,1073.298z"/>
			</g>
		</g>
		<g>
			<g>
				<path style="fill:#FABBA5;" d="M1818.872,861.266c-4.858-1.021-8.632-5.036-9.519-10.145
					c-1.786-10.289-3.989-24.059-5.451-36.941c-0.389-3.431,3.033-16.548,3.171-16.777c-0.395,0.113-54.014,15.765-47.453,32.234
					c0.292,0.735,0.561,1.511,0.804,2.319c1.585,5.253,2.135,11.878,2.137,18.559c-0.001,3.997-0.262,7.823-0.647,11.3
					c-3.685,0.49-7.512,1.013-11.402,1.564c-0.675,3.04-1.22,7.055-0.913,11.41c0.65,9.488,2.361,14.726,18.572,20.837
					c2.424,0.92,15.746,1.478,18.719,2.149c10.987,2.478,11.865,6.05,18.503,0.972c7.784-5.964,12.94-15.45,16.308-24.541
					c1.511-4.069,2.662-8.062,3.524-11.623C1823.052,862.138,1820.93,861.698,1818.872,861.266z"/>
			</g>
		</g>
		<g>
			<g>
				<path style="fill:#ED938B;" d="M1804.839,812.54c-0.328,2.445,0.702,11.559,0.689,14.365
					c-12.077,24.642-42.527,23.444-42.968,23.609c-0.002-6.682-0.552-13.306-2.137-18.559
					C1772.472,825.922,1798,811.5,1804.839,812.54z"/>
			</g>
		</g>
		<g>
			<g style="opacity:0.6;">
				<path style="fill:#3D63C5;" d="M1892.078,1010.438c0,0-11.872-18.159-22.185-24.393c-8.491-5.133,2.098,11.48,3.932,23.501
					c1.834,12.021,14.65,18.932,14.811,17.941C1888.797,1026.496,1892.078,1010.438,1892.078,1010.438z"/>
			</g>
		</g>
		<g>
			<g>
				<path style="fill:#FABBA5;" d="M1819.165,797.167c-0.823,0.214-5.029,1.31-10.718,3.103
					C1808.72,797.269,1817.888,797.332,1819.165,797.167z"/>
			</g>
		</g>
		<g>
			<g>
				<path style="fill:#FABBA5;" d="M1807.699,827.199c-2.38,6.819-27.233,11.805-37.15,12.641
					c-6.536,0.551-16.561,1.817-22.039-2.134c-4.643-3.349-17.25-31.449-13.817-45.697c0.666-2.764,1.74-14.402,0.738-22.27
					c-1.665-13.081,7.973-34.41,7.973-34.41c38.286-25.729,70.334,12.548,72.767,27.081
					C1818.606,776.939,1817.301,799.696,1807.699,827.199z"/>
			</g>
		</g>
		<g>
			<g>
				<path style="fill:#752D4B;" d="M1792.561,765.809c1.896,0.35,2.129-1.173,0.526-2.242c-3.809-2.539-8.554-5.103-20.245-2.099
					c-10.982,2.822-10.254,8.981-3.986,8.19C1774.348,768.964,1779.977,763.486,1792.561,765.809z"/>
			</g>
		</g>
		<g>
			<g>
				<path style="fill:#752D4B;" d="M1735.904,766.277c-1.018,0.165-1.08-3.196-0.232-4.048c2.014-2.023,5.457-3.486,10.895-0.248
					c5.97,3.555,5.31,7.427,1.913,6.175C1745.503,767.06,1742.659,765.184,1735.904,766.277z"/>
			</g>
		</g>
		<g>
			<g>
				<path style="fill:#752D4B;" d="M1782.288,776.561c-0.057,2.525-2.15,4.524-4.675,4.467c-2.525-0.057-4.524-2.15-4.467-4.675
					c0.019-0.83,0.257-1.6,0.661-2.263c0.387-0.643,6.02-1.115,7.606-0.996c0.899,0.648,0.525,1.264,0.768,2.379
					C1782.26,775.823,1782.297,776.186,1782.288,776.561z"/>
			</g>
		</g>
		<g>
			<g>
				<path style="fill:#752D4B;" d="M1791.703,777.011c0.672,1.913-3.74-4.79-14.332-2.98c-2.601,0.444-5.227,1.938-7.341,3.501
					c-0.764,0.565-0.801-0.346-0.105-0.992c2.6-2.416,5.127-4.11,9.187-4.42C1786.079,771.587,1791.428,776.231,1791.703,777.011z"
					/>
			</g>
		</g>
		<g>
			<g>
				<g>
					<path style="fill:#CF8171;" d="M1754.87,771.777c3.18,1.627,4.627,5.139,4.534,8.594c-0.102,3.839-2.202,7.301-4.472,10.266
						c-1.546,2.018-5.331,5.106-4.039,8.049c0.569,1.296,2.038,1.963,3.237,2.532c1.691,0.802,3.462,1.377,5.287,1.78
						c0.539,0.119,0.789-0.705,0.248-0.825c-2.051-0.453-4.037-1.117-5.901-2.097c-1.566-0.823-2.718-1.91-1.949-3.83
						c0.4-1,1.121-1.808,1.801-2.628c2.164-2.607,4.301-5.279,5.585-8.448c1.977-4.88,1.248-11.503-3.88-14.128
						C1754.83,770.792,1754.376,771.524,1754.87,771.777L1754.87,771.777z"/>
				</g>
			</g>
		</g>
		<g>
			<g>
				<g>
					<path style="fill:#EF9F8A;" d="M1753.809,825.442c2.906-0.974,5.82-0.972,8.722,0.027c1.051,0.362,1.542-1.29,0.496-1.65
						c-3.155-1.086-6.472-1.109-9.637-0.048C1752.345,824.12,1752.754,825.795,1753.809,825.442L1753.809,825.442z"/>
				</g>
			</g>
		</g>
		<g>
			<g>
				<g>
					<path style="fill:#E33B58;" d="M1774.466,807.083c-0.124,1.338-1.642,3.64-3.977,5.669c-2.658,2.314-6.391,4.272-10.334,4.018
						c-2.529-0.166-4.741-0.992-6.536-2.134c-2.922-1.857-4.733-4.557-5.015-6.639c-0.062-0.335-0.06-0.653-0.027-0.947
						c0.008-0.081,0.032-0.147,0.079-0.204c0.174-0.285,0.669-0.356,1.102-0.428c1.69-0.262,4.767,0.609,9.746,0.916
						c3.307,0.202,8.914-0.923,12.262-1.104c0.456-0.023,0.896-0.037,1.281-0.019c0.809,0.012,1.382,0.137,1.428,0.488
						C1774.499,806.822,1774.498,806.945,1774.466,807.083z"/>
				</g>
			</g>
			<g>
				<g>
					<path style="fill:#FFFFFF;" d="M1773.05,806.214c-11.301,8.02-20.728,3.319-24.387,0.798c-0.009-0.057-0.008-0.106-0.008-0.163
						c0.177-0.285,0.669-0.356,1.108-0.427c1.687-0.262,4.765,0.608,9.742,0.916c3.31,0.202,8.917-0.923,12.263-1.104
						C1772.225,806.211,1772.664,806.196,1773.05,806.214z"/>
				</g>
			</g>
			<g>
				<g>
					<path style="fill:#FF6576;" d="M1770.489,812.753c-2.658,2.314-6.391,4.272-10.334,4.018c-2.529-0.166-4.741-0.992-6.536-2.134
						c2.417-1.189,7.826-3.556,12.043-3.137C1768.074,811.738,1769.572,812.243,1770.489,812.753z"/>
				</g>
			</g>
		</g>
		<g>
			<g>
				<g>
					<path style="fill:#752D4B;" d="M1750.155,777.579c-1.249-1.481-3.689-4.027-6.531-4.198c-0.613-0.045-1.24,0.024-1.882,0.243
						c-1.103,0.371-2.53,1.688-4.022,2.62c-0.541,0.341,6.332-9.38,11.922-0.449c0.188,0.302,0.383,0.627,0.571,0.982
						c0.202,0.385,0.412,0.801,0.614,1.247C1751.318,779.105,1751.014,778.591,1750.155,777.579z"/>
				</g>
			</g>
			<g>
				<g>
					<path style="fill:#752D4B;" d="M1748.951,775.696c0.023,0.226,0.044,0.497,0.024,0.803c-0.034,0.657-0.245,1.431-0.901,2.03
						c-0.808,0.744-2.449,1.216-3.506,0.952c-1.056-0.257-2.067-0.64-2.772-1.51c-0.846-1.046-1.108-2.896-0.382-4.019
						c0.232-0.358,0.463-0.716,0.64-0.97c0.15-0.236,0.25-0.39,0.25-0.39l3.176,0.283l1.898,0.976l0.789,0.839l0.118,0.087
						C1748.502,775.058,1748.729,775.361,1748.951,775.696z"/>
				</g>
			</g>
		</g>
		<g>
			<g>
				<path style="fill:#FF6576;" d="M1741.753,1129.092l17.58,30.582l22.437-27.88c-13.823-95.599,1.628-202.59,5.009-223.886
					c0.169-1.071,0.304-1.921,0.406-2.544c0.141-0.827,0.214-1.258,0.214-1.258l-1.19-0.356l-18.698-5.576
					c-0.463,2.08-0.914,4.148-1.36,6.2C1732.875,1057.156,1741.753,1129.092,1741.753,1129.092z"/>
			</g>
		</g>
		<g>
			<g>
				<path style="fill:#4B83DB;" d="M1755.968,889.36c0.488,0.986-30.981,131.902-26.63,337.014c0,0-47.382,6.045-64.389-4.309
					c0,0,23.147-232.787,23.122-261.347c-0.025-28.56,25.24-83.174,25.24-83.174l40.108-3.816L1755.968,889.36z"/>
			</g>
		</g>
		<g>
			<g>
				<path style="fill:#64A9FF;" d="M1755.984,901.786c0,0-19.527,113.596-21.991,151.665c0,0-11.14-30.112-12.517-39.151
					c-2.244-14.736,0.548-43.859,2.583-59.567c0,0,10.549-7.519,14.492-6.937c0,0-8.941-5.554-13.623-3.208
					c0,0,6.632-71.083,16.597-79.9c0,0,10.243-4.573,14.424-3.552C1760.13,862.157,1755.984,901.786,1755.984,901.786z"/>
			</g>
		</g>
		<g>
			<g>
				<path style="fill:#F94D65;" d="M1766.151,904.373c2.116,2.984,5.099,7.908,8.833,8.386c5.401,0.698,9.739-3.461,11.795-4.851
					c0.169-1.071,0.304-1.921,0.406-2.544c-0.284-0.476-0.619-1.031-0.976-1.614l-18.698-5.576
					C1767.049,900.253,1766.597,902.321,1766.151,904.373z"/>
			</g>
		</g>
		<g>
			<g>
				<path style="fill:#FF6576;" d="M1783.798,893.581c0,0-6.752,0.053-9.775-0.983c-3.023-1.036-6.42,1.705-6.511,5.577
					s0.547,12.203,10.399,12.976c2.975,0.234,10.949-3.405,10.937-12.05C1788.835,890.455,1783.798,893.581,1783.798,893.581z"/>
			</g>
		</g>
		<g>
			<g>
				<path style="fill:#DFEAF9;" d="M1774.023,892.597c0,0-12.715-22.206-12.109-30.783c0.605-8.576,0.634-9.791,0.634-9.791
					s-3.243,0.215-4.326,3.615c-1.084,3.401-6.324,4.397-9.436,9.641c-3.112,5.244-8.192,28.418,7.693,50.816
					c0,0,6.564-1.392,6.626-6.869C1763.26,895.44,1774.023,892.597,1774.023,892.597z"/>
			</g>
		</g>
		<g>
			<g>
				<path style="fill:#64A9FF;" d="M1826.723,861.075c0,0,17.738,3.022,23.582,6.255c0,0-8.887,63.107-21.747,85.365
					c0,0-8.288,0.098-11.168,1.958c0,0,5.245,4.287,7.918,6.58c0,0-11.989,70.058-30.911,89.637c0,0,3.662-130.715,9.006-145.392
					C1808.746,890.801,1826.723,861.075,1826.723,861.075z"/>
			</g>
		</g>
		<g>
			<g>
				<path style="fill:#DFEAF9;" d="M1809.353,851.12c0,0,1.694,27.495-25.555,42.46c0,0,4.392,0.988,5.758,11.169
					c0.91,6.783,10.365,13.512,12.253,13.511c1.889-0.002,34.614-20.264,30.113-54.339c0,0-2.02-2.724-5.043-4.233
					C1823.856,858.18,1809.873,847.209,1809.353,851.12z"/>
			</g>
		</g>
		<g>
			<g>
				<g>
					<g>
						<path style="fill:#4B83DB;" d="M1644.946,1053.86l-0.021,0.042c-0.233,0.275-0.487,0.529-0.72,0.784
							c-3.663,3.324,1.927,12.789-10.376,17.659c-0.042,0.021-0.064,0.021-0.105,0.042c-12.789,5.061-43.555,5.421-64.561,2.096
							c-9.825-1.546-60.336-3.995-60.336-3.995c-4.15-1.885,1.467-9.951-0.794-19.562c-1.961-8.335-10.63-20.102-6.352-23.172
							c4.298-3.028,30.773-10.362,65.375-15.296c8.962-1.278,29.846-5.458,41.618-11.365c16.262-8.131,19.776,19.353,28.522,31.062
							c3.875,5.167,6.755,10.037,8.554,13.446C1647.212,1048.313,1646.873,1051.552,1644.946,1053.86z"/>
					</g>
				</g>
			</g>
		</g>
		<g>
			<g>
				<path style="fill:#4B83DB;" d="M2007.98,1073.298c0,0,31.804,120.138,31.33,123.584c-0.474,3.446-42.957,8.865-49.135,4.844
					c-6.178-4.022-49.132-116.948-49.132-116.948L2007.98,1073.298z"/>
			</g>
		</g>
		<g>
			<g>
				<g>
					<path style="fill:#244DAF;" d="M1893.245,1012.127c-9.516-12.732-19.556-25.622-34.691-31.816
						c-0.523-0.214-0.138-1.003,0.384-0.79c15.26,6.245,25.432,19.266,35.029,32.106
						C1894.306,1012.081,1893.583,1012.578,1893.245,1012.127L1893.245,1012.127z"/>
				</g>
			</g>
		</g>
		<g>
			<g style="opacity:0.6;">
				<path style="fill:#3D63C5;" d="M1681.768,1038.615c-17.448,16.601-30.47,26.552-41.247,31.338
					c-2.329,1.038-4.553,1.842-6.691,2.393c-0.042,0.021-0.064,0.021-0.105,0.042c-12.789,5.061-43.555,5.421-64.561,2.096
					c-9.825-1.546-19.904-3.727-29.644-6.204c13.149-7.432,35.276-10.015,56.154-11.222c21.535-1.249,41.714-1.038,49.272-3.197
					c20.349-5.781,35.424-81.013,36.822-77.942C1683.166,979.009,1681.768,1038.615,1681.768,1038.615z"/>
			</g>
		</g>
		<g>
			<g>
				<g>
					<path style="fill:#244DAF;" d="M1677.625,964.037c5.754,12.417,4.168,27.153,3.994,40.53
						c-0.148,11.349-0.436,22.697-0.381,34.047c0.003,0.681,1.062,0.682,1.059,0c-0.065-13.497,0.363-26.99,0.447-40.486
						c0.073-11.856,0.885-23.643-4.205-34.626C1678.253,962.885,1677.34,963.422,1677.625,964.037L1677.625,964.037z"/>
				</g>
			</g>
		</g>
		<g>
			<g>
				<g>
					<path style="fill:#244DAF;" d="M1605.412,1004.429c7.511,1.003,14.427,3.677,20.69,7.938c0.565,0.384,1.095-0.533,0.534-0.914
						c-6.434-4.378-13.513-7.053-21.224-8.083C1604.739,1003.281,1604.746,1004.34,1605.412,1004.429L1605.412,1004.429z"/>
				</g>
			</g>
		</g>
		<g>
			<g>
				<g>
					<path style="fill:#244DAF;" d="M1605.56,1003.88c7.293-1.835,14.61-2.276,22.063-1.356c0.675,0.083,0.669-0.976,0-1.059
						c-7.561-0.933-14.965-0.463-22.345,1.394C1604.618,1003.025,1604.898,1004.046,1605.56,1003.88L1605.56,1003.88z"/>
				</g>
			</g>
		</g>
		<g>
			<g>
				<path style="fill:#6D2F3B;" d="M1835.086,785.568c-5.045,18.802-24.423,28.553-24.423,28.553
					c1.812-11.717,2.695-35.966-0.018-35.919c-2.72,0.039-10.097,8.772-9.389,4.46c0.715-4.304,4.754-10.639-0.589-19.911
					c-5.343-9.272-0.76-20.669-0.76-20.669s-0.037,0.016-0.119,0.047c-0.022,0.008-0.045,0.016-0.075,0.031
					c-0.969,0.437-2.064,0.812-3.256,1.133c-0.007,0-0.022,0.008-0.037,0.008c-3.197,0.875-7.086,1.375-11.267,1.586
					c-3.688,0.187-7.6,0.148-11.453-0.07c-4.128-0.242-8.189-0.679-11.833-1.257c-3.45-0.555-6.535-1.234-8.957-2
					c-1.49-0.469-2.802-0.773-3.957-0.945c-0.924-0.141-1.751-0.203-2.489-0.195c-5.209,0.039-6.693,4.249-6.693,4.249
					c-7.884-11.217-5.491-19.692-3.583-26.738c3.413-12.584,13.338-18.684,13.338-18.684c2.608,4.491,7.712,5.179,7.712,5.179
					c-0.35-1.055-0.544-2.054-0.626-2.96c-0.276-3.054,0.686-5.14,0.797-5.366c0.007-0.008,0.007-0.016,0.007-0.016
					s10.551,10.162,36.05,7.202c34.769-4.038,34.277,21.739,34.277,21.739C1844.758,735.264,1840.131,766.766,1835.086,785.568z"/>
			</g>
		</g>
		<g>
			<g>
				<g>
					<path style="fill:#FABBA5;" d="M1804.642,784.647c0,0,8.984-13.119,16.973-6.902c7.989,6.217-0.594,17.18-3.825,21.386
						c-3.458,4.503-5.402,4.495-11.279,2.883S1804.642,784.647,1804.642,784.647z"/>
				</g>
			</g>
			<g>
				<g>
					<g>
						<path style="fill:#EF9F8A;" d="M1806.137,800.899c1.852,3.416,6.42,3.294,9.266,1.264c1.782-1.272,3.078-3.096,4.26-4.908
							c1.424-2.182,2.793-4.426,3.805-6.834c1.689-4.02,2.555-9.544-1.28-12.646c-3.776-3.055-8.936-1.783-12.104,1.471
							c-0.414,0.426,0.223,1.095,0.638,0.668c2.946-3.026,7.916-4.28,11.272-1.089c3.374,3.208,1.888,8.649,0.15,12.308
							c-1.497,3.151-3.453,6.601-5.917,9.101c-2.374,2.409-7.248,3.967-9.281,0.217
							C1806.662,799.929,1805.854,800.375,1806.137,800.899L1806.137,800.899z"/>
					</g>
				</g>
			</g>
			<g>
				<g>
					<g>
						<path style="fill:#EF9F8A;" d="M1816.077,780.264c-1.391,0.527-2.742,1.267-3.557,2.563c-0.948,1.508-0.641,2.699-0.22,4.281
							c0.794,2.986-2.234,3.513-3.767,5.366c-0.869,1.05-1.142,2.36-0.472,3.568c0.288,0.519,1.097,0.073,0.808-0.448
							c-1.574-2.837,3.981-4.319,4.537-6.89c0.231-1.067-0.334-1.807-0.571-2.804c-0.566-2.38,1.514-4,3.468-4.741
							C1816.85,780.952,1816.633,780.053,1816.077,780.264L1816.077,780.264z"/>
					</g>
				</g>
			</g>
		</g>
	</g>
</g>
</svg>
