<?xml version="1.0" encoding="utf-8"?>
<!-- Generator: Adobe Illustrator 27.5.0, SVG Export Plug-In . SVG Version: 6.00 Build 0)  -->
<svg version="1.1" xmlns="http://www.w3.org/2000/svg" xmlns:xlink="http://www.w3.org/1999/xlink" x="0px" y="0px"
	 viewBox="0 0 500 500" style="enable-background:new 0 0 500 500;" xml:space="preserve">
<g id="BACKGROUND">
	<rect style="fill:transparent;" width="500" height="500"/>
</g>
<g id="OBJECTS">
	<path style="fill:#FCDCCD;" d="M178.541,72.384c-36.71-14.489-81.486-2.22-107.62,27.439c-28.096,31.886-37.15,78.4-26.732,119.602
		c10.417,41.202,38.969,76.727,74.999,99.266c36.029,22.539,79.029,32.64,121.528,32.671
		c50.391,0.036,101.579-14.298,141.378-45.206c39.799-30.908,67.007-79.225,67.38-129.615c0.207-27.99-8.482-57.181-28.956-76.266
		c-22.763-21.219-56.715-26.803-87.457-21.967c-20.388,3.207-40.005,10.431-58.723,18.957c-16.348,7.446-32.753,11.483-50.041,3.716
		c-11.5-5.166-20.672-14.321-31.265-21.159C188.396,76.83,183.543,74.359,178.541,72.384z"/>
	<g>
		<rect x="365.227" y="76.917" style="fill:none;stroke:#FFCBAD;stroke-miterlimit:10;" width="77.045" height="157.943"/>
		<rect x="371.904" y="83.551" style="fill:none;stroke:#FFCBAD;stroke-miterlimit:10;" width="31.845" height="95.022"/>
		<rect x="394.118" y="187.734" style="fill:#FFCBAD;" width="41.733" height="3.339"/>
		<rect x="371.647" y="197.108" style="fill:#FFCBAD;" width="64.204" height="3.339"/>
		<rect x="371.647" y="206.482" style="fill:#FFCBAD;" width="64.204" height="3.339"/>
		<rect x="371.647" y="215.856" style="fill:#FFCBAD;" width="64.204" height="3.339"/>
		<path style="fill:#FFCBAD;" d="M437.552,102.728H412.32c-0.479,0-0.867-0.388-0.867-0.867l0,0c0-0.479,0.388-0.867,0.867-0.867
			h25.232c0.479,0,0.867,0.388,0.867,0.867l0,0C438.419,102.34,438.031,102.728,437.552,102.728z"/>
		<path style="fill:#FFCBAD;" d="M437.552,112.294H412.32c-0.479,0-0.867-0.388-0.867-0.867l0,0c0-0.479,0.388-0.867,0.867-0.867
			h25.232c0.479,0,0.867,0.388,0.867,0.867l0,0C438.419,111.906,438.031,112.294,437.552,112.294z"/>
		<path style="fill:#FFCBAD;" d="M437.552,121.861H412.32c-0.479,0-0.867-0.388-0.867-0.867l0,0c0-0.479,0.388-0.867,0.867-0.867
			h25.232c0.479,0,0.867,0.388,0.867,0.867l0,0C438.419,121.473,438.031,121.861,437.552,121.861z"/>
		<path style="fill:#FFCBAD;" d="M437.552,131.427H412.32c-0.479,0-0.867-0.388-0.867-0.867l0,0c0-0.479,0.388-0.867,0.867-0.867
			h25.232c0.479,0,0.867,0.388,0.867,0.867l0,0C438.419,131.039,438.031,131.427,437.552,131.427z"/>
		<path style="fill:#FFCBAD;" d="M437.552,140.993H412.32c-0.479,0-0.867-0.388-0.867-0.867l0,0c0-0.479,0.388-0.867,0.867-0.867
			h25.232c0.479,0,0.867,0.388,0.867,0.867l0,0C438.419,140.605,438.031,140.993,437.552,140.993z"/>
		<path style="fill:#FFCBAD;" d="M437.552,150.56H412.32c-0.479,0-0.867-0.388-0.867-0.867l0,0c0-0.479,0.388-0.867,0.867-0.867
			h25.232c0.479,0,0.867,0.388,0.867,0.867l0,0C438.419,150.172,438.031,150.56,437.552,150.56z"/>
		<path style="fill:#FFCBAD;" d="M437.552,160.126H412.32c-0.479,0-0.867-0.388-0.867-0.867l0,0c0-0.479,0.388-0.867,0.867-0.867
			h25.232c0.479,0,0.867,0.388,0.867,0.867l0,0C438.419,159.738,438.031,160.126,437.552,160.126z"/>
	</g>
	<g>
		<rect x="61.51" y="78.873" style="fill:none;stroke:#FFCBAD;stroke-miterlimit:10;" width="84.215" height="118.641"/>
		
			<ellipse transform="matrix(0.1577 -0.9875 0.9875 0.1577 -32.1169 183.2691)" style="fill:none;stroke:#FFCBAD;stroke-miterlimit:10;" cx="91.374" cy="110.461" rx="19.518" ry="19.518"/>
		<g>
			<path style="fill:none;stroke:#FFCBAD;stroke-miterlimit:10;" d="M120.993,97.492c0,0.969-0.786,1.755-1.755,1.755
				c-0.969,0-1.755-0.786-1.755-1.755s0.786-1.755,1.755-1.755C120.208,95.737,120.993,96.523,120.993,97.492z"/>
			<path style="fill:none;stroke:#FFCBAD;stroke-miterlimit:10;" d="M141.154,98.134h-16.864c-0.354,0-0.642-0.287-0.642-0.642l0,0
				c0-0.355,0.288-0.642,0.642-0.642h16.864c0.355,0,0.642,0.288,0.642,0.642l0,0C141.796,97.847,141.508,98.134,141.154,98.134z"/>
		</g>
		<g>
			<circle style="fill:none;stroke:#FFCBAD;stroke-miterlimit:10;" cx="119.239" cy="107.701" r="1.755"/>
			<path style="fill:#FFCBAD;" d="M141.154,108.343h-16.864c-0.354,0-0.642-0.287-0.642-0.642l0,0c0-0.355,0.288-0.642,0.642-0.642
				h16.864c0.355,0,0.642,0.287,0.642,0.642l0,0C141.796,108.055,141.508,108.343,141.154,108.343z"/>
		</g>
		<g>
			<path style="fill:none;stroke:#FFCBAD;stroke-miterlimit:10;" d="M120.993,117.909c0,0.969-0.786,1.755-1.755,1.755
				c-0.969,0-1.755-0.786-1.755-1.755c0-0.969,0.786-1.755,1.755-1.755C120.208,116.154,120.993,116.94,120.993,117.909z"/>
			<path style="fill:#FFCBAD;" d="M141.154,118.551h-16.864c-0.354,0-0.642-0.287-0.642-0.642l0,0c0-0.354,0.288-0.642,0.642-0.642
				h16.864c0.355,0,0.642,0.288,0.642,0.642l0,0C141.796,118.264,141.508,118.551,141.154,118.551z"/>
		</g>
		<g>
			<path style="fill:none;stroke:#FFCBAD;stroke-miterlimit:10;" d="M120.993,128.118c0,0.969-0.786,1.755-1.755,1.755
				c-0.969,0-1.755-0.786-1.755-1.755c0-0.969,0.786-1.755,1.755-1.755C120.208,126.363,120.993,127.148,120.993,128.118z"/>
			<path style="fill:#FFCBAD;" d="M141.154,128.76h-16.864c-0.354,0-0.642-0.288-0.642-0.642l0,0c0-0.354,0.288-0.642,0.642-0.642
				h16.864c0.355,0,0.642,0.287,0.642,0.642l0,0C141.796,128.472,141.508,128.76,141.154,128.76z"/>
		</g>
		<path style="fill:#FFCBAD;" d="M136.317,153.093H95.226c-0.78,0-1.412-0.632-1.412-1.413l0,0c0-0.78,0.632-1.412,1.412-1.412
			h41.091c0.78,0,1.413,0.632,1.413,1.412l0,0C137.729,152.461,137.097,153.093,136.317,153.093z"/>
		<path style="fill:#FFCBAD;" d="M136.317,161.696H73.268c-0.78,0-1.413-0.632-1.413-1.412l0,0c0-0.78,0.632-1.412,1.413-1.412
			h63.048c0.78,0,1.413,0.632,1.413,1.412l0,0C137.729,161.064,137.097,161.696,136.317,161.696z"/>
		<path style="fill:#FFCBAD;" d="M136.317,170.3H73.268c-0.78,0-1.413-0.633-1.413-1.413l0,0c0-0.78,0.632-1.413,1.413-1.413h63.048
			c0.78,0,1.413,0.632,1.413,1.413l0,0C137.729,169.667,137.097,170.3,136.317,170.3z"/>
		<path style="fill:#FFCBAD;" d="M136.317,178.903H73.268c-0.78,0-1.413-0.632-1.413-1.412l0,0c0-0.78,0.632-1.413,1.413-1.413
			h63.048c0.78,0,1.413,0.632,1.413,1.413l0,0C137.729,178.271,137.097,178.903,136.317,178.903z"/>
		<path style="fill:#FFCBAD;" d="M136.317,187.506H73.268c-0.78,0-1.413-0.632-1.413-1.412l0,0c0-0.78,0.632-1.412,1.413-1.412
			h63.048c0.78,0,1.413,0.632,1.413,1.412l0,0C137.729,186.874,137.097,187.506,136.317,187.506z"/>
	</g>
	<g>
		<rect x="156.705" y="73.593" style="fill:#3C7372;" width="192.669" height="148.284"/>
		<rect x="159.9" y="76.571" style="fill:#D1E6E3;" width="186.28" height="142.329"/>
		<g>
			<rect x="278.258" y="99.099" style="fill:#5EAAA8;" width="57.498" height="99.697"/>
			<g>
				<g>
					<rect x="283.176" y="109.235" style="fill:#F59660;" width="47.663" height="2.774"/>
					<rect x="283.176" y="114.531" style="fill:#F59660;" width="47.663" height="2.774"/>
					<rect x="283.176" y="119.827" style="fill:#F59660;" width="47.663" height="2.774"/>
					<rect x="294.902" y="103.939" style="fill:#F59660;" width="35.936" height="2.774"/>
				</g>
				<g>
					<rect x="283.176" y="135.21" style="fill:#EB5E0B;" width="47.663" height="11.432"/>
					<path style="fill:#F8D8D8;" d="M294.419,140.926c0,2.066-1.675,3.741-3.741,3.741c-2.066,0-3.741-1.675-3.741-3.741
						c0-2.066,1.675-3.741,3.741-3.741C292.744,137.185,294.419,138.86,294.419,140.926z"/>
				</g>
				<g>
					<rect x="283.176" y="150.173" style="fill:#EB5E0B;" width="47.663" height="11.432"/>
					<path style="fill:#F8D8D8;" d="M294.419,155.889c0,2.066-1.675,3.741-3.741,3.741c-2.066,0-3.741-1.675-3.741-3.741
						c0-2.066,1.675-3.741,3.741-3.741C292.744,152.148,294.419,153.823,294.419,155.889z"/>
				</g>
				<g>
					<rect x="283.176" y="165.136" style="fill:#EB5E0B;" width="47.663" height="11.432"/>
					<path style="fill:#F8D8D8;" d="M294.419,170.852c0,2.066-1.675,3.741-3.741,3.741c-2.066,0-3.741-1.675-3.741-3.741
						c0-2.066,1.675-3.741,3.741-3.741C292.744,167.111,294.419,168.786,294.419,170.852z"/>
				</g>
				<g>
					<rect x="283.176" y="180.098" style="fill:#EB5E0B;" width="47.663" height="11.432"/>
					<path style="fill:#F8D8D8;" d="M294.419,185.815c0,2.066-1.675,3.741-3.741,3.741c-2.066,0-3.741-1.675-3.741-3.741
						c0-2.066,1.675-3.741,3.741-3.741C292.744,182.074,294.419,183.749,294.419,185.815z"/>
				</g>
			</g>
		</g>
		
			<ellipse transform="matrix(0.9259 -0.3777 0.3777 0.9259 -38.4488 93.2636)" style="fill:#A3D2CA;" cx="218.575" cy="144.667" rx="43.369" ry="43.369"/>
		<g>
			<path style="fill:#EB5E0B;" d="M182.213,155.736c-5.022,6.12-6.968,14.803-4.464,22.313c1.998,5.991,6.668,10.947,12.35,13.702
				c6.754,3.275,14.955,3.46,21.809,0.4c6.854-3.061,12.212-9.336,14.061-16.611c1.849-7.275,0.115-15.393-4.625-21.214
				c-7.802-9.582-20.845-10.75-31.277-5.039C187.079,150.924,184.377,153.098,182.213,155.736z"/>
			<path style="fill:#F59660;" d="M185.065,157.838c-4.286,5.224-5.947,12.634-3.81,19.044c1.705,5.113,5.691,9.343,10.541,11.695
				c5.765,2.795,12.764,2.953,18.614,0.341c5.85-2.612,10.422-7.968,12.001-14.178c1.578-6.209,0.098-13.138-3.947-18.105
				c-6.659-8.178-17.791-9.175-26.694-4.3C189.218,153.731,186.912,155.586,185.065,157.838z"/>
			<path style="fill:#EB5E0B;" d="M184.959,167.641c-1.688,2.176-1.894,5.376-0.55,7.781c1.344,2.404,4.137,3.9,6.887,3.747
				c2.306-0.129,4.535-1.389,5.785-3.332c1.25-1.943,1.467-4.524,0.507-6.625c-1.605-3.511-6.48-5.113-9.955-3.614
				C186.593,166.046,185.655,166.743,184.959,167.641z"/>
			<path style="fill:#EB5E0B;" d="M202.636,172.717c-1.104,1.424-1.238,3.516-0.36,5.089c0.879,1.572,2.705,2.551,4.504,2.45
				c1.508-0.084,2.966-0.909,3.783-2.179c0.818-1.27,0.96-2.959,0.332-4.333c-1.049-2.296-4.238-3.344-6.51-2.364
				C203.704,171.674,203.091,172.13,202.636,172.717z"/>
			<path style="fill:#EB5E0B;" d="M198,155.213c-1.691,2.18-1.897,5.385-0.551,7.794c1.346,2.408,4.144,3.907,6.898,3.753
				c2.31-0.129,4.542-1.392,5.794-3.337c1.252-1.946,1.47-4.532,0.508-6.636c-1.607-3.517-6.491-5.121-9.971-3.62
				C199.636,153.616,198.697,154.314,198,155.213z"/>
			<path style="fill:#EB5E0B;" d="M197.102,181.169c-0.587,0.757-0.658,1.869-0.191,2.705c0.467,0.836,1.438,1.356,2.395,1.303
				c0.802-0.045,1.577-0.483,2.011-1.158s0.51-1.573,0.176-2.303c-0.558-1.221-2.253-1.778-3.461-1.257
				C197.67,180.614,197.344,180.856,197.102,181.169z"/>
			<path style="fill:#EB5E0B;" d="M212.682,179.671c-0.319,0.411-0.358,1.016-0.104,1.47c0.254,0.454,0.781,0.737,1.301,0.708
				c0.436-0.024,0.857-0.262,1.092-0.629c0.236-0.367,0.277-0.854,0.096-1.251c-0.303-0.663-1.224-0.966-1.88-0.683
				C212.99,179.37,212.813,179.502,212.682,179.671z"/>
			<path style="fill:#EB5E0B;" d="M191.127,160.18c-0.319,0.411-0.358,1.016-0.104,1.47c0.254,0.454,0.781,0.737,1.301,0.708
				c0.436-0.024,0.857-0.262,1.093-0.629c0.236-0.367,0.277-0.855,0.096-1.251c-0.303-0.663-1.224-0.966-1.88-0.683
				C191.436,159.878,191.259,160.01,191.127,160.18z"/>
			<path style="fill:#EB5E0B;" d="M211.745,167.001c-0.587,0.757-0.658,1.869-0.191,2.705c0.467,0.836,1.438,1.356,2.394,1.303
				c0.802-0.045,1.577-0.483,2.011-1.158c0.434-0.675,0.51-1.573,0.176-2.303c-0.558-1.221-2.253-1.778-3.461-1.257
				C212.313,166.447,211.987,166.689,211.745,167.001z"/>
		</g>
		<g>
			<path style="fill:#5EAAA8;" d="M239.024,109.424c-2.35,1.155-4.925,1.839-7.616,2.597c-2.724,0.767-5.427,1.748-7.757,3.354
				c-2.33,1.606-4.277,3.897-5.032,6.624c-0.856,3.095-0.086,6.5,1.634,9.212s4.314,4.782,7.132,6.324
				c1.987,1.087,4.116,1.939,6.341,2.366c2.086,0.4,4.231,0.422,6.349,0.258c10.077-0.781,20.024-6.259,24.797-15.169
				c3.051-5.696,3.934-12.656,2.381-18.939c-1.466-5.931-6.092-9.082-12.041-9.514c-2.061-0.15-4.224,0.222-5.909,1.419
				c-2.45,1.74-2.978,4.743-4.666,7.064C243.263,106.907,241.096,108.405,239.024,109.424z"/>
			<g>
				<path style="fill:#5EAAA8;" d="M235.549,111.287l-0.002-0.004C235.515,111.203,235.444,111.147,235.549,111.287z"/>
				<path style="fill:#5EAAA8;" d="M237.848,112.13c-0.317-1.666-1.181-3.246-2.4-4.43c0.359-0.415,0.689-0.852,0.947-1.325
					c0.187-0.344,0.255-0.759,0.149-1.142c-0.095-0.344-0.36-0.716-0.681-0.885c-0.344-0.182-0.76-0.273-1.141-0.149
					c-0.361,0.117-0.699,0.339-0.885,0.681c-0.133,0.244-0.29,0.472-0.453,0.696c-0.261,0.314-0.55,0.601-0.864,0.861
					c-0.376,0.271-0.774,0.507-1.201,0.691c-0.317,0.136-0.594,0.57-0.681,0.886c-0.098,0.355-0.054,0.827,0.149,1.142
					c0.204,0.316,0.508,0.595,0.885,0.681c0.131,0.018,0.262,0.035,0.394,0.053c0.268-0.001,0.517-0.068,0.748-0.202
					c0.403-0.173,0.787-0.394,1.153-0.643c0.193,0.183,0.393,0.359,0.566,0.562c0.03,0.035,0.06,0.071,0.089,0.107
					c0.007,0.008,0.027,0.033,0.046,0.057c0.014,0.019,0.029,0.039,0.035,0.046c0.035,0.047,0.068,0.094,0.102,0.142
					c0.12,0.171,0.233,0.348,0.339,0.528c0.1,0.171,0.193,0.345,0.279,0.523c0.041,0.085,0.074,0.21,0.131,0.285
					c-0.003-0.003-0.002-0.003-0.005-0.007c0.016,0.042,0.033,0.084,0.049,0.126c0.151,0.403,0.265,0.819,0.346,1.242
					c0.097,0.509,0.736,0.845,1.215,0.69C237.701,113.17,237.952,112.675,237.848,112.13z"/>
			</g>
			<g>
				<path style="fill:#5EAAA8;" d="M247.149,100.238l-0.001-0.004C247.116,100.153,247.044,100.097,247.149,100.238z"/>
				<path style="fill:#5EAAA8;" d="M249.448,101.081c-0.317-1.666-1.181-3.245-2.4-4.43c0.359-0.415,0.689-0.852,0.947-1.325
					c0.187-0.344,0.255-0.759,0.149-1.142c-0.095-0.344-0.36-0.716-0.681-0.885c-0.344-0.182-0.76-0.273-1.142-0.149
					c-0.361,0.117-0.699,0.339-0.885,0.681c-0.133,0.244-0.29,0.472-0.453,0.696c-0.261,0.314-0.549,0.601-0.864,0.861
					c-0.376,0.271-0.774,0.507-1.201,0.691c-0.317,0.136-0.594,0.57-0.681,0.885c-0.098,0.355-0.054,0.827,0.149,1.142
					c0.204,0.316,0.508,0.595,0.886,0.681c0.131,0.018,0.262,0.035,0.394,0.053c0.268-0.001,0.517-0.068,0.748-0.202
					c0.403-0.173,0.786-0.394,1.153-0.643c0.193,0.183,0.393,0.359,0.566,0.562c0.03,0.035,0.06,0.071,0.089,0.107
					c0.007,0.008,0.027,0.033,0.046,0.057c0.014,0.019,0.029,0.039,0.035,0.046c0.035,0.047,0.069,0.094,0.102,0.142
					c0.12,0.171,0.233,0.348,0.339,0.528c0.1,0.171,0.193,0.345,0.279,0.523c0.041,0.085,0.074,0.21,0.131,0.285
					c-0.003-0.003-0.002-0.004-0.005-0.007c0.017,0.042,0.033,0.084,0.049,0.127c0.151,0.403,0.265,0.818,0.346,1.242
					c0.097,0.509,0.736,0.845,1.215,0.69C249.302,102.12,249.552,101.626,249.448,101.081z"/>
			</g>
			<g>
				<path style="fill:#5EAAA8;" d="M259.849,97.735l0.003-0.003C259.913,97.671,259.936,97.583,259.849,97.735z"/>
				<path style="fill:#5EAAA8;" d="M259.999,100.18c1.399-0.958,2.5-2.383,3.096-3.975c0.524,0.162,1.057,0.29,1.594,0.336
					c0.39,0.034,0.798-0.071,1.106-0.321c0.277-0.224,0.512-0.617,0.538-0.979c0.029-0.388-0.055-0.806-0.321-1.106
					c-0.252-0.284-0.591-0.505-0.979-0.538c-0.277-0.024-0.549-0.077-0.819-0.136c-0.392-0.113-0.771-0.262-1.135-0.447
					c-0.399-0.236-0.775-0.506-1.114-0.823c-0.252-0.236-0.76-0.316-1.084-0.269c-0.364,0.053-0.779,0.282-0.986,0.595
					c-0.208,0.314-0.341,0.703-0.269,1.084c0.037,0.127,0.073,0.255,0.11,0.382c0.108,0.245,0.27,0.446,0.485,0.604
					c0.32,0.299,0.676,0.563,1.052,0.799c-0.09,0.25-0.171,0.505-0.288,0.744c-0.02,0.042-0.041,0.084-0.062,0.125
					c-0.005,0.01-0.02,0.038-0.034,0.065c-0.012,0.021-0.024,0.042-0.028,0.05c-0.029,0.05-0.059,0.101-0.089,0.15
					c-0.109,0.179-0.225,0.353-0.348,0.522c-0.116,0.16-0.239,0.315-0.368,0.465c-0.061,0.072-0.163,0.152-0.209,0.234
					c0.002-0.004,0.002-0.004,0.004-0.007c-0.032,0.032-0.064,0.064-0.096,0.095c-0.309,0.3-0.644,0.571-0.999,0.814
					c-0.427,0.293-0.479,1.013-0.145,1.39C258.988,100.462,259.541,100.493,259.999,100.18z"/>
			</g>
			<g>
				<path style="fill:#5EAAA8;" d="M266.37,103.132l0.004,0.002C266.455,103.166,266.544,103.152,266.37,103.132z"/>
				<path style="fill:#5EAAA8;" d="M264.174,104.215c1.425,0.919,3.165,1.383,4.863,1.316c0.053,0.546,0.142,1.087,0.307,1.6
					c0.12,0.373,0.375,0.708,0.724,0.895c0.314,0.168,0.767,0.233,1.111,0.118c0.369-0.124,0.722-0.363,0.895-0.724
					c0.165-0.342,0.237-0.74,0.117-1.111c-0.085-0.264-0.141-0.535-0.192-0.808c-0.047-0.405-0.057-0.813-0.027-1.22
					c0.063-0.459,0.167-0.911,0.328-1.346c0.12-0.324-0.003-0.823-0.172-1.104c-0.19-0.315-0.562-0.609-0.93-0.679
					c-0.37-0.07-0.781-0.043-1.104,0.172c-0.103,0.083-0.207,0.166-0.31,0.249c-0.184,0.194-0.307,0.421-0.369,0.681
					c-0.152,0.411-0.257,0.841-0.329,1.279c-0.266,0.014-0.531,0.038-0.798,0.022c-0.046-0.003-0.093-0.006-0.139-0.009
					c-0.011-0.001-0.042-0.004-0.073-0.006c-0.023-0.003-0.048-0.005-0.057-0.007c-0.058-0.007-0.115-0.015-0.173-0.024
					c-0.207-0.031-0.413-0.071-0.617-0.119c-0.192-0.046-0.383-0.098-0.571-0.159c-0.09-0.029-0.203-0.091-0.297-0.102
					c0.004,0,0.004,0.001,0.008,0.001c-0.042-0.017-0.084-0.034-0.125-0.052c-0.396-0.169-0.776-0.372-1.138-0.606
					c-0.435-0.281-1.119-0.05-1.337,0.404C263.523,103.393,263.708,103.915,264.174,104.215z"/>
			</g>
			<g>
				<path style="fill:#5EAAA8;" d="M266.649,118.972l0.004,0C266.74,118.978,266.821,118.937,266.649,118.972z"/>
				<path style="fill:#5EAAA8;" d="M264.908,120.694c1.642,0.422,3.439,0.313,5.03-0.286c0.223,0.502,0.478,0.987,0.796,1.421
					c0.231,0.316,0.579,0.554,0.969,0.621c0.351,0.061,0.801-0.021,1.091-0.239c0.311-0.234,0.57-0.572,0.621-0.969
					c0.048-0.377-0.009-0.777-0.239-1.091c-0.164-0.224-0.303-0.463-0.437-0.706c-0.172-0.37-0.31-0.753-0.411-1.149
					c-0.085-0.456-0.129-0.917-0.114-1.381c0.012-0.345-0.263-0.78-0.511-0.993c-0.279-0.239-0.725-0.401-1.097-0.351
					c-0.373,0.05-0.754,0.206-0.993,0.511c-0.072,0.111-0.144,0.223-0.216,0.334c-0.113,0.242-0.158,0.497-0.135,0.763
					c-0.015,0.438,0.021,0.879,0.091,1.317c-0.248,0.097-0.492,0.203-0.75,0.273c-0.045,0.012-0.09,0.024-0.135,0.035
					c-0.011,0.003-0.041,0.01-0.071,0.017c-0.023,0.005-0.048,0.01-0.057,0.012c-0.057,0.011-0.114,0.022-0.171,0.032
					c-0.206,0.036-0.414,0.063-0.623,0.082c-0.197,0.018-0.395,0.027-0.592,0.03c-0.094,0.001-0.221-0.022-0.314-0.003
					c0.004-0.001,0.004-0.001,0.008-0.002c-0.045-0.003-0.09-0.006-0.135-0.01c-0.429-0.035-0.854-0.109-1.271-0.216
					c-0.501-0.129-1.078,0.306-1.141,0.806C264.03,120.118,264.37,120.556,264.908,120.694z"/>
			</g>
			<g>
				<path style="fill:#5EAAA8;" d="M262.529,127.837l0.003,0.003C262.59,127.905,262.677,127.933,262.529,127.837z"/>
				<path style="fill:#5EAAA8;" d="M260.081,127.848c0.877,1.451,2.237,2.631,3.792,3.317c-0.192,0.514-0.35,1.039-0.427,1.572
					c-0.056,0.388,0.026,0.801,0.258,1.122c0.208,0.289,0.587,0.546,0.947,0.593c0.386,0.051,0.808-0.009,1.122-0.257
					c0.298-0.235,0.538-0.561,0.593-0.946c0.04-0.275,0.108-0.543,0.182-0.81c0.135-0.385,0.306-0.755,0.51-1.108
					c0.259-0.385,0.549-0.745,0.885-1.066c0.25-0.238,0.358-0.741,0.33-1.067c-0.032-0.366-0.238-0.794-0.538-1.018
					c-0.301-0.226-0.683-0.381-1.067-0.33c-0.129,0.029-0.258,0.058-0.388,0.088c-0.251,0.094-0.461,0.244-0.631,0.45
					c-0.317,0.302-0.6,0.643-0.857,1.004c-0.245-0.105-0.494-0.2-0.726-0.33c-0.04-0.023-0.081-0.046-0.121-0.07
					c-0.009-0.005-0.036-0.022-0.063-0.037c-0.02-0.013-0.041-0.026-0.049-0.031c-0.049-0.032-0.097-0.064-0.145-0.097
					c-0.172-0.119-0.34-0.245-0.502-0.377c-0.153-0.126-0.301-0.257-0.444-0.394c-0.068-0.065-0.142-0.171-0.222-0.222
					c0.003,0.002,0.003,0.002,0.007,0.005c-0.03-0.034-0.06-0.067-0.09-0.102c-0.282-0.326-0.534-0.675-0.756-1.044
					c-0.268-0.443-0.984-0.536-1.379-0.224C259.856,126.822,259.793,127.373,260.081,127.848z"/>
			</g>
			<g>
				<path style="fill:#5EAAA8;" d="M255.736,134.736v0.004C255.735,134.827,255.78,134.906,255.736,134.736z"/>
				<path style="fill:#5EAAA8;" d="M253.923,133.09c-0.333,1.662-0.128,3.451,0.556,5.008c-0.489,0.25-0.959,0.53-1.376,0.871
					c-0.303,0.248-0.522,0.608-0.568,1.001c-0.042,0.354,0.064,0.799,0.298,1.077c0.25,0.298,0.602,0.539,1.001,0.568
					c0.379,0.028,0.775-0.051,1.077-0.298c0.215-0.176,0.446-0.328,0.682-0.474c0.36-0.193,0.736-0.35,1.125-0.472
					c0.45-0.109,0.908-0.179,1.373-0.188c0.345-0.007,0.764-0.304,0.964-0.564c0.224-0.292,0.361-0.746,0.291-1.114
					c-0.07-0.37-0.246-0.742-0.564-0.964c-0.115-0.066-0.23-0.132-0.345-0.197c-0.248-0.1-0.504-0.131-0.769-0.094
					c-0.438,0.009-0.877,0.069-1.311,0.162c-0.11-0.242-0.229-0.481-0.313-0.734c-0.014-0.044-0.029-0.089-0.042-0.133
					c-0.003-0.01-0.012-0.041-0.021-0.07c-0.006-0.023-0.013-0.047-0.015-0.056c-0.014-0.056-0.028-0.113-0.041-0.169
					c-0.047-0.204-0.085-0.41-0.115-0.617c-0.028-0.196-0.049-0.392-0.061-0.59c-0.006-0.094,0.011-0.222-0.014-0.314
					c0.001,0.004,0.001,0.004,0.002,0.008c0-0.045,0.001-0.09,0.002-0.136c0.012-0.431,0.062-0.858,0.147-1.28
					c0.102-0.508-0.364-1.06-0.866-1.097C254.45,132.182,254.032,132.546,253.923,133.09z"/>
			</g>
			<g>
				<path style="fill:#5EAAA8;" d="M242.393,138.662l-0.002,0.004C242.351,138.743,242.356,138.834,242.393,138.662z"/>
				<path style="fill:#5EAAA8;" d="M241.521,136.374c-1.049,1.332-1.675,3.02-1.769,4.718c-0.549,0.002-1.095,0.039-1.621,0.155
					c-0.383,0.084-0.74,0.306-0.96,0.636c-0.197,0.297-0.304,0.742-0.222,1.095c0.089,0.379,0.293,0.753,0.636,0.96
					c0.325,0.196,0.714,0.305,1.095,0.221c0.271-0.06,0.546-0.09,0.822-0.115c0.408-0.009,0.814,0.02,1.217,0.088
					c0.451,0.106,0.891,0.251,1.309,0.453c0.311,0.15,0.82,0.075,1.115-0.067c0.332-0.159,0.659-0.502,0.764-0.862
					c0.105-0.362,0.116-0.773-0.067-1.115c-0.073-0.111-0.146-0.221-0.219-0.332c-0.176-0.201-0.391-0.345-0.643-0.432
					c-0.395-0.19-0.813-0.335-1.242-0.449c0.012-0.266,0.013-0.533,0.053-0.796c0.007-0.046,0.014-0.092,0.022-0.138
					c0.002-0.011,0.008-0.042,0.013-0.072c0.005-0.023,0.01-0.048,0.012-0.057c0.013-0.057,0.026-0.113,0.04-0.17
					c0.05-0.203,0.109-0.404,0.177-0.603c0.063-0.187,0.134-0.372,0.212-0.554c0.037-0.087,0.11-0.193,0.129-0.286
					c-0.001,0.004-0.001,0.004-0.002,0.008c0.021-0.04,0.042-0.08,0.063-0.12c0.205-0.379,0.444-0.737,0.71-1.076
					c0.321-0.407,0.155-1.11-0.276-1.369C242.401,135.803,241.864,135.938,241.521,136.374z"/>
			</g>
			<g>
				<path style="fill:#5EAAA8;" d="M222.348,130.455l-0.004,0C222.258,130.464,222.184,130.518,222.348,130.455z"/>
				<path style="fill:#5EAAA8;" d="M223.79,128.475c-1.689-0.152-3.445,0.245-4.918,1.093c-0.301-0.459-0.631-0.897-1.015-1.274
					c-0.279-0.275-0.661-0.453-1.057-0.457c-0.356-0.003-0.788,0.15-1.038,0.412c-0.269,0.281-0.471,0.656-0.457,1.057
					c0.014,0.38,0.134,0.765,0.412,1.038c0.198,0.195,0.374,0.408,0.545,0.627c0.23,0.337,0.428,0.693,0.591,1.067
					c0.157,0.436,0.275,0.884,0.335,1.344c0.044,0.342,0.385,0.727,0.665,0.898c0.314,0.191,0.781,0.278,1.139,0.169
					c0.36-0.109,0.711-0.325,0.898-0.665c0.053-0.122,0.106-0.243,0.159-0.364c0.073-0.257,0.076-0.516,0.011-0.775
					c-0.056-0.435-0.163-0.864-0.302-1.286c0.229-0.135,0.453-0.28,0.696-0.39c0.042-0.019,0.085-0.038,0.128-0.057
					c0.01-0.004,0.039-0.016,0.067-0.028c0.022-0.009,0.045-0.018,0.054-0.021c0.054-0.02,0.109-0.04,0.164-0.059
					c0.198-0.068,0.398-0.129,0.601-0.181c0.191-0.049,0.385-0.091,0.58-0.125c0.093-0.016,0.222-0.014,0.31-0.048
					c-0.004,0.001-0.004,0.001-0.008,0.003c0.045-0.004,0.09-0.009,0.135-0.012c0.429-0.035,0.86-0.03,1.289,0.008
					c0.516,0.046,1.014-0.476,0.997-0.979C224.749,128.902,224.342,128.525,223.79,128.475z"/>
			</g>
			<g>
				<path style="fill:#5EAAA8;" d="M227.973,138.116l-0.003,0.002C227.902,138.173,227.869,138.258,227.973,138.116z"/>
				<path style="fill:#5EAAA8;" d="M228.103,135.671c-1.499,0.792-2.755,2.082-3.529,3.596c-0.502-0.221-1.017-0.409-1.545-0.516
					c-0.384-0.078-0.801-0.02-1.135,0.193c-0.301,0.191-0.579,0.555-0.646,0.911c-0.073,0.382-0.037,0.807,0.192,1.135
					c0.218,0.311,0.529,0.569,0.911,0.646c0.272,0.055,0.536,0.139,0.798,0.229c0.376,0.157,0.736,0.348,1.077,0.573
					c0.369,0.28,0.712,0.591,1.013,0.945c0.223,0.263,0.719,0.4,1.046,0.391c0.368-0.011,0.806-0.191,1.047-0.478
					c0.243-0.288,0.42-0.66,0.391-1.046c-0.022-0.131-0.043-0.261-0.065-0.392c-0.079-0.255-0.217-0.474-0.413-0.656
					c-0.284-0.334-0.607-0.636-0.954-0.913c0.118-0.238,0.228-0.482,0.371-0.706c0.025-0.039,0.051-0.078,0.076-0.117
					c0.006-0.009,0.024-0.035,0.041-0.06c0.014-0.019,0.028-0.039,0.034-0.047c0.035-0.047,0.07-0.093,0.105-0.139
					c0.129-0.165,0.264-0.325,0.406-0.479c0.134-0.145,0.273-0.286,0.418-0.42c0.069-0.064,0.179-0.132,0.234-0.209
					c-0.002,0.003-0.003,0.003-0.005,0.006c0.035-0.028,0.071-0.056,0.106-0.084c0.341-0.263,0.705-0.494,1.085-0.695
					c0.458-0.242,0.591-0.952,0.302-1.364C229.14,135.506,228.594,135.411,228.103,135.671z"/>
			</g>
			<g>
				<path style="fill:#5EAAA8;" d="M222.392,117.845l-0.003-0.003C222.322,117.786,222.233,117.77,222.392,117.845z"/>
				<path style="fill:#5EAAA8;" d="M224.817,117.502c-1.066-1.319-2.573-2.303-4.208-2.772c0.12-0.535,0.205-1.077,0.209-1.615
					c0.003-0.392-0.134-0.79-0.407-1.077c-0.246-0.258-0.656-0.461-1.018-0.459c-0.389,0.002-0.799,0.118-1.077,0.407
					c-0.263,0.274-0.456,0.629-0.459,1.018c-0.002,0.277-0.033,0.553-0.071,0.827c-0.082,0.4-0.201,0.79-0.356,1.167
					c-0.204,0.416-0.443,0.813-0.732,1.176c-0.215,0.27-0.255,0.783-0.182,1.102c0.081,0.359,0.343,0.754,0.671,0.936
					c0.329,0.182,0.728,0.285,1.102,0.182c0.124-0.047,0.248-0.093,0.372-0.139c0.235-0.127,0.423-0.304,0.564-0.531
					c0.273-0.343,0.508-0.718,0.713-1.112c0.257,0.07,0.516,0.131,0.764,0.229c0.043,0.017,0.086,0.035,0.129,0.052
					c0.01,0.004,0.039,0.017,0.067,0.029c0.021,0.01,0.044,0.02,0.053,0.024c0.052,0.025,0.105,0.051,0.157,0.077
					c0.187,0.094,0.37,0.197,0.548,0.306c0.169,0.103,0.333,0.213,0.493,0.329c0.076,0.056,0.164,0.15,0.25,0.19
					c-0.004-0.002-0.004-0.002-0.007-0.004c0.035,0.029,0.069,0.058,0.103,0.088c0.324,0.284,0.62,0.597,0.891,0.932
					c0.326,0.403,1.048,0.397,1.397,0.034C225.178,118.488,225.165,117.934,224.817,117.502z"/>
			</g>
		</g>
	</g>
	<g>
		<rect x="272.11" y="239.241" style="fill:#F59660;" width="80.989" height="128.801"/>
		<rect x="353.099" y="239.241" style="fill:#EB5E0B;" width="25.769" height="129.126"/>
		<rect x="349.172" y="231.596" style="fill:#A3460F;" width="33.623" height="9.817"/>
		<rect x="266.465" y="231.596" style="fill:#EB5E0B;" width="92.278" height="9.817"/>
		<rect x="281.027" y="255.122" style="fill:none;stroke:#EB5E0B;stroke-miterlimit:10;" width="63.155" height="95.551"/>
	</g>
	<g>
		<g>
			<path style="fill:#A3D2CA;" d="M352.838,311.961c-0.912,0.006-1.824,0.012-2.736,0.017c0.513-0.886,0.962-1.809,1.349-2.757
				c-1.646-2.99-3.631-5.788-5.897-8.341c-0.908,0.253-1.816,0.507-2.725,0.76c0.57-0.634,1.094-1.308,1.57-2.014
				c-3.187-3.336-6.863-6.205-10.895-8.449c-0.055,5.964-0.159,12.096,1.113,17.924c0.793,3.634,1.983,7.208,3.655,10.526
				c1.162-0.297,2.323-0.594,3.485-0.891c-0.708,1.116-1.416,2.232-2.124,3.347c0.674,1.115,1.406,2.194,2.207,3.225
				c0.716,0.921,1.514,1.796,2.374,2.621c1-0.644,2.001-1.288,3.001-1.932c-0.334,1.221-0.669,2.442-1.003,3.663
				c3.194,2.515,6.99,4.385,10.814,5.332C357.636,327.126,356.164,319.114,352.838,311.961z"/>
			<path style="fill:#D1E6E3;" d="M357.172,335.079c-2.539-5.256-5.149-10.477-7.831-15.662c-2.663-5.147-5.395-10.258-8.197-15.331
				c-1.592-2.883-3.208-5.754-4.844-8.612c-0.165-0.288-0.611-0.029-0.445,0.26c2.9,5.065,5.732,10.17,8.493,15.313
				c2.741,5.106,5.413,10.249,8.014,15.428c1.478,2.943,2.933,5.898,4.366,8.864C356.871,335.638,357.316,335.377,357.172,335.079z"
				/>
		</g>
		<g>
			<path style="fill:#A3D2CA;" d="M379.535,313.554c1.652,0.065,3.305,0.13,4.957,0.195c2.344-5.424,3.718-11.273,4.071-17.19
				c-2.206-0.436-4.412-0.872-6.618-1.308c2.234-0.358,4.467-0.716,6.701-1.074c0.053-3.984-0.352-7.976-1.239-11.869
				c-4.926,0.273-9.17,3.556-12.508,7.189c-2.865,3.118-5.291,6.616-7.252,10.362c0.683,0.661,1.367,1.321,2.05,1.982
				c-1.11,0.215-2.22,0.43-3.331,0.645c-2.718,6.007-4.279,12.546-4.542,19.131c0.372,0.169,0.744,0.337,1.117,0.506
				c-0.376,0.172-0.757,0.33-1.142,0.478c-0.074,3.645,0.246,7.297,0.992,10.871c3.023,0.045,5.53-0.563,8.085-2.18
				c2.555-1.617,4.719-3.788,6.649-6.116c2.368-2.857,4.367-5.988,5.991-9.303C382.189,315.1,380.862,314.327,379.535,313.554z"/>
			<path style="fill:#D1E6E3;" d="M382.448,287.138c-3.947,5.962-7.459,12.209-10.501,18.68c-3.019,6.421-5.58,13.058-7.65,19.844
				c-1.172,3.84-2.185,7.727-3.039,11.65c-0.071,0.324,0.427,0.462,0.497,0.137c1.513-6.949,3.529-13.786,6.027-20.445
				c2.504-6.673,5.493-13.164,8.934-19.405c1.92-3.482,3.981-6.885,6.176-10.201C383.077,287.12,382.631,286.862,382.448,287.138z"
				/>
		</g>
		<g>
			<path style="fill:#5EAAA8;" d="M362.122,310.541c1.197-0.23,2.376-0.547,3.531-0.938c-0.01-1.313-0.057-2.627-0.147-3.941
				c-0.341-4.971-1.367-9.972-3.16-14.628c-1.481-0.076-2.959-0.222-4.424-0.456c1.161-0.621,2.285-1.309,3.382-2.037
				c-1.943-4.225-4.577-8.084-7.993-11.256c-3.357,5.612-5.948,11.764-7.554,18.139c0.576,0.306,1.152,0.611,1.729,0.917
				c-0.779,0.549-1.553,1.105-2.322,1.667c-0.54,2.6-0.913,5.23-1.106,7.868c1.293,0.15,2.587,0.3,3.88,0.45
				c-1.338,0.766-2.676,1.533-4.014,2.299c-0.067,2.733,0.062,5.467,0.411,8.18c0.05,0.388,0.105,0.777,0.164,1.165
				c1.122,0.165,2.236,0.392,3.331,0.69c-0.863,1.033-1.725,2.066-2.588,3.1c0.77,3.119,1.957,6.114,3.845,8.694
				c2.876,3.93,8.021,7.013,12.867,6.529c1.867-8.508,3.561-17.154,3.689-25.835C364.468,310.947,363.295,310.744,362.122,310.541z"
				/>
			<path style="fill:#D1E6E3;" d="M360.087,339.421c-1.658-7.283-2.985-14.642-3.967-22.047c-0.979-7.386-1.62-14.818-1.919-22.262
				c-0.168-4.183-0.228-8.369-0.181-12.555c0.004-0.332-0.512-0.332-0.516,0c-0.084,7.492,0.176,14.988,0.781,22.457
				c0.602,7.428,1.544,14.83,2.821,22.173c0.721,4.145,1.55,8.27,2.484,12.372C359.664,339.882,360.161,339.745,360.087,339.421z"/>
		</g>
		<polygon style="fill:#A3460F;" points="367.212,368.366 350.701,368.366 347.363,332.181 370.55,332.181 		"/>
	</g>
	<g>
		<g>
			<g>
				<g>
					<path style="fill:#EBBDA4;" d="M157.324,374.207c-2.16,7.482-15.633,32.226-23.399,46.18c-3.25,5.839-5.497,9.787-5.497,9.787
						c-7.693,0.262-11.329-3.199-11.329-3.199l3.476-10.696l13.779-42.398c0,0-34.8-0.487-49.335-3.483
						c-14.542-2.988-18.716-18.6-15.873-33.353h40.195c0,0,26.074,10.296,35.876,14.324
						C156.982,356.211,159.469,366.79,157.324,374.207z"/>
					<g>
						<path style="fill:#A3D2CA;" d="M112.283,436.756l-0.032,0.251c-0.065,0.368-0.118,0.724-0.158,1.116
							c-0.014,0.328-0.05,0.681-0.081,1.043l36.871,10.421c0,0,0.166-0.363,0.335-0.963c0.072-0.311,0.151-0.675,0.203-1.111
							c0.006-0.077,0.023-0.167,0.017-0.255c0.185-2.189-0.518-5.482-5.294-7.826c-0.225-0.127-0.472-0.228-0.74-0.343l-0.022-0.006
							c-0.378-0.17-0.762-0.318-1.176-0.474c-0.137-0.047-0.271-0.101-0.408-0.147c-9.863-3.64-13.372-8.286-13.372-8.286
							s-6.177-0.483-11.328-3.202c0,0-0.944,0.885-2.039,2.581c-0.177,0.289-0.367,0.599-0.555,0.932
							c-0.04,0.06-0.076,0.129-0.12,0.203c-0.076,0.129-0.151,0.281-0.225,0.434c-0.02,0.042-0.051,0.096-0.063,0.14
							c-0.011,0.037-0.036,0.045-0.045,0.074c-0.361,0.719-0.706,1.521-1.004,2.407C112.739,434.667,112.463,435.67,112.283,436.756
							z"/>
						<path style="fill:#FFFFFF;" d="M132.004,431.508c-0.093-0.151-0.234-0.283-0.412-0.325c-0.188-0.044-0.344-0.013-0.52,0.061
							c-0.124,0.052-0.248,0.102-0.373,0.153c-0.592,0.237-1.189,0.462-1.792,0.671c-0.171,0.06-0.318,0.149-0.414,0.308
							c-0.088,0.146-0.128,0.361-0.077,0.526c0.101,0.331,0.473,0.617,0.835,0.491c0.84-0.292,1.669-0.612,2.49-0.955
							c0.151-0.063,0.282-0.262,0.325-0.411C132.11,431.867,132.093,431.654,132.004,431.508z"/>
						<path style="fill:#FFFFFF;" d="M134.282,433.419c-0.183-0.296-0.613-0.475-0.932-0.263c-0.641,0.425-1.323,0.783-2.036,1.073
							c-0.113,0.044-0.227,0.088-0.342,0.129c-0.172,0.06-0.317,0.147-0.414,0.308c-0.088,0.145-0.128,0.361-0.077,0.527
							c0.101,0.329,0.474,0.619,0.835,0.491c0.951-0.336,1.861-0.775,2.702-1.332c0.154-0.102,0.273-0.229,0.325-0.411
							C134.389,433.779,134.371,433.565,134.282,433.419z"/>
						<path style="fill:#FFFFFF;" d="M136.44,434.949c-0.093-0.151-0.234-0.283-0.411-0.325c-0.164-0.038-0.378-0.044-0.521,0.061
							l-2.038,1.499c-0.153,0.113-0.271,0.22-0.325,0.412c-0.046,0.161-0.028,0.375,0.061,0.52c0.093,0.151,0.234,0.283,0.411,0.325
							c0.164,0.038,0.378,0.043,0.521-0.061l2.038-1.5c0.153-0.112,0.271-0.22,0.325-0.411
							C136.547,435.308,136.53,435.095,136.44,434.949z"/>
						<path style="fill:#FFFFFF;" d="M138.926,436.323c-0.27-0.258-0.697-0.284-0.972-0.015c-0.484,0.467-0.964,0.929-1.448,1.396
							c-0.286,0.24-0.327,0.731-0.049,0.996c0.27,0.258,0.697,0.284,0.972,0.015c0.484-0.467,0.964-0.929,1.448-1.396
							C139.163,437.078,139.204,436.587,138.926,436.323z"/>
						<path style="fill:#5EAAA8;" d="M112.245,437.01c-0.056,0.36-0.113,0.727-0.145,1.109c-0.026,0.337-0.064,0.687-0.082,1.05
							l36.863,10.418c0,0,0.17-0.358,0.341-0.961c0.074-0.316,0.155-0.684,0.199-1.109L112.245,437.01z"/>
					</g>
					<path style="fill:#A3460F;" d="M158.019,373.938c-2.16,7.482-21.687,49.259-21.687,49.259
						c-4.632-0.654-14.369-5.554-18.565-7.612l16.586-41.706c0,0-34.8-0.487-49.335-3.483c-14.542-2.988-18.716-18.6-15.873-33.353
						h40.195c0,0,26.472,9.598,36.274,13.626C157.38,355.513,160.164,366.522,158.019,373.938z"/>
					<path style="fill:#EBBDA4;" d="M176.302,371.364c-0.662,7.3-6.915,64.932-6.915,64.932s-6.471,1.832-11.772-0.08l-1.92-63.565
						c0,0-42.5,3.199-59.668-2.894c-17.16-6.093-16.52-32.8-16.52-32.8h39.417l2.131,2.879c0,0,40.697,11.038,44.376,12.281
						C172.055,354.364,177.399,359.388,176.302,371.364z"/>
					<path style="fill:#EB5E0B;" d="M176.773,371.463c-0.344,7.322-1.874,35.892-2.424,53.53c0,0.022-8.56,1.236-19.884-0.998
						l1.231-51.344c0,0-42.5,3.199-59.668-2.894c-17.16-6.093-16.52-32.8-16.52-32.8h39.417l2.131,2.879
						c0,0,40.697,11.038,44.376,12.281C172.055,354.364,177.376,358.607,176.773,371.463z"/>
					<path style="fill:#A3460F;" d="M160.776,371.955c-3.258,0.499-6.535,0.878-9.821,1.135c-3.273,0.257-6.554,0.394-9.837,0.411
						c-1.846,0.009-3.691-0.02-5.536-0.085c-0.238-0.008-0.237,0.361,0,0.37c3.296,0.118,6.595,0.116,9.891-0.008
						c3.31-0.124,6.616-0.371,9.908-0.738c0.022-0.003,0.044-0.006,0.066-0.008c0.012,3.306,0.025,6.611,0.037,9.917
						c0.001,0.238,0.37,0.238,0.37,0c-0.012-3.321-0.025-6.641-0.037-9.962c1.69-0.194,3.376-0.417,5.057-0.674
						C161.109,372.276,161.009,371.92,160.776,371.955z"/>
					<g>
						<path style="fill:#A3D2CA;" d="M155.566,446.926l0.036,0.251c0.035,0.372,0.078,0.729,0.144,1.117
							c0.074,0.32,0.132,0.669,0.198,1.027l38.315,0.266c0,0,0.063-0.395,0.068-1.017c-0.013-0.319-0.033-0.691-0.098-1.125
							c-0.015-0.076-0.022-0.167-0.052-0.251c-0.403-2.16-1.954-5.148-7.18-6.141c-0.25-0.063-0.516-0.095-0.804-0.134l-0.023,0
							c-0.41-0.064-0.82-0.104-1.26-0.145c-0.144-0.009-0.288-0.025-0.433-0.034c-10.475-0.893-15.091-4.442-15.091-4.442
							s-6.084,1.173-11.772-0.082c0,0-0.676,1.104-1.282,3.029c-0.093,0.326-0.195,0.675-0.288,1.046
							c-0.023,0.068-0.039,0.144-0.062,0.228c-0.039,0.144-0.07,0.311-0.102,0.478c-0.008,0.046-0.024,0.106-0.024,0.152
							c0,0.038-0.023,0.053-0.023,0.083c-0.157,0.789-0.277,1.654-0.33,2.587C155.451,444.791,155.452,445.832,155.566,446.926z"/>
						<path style="fill:#FFFFFF;" d="M173.188,436.635c-0.13-0.121-0.3-0.211-0.483-0.204c-0.193,0.007-0.335,0.079-0.486,0.197
							c-0.106,0.083-0.212,0.165-0.319,0.246c-0.508,0.386-1.024,0.761-1.55,1.123c-0.149,0.103-0.267,0.227-0.318,0.407
							c-0.046,0.164-0.027,0.382,0.065,0.528c0.186,0.292,0.62,0.47,0.935,0.252c0.732-0.505,1.447-1.033,2.147-1.581
							c0.129-0.101,0.203-0.327,0.204-0.483C173.386,436.953,173.313,436.752,173.188,436.635z"/>
						<path style="fill:#FFFFFF;" d="M175.891,437.874c-0.255-0.237-0.717-0.295-0.968-0.007c-0.505,0.58-1.068,1.106-1.678,1.575
							c-0.098,0.072-0.196,0.145-0.296,0.215c-0.149,0.104-0.266,0.226-0.317,0.407c-0.046,0.164-0.027,0.382,0.065,0.528
							c0.185,0.291,0.621,0.471,0.935,0.252c0.828-0.576,1.589-1.241,2.252-2.001c0.121-0.139,0.203-0.293,0.204-0.483
							C176.09,438.192,176.016,437.991,175.891,437.874z"/>
						<path style="fill:#FFFFFF;" d="M178.379,438.776c-0.13-0.121-0.3-0.211-0.483-0.204c-0.168,0.007-0.376,0.058-0.486,0.197
							l-1.567,1.987c-0.118,0.149-0.203,0.284-0.204,0.483c-0.001,0.168,0.072,0.369,0.197,0.486c0.129,0.121,0.3,0.211,0.483,0.204
							c0.168-0.007,0.376-0.059,0.486-0.197l1.567-1.986c0.118-0.149,0.203-0.284,0.204-0.483
							C178.577,439.094,178.504,438.893,178.379,438.776z"/>
						<path style="fill:#FFFFFF;" d="M181.139,439.441c-0.329-0.176-0.747-0.089-0.941,0.244c-0.343,0.578-0.683,1.152-1.026,1.73
							c-0.212,0.308-0.121,0.791,0.217,0.973c0.328,0.177,0.747,0.09,0.941-0.243c0.343-0.579,0.683-1.152,1.026-1.73
							C181.568,440.106,181.477,439.622,181.139,439.441z"/>
						<path style="fill:#5EAAA8;" d="M155.597,447.182c0.042,0.362,0.083,0.731,0.155,1.107c0.064,0.332,0.12,0.679,0.199,1.034
							l38.306,0.266c0,0,0.069-0.39,0.074-1.017c-0.013-0.324-0.032-0.701-0.103-1.122L155.597,447.182z"/>
					</g>
				</g>
				<g>
					<g>
						<g>
							<g>
								<path style="fill:#EBBDA4;" d="M86.977,253.126c0,0,3.747,7.631,3.928,17.837c2.164,4.609,8.405,3.863,9.907-0.298
									c-0.113-3.88,0.553-5.705,1.775-7.051c0.101-0.113,0.202-0.212,0.308-0.32c0.072-0.077,0.144-0.144,0.226-0.216
									c0.144-0.135,0.311-0.26,0.469-0.398c0.225-0.179,0.459-0.357,0.702-0.54l0.005,0c0.959-0.717,2.083-1.475,3.33-2.602
									c1.818-1.629,3.167-3.859,3.683-7.336c0.011-0.041,0.017-0.083,0.023-0.13c0.011-0.051,0.017-0.102,0.024-0.153
									c0.012-0.093,0.02-0.176,0.027-0.264c0.011-0.042,0.012-0.079,0.018-0.116c0.383-3.403,0.041-7.942-1.327-14.199
									c-1.422-6.487-17.249-8.811-21.487-0.465C86.846,240.32,86.977,253.126,86.977,253.126z"/>
								<path style="fill:#381A08;" d="M88.874,255.235c-3.67-2.324-6.376-6.123-7.373-10.351c-0.305-1.294-0.454-2.655-0.157-3.951
									c0.297-1.296,1.094-2.524,2.292-3.101c-1.694-2.292-1.66-5.71,0.08-7.968c1.905-2.472,5.264-3.282,8.378-3.492
									c3.114-0.21,6.333-0.001,9.257-1.092c2.49-0.929,4.68-2.776,7.325-3.039c2.804-0.279,5.684,1.535,6.643,4.185
									c0.96,2.65-0.091,5.887-2.423,7.468c1.058,4.426,0.001,9.595-3.019,12.999C104.733,252.69,95.421,259.38,88.874,255.235z"/>
								<g>
									<path style="fill:#EBBDA4;" d="M102.955,251.335c1.399,1.569,3.542,1.941,4.788,0.83c1.245-1.11,1.121-3.282-0.278-4.851
										c-1.399-1.569-3.543-1.941-4.788-0.83C101.432,247.594,101.557,249.766,102.955,251.335z"/>
									<path style="fill:#C16B5B;" d="M103.582,247.245c0.565-0.321,1.331-0.33,2.048-0.022c0.357,0.153,0.619,0.344,0.801,0.585
										c0.241,0.318,0.317,0.726,0.199,1.062c-0.105,0.302-0.337,0.503-0.542,0.68c-0.148,0.128-0.288,0.249-0.366,0.392
										c-0.118,0.218-0.078,0.518,0.095,0.696c0.172,0.178,0.469,0.229,0.692,0.118c0.131-0.065,0.289-0.012,0.354,0.118
										c0.065,0.13,0.012,0.289-0.118,0.354c-0.143,0.071-0.299,0.108-0.457,0.113c-0.313,0.01-0.631-0.108-0.851-0.337
										c-0.331-0.343-0.406-0.896-0.179-1.315c0.123-0.226,0.315-0.392,0.484-0.539c0.17-0.147,0.33-0.286,0.389-0.455
										c0.059-0.169,0.011-0.393-0.122-0.57c-0.054-0.071-0.126-0.135-0.206-0.196c-0.262,0.006-0.588,0.096-0.748,0.282
										c-0.18,0.21-0.259,0.509-0.206,0.78c0.028,0.143-0.065,0.281-0.208,0.31c-0.014,0.003-0.029,0.004-0.043,0.005
										c-0.127,0.004-0.241-0.084-0.267-0.213c-0.085-0.432,0.036-0.89,0.324-1.225c0.107-0.124,0.243-0.211,0.387-0.282
										c-0.44-0.104-0.87-0.068-1.199,0.119c-0.406,0.231-0.701,0.803-0.475,1.255c0.065,0.13,0.012,0.289-0.118,0.354
										c-0.131,0.065-0.288,0.012-0.354-0.118C102.568,248.536,102.882,247.643,103.582,247.245z"/>
								</g>
							</g>
						</g>
					</g>
					<g>
						<path style="fill:#FFFFFF;" d="M81.196,270.337c-5.938,1.176-11.472,33.395-11.786,37.22
							c-0.315,3.826,1.572,7.976,4.339,8.857c2.767,0.88,17.86,0.88,17.86,0.88L81.196,270.337z"/>
						<g>
							<path style="fill:#FFFFFF;" d="M81.196,270.337l10.07-2.243l9.502,0.331l9.501,3.431l8.652,65.106
								c-10.122,5.313-48.904,1.986-49.78,0.078L81.196,270.337z"/>
						</g>
						<path style="fill:#FFFFFF;" d="M110.27,271.856l12.908,94.365c0,0-35.845,4.528-60.56-3.019l18.915-91.346H110.27z"/>
						<g>
							
								<rect x="132.249" y="306.738" transform="matrix(0.9786 0.2058 -0.2058 0.9786 71.1707 -23.8015)" style="fill:#3C7372;" width="35.468" height="46.86"/>
							
								<rect x="135.355" y="309.845" transform="matrix(0.9786 0.2058 -0.2058 0.9786 71.1731 -23.802)" style="fill:#F8D8D8;" width="29.255" height="40.646"/>
							<path style="fill:#EB5E0B;" d="M159.139,306.622c-0.21-1.201-1.668-2.368-3.619-2.779c-1.951-0.41-3.756,0.07-4.432,1.085
								l-3.67-0.772l-1.146,5.447l15.391,3.237l1.146-5.447L159.139,306.622z"/>
						</g>
						<g>
							<path style="fill:#EBBDA4;" d="M143.24,320.804c1.982-1.264,1.906-3.989,3.728-3.243c1.888,0.773-0.816,5.017-0.835,5.141
								c-0.019,0.124,10.46,0.182,10.634,1.852c0.121,1.16-5.36,1.86-5.36,1.86s6.293,4.53,5.546,5.566
								c-0.746,1.036-5.851-2.614-5.851-2.614s2.575,5.552,1.724,5.947c-0.852,0.395-3.63-4.603-3.63-4.603s0.149,5.527-0.867,5.155
								c-1.016-0.372-1.652-5.214-1.652-5.214s-2.193,1.16-5.066-0.19c-2.924-1.374-3.182-5.03-3.182-5.03
								C138.554,323.016,142.319,321.391,143.24,320.804z"/>
							<path style="fill:#FFFFFF;" d="M110.27,271.856c10.753,4.005,0.924,38.365,0.924,38.365l30.158,10.596
								c0,0,0.189,3.522-2.453,9.056c0,0-28.928-7.987-32.009-8.867c-3.081-0.88-8.768-3.081-8.724-9.29
								C98.202,306.633,110.27,271.856,110.27,271.856z"/>
							<path style="fill:#F59660;" d="M114.773,323.048c-1.792-0.502-3.583-1.005-5.375-1.507c-1.667-0.467-3.355-0.897-4.97-1.53
								c-2.832-1.11-5.607-3.159-6.091-6.363c-0.298-1.973,3.742-26.703,4.255-28.594c0.062-0.23-0.294-0.328-0.356-0.098
								c-0.466,1.719-4.438,26.23-4.335,28.028c0.091,1.594,0.695,3.054,1.73,4.266c2.216,2.593,5.632,3.515,8.787,4.4
								c2.085,0.584,4.17,1.169,6.256,1.754C114.904,323.469,115.002,323.112,114.773,323.048z"/>
							<path style="fill:#F59660;" d="M116.179,311.899c-1.583-0.541-3.165-1.082-4.748-1.624c0.671-3.333,1.342-6.666,2.014-9.999
								c0.194-0.965,0.389-1.929,0.583-2.894c0.047-0.232-0.309-0.332-0.356-0.098c-0.68,3.376-1.36,6.752-2.04,10.128l-0.552,2.743
								c-0.72-0.246-1.441-0.493-2.161-0.739c-0.225-0.077-0.322,0.28-0.098,0.356c2.42,0.828,4.841,1.655,7.261,2.483
								C116.306,312.332,116.403,311.976,116.179,311.899z"/>
						</g>
						<path style="fill:#F59660;" d="M79.782,278.127c-1.179,5.909-2.359,11.818-3.539,17.727c-0.331,1.658-0.662,3.316-0.993,4.974
							c-0.046,0.232,0.31,0.332,0.356,0.098c1.18-5.909,2.359-11.818,3.539-17.727c0.331-1.658,0.662-3.316,0.993-4.974
							C80.185,277.993,79.829,277.893,79.782,278.127z"/>
					</g>
				</g>
			</g>
		</g>
		<g>
			<path style="fill:#3C7372;" d="M113.147,376.723H60.134c-6.099,0-11.177-4.574-11.811-10.64l-8.139-77.768
				c-0.209-1.997,1.24-3.785,3.237-3.994c1.997-0.206,3.785,1.24,3.994,3.237l8.139,77.768c0.246,2.352,2.215,4.126,4.58,4.126
				h53.013c2.008,0,3.635,1.627,3.635,3.635C116.782,375.096,115.154,376.723,113.147,376.723z"/>
			<path style="fill:#3C7372;" d="M121.17,445.565h-3.657l-0.4-3.716l-5.926-54.505c-0.436-4.036-3.905-7.075-8.071-7.075H76.124
				c-4.159,0-7.627,3.039-8.071,7.075l-5.926,54.505l-0.4,3.716H58.07l0.407-3.716l5.962-54.876c0.276-2.611,1.44-4.93,3.17-6.704
				c2.145-2.196,5.177-3.548,8.515-3.548h26.991c6.028,0,11.052,4.406,11.685,10.253l5.962,54.876L121.17,445.565z"/>
			<g>
				<g>
					<g>
						<path style="fill:#3C7372;" d="M89.45,284.302H44.244l10.203,86.92l47.97,0.401l-8.957-83.754
							C93.222,285.835,91.498,284.302,89.45,284.302z"/>
					</g>
				</g>
			</g>
			<path style="fill:#5EAAA8;" d="M136.462,376.723h-30.099c-6.099,0-11.177-4.574-11.811-10.64l-8.139-77.768
				c-0.209-1.997,1.24-3.785,3.237-3.994c1.997-0.206,3.785,1.24,3.994,3.237l8.139,77.768c0.247,2.352,2.215,4.126,4.58,4.126
				h30.099c2.008,0,3.636,1.627,3.636,3.635C140.097,375.096,138.469,376.723,136.462,376.723z"/>
			<path style="fill:#3C7372;" d="M110.023,445.565h-3.657l-0.4-3.716l-5.926-54.505c-0.436-4.036-3.905-7.075-8.071-7.075H64.978
				c-4.159,0-7.628,3.039-8.071,7.075l-5.926,54.505l-0.4,3.716h-3.657l0.407-3.716l5.962-54.876
				c0.633-5.846,5.657-10.253,11.685-10.253h26.991c3.338,0,6.369,1.352,8.515,3.548c1.731,1.774,2.887,4.094,3.17,6.704
				l5.962,54.876L110.023,445.565z"/>
		</g>
	</g>
	<g>
		<g>
			<g>
				<g>
					<g>
						<path style="fill:#F59660;" d="M289.996,441.675l0.002,0.253c-0.016,0.374-0.022,0.733-0.01,1.127
							c0.03,0.326,0.04,0.681,0.056,1.044l37.921,5.488c0,0,0.116-0.382,0.206-0.998c0.03-0.318,0.061-0.689,0.056-1.128
							c-0.004-0.077,0.001-0.168-0.017-0.255c-0.104-2.195-1.234-5.366-6.276-7.063c-0.239-0.096-0.498-0.164-0.778-0.243
							l-0.022-0.004c-0.397-0.119-0.798-0.215-1.228-0.316c-0.142-0.028-0.282-0.064-0.424-0.092
							c-10.255-2.313-14.344-6.458-14.344-6.458s-6.187,0.332-11.651-1.686c0,0-0.82,1.002-1.683,2.826
							c-0.137,0.31-0.285,0.642-0.428,0.997c-0.032,0.064-0.058,0.137-0.093,0.217c-0.058,0.137-0.112,0.298-0.166,0.459
							c-0.014,0.044-0.038,0.102-0.044,0.147c-0.005,0.038-0.03,0.049-0.034,0.079c-0.263,0.76-0.5,1.601-0.679,2.518
							C290.174,439.544,290.032,440.575,289.996,441.675z"/>
						<path style="fill:#FFFFFF;" d="M308.856,433.883c-0.112-0.137-0.269-0.25-0.451-0.268c-0.192-0.019-0.342,0.033-0.508,0.129
							c-0.116,0.067-0.233,0.134-0.349,0.201c-0.556,0.313-1.118,0.614-1.688,0.901c-0.162,0.082-0.295,0.189-0.37,0.36
							c-0.068,0.156-0.079,0.375-0.007,0.532c0.144,0.315,0.55,0.55,0.892,0.377c0.794-0.4,1.574-0.826,2.343-1.274
							c0.141-0.082,0.246-0.296,0.268-0.451C309.01,434.225,308.965,434.016,308.856,433.883z"/>
						<path style="fill:#FFFFFF;" d="M311.366,435.479c-0.22-0.27-0.67-0.39-0.958-0.139c-0.579,0.505-1.209,0.95-1.877,1.331
							c-0.107,0.059-0.214,0.117-0.322,0.172c-0.162,0.083-0.295,0.188-0.37,0.36c-0.068,0.156-0.079,0.375-0.007,0.532
							c0.143,0.313,0.551,0.551,0.892,0.377c0.898-0.458,1.743-1.012,2.504-1.676c0.139-0.121,0.241-0.263,0.268-0.451
							C311.519,435.821,311.474,435.612,311.366,435.479z"/>
						<path style="fill:#FFFFFF;" d="M313.707,436.712c-0.112-0.137-0.269-0.25-0.45-0.268c-0.168-0.017-0.381,0.006-0.508,0.129
							l-1.823,1.754c-0.137,0.132-0.239,0.254-0.268,0.451c-0.024,0.166,0.021,0.376,0.129,0.508c0.112,0.137,0.269,0.25,0.45,0.268
							c0.168,0.017,0.381-0.007,0.508-0.129l1.823-1.754c0.137-0.132,0.239-0.254,0.268-0.451
							C313.86,437.054,313.815,436.845,313.707,436.712z"/>
						<path style="fill:#FFFFFF;" d="M316.351,437.747c-0.301-0.22-0.728-0.19-0.966,0.113c-0.419,0.526-0.833,1.048-1.252,1.574
							c-0.252,0.276-0.228,0.767,0.082,0.993c0.301,0.22,0.728,0.19,0.966-0.113c0.419-0.526,0.833-1.048,1.252-1.574
							C316.686,438.465,316.661,437.973,316.351,437.747z"/>
						<path style="fill:#EB5E0B;" d="M289.992,441.933c-0.008,0.364-0.017,0.735,0.002,1.118c0.018,0.338,0.027,0.689,0.056,1.051
							l37.912,5.487c0,0,0.122-0.377,0.212-0.998c0.032-0.323,0.064-0.699,0.051-1.125L289.992,441.933z"/>
					</g>
					<path style="fill:#EBBDA4;" d="M327.836,372.794c-0.829,2.193-11.203,29.707-17.63,46.784
						c-2.95,7.816-5.071,13.449-5.071,13.449s-6.275,0.588-11.649-1.685l3.547-15.223l10.286-44.154c0,0-26.204,1.132-44.262,0.312
						c-18.048-0.829-27.915-20.108-25-35.696h25.571c0,0,40.393,14.332,53.245,18.084
						C329.734,358.426,329.048,369.612,327.836,372.794z"/>
					<path style="fill:#A3460F;" d="M328.446,372.503c-0.829,2.193-10.112,30.323-16.538,47.401
						c-4.501-0.677-13.043-2.769-17.295-4.4l12.705-43.539c0,0-26.204,1.132-44.262,0.312c-18.048-0.829-27.915-20.108-25-35.696
						h25.571c0,0,41.022,13.765,53.874,17.517C330.363,357.859,329.659,369.321,328.446,372.503z"/>
				</g>
				<path style="fill:#EBBDA4;" d="M338.148,371.368c-0.437,4.786-3.271,31.195-5.169,48.825c-1.007,9.26-1.747,16.106-1.747,16.106
					s-6.471,1.827-11.774-0.08l-0.463-15.464l-1.453-48.103c0,0-40.759,2.184-57.363-5.312c-5.392-2.433-9.234-5.963-11.979-9.768
					c-6.845-9.474-6.845-20.615-6.845-20.615h39.422l2.13,2.879c0,0,40.696,11.043,44.368,12.282
					C333.905,354.362,339.244,359.389,338.148,371.368z"/>
				<path style="fill:#EB5E0B;" d="M338.148,371.368c-0.437,4.786-1.017,31.664-2.916,49.294c-4.59,0.874-13.965,0.565-18.627,0.057
					l0.936-48.067c0,0-40.759,2.184-57.363-5.312c-5.392-2.433-9.234-5.963-11.979-9.768c-1.952-3.788-9.183-9.633-8.176-13.688
					c0.882-3.512-1.539-4.637,1.331-6.927h39.422l2.13,2.879c0,0,40.696,11.043,44.368,12.282
					C333.905,354.362,339.244,359.389,338.148,371.368z"/>
				<path style="fill:#A3460F;" d="M323.099,372.417c-3.843,0.419-7.711,0.596-11.576,0.525c-1.095-0.02-2.19-0.061-3.285-0.12
					c-0.238-0.013-0.237,0.357,0,0.369c2.924,0.158,5.854,0.177,8.779,0.055c0,0.002-0.001,0.003-0.001,0.005
					c-0.003,4.767-0.006,9.534-0.009,14.301L317,401.76c-0.002,2.676-0.003,5.351-0.005,8.027c0,0.238,0.369,0.238,0.369,0
					l0.009-14.301l0.009-14.209c0.002-2.676,0.003-5.351,0.005-8.027c0-0.008-0.004-0.014-0.005-0.023
					c0.815-0.037,1.63-0.083,2.444-0.143c1.093-0.08,2.184-0.18,3.273-0.299C323.333,372.761,323.336,372.391,323.099,372.417z"/>
				<g>
					<path style="fill:#F59660;" d="M317.413,446.926l0.036,0.251c0.035,0.372,0.078,0.729,0.144,1.117
						c0.074,0.319,0.132,0.669,0.198,1.027l38.315,0.266c0,0,0.063-0.394,0.068-1.017c-0.013-0.319-0.033-0.691-0.099-1.125
						c-0.015-0.076-0.022-0.167-0.052-0.251c-0.403-2.16-1.954-5.148-7.18-6.141c-0.25-0.063-0.516-0.095-0.804-0.135l-0.023,0
						c-0.41-0.064-0.819-0.105-1.26-0.145c-0.144-0.009-0.288-0.025-0.433-0.034c-10.475-0.893-15.091-4.442-15.091-4.442
						s-6.084,1.173-11.772-0.081c0,0-0.676,1.104-1.282,3.029c-0.094,0.326-0.195,0.675-0.288,1.046
						c-0.023,0.069-0.039,0.144-0.062,0.228c-0.039,0.144-0.071,0.311-0.102,0.478c-0.008,0.045-0.023,0.106-0.024,0.152
						c0,0.038-0.023,0.053-0.023,0.083c-0.157,0.789-0.277,1.654-0.329,2.588C317.299,444.791,317.299,445.832,317.413,446.926z"/>
					<path style="fill:#FFFFFF;" d="M335.035,436.635c-0.13-0.121-0.3-0.211-0.483-0.204c-0.193,0.007-0.335,0.079-0.485,0.197
						c-0.106,0.083-0.212,0.165-0.319,0.246c-0.508,0.386-1.024,0.761-1.55,1.123c-0.15,0.103-0.267,0.228-0.318,0.407
						c-0.046,0.164-0.028,0.382,0.065,0.528c0.185,0.292,0.62,0.47,0.935,0.252c0.732-0.504,1.447-1.033,2.147-1.581
						c0.129-0.101,0.203-0.327,0.204-0.483C335.233,436.953,335.16,436.752,335.035,436.635z"/>
					<path style="fill:#FFFFFF;" d="M337.739,437.874c-0.255-0.237-0.717-0.295-0.968-0.007c-0.505,0.58-1.068,1.106-1.678,1.575
						c-0.098,0.073-0.195,0.145-0.295,0.215c-0.149,0.104-0.266,0.226-0.318,0.407c-0.046,0.164-0.027,0.382,0.065,0.528
						c0.185,0.291,0.621,0.471,0.935,0.252c0.828-0.576,1.589-1.24,2.252-2.001c0.121-0.139,0.203-0.293,0.204-0.483
						C337.937,438.192,337.864,437.991,337.739,437.874z"/>
					<path style="fill:#FFFFFF;" d="M340.226,438.776c-0.13-0.121-0.3-0.211-0.483-0.204c-0.168,0.007-0.376,0.058-0.486,0.197
						l-1.567,1.987c-0.118,0.149-0.202,0.284-0.204,0.483c-0.001,0.168,0.072,0.369,0.197,0.486c0.13,0.121,0.3,0.211,0.483,0.204
						c0.168-0.007,0.376-0.058,0.486-0.197l1.567-1.986c0.118-0.149,0.203-0.284,0.204-0.483
						C340.424,439.094,340.351,438.893,340.226,438.776z"/>
					<path style="fill:#FFFFFF;" d="M342.987,439.441c-0.329-0.176-0.747-0.089-0.941,0.244c-0.343,0.578-0.683,1.152-1.026,1.73
						c-0.212,0.307-0.121,0.791,0.217,0.973c0.329,0.177,0.747,0.089,0.941-0.244c0.343-0.578,0.683-1.152,1.026-1.73
						C343.416,440.106,343.325,439.622,342.987,439.441z"/>
					<path style="fill:#EB5E0B;" d="M317.444,447.182c0.042,0.362,0.083,0.731,0.155,1.107c0.064,0.332,0.12,0.679,0.199,1.034
						l38.306,0.266c0,0,0.069-0.39,0.074-1.017c-0.013-0.324-0.032-0.701-0.103-1.122L317.444,447.182z"/>
				</g>
			</g>
			<g>
				<path style="fill:#FFFFFF;" d="M245.77,272.175c-12.416,3.722-8.05,42.052-6.381,44.171c1.669,2.119,4.944,4.815,9.374,3.724
					c4.43-1.091,17.678-9.566,17.678-9.566L245.77,272.175z"/>
				<g>
					<g>
						<g>
							<g>
								<g>
									<g>
										<g>
											<g>
												<g>
													<g>
														<g>
															<g>
																<g>
																	<g>
																		<g>
																			<g>
																				<g>
																					<g>
																						<g>
																							<g>
																								<path style="fill:#FFFFFF;" d="M238.053,336.579c0,0,17.726,9.059,42.487,0.363l-7.806-34.267
																									c6.23-2.051,7.463-13.214,0.644-19.807l-1.797-10.865l-7.074-2.61l-9.301-0.157l-9.437,2.939l-0.867,48.319
																									C244.903,320.494,240.122,326.282,238.053,336.579z"/>
																							</g>
																						</g>
																					</g>
																				</g>
																			</g>
																		</g>
																	</g>
																</g>
															</g>
														</g>
													</g>
												</g>
											</g>
										</g>
									</g>
								</g>
							</g>
						</g>
					</g>
				</g>
				<g>
					<path style="fill:#8C6149;" d="M275.487,251.984c-0.007,0.064-0.019,0.128-0.026,0.193c-0.012,0.076-0.019,0.14-0.031,0.216
						c-0.556,3.605-1.962,5.841-3.854,7.469c-1.014,0.878-1.949,1.518-2.773,2.088c-0.265,0.184-0.512,0.357-0.753,0.53
						c-0.188,0.132-0.365,0.271-0.548,0.415c-1.843,1.425-2.916,3.033-2.881,7.777c-1.583,4.062-7.759,4.673-9.787,0.078
						c0.022-5.743-1.104-10.691-2.089-13.879c-0.249-0.832-0.493-1.541-0.703-2.11c-0.398-1.091-0.684-1.689-0.684-1.689
						s0.172-12.624,1.964-15.989c4.363-8.119,19.913-5.476,21.169,0.957C275.699,244.187,275.935,248.653,275.487,251.984z"/>
				</g>
				<g>
					<g>
						<g>
							<path style="fill:#EBBDA4;" d="M302.618,258.543c-0.377-0.756,0.33-1.586-0.176-2.874c-0.507-1.288-2.365-2.793-2.48-3.868
								c-0.115-1.075,0.987-8.952,2.716-8.577c1.029,0.223,0.209,4.545,0.29,4.628c0.081,0.083,1.693-5.21,3.075-4.749
								c1.382,0.461-1.258,6.286-1.128,6.373c0.129,0.087,2.545-4.274,3.714-3.554c1.169,0.72-1.601,4.712-1.52,4.834
								c0.081,0.122,3.174-2.533,3.882-1.873c0.708,0.66-2.932,4.07-2.81,4.254c0.122,0.184,1.973,1.309,2.561,2.891
								c0.588,1.582-0.93,4.904-2.221,5.138C307.232,261.401,303.109,259.526,302.618,258.543z"/>
						</g>
					</g>
				</g>
				<path style="fill:#FFFFFF;" d="M271.581,272.003c7.343,2.868,18.284,20.633,18.284,20.633l12.062-34.727
					c0,0,4.945,0.762,9.029,2.532c0,0-8.467,33.178-9.279,37.052c-0.812,3.874-4.756,12.872-14.531,8.686
					c-9.775-4.187-16.873-15.122-16.873-15.122L271.581,272.003z"/>
				<path style="fill:#421F09;" d="M246.111,236.19c-1.089,2.647-1.367,5.571-2.445,8.224c-2.484,6.115-8.831,9.972-11.46,16.025
					c-2.265,5.214-1.322,11.543,1.91,16.219c3.232,4.676,8.534,7.725,14.122,8.767s11.428,0.185,16.739-1.841
					c3.733-1.424,7.364-3.523,9.651-6.798c3.07-4.396,3.25-10.172,2.684-15.503c-0.567-5.331-1.766-10.689-1.041-16.001
					c0.365-2.67,1.213-5.355,0.737-8.008c-0.601-3.352-3.275-6.037-6.331-7.539c-6.589-3.239-15.307-3.669-21.021,1.487
					C248.133,232.594,246.893,234.289,246.111,236.19z"/>
			</g>
		</g>
		<g>
			<path style="fill:#3C7372;" d="M290.551,379.547h-53.012c-6.099,0-11.177-4.574-11.811-10.64l-8.139-77.768
				c-0.209-1.997,1.24-3.785,3.237-3.994c1.997-0.206,3.785,1.24,3.994,3.237l8.139,77.768c0.246,2.352,2.215,4.126,4.58,4.126
				h53.012c2.008,0,3.635,1.628,3.635,3.636C294.186,377.919,292.559,379.547,290.551,379.547z"/>
			<path style="fill:#3C7372;" d="M298.574,448.388h-3.658l-0.4-3.716l-5.926-54.505c-0.436-4.035-3.905-7.075-8.071-7.075h-26.991
				c-4.159,0-7.627,3.039-8.071,7.075l-5.926,54.505l-0.4,3.716h-3.657l0.407-3.716l5.962-54.876c0.276-2.61,1.44-4.93,3.17-6.704
				c2.145-2.196,5.177-3.548,8.514-3.548h26.991c6.028,0,11.052,4.406,11.685,10.252l5.962,54.876L298.574,448.388z"/>
			<g>
				<g>
					<g>
						<path style="fill:#3C7372;" d="M266.855,287.125h-45.206l10.203,86.92l47.97,0.401l-8.956-83.754
							C270.626,288.659,268.903,287.125,266.855,287.125z"/>
					</g>
				</g>
			</g>
			<path style="fill:#5EAAA8;" d="M313.866,379.547h-30.099c-6.099,0-11.177-4.574-11.812-10.64l-8.139-77.768
				c-0.209-1.997,1.24-3.785,3.237-3.994c1.997-0.206,3.785,1.24,3.994,3.237l8.139,77.768c0.246,2.352,2.215,4.126,4.58,4.126
				h30.099c2.008,0,3.636,1.628,3.636,3.636C317.501,377.919,315.874,379.547,313.866,379.547z"/>
			<path style="fill:#3C7372;" d="M287.427,448.388h-3.657l-0.4-3.716l-5.926-54.505c-0.436-4.035-3.905-7.075-8.071-7.075h-26.991
				c-4.159,0-7.628,3.039-8.071,7.075l-5.926,54.505l-0.4,3.716h-3.657l0.407-3.716l5.962-54.876
				c0.632-5.846,5.657-10.252,11.685-10.252h26.991c3.338,0,6.37,1.352,8.515,3.548c1.73,1.774,2.887,4.094,3.17,6.704l5.962,54.876
				L287.427,448.388z"/>
		</g>
	</g>
	<g>
		<g>
			<g>
				<g>
					<g>
						<path style="fill:#F59660;" d="M214.768,472.601l0.002,0.254c-0.016,0.374-0.022,0.733-0.01,1.127
							c0.029,0.326,0.04,0.681,0.056,1.044l37.921,5.488c0,0,0.117-0.382,0.206-0.998c0.031-0.318,0.061-0.69,0.056-1.128
							c-0.004-0.077,0.001-0.169-0.017-0.256c-0.104-2.195-1.234-5.366-6.276-7.063c-0.239-0.096-0.498-0.164-0.778-0.243
							l-0.023-0.004c-0.397-0.119-0.797-0.215-1.228-0.316c-0.142-0.028-0.282-0.064-0.424-0.092
							c-10.255-2.313-14.344-6.458-14.344-6.458s-6.187,0.333-11.651-1.686c0,0-0.82,1.002-1.683,2.826
							c-0.137,0.31-0.285,0.642-0.428,0.997c-0.032,0.065-0.058,0.138-0.093,0.217c-0.058,0.137-0.112,0.298-0.166,0.459
							c-0.014,0.044-0.038,0.102-0.044,0.147c-0.006,0.038-0.03,0.049-0.034,0.079c-0.263,0.76-0.5,1.601-0.679,2.518
							C214.945,470.47,214.804,471.501,214.768,472.601z"/>
						<path style="fill:#FFFFFF;" d="M233.628,464.81c-0.112-0.137-0.269-0.25-0.451-0.268c-0.192-0.019-0.342,0.033-0.508,0.129
							c-0.116,0.068-0.233,0.134-0.349,0.201c-0.556,0.313-1.118,0.614-1.688,0.901c-0.162,0.082-0.296,0.189-0.37,0.36
							c-0.068,0.156-0.079,0.375-0.007,0.532c0.144,0.315,0.55,0.55,0.892,0.378c0.794-0.4,1.574-0.827,2.343-1.274
							c0.141-0.082,0.245-0.297,0.268-0.451C233.781,465.151,233.736,464.942,233.628,464.81z"/>
						<path style="fill:#FFFFFF;" d="M236.138,466.405c-0.22-0.27-0.67-0.39-0.958-0.139c-0.58,0.505-1.209,0.95-1.877,1.331
							c-0.107,0.059-0.214,0.117-0.322,0.172c-0.162,0.083-0.295,0.188-0.37,0.36c-0.068,0.156-0.079,0.375-0.007,0.532
							c0.143,0.313,0.551,0.551,0.892,0.377c0.898-0.458,1.743-1.012,2.504-1.676c0.139-0.121,0.241-0.263,0.268-0.45
							C236.291,466.747,236.246,466.538,236.138,466.405z"/>
						<path style="fill:#FFFFFF;" d="M238.479,467.638c-0.112-0.137-0.269-0.25-0.45-0.268c-0.168-0.017-0.381,0.007-0.508,0.129
							l-1.823,1.754c-0.137,0.132-0.239,0.254-0.268,0.451c-0.024,0.166,0.021,0.376,0.129,0.508c0.112,0.137,0.269,0.25,0.45,0.268
							c0.168,0.016,0.381-0.007,0.508-0.129l1.823-1.754c0.137-0.132,0.24-0.254,0.268-0.451
							C238.632,467.98,238.587,467.771,238.479,467.638z"/>
						<path style="fill:#FFFFFF;" d="M241.123,468.673c-0.301-0.22-0.728-0.19-0.966,0.113c-0.419,0.526-0.833,1.048-1.252,1.574
							c-0.252,0.276-0.228,0.767,0.082,0.993c0.301,0.22,0.728,0.19,0.966-0.113c0.419-0.526,0.833-1.048,1.252-1.574
							C241.457,469.391,241.433,468.899,241.123,468.673z"/>
						<path style="fill:#EB5E0B;" d="M214.764,472.859c-0.008,0.364-0.017,0.735,0.002,1.118c0.018,0.338,0.027,0.689,0.056,1.051
							l37.912,5.487c0,0,0.122-0.377,0.212-0.998c0.032-0.323,0.064-0.699,0.051-1.125L214.764,472.859z"/>
					</g>
					<path style="fill:#8C6149;" d="M252.608,403.72c-0.829,2.193-11.203,29.707-17.63,46.784c-2.95,7.816-5.071,13.45-5.071,13.45
						s-6.275,0.588-11.649-1.685l3.547-15.223l10.286-44.154c0,0-26.204,1.132-44.262,0.312
						c-18.048-0.829-27.915-20.108-25.001-35.696h25.571c0,0,40.393,14.332,53.246,18.084
						C254.506,389.352,253.82,400.538,252.608,403.72z"/>
					<path style="fill:#EB5E0B;" d="M253.218,403.429c-0.829,2.193-10.112,30.323-16.538,47.4c-4.501-0.677-13.043-2.769-17.295-4.4
						l12.705-43.539c0,0-26.204,1.132-44.262,0.312c-18.048-0.829-27.915-20.108-25.001-35.696h25.571
						c0,0,41.022,13.764,53.874,17.517C255.135,388.785,254.43,400.247,253.218,403.429z"/>
				</g>
				<path style="fill:#8C6149;" d="M262.92,402.294c-0.437,4.786-3.271,31.195-5.169,48.825c-1.007,9.26-1.747,16.106-1.747,16.106
					s-6.471,1.827-11.774-0.08l-0.463-15.464l-1.453-48.103c0,0-40.759,2.184-57.363-5.312c-5.392-2.433-9.234-5.963-11.979-9.768
					c-6.845-9.474-6.845-20.616-6.845-20.616h39.422l2.13,2.879c0,0,40.696,11.043,44.368,12.282
					C258.677,385.288,264.016,390.315,262.92,402.294z"/>
				<path style="fill:#F59660;" d="M262.92,402.294c-0.437,4.786-1.017,31.664-2.916,49.294c-4.59,0.874-13.966,0.565-18.627,0.057
					l0.936-48.067c0,0-40.759,2.184-57.363-5.312c-5.392-2.433-9.234-5.963-11.979-9.768c-1.952-3.788-9.183-9.633-8.176-13.688
					c0.882-3.512-1.539-4.636,1.331-6.927h39.422l2.13,2.879c0,0,40.696,11.043,44.368,12.282
					C258.677,385.288,264.016,390.315,262.92,402.294z"/>
				<path style="fill:#A3460F;" d="M247.871,403.343c-3.843,0.419-7.711,0.596-11.576,0.525c-1.096-0.02-2.191-0.061-3.285-0.12
					c-0.238-0.013-0.237,0.357,0,0.369c2.923,0.158,5.854,0.177,8.779,0.055c0,0.002-0.001,0.003-0.001,0.005
					c-0.003,4.767-0.006,9.534-0.009,14.301l-0.009,14.209c-0.002,2.676-0.003,5.351-0.005,8.027c0,0.238,0.369,0.238,0.37,0
					l0.009-14.301l0.009-14.209c0.002-2.676,0.003-5.351,0.005-8.027c0-0.009-0.004-0.015-0.005-0.023
					c0.815-0.037,1.63-0.083,2.444-0.143c1.093-0.08,2.184-0.18,3.273-0.299C248.105,403.687,248.108,403.317,247.871,403.343z"/>
				<g>
					<path style="fill:#F59660;" d="M242.185,477.852l0.036,0.251c0.035,0.372,0.078,0.729,0.144,1.118
						c0.074,0.319,0.132,0.669,0.198,1.027l38.315,0.266c0,0,0.063-0.395,0.068-1.017c-0.013-0.319-0.033-0.691-0.099-1.125
						c-0.015-0.076-0.022-0.167-0.052-0.251c-0.403-2.16-1.954-5.148-7.18-6.141c-0.25-0.063-0.516-0.095-0.804-0.134l-0.023,0
						c-0.41-0.064-0.819-0.104-1.26-0.145c-0.144-0.009-0.288-0.025-0.433-0.034c-10.475-0.893-15.091-4.442-15.091-4.442
						s-6.084,1.173-11.772-0.082c0,0-0.676,1.104-1.282,3.029c-0.094,0.326-0.195,0.674-0.288,1.046
						c-0.023,0.069-0.039,0.144-0.062,0.228c-0.039,0.144-0.07,0.311-0.102,0.478c-0.008,0.045-0.023,0.106-0.024,0.152
						c0,0.038-0.023,0.053-0.023,0.083c-0.157,0.789-0.277,1.654-0.329,2.588C242.071,475.717,242.071,476.758,242.185,477.852z"/>
					<path style="fill:#FFFFFF;" d="M259.807,467.561c-0.13-0.121-0.3-0.211-0.483-0.204c-0.193,0.008-0.335,0.079-0.485,0.197
						c-0.106,0.083-0.212,0.164-0.319,0.246c-0.508,0.386-1.024,0.761-1.55,1.123c-0.149,0.103-0.267,0.228-0.318,0.407
						c-0.046,0.164-0.028,0.382,0.065,0.528c0.185,0.292,0.62,0.47,0.935,0.252c0.732-0.504,1.447-1.033,2.147-1.581
						c0.129-0.101,0.203-0.327,0.204-0.483C260.005,467.879,259.932,467.678,259.807,467.561z"/>
					<path style="fill:#FFFFFF;" d="M262.511,468.8c-0.255-0.237-0.717-0.295-0.968-0.007c-0.505,0.58-1.069,1.106-1.678,1.575
						c-0.098,0.073-0.195,0.145-0.295,0.215c-0.149,0.104-0.266,0.226-0.318,0.407c-0.046,0.164-0.028,0.382,0.065,0.528
						c0.185,0.291,0.621,0.471,0.935,0.252c0.828-0.577,1.589-1.241,2.252-2.002c0.121-0.139,0.203-0.293,0.204-0.483
						C262.709,469.118,262.636,468.917,262.511,468.8z"/>
					<path style="fill:#FFFFFF;" d="M264.998,469.702c-0.13-0.121-0.3-0.211-0.483-0.204c-0.168,0.007-0.376,0.058-0.486,0.197
						l-1.567,1.987c-0.118,0.149-0.202,0.284-0.204,0.483c-0.001,0.168,0.072,0.369,0.197,0.486c0.13,0.121,0.3,0.211,0.483,0.204
						c0.168-0.007,0.376-0.058,0.486-0.197l1.567-1.986c0.118-0.149,0.203-0.284,0.204-0.483
						C265.196,470.02,265.123,469.819,264.998,469.702z"/>
					<path style="fill:#FFFFFF;" d="M267.759,470.367c-0.329-0.177-0.747-0.089-0.941,0.243c-0.343,0.578-0.683,1.152-1.026,1.73
						c-0.212,0.307-0.121,0.791,0.217,0.973c0.328,0.177,0.747,0.089,0.941-0.244c0.343-0.578,0.683-1.152,1.026-1.73
						C268.188,471.032,268.097,470.549,267.759,470.367z"/>
					<path style="fill:#EB5E0B;" d="M242.216,478.108c0.042,0.362,0.083,0.731,0.155,1.108c0.064,0.332,0.12,0.679,0.199,1.034
						l38.306,0.266c0,0,0.069-0.39,0.073-1.017c-0.012-0.324-0.032-0.701-0.103-1.122L242.216,478.108z"/>
				</g>
			</g>
			<g>
				<path style="fill:#FFFFFF;" d="M170.542,303.101c-12.416,3.722-8.05,42.052-6.381,44.17c1.669,2.119,4.944,4.815,9.374,3.724
					c4.43-1.092,17.677-9.567,17.677-9.567L170.542,303.101z"/>
				<g>
					<g>
						<g>
							<g>
								<g>
									<g>
										<g>
											<g>
												<g>
													<g>
														<g>
															<g>
																<g>
																	<g>
																		<g>
																			<g>
																				<g>
																					<g>
																						<g>
																							<g>
																								<path style="fill:#FFFFFF;" d="M162.825,367.505c0,0,17.726,9.059,42.487,0.363l-7.806-34.267
																									c6.23-2.051,7.463-13.214,0.644-19.807l-1.797-10.865l-7.074-2.61l-9.301-0.157l-9.437,2.939l-0.867,48.319
																									C169.674,351.42,164.894,357.208,162.825,367.505z"/>
																							</g>
																						</g>
																					</g>
																				</g>
																			</g>
																		</g>
																	</g>
																</g>
															</g>
														</g>
													</g>
												</g>
											</g>
										</g>
									</g>
								</g>
							</g>
						</g>
					</g>
				</g>
				<path style="fill:#F59660;" d="M201.434,317.314c-0.804-1.357-1.849-2.567-3.082-3.55c-0.459-2.962-0.918-5.923-1.377-8.885
					c-0.035-0.224-0.376-0.129-0.341,0.094c0.451,2.911,0.903,5.823,1.354,8.734c-0.059,0.062-0.074,0.156,0.013,0.224
					c0.013,0.01,0.025,0.02,0.037,0.03c0.02,0.041,0.052,0.065,0.09,0.074c2.146,1.721,3.699,4.131,4.395,6.793
					c0.722,2.766,0.444,5.731-0.727,8.335c-0.661,1.47-1.59,2.81-2.747,3.933c-0.164,0.159,0.087,0.409,0.25,0.25
					c2.104-2.043,3.471-4.797,3.863-7.701C203.55,322.763,202.913,319.812,201.434,317.314z"/>
				<g>
					<path style="fill:#8C6149;" d="M200.259,282.911c-0.007,0.064-0.019,0.128-0.025,0.192c-0.012,0.076-0.019,0.14-0.031,0.216
						c-0.556,3.605-1.963,5.841-3.854,7.469c-1.014,0.878-1.949,1.517-2.772,2.088c-0.265,0.184-0.512,0.357-0.753,0.53
						c-0.188,0.133-0.365,0.271-0.547,0.415c-1.843,1.425-2.916,3.033-2.881,7.777c-1.583,4.062-7.759,4.673-9.787,0.078
						c0.022-5.743-1.104-10.691-2.089-13.879c-0.249-0.832-0.493-1.541-0.703-2.11c-0.398-1.091-0.684-1.689-0.684-1.689
						s0.172-12.624,1.963-15.989c4.363-8.119,19.913-5.476,21.169,0.957C200.471,275.113,200.707,279.579,200.259,282.911z"/>
				</g>
				<g>
					<path style="fill:#8C6149;" d="M233.345,324.319c0.178-0.826,1.248-1.033,1.657-2.355c0.409-1.322-0.103-3.658,0.478-4.569
						c0.582-0.912,6.36-6.377,7.477-5.004c0.665,0.817-2.674,3.68-2.663,3.796c0.011,0.116,4.575-3.012,5.367-1.79
						c0.792,1.223-4.907,4.125-4.861,4.274c0.047,0.149,4.657-1.749,5.121-0.457c0.464,1.292-4.193,2.681-4.205,2.827
						c-0.013,0.146,4.061,0.003,4.202,0.961c0.141,0.958-4.832,1.349-4.851,1.569c-0.019,0.22,0.724,2.254,0.195,3.858
						c-0.528,1.603-3.788,3.25-4.943,2.627C235.164,329.432,233.114,325.393,233.345,324.319z"/>
					<path style="fill:#FFFFFF;" d="M196.353,302.929c6.844,2.61,9.414,31.495,9.414,31.495l26.193-11.389
						c0,0,3.274,2.729,5.201,7.865c0,0-23.723,14.574-32.184,15.583c-6.56,0.782-10.235-2.232-10.791-6.949
						c-0.556-4.717-2.974-29.029-2.974-29.029L196.353,302.929z"/>
					<path style="fill:#F59660;" d="M208.846,345.255c-3.129,0.827-6.51,1.641-9.669,0.499c-1.292-0.467-2.501-1.262-3.305-2.392
						c-0.91-1.278-1.234-2.85-1.474-4.371c-0.313-1.984-0.596-3.973-0.893-5.959c-0.034-0.224-0.374-0.129-0.341,0.094
						c0.276,1.849,0.55,3.698,0.829,5.546c0.238,1.574,0.52,3.205,1.378,4.577c1.591,2.543,4.747,3.503,7.603,3.421
						c2.029-0.058,4.013-0.558,5.965-1.074C209.16,345.538,209.066,345.197,208.846,345.255z"/>
				</g>
				<g>
					<path style="fill:#421F09;" d="M178.689,261.565c-1.501,0.918-2.835,2.074-3.903,3.455c-1.308,1.693-2.027,3.669-2.604,5.699
						c-1.024,3.602,0.258,7.772-2.415,10.844c-1.206,1.386-2.937,2.177-4.429,3.248c-1.493,1.071-2.858,2.688-2.698,4.518
						c0.219,2.511,3.162,4.173,3.27,6.691c0.071,1.675-1.144,3.095-2.277,4.33c-2.349,2.562-3.44,5.928-1.376,9.053
						c1.323,2.004,3.453,3.327,5.62,4.36c8.785,4.189,19.349,4.465,28.34,0.742c3.047-1.262,5.981-3.017,8.009-5.618
						c2.028-2.601,3.026-6.156,1.996-9.289c-0.664-2.02-2.798-4.354-2.549-6.57c0.091-0.811,0.697-1.346,1.081-2.026
						c0.564-0.998,0.918-2.287,0.672-3.428c-0.404-1.881-2.444-2.921-3.37-4.608c-0.776-1.415-0.688-3.154-0.297-4.72
						c0.391-1.566,1.061-3.055,1.4-4.633c0.626-2.913,0.058-6.065-1.548-8.575c-2.351-3.676-6.462-5.151-10.575-5.832
						C186.84,258.511,182.324,259.341,178.689,261.565z"/>
				</g>
			</g>
		</g>
		<g>
			<path style="fill:#3C7372;" d="M215.323,410.473H162.31c-6.099,0-11.177-4.574-11.811-10.64l-8.139-77.768
				c-0.209-1.997,1.24-3.786,3.237-3.994c1.997-0.206,3.785,1.241,3.994,3.237l8.139,77.768c0.246,2.352,2.215,4.125,4.58,4.125
				h53.012c2.008,0,3.636,1.628,3.636,3.636C218.958,408.845,217.33,410.473,215.323,410.473z"/>
			<path style="fill:#3C7372;" d="M223.346,479.314h-3.658l-0.4-3.716l-5.926-54.505c-0.436-4.036-3.904-7.075-8.071-7.075H178.3
				c-4.159,0-7.627,3.039-8.071,7.075l-5.926,54.505l-0.4,3.716h-3.657l0.407-3.716l5.962-54.876c0.276-2.61,1.44-4.93,3.17-6.704
				c2.145-2.196,5.177-3.548,8.515-3.548h26.991c6.028,0,11.052,4.406,11.685,10.252l5.962,54.876L223.346,479.314z"/>
			<g>
				<g>
					<g>
						<path style="fill:#3C7372;" d="M191.626,318.051H146.42l10.203,86.92l47.97,0.401l-8.956-83.754
							C195.398,319.585,193.675,318.051,191.626,318.051z"/>
					</g>
				</g>
			</g>
			<path style="fill:#5EAAA8;" d="M238.638,410.473h-30.099c-6.099,0-11.177-4.574-11.811-10.64l-8.139-77.768
				c-0.209-1.997,1.24-3.786,3.237-3.994c1.997-0.206,3.785,1.241,3.994,3.237l8.138,77.768c0.246,2.352,2.215,4.125,4.58,4.125
				h30.099c2.008,0,3.636,1.628,3.636,3.636C242.273,408.845,240.645,410.473,238.638,410.473z"/>
			<path style="fill:#3C7372;" d="M212.199,479.314h-3.657l-0.4-3.716l-5.926-54.505c-0.436-4.036-3.905-7.075-8.071-7.075h-26.991
				c-4.159,0-7.628,3.039-8.071,7.075l-5.926,54.505l-0.4,3.716h-3.657l0.407-3.716l5.962-54.876
				c0.633-5.846,5.657-10.252,11.685-10.252h26.991c3.337,0,6.37,1.352,8.515,3.548c1.73,1.774,2.887,4.094,3.17,6.704l5.962,54.876
				L212.199,479.314z"/>
		</g>
	</g>
	<g>
		<g>
			<g>
				<g>
					<g>
						<g>
							<path style="fill:#5EAAA8;" d="M405.031,365.802l-0.032,0.229c-0.031,0.34-0.069,0.666-0.128,1.021
								c-0.066,0.292-0.118,0.611-0.177,0.938l-34.973,0.377c0,0-0.059-0.36-0.066-0.928c0.011-0.291,0.028-0.631,0.086-1.027
								c0.013-0.069,0.019-0.152,0.046-0.229c0.36-1.973,1.766-4.706,6.533-5.631c0.228-0.058,0.47-0.088,0.734-0.126l0.021,0
								c0.374-0.06,0.748-0.098,1.149-0.137c0.132-0.008,0.263-0.024,0.395-0.032c9.559-0.852,13.76-4.107,13.76-4.107
								s5.558,1.049,10.745-0.116c0,0,0.621,1.005,1.181,2.76c0.086,0.297,0.18,0.615,0.267,0.954
								c0.021,0.062,0.036,0.131,0.058,0.207c0.036,0.131,0.065,0.283,0.095,0.436c0.007,0.041,0.022,0.097,0.022,0.138
								c0,0.035,0.021,0.048,0.022,0.076c0.146,0.719,0.259,1.508,0.31,2.361C405.128,363.852,405.131,364.802,405.031,365.802z"/>
							<path style="fill:#FFFFFF;" d="M388.909,356.47c0.118-0.111,0.273-0.194,0.44-0.188c0.176,0.006,0.306,0.071,0.444,0.178
								c0.097,0.075,0.194,0.149,0.292,0.223c0.465,0.35,0.938,0.691,1.418,1.019c0.137,0.094,0.244,0.207,0.291,0.371
								c0.043,0.149,0.026,0.348-0.058,0.482c-0.168,0.267-0.564,0.431-0.853,0.233c-0.67-0.458-1.324-0.938-1.965-1.436
								c-0.118-0.092-0.186-0.298-0.188-0.44C388.73,356.76,388.796,356.577,388.909,356.47z"/>
							<path style="fill:#FFFFFF;" d="M386.446,357.61c0.232-0.217,0.653-0.272,0.884-0.01c0.463,0.527,0.979,1.006,1.537,1.432
								c0.089,0.066,0.179,0.132,0.27,0.195c0.137,0.094,0.244,0.206,0.291,0.37c0.043,0.149,0.026,0.349-0.058,0.482
								c-0.167,0.266-0.565,0.432-0.853,0.234c-0.757-0.523-1.455-1.127-2.063-1.819c-0.111-0.126-0.186-0.267-0.188-0.44
								C386.266,357.901,386.332,357.717,386.446,357.61z"/>
							<path style="fill:#FFFFFF;" d="M384.179,358.442c0.118-0.111,0.273-0.193,0.44-0.188c0.154,0.005,0.344,0.052,0.444,0.178
								l1.438,1.808c0.108,0.136,0.186,0.259,0.188,0.44c0.002,0.153-0.064,0.337-0.178,0.444c-0.118,0.111-0.273,0.194-0.44,0.188
								c-0.154-0.005-0.344-0.052-0.444-0.178l-1.438-1.808c-0.108-0.136-0.186-0.259-0.188-0.44
								C383.999,358.733,384.065,358.549,384.179,358.442z"/>
							<path style="fill:#FFFFFF;" d="M381.661,359.059c0.299-0.162,0.682-0.084,0.86,0.219c0.315,0.527,0.627,1.049,0.942,1.576
								c0.195,0.28,0.113,0.722-0.195,0.889c-0.299,0.162-0.681,0.084-0.86-0.219c-0.315-0.527-0.627-1.049-0.943-1.576
								C381.271,359.667,381.353,359.225,381.661,359.059z"/>
							<path style="fill:#3C7372;" d="M405.003,366.035c-0.037,0.33-0.074,0.667-0.137,1.011c-0.057,0.303-0.108,0.62-0.178,0.944
								l-34.965,0.377c0,0-0.064-0.356-0.071-0.928c0.01-0.296,0.027-0.64,0.09-1.024L405.003,366.035z"/>
						</g>
					</g>
					<path style="fill:#EBBDA4;" d="M423.478,227.969c-2.771,25.283-20.355,128.064-20.355,128.064
						c-6.159,2.211-10.744,0.116-10.744,0.116s1.82-95.87,3.886-128.18H423.478z"/>
					<path style="fill:#3C7372;" d="M424.941,227.525c-4.637,24.719-12.807,76.888-18.216,118.741
						c-4.112,0.405-13.151,0.607-17.273,0.308c-1.347-38.654,4.93-98.057,6.813-118.605L424.941,227.525z"/>
				</g>
				<g>
					<g>
						<g>
							<path style="fill:#5EAAA8;" d="M427.602,365.802l0.032,0.229c0.031,0.34,0.069,0.666,0.128,1.021
								c0.066,0.292,0.118,0.611,0.177,0.938l34.974,0.377c0,0,0.059-0.36,0.065-0.928c-0.011-0.291-0.028-0.631-0.086-1.027
								c-0.013-0.069-0.019-0.152-0.046-0.229c-0.36-1.973-1.766-4.706-6.533-5.631c-0.228-0.058-0.47-0.088-0.733-0.126l-0.021,0
								c-0.374-0.06-0.748-0.098-1.149-0.137c-0.132-0.008-0.263-0.024-0.395-0.032c-9.559-0.852-13.76-4.107-13.76-4.107
								s-5.558,1.049-10.745-0.116c0,0-0.621,1.005-1.181,2.76c-0.086,0.297-0.18,0.615-0.267,0.954
								c-0.021,0.062-0.036,0.131-0.058,0.207c-0.036,0.131-0.065,0.283-0.095,0.436c-0.007,0.041-0.022,0.097-0.022,0.138
								c0,0.035-0.021,0.048-0.022,0.076c-0.146,0.719-0.259,1.508-0.31,2.361C427.505,363.852,427.501,364.802,427.602,365.802z"/>
							<path style="fill:#FFFFFF;" d="M443.723,356.47c-0.118-0.111-0.273-0.194-0.44-0.188c-0.176,0.006-0.306,0.071-0.444,0.178
								c-0.097,0.075-0.194,0.149-0.292,0.223c-0.465,0.35-0.938,0.691-1.418,1.019c-0.137,0.094-0.244,0.207-0.291,0.371
								c-0.043,0.149-0.026,0.348,0.058,0.482c0.168,0.267,0.564,0.431,0.853,0.233c0.67-0.458,1.324-0.938,1.965-1.436
								c0.118-0.092,0.187-0.298,0.188-0.44C443.903,356.76,443.837,356.577,443.723,356.47z"/>
							<path style="fill:#FFFFFF;" d="M446.187,357.61c-0.231-0.217-0.653-0.272-0.884-0.01c-0.463,0.527-0.979,1.006-1.537,1.432
								c-0.09,0.066-0.179,0.132-0.27,0.195c-0.137,0.094-0.244,0.206-0.291,0.37c-0.043,0.149-0.026,0.349,0.058,0.482
								c0.168,0.266,0.565,0.432,0.853,0.234c0.757-0.523,1.455-1.127,2.063-1.819c0.111-0.126,0.186-0.267,0.188-0.44
								C446.367,357.901,446.301,357.717,446.187,357.61z"/>
							<path style="fill:#FFFFFF;" d="M448.454,358.442c-0.118-0.111-0.273-0.193-0.44-0.188c-0.154,0.005-0.344,0.052-0.444,0.178
								l-1.437,1.808c-0.108,0.136-0.186,0.259-0.188,0.44c-0.002,0.153,0.064,0.337,0.178,0.444
								c0.118,0.111,0.273,0.194,0.44,0.188c0.153-0.005,0.343-0.052,0.444-0.178l1.438-1.808c0.108-0.136,0.186-0.259,0.188-0.44
								C448.634,358.733,448.568,358.549,448.454,358.442z"/>
							<path style="fill:#FFFFFF;" d="M450.972,359.059c-0.299-0.162-0.682-0.084-0.86,0.219c-0.315,0.527-0.627,1.049-0.942,1.576
								c-0.195,0.28-0.113,0.722,0.195,0.889c0.299,0.162,0.682,0.084,0.86-0.219c0.315-0.527,0.627-1.049,0.943-1.576
								C451.361,359.667,451.28,359.225,450.972,359.059z"/>
							<path style="fill:#3C7372;" d="M427.629,366.035c0.037,0.33,0.074,0.667,0.137,1.011c0.057,0.303,0.108,0.62,0.178,0.944
								l34.965,0.377c0,0,0.064-0.356,0.071-0.928c-0.01-0.296-0.027-0.64-0.09-1.024L427.629,366.035z"/>
						</g>
					</g>
					<path style="fill:#EBBDA4;" d="M441.262,345.954c-0.608,6.391-1.004,10.194-1.004,10.194s-4.586,2.095-10.744-0.116
						c0,0-0.251-3.678-0.676-9.828c-1.738-25.389-4.876-92.954-7.657-118.237h27.213
						C450.46,260.086,443.549,321.685,441.262,345.954z"/>
					<path style="fill:#3C7372;" d="M443.183,345.774c-0.796,0.089-1.782,0.174-2.889,0.255c-0.133,0.012-0.267,0.02-0.404,0.028
						c-0.691,0.049-1.422,0.097-2.178,0.137c-0.133,0.008-0.267,0.016-0.404,0.024c-4.178,0.226-8.986,0.339-11.657,0.154
						c-0.493-27.096-2.183-93.212-4.963-118.494l27.706,0.089C450.459,260.085,445.47,321.502,443.183,345.774z"/>
				</g>
			</g>
			<g>
				<g>
					<path style="fill:#EBBDA4;" d="M355.944,150.597c-0.319-2.521,1.998-4.342,0.119-5.341c-1.948-1.035-3.606,4.147-3.696,4.248
						c-0.09,0.102-7.383-8.569-8.891-7.559c-1.048,0.701,2.159,5.741,2.159,5.741s-8.116-2.099-8.462-0.762
						c-0.345,1.337,6.218,3.056,6.218,3.056s-6.396,1.698-6.135,2.679c0.261,0.981,6.336-0.164,6.336-0.164
						s-4.698,3.697-3.686,4.285c1.012,0.587,5.476-2.231,5.476-2.231s0.551,2.625,3.66,4.08c3.163,1.48,6.381-0.833,6.381-0.833
						C357.345,156.021,356.092,151.768,355.944,150.597z"/>
					<path style="fill:#FFFFFF;" d="M407.432,152.993c-9.107,2.372-24.445,28.314-24.445,28.314l-26.054-29.685
						c0,0-6.585,2.257-9.013,7.725c0,0,25.388,31.663,26.909,33.338c4.494,4.949,12.872,6.196,18.717-0.455
						c6.599-7.51,13.281-18.508,13.281-18.508L407.432,152.993z"/>
				</g>
				<g>
					<g>
						<g>
							<path style="fill:#F59660;" d="M437.875,152.195l-10.469-2.619l-9.945,0.088l-10.028,3.329l-11.856,75.388
								c10.44,5.83,52.861,2.331,53.829,0.36L437.875,152.195z"/>
						</g>
					</g>
				</g>
				<path style="fill:#FFFFFF;" d="M416.162,150.095l-5.255,39.036c-0.918,6.817-1.559,13.668-1.922,20.536l-4.857,91.933
					c0,0-14.162,0.492-21.142,0l24.445-148.607L416.162,150.095z"/>
				<path style="fill:#F59660;" d="M405.883,164.747c-0.856,4.946-1.713,9.891-2.569,14.837c-0.856,4.946-1.713,9.891-2.569,14.837
					c-0.48,2.773-0.961,5.546-1.441,8.319c-0.038,0.219,0.298,0.313,0.336,0.093c0.856-4.946,1.713-9.891,2.569-14.837
					c0.856-4.946,1.713-9.891,2.569-14.837c0.48-2.773,0.96-5.546,1.441-8.319C406.257,164.62,405.921,164.526,405.883,164.747z"/>
				<path style="fill:#FFFFFF;" d="M428.865,149.941l-3.212,39.3c-0.657,8.038-0.859,16.107-0.605,24.168l2.809,89.174
					c0,0,19.591,0.885,34.239,0l-24.221-150.387L428.865,149.941z"/>
				<g>
					<g>
						<path style="fill:#EBBDA4;" d="M433.289,219.971c-0.883-0.13-1.484,0.853-2.945,0.768c-1.461-0.085-3.583-1.457-4.701-1.218
							c-1.118,0.238-8.669,3.936-7.723,5.55c0.563,0.96,4.634-1.285,4.745-1.231c0.111,0.054-4.677,3.414-3.759,4.651
							c0.917,1.237,5.901-3.331,6.031-3.23c0.13,0.101-3.456,3.963-2.349,4.9c1.107,0.938,4.207-3.158,4.357-3.117
							c0.15,0.042-1.501,4.022-0.605,4.516c0.896,0.494,3.125-4.284,3.349-4.222c0.225,0.063,1.964,1.551,3.747,1.622
							c1.783,0.071,4.62-2.547,4.431-3.921C437.677,223.665,434.438,220.14,433.289,219.971z"/>
						<path style="fill:#FFFFFF;" d="M465.874,201.66c-1.721,1.93-25.573,25.865-25.573,25.865
							c-5.997-1.131-9.735-8.033-9.735-8.033l22.909-23.967l-12.046-19.748l-3.554-23.581c13.277,3.467,25.836,31.667,27.414,34.592
							C468.147,192.088,469.868,197.182,465.874,201.66z"/>
						<path style="fill:#F59660;" d="M455.15,193.928c-0.44,0.423-0.876,0.85-1.314,1.275c-1.825-2.622-3.598-5.28-5.318-7.973
							c-1.724-2.7-3.395-5.434-5.01-8.199c-0.909-1.557-1.801-3.124-2.675-4.7c-0.109-0.196-0.41-0.02-0.301,0.176
							c1.554,2.801,3.162,5.572,4.826,8.309c1.664,2.738,3.381,5.442,5.152,8.111c0.997,1.502,2.01,2.993,3.04,4.473
							c0.012,0.017,0.027,0.029,0.042,0.04c-2.798,2.718-5.561,5.473-8.282,8.268c-3.207,3.293-6.361,6.639-9.459,10.035
							c-1.746,1.914-3.475,3.845-5.185,5.79c-0.148,0.168,0.098,0.415,0.246,0.246c3.054-3.473,6.164-6.896,9.33-10.268
							c3.147-3.351,6.348-6.651,9.602-9.897c1.834-1.83,3.686-3.643,5.553-5.439C455.558,194.019,455.312,193.773,455.15,193.928z"
							/>
					</g>
				</g>
			</g>
			<g>
				<g>
					<path style="fill:#381A08;" d="M428.722,138.614c2.149-1.935,5.549-4.468,6.841-7.055c0.971-1.944,1.673-4.063,1.701-6.236
						c0.027-2.173-0.674-4.408-2.196-5.959c0.655,0.172,1.386-0.715,1.224-1.372c-0.162-0.657-1.115-0.946-1.615-0.489
						c0.439-1.764-0.553-3.562-1.702-4.97c-2.27-2.783-5.325-4.919-8.719-6.095c-3.394-1.176-7.115-1.389-10.621-0.608
						c-2.919,0.65-5.789,2.072-7.524,4.507c-1.735,2.436-2.055,6.004-0.226,8.369c-1.095,1.597-1.635,3.529-1.544,5.464
						c0.091,1.934,0.83,3.832,2.071,5.319c1.741,2.086,4.737,2.629,7.143,3.891c1.974,1.035,3.957,2.075,6.06,2.817
						C423.066,137.414,425.082,138.236,428.722,138.614z"/>
					<path style="fill:#EBBDA4;" d="M431.13,134.282c0,0-3.706,7.546-3.885,17.64c-2.14,4.558-8.312,3.821-9.798-0.295
						c0.111-3.837-0.547-5.642-1.756-6.973c-0.1-0.112-0.2-0.21-0.305-0.317c-0.072-0.076-0.143-0.143-0.224-0.213
						c-0.143-0.133-0.308-0.257-0.464-0.394c-0.223-0.177-0.454-0.353-0.695-0.534l-0.005,0c-0.949-0.709-2.06-1.459-3.293-2.573
						c-1.798-1.61-3.132-3.816-3.643-7.255c-0.01-0.041-0.016-0.082-0.023-0.128c-0.011-0.05-0.017-0.101-0.023-0.151
						c-0.012-0.092-0.02-0.174-0.027-0.261c-0.011-0.041-0.012-0.078-0.018-0.114c-0.379-3.365-0.041-7.854,1.313-14.043
						c1.406-6.416,17.059-8.714,21.25-0.46C431.26,121.618,431.13,134.282,431.13,134.282z"/>
					<path style="fill:#381A08;" d="M407.504,118.159c5.973,2.684,13.069,2.751,19.092,0.178c-0.489,0.762-0.564,1.774-0.192,2.599
						c0.372,0.826,1.18,1.44,2.074,1.578c-0.781,1.806-0.966,3.864-0.521,5.781c0.445,1.917,1.519,3.682,3.016,4.96
						c0.851-3.312,1.722-6.751,1.635-10.169c-0.087-3.418-1.244-6.959-3.827-9.2c-1.621-1.406-3.7-2.213-5.817-2.568
						c-2.117-0.355-4.282-0.283-6.421-0.096c-1.79,0.157-3.622,0.409-5.195,1.276C409.311,113.622,407.744,115.845,407.504,118.159z
						"/>
					<g>
						<g>
							<path style="fill:#C16B5B;" d="M414.399,131.657c-0.225-0.115-0.465-0.184-0.717-0.199c-0.225-0.014-0.474,0.016-0.661,0.152
								c-0.201,0.146-0.302,0.372-0.322,0.615c-0.019,0.233,0.057,0.462,0.143,0.675c0.046,0.114,0.156,0.21,0.288,0.168
								c0.109-0.034,0.218-0.166,0.169-0.288c-0.063-0.155-0.132-0.324-0.13-0.494c0.001-0.087,0.024-0.176,0.076-0.246
								c-0.003,0.004-0.006,0.009-0.008,0.013c0.048-0.075,0.14-0.102,0.223-0.117c0.006-0.001,0.013-0.002,0.022-0.003
								c0.018,0,0.036-0.003,0.053-0.003c0.047-0.002,0.095-0.001,0.142,0.002c0.024,0.001,0.048,0.004,0.072,0.006
								c0.012,0.001,0.014,0.001,0.018,0.001c0.004,0.001,0.004,0.001,0.015,0.003c0.147,0.027,0.272,0.087,0.411,0.136
								c0.105,0.037,0.233,0.006,0.289-0.095C414.538,131.875,414.517,131.717,414.399,131.657z"/>
							<path d="M409.181,125.724c1.24-0.671,2.745-0.735,4.01-0.079c0.31,0.16,0.481,0.571,0.306,0.892
								c-0.227,0.417-0.635,0.417-1.018,0.244c-0.341-0.154-0.709-0.249-1.082-0.279c0.001-0.021,0.033,0.015,0.012,0.014
								c-0.478-0.026-0.951,0.071-1.387,0.267c-0.026,0.011-0.051,0.024-0.093,0.043c-0.306,0.161-0.717,0.151-0.92-0.174
								C408.835,126.372,408.853,125.9,409.181,125.724z"/>
							<path d="M417.223,125.78c1.314-0.512,2.814-0.389,3.989,0.417c0.288,0.198,0.407,0.626,0.193,0.923
								c-0.207,0.288-0.616,0.405-0.923,0.193c-0.118-0.081-0.241-0.151-0.365-0.222c-0.013-0.006-0.01-0.005-0.018-0.009
								c-0.022-0.01-0.045-0.021-0.068-0.03c-0.049-0.021-0.099-0.041-0.149-0.06c-0.134-0.05-0.27-0.092-0.408-0.126
								c-0.035-0.009-0.257-0.076-0.086-0.021c-0.057-0.018-0.126-0.019-0.185-0.026c-0.133-0.015-0.267-0.023-0.4-0.024
								c-0.071,0-0.142,0.003-0.214,0.005c-0.008,0-0.01,0-0.016,0c-0.01,0.002-0.024,0.003-0.046,0.006
								c-0.133,0.016-0.264,0.04-0.394,0.071c-0.069,0.017-0.138,0.036-0.206,0.057c-0.027,0.008-0.054,0.018-0.081,0.026
								c-0.005,0.002-0.003,0.001-0.009,0.003c-0.002,0.001-0.004,0.001-0.006,0.001c-0.002,0.001-0.004,0.001-0.006,0.002
								c0.003-0.001,0.002-0.001,0.004-0.002c-0.323,0.122-0.73,0.061-0.891-0.287C416.799,126.38,416.876,125.915,417.223,125.78z"
								/>
							<path style="fill:#C16B5B;" d="M416.796,134.891c-0.849,0.646-1.927,0.944-2.987,0.846c-0.293-0.027-0.318,0.43-0.025,0.457
								c1.184,0.109,2.373-0.243,3.317-0.962C417.336,135.053,417.03,134.713,416.796,134.891z"/>
							<g>
								<g>
									<path d="M419.825,130.304c0.02,0.596-0.447,1.094-1.042,1.114c-0.595,0.02-1.094-0.447-1.114-1.042
										c-0.02-0.596,0.447-1.094,1.042-1.114C419.306,129.242,419.805,129.708,419.825,130.304z"/>
									<path style="fill:#FFFFFF;" d="M418.672,129.997c0.006,0.173-0.13,0.319-0.304,0.325c-0.174,0.006-0.319-0.13-0.325-0.304
										c-0.006-0.174,0.13-0.319,0.304-0.325C418.521,129.687,418.666,129.823,418.672,129.997z"/>
								</g>
								<g>
									<path d="M411.954,130.086c0.02,0.595-0.447,1.094-1.042,1.114c-0.595,0.02-1.094-0.447-1.114-1.042
										c-0.02-0.596,0.447-1.094,1.042-1.114C411.435,129.024,411.934,129.491,411.954,130.086z"/>
									<path style="fill:#FFFFFF;" d="M410.801,129.779c0.006,0.174-0.13,0.319-0.304,0.325c-0.174,0.006-0.319-0.13-0.325-0.304
										c-0.006-0.173,0.13-0.319,0.304-0.325C410.65,129.47,410.795,129.606,410.801,129.779z"/>
								</g>
							</g>
						</g>
					</g>
					<g>
						<path style="fill:#EBBDA4;" d="M434.533,134.674c-1.383,1.551-3.503,1.919-4.735,0.821c-1.231-1.098-1.108-3.246,0.275-4.798
							c1.383-1.552,3.503-1.919,4.735-0.821C436.039,130.974,435.916,133.122,434.533,134.674z"/>
						<path style="fill:#C16B5B;" d="M433.913,130.629c-0.559-0.317-1.316-0.327-2.025-0.022c-0.353,0.151-0.612,0.34-0.792,0.579
							c-0.238,0.315-0.313,0.718-0.197,1.05c0.104,0.298,0.333,0.497,0.536,0.673c0.147,0.127,0.285,0.247,0.362,0.387
							c0.117,0.216,0.077,0.512-0.094,0.689c-0.17,0.176-0.464,0.226-0.684,0.116c-0.13-0.064-0.286-0.012-0.35,0.117
							c-0.064,0.129-0.012,0.286,0.117,0.35c0.141,0.07,0.296,0.107,0.451,0.112c0.31,0.009,0.624-0.107,0.842-0.333
							c0.327-0.339,0.402-0.886,0.177-1.3c-0.121-0.223-0.311-0.388-0.479-0.533c-0.168-0.145-0.326-0.283-0.385-0.45
							c-0.059-0.168-0.011-0.388,0.121-0.564c0.053-0.07,0.125-0.133,0.204-0.194c0.259,0.006,0.581,0.095,0.74,0.279
							c0.178,0.208,0.257,0.503,0.204,0.771c-0.028,0.142,0.064,0.278,0.206,0.306c0.014,0.003,0.028,0.004,0.043,0.005
							c0.125,0.004,0.239-0.084,0.263-0.211c0.084-0.427-0.036-0.88-0.32-1.212c-0.106-0.123-0.241-0.208-0.383-0.278
							c0.435-0.103,0.86-0.067,1.186,0.117c0.402,0.228,0.693,0.794,0.469,1.241c-0.064,0.129-0.012,0.286,0.117,0.35
							c0.129,0.064,0.285,0.012,0.35-0.117C434.917,131.906,434.606,131.023,433.913,130.629z"/>
					</g>
				</g>
			</g>
		</g>
	</g>
</g>
</svg>
