<?xml version="1.0" encoding="utf-8"?>
<!-- Generator: Adobe Illustrator 27.5.0, SVG Export Plug-In . SVG Version: 6.00 Build 0)  -->
<svg version="1.1" id="Capa_1" xmlns="http://www.w3.org/2000/svg" xmlns:xlink="http://www.w3.org/1999/xlink" x="0px" y="0px"
	 viewBox="0 0 396.194 425.196" style="enable-background:new 0 0 396.194 425.196;" xml:space="preserve">
<rect x="0.001" style="fill:transparent;" width="396.194" height="425.196"/>
<path style="fill:#BCBEC0;" d="M194.329,396.181c0,7.576-28.906,13.718-64.563,13.718c-35.657,0-64.563-6.142-64.563-13.718
	c0-7.576,28.906-13.717,64.563-13.717C165.423,382.464,194.329,388.605,194.329,396.181z"/>
<path style="fill:#BCBEC0;" d="M321.286,396.181c0,7.576-28.906,13.718-64.564,13.718c-35.657,0-64.563-6.142-64.563-13.718
	c0-7.576,28.906-13.717,64.563-13.717C292.38,382.464,321.286,388.605,321.286,396.181z"/>
<g>
	<g>
		<g>
			<g>
				<g>
					<path style="fill:#FBBD9C;" d="M129.004,256.987c0,0-0.067,0.511-0.193,1.47c-0.123,0.959-0.325,2.366-0.51,4.155
						c-0.199,1.789-0.439,3.961-0.716,6.454c-0.294,2.492-0.558,5.303-0.842,8.368c-0.306,3.066-0.562,6.386-0.853,9.897
						c-0.309,3.512-0.544,7.213-0.815,11.043c-0.287,3.83-0.505,7.786-0.731,11.805c-0.219,4.02-0.545,8.105-0.457,12.18
						c0.068,4.075,0.433,8.143,0.662,12.15c0.23,4.007,0.139,7.959-0.019,11.786c-0.069,1.913-0.138,3.794-0.205,5.635
						c-0.111,1.843-0.221,3.645-0.327,5.4c-0.199,3.509-0.455,6.829-0.656,9.892c-0.174,3.063-0.332,5.87-0.474,8.358
						c-0.161,2.489-0.195,4.656-0.26,6.441c-0.01,1.784-0.036,3.186,0.004,4.141c0.023,0.955,0.035,1.464,0.035,1.464l0.021,0.875
						c0.057,2.374-1.821,4.345-4.195,4.402c-2.374,0.057-4.345-1.821-4.402-4.195c-0.007-0.283,0.019-0.583,0.065-0.853
						c0,0,0.362-2.048,0.234-5.612c-0.071-1.782-0.268-3.942-0.618-6.418c-0.3-2.477-0.742-5.267-1.27-8.311
						c-0.551-3.043-1.146-6.34-1.775-9.827c-0.327-1.743-0.561-3.537-0.847-5.368c-0.226-1.833-0.462-3.707-0.634-5.613
						c-0.118-1.908-0.346-3.845-0.38-5.811c-0.042-1.966,0.032-3.958,0.26-5.971c0.424-4.025,1.311-8.126,1.579-12.211
						c0.305-4.085-0.24-8.148-0.521-12.154c-0.314-4.005-0.614-7.947-1.039-11.757c-0.396-3.812-0.733-7.498-1.201-10.989
						c-0.438-3.492-0.818-6.794-1.292-9.839c-0.438-3.046-0.843-5.838-1.278-8.311c-0.207-1.237-0.4-2.394-0.579-3.464
						c-0.2-1.07-0.385-2.052-0.551-2.94c-0.317-1.775-0.633-3.168-0.831-4.119c-0.201-0.95-0.309-1.457-0.309-1.457
						c-1.51-7.121,3.038-14.118,10.159-15.628c7.12-1.51,14.117,3.038,15.628,10.159c0.316,1.487,0.366,2.969,0.185,4.397
						L129.004,256.987z"/>
				</g>
				<path style="fill:#FBBD9C;" d="M122.688,398.975c0,0-11.289,3.107-15.33,0.087c0,0-1.698-1.889,3.068-4.583
					c0,0,2.738-1.492,3.66-6.111c0,0,0.891-3.9,4.205-4.106c0,0,3.463,0,4.396,3.528V398.975z"/>
			</g>
			<g>
				<path style="fill:#FBBD9C;" d="M174.111,277.529c0,0-0.408,2.58-1.035,3.753c0,0-0.924,2.644-2.249,3.084
					c0,0,1.13,1.914,3.138-0.743c0,0-0.158,3.295-1.247,4.27c0,0,0.171,1.736,1.647,0.238c0,0,1.293-2.377,1.282-3.742
					c0,0,0.614,3.163-1.055,5.028c0,0,0.667,0.98,1.645,0.069c0,0,1.114-2.451,1.266-4.831c0,0,0.618,0.955,0.024,4.319
					c0,0,0.652,1.168,1.287,0.258c0,0,0.813-1.992,0.415-4.362c0,0,0.419,1.702,0.517,2.454c0,0,1.325,0.297,1.168-0.781
					c0,0,0.128-4.422-1.222-6.412c0,0-0.702-1.374-0.628-1.887L174.111,277.529z"/>
				<path style="fill:#FBBD9C;" d="M167.773,184.886c0,0,5.08,0.583,6.52,10.3l1.584,38.942h-10.875l-6.098-36.681
					C158.904,197.447,156.317,183.541,167.773,184.886z"/>
				<path style="fill:#FBBD9C;" d="M171.401,225.703c0,0,3.632,0.415,4.663,7.371l3.357,46.558h-5.685l-8.687-44.94
					C165.051,234.691,163.199,224.738,171.401,225.703z"/>
			</g>
			<g>
				<path style="fill:#FBBD9C;" d="M84.174,279.721c0,0,0.403,2.578,1.029,3.754c0,0,0.926,2.643,2.256,3.082
					c0,0-1.135,1.916-3.143-0.743c0,0,0.161,3.296,1.252,4.271c0,0-0.172,1.736-1.654,0.239c0,0-1.291-2.378-1.277-3.743
					c0,0-0.613,3.163,1.055,5.029c0,0-0.67,0.981-1.643,0.068c0,0-1.119-2.452-1.272-4.829c0,0-0.612,0.952-0.024,4.318
					c0,0-0.646,1.167-1.285,0.258c0,0-0.81-1.993-0.412-4.363c0,0-0.418,1.702-0.52,2.454c0,0-1.327,0.297-1.165-0.781
					c0,0-0.131-4.422,1.224-6.412c0,0,0.702-1.375,0.627-1.886L84.174,279.721z"/>
				<path style="fill:#FBBD9C;" d="M90.512,187.077c0,0-4.816-4.209-6.26,5.507l-1.846,43.736h10.873l6.102-36.682
					C99.381,199.639,101.963,185.732,90.512,187.077z"/>
				<path style="fill:#FBBD9C;" d="M86.883,227.893c0,0-3.637,0.418-4.668,7.373l-3.352,46.558h5.684l8.684-44.94
					C93.23,236.883,95.082,226.93,86.883,227.893z"/>
			</g>
			<g>
				<rect x="94.275" y="101.966" style="fill:#030000;" width="70.464" height="72.661"/>
				<rect x="121.186" y="158.99" style="fill:#FAB58F;" width="16.843" height="10.018"/>
				<path style="fill:#BCBEC0;" d="M122.148,166.472c1.986-1.99,4.55-3.108,7.362-3.319c2.4-0.18,6.511,0.335,7.79-2.173
					c0.201-0.392,0.447-0.69,0.728-0.92v-1.069h-16.843v8.654C121.471,167.233,121.785,166.838,122.148,166.472z"/>
				<g>
					<path style="fill:#FAB58F;" d="M171.76,126.854c0,4.141-3.48,7.497-7.766,7.497c-4.289,0-7.76-3.357-7.76-7.497
						c0-4.141,3.471-7.497,7.76-7.497C168.279,119.356,171.76,122.713,171.76,126.854z"/>
					<g>
						<path style="fill:#D1D3D4;" d="M164.994,122.683c0,0,0.188-0.028,0.527-0.019c0.328,0.014,0.814,0.063,1.369,0.271
							c0.549,0.203,1.197,0.591,1.649,1.269c0.117,0.165,0.195,0.354,0.295,0.54c0.068,0.193,0.122,0.394,0.175,0.598l0.064,0.623
							c0.006,0.207-0.014,0.41-0.024,0.617c-0.024,0.385-0.128,0.797-0.239,1.166c-0.115,0.377-0.297,0.729-0.482,1.055
							c-0.387,0.652-0.921,1.163-1.457,1.445c-0.25,0.165-0.525,0.232-0.746,0.311c-0.236,0.047-0.438,0.094-0.604,0.101
							c-0.339,0.008-0.527,0.001-0.527,0.001s0.173-0.069,0.479-0.193c0.146-0.059,0.314-0.171,0.504-0.263
							c0.174-0.128,0.383-0.243,0.57-0.426c0.191-0.169,0.373-0.378,0.546-0.607c0.175-0.229,0.317-0.499,0.461-0.783
							c0.136-0.284,0.233-0.597,0.328-0.919c0.087-0.328,0.163-0.642,0.177-0.995l0.035-0.491l-0.03-0.473
							c-0.046-0.147-0.069-0.298-0.103-0.445c-0.064-0.135-0.104-0.281-0.174-0.408c-0.273-0.521-0.715-0.92-1.152-1.207
							c-0.436-0.284-0.858-0.471-1.158-0.592C165.178,122.737,164.994,122.683,164.994,122.683z"/>
					</g>
					<path style="fill:#D1D3D4;" d="M165.996,127.223c0,0.802-0.563,1.452-1.257,1.452c-0.691,0-1.261-0.65-1.261-1.452
						c0-0.802,0.569-1.453,1.261-1.453C165.433,125.77,165.996,126.421,165.996,127.223z"/>
				</g>
				<g>
					<path style="fill:#FAB58F;" d="M88.514,126.854c0,4.141,3.481,7.497,7.766,7.497c4.284,0,7.76-3.357,7.76-7.497
						c0-4.141-3.476-7.497-7.76-7.497C91.995,119.356,88.514,122.713,88.514,126.854z"/>
					<g>
						<path style="fill:#D1D3D4;" d="M95.277,122.683c0,0-0.186-0.028-0.521-0.019c-0.333,0.014-0.82,0.063-1.374,0.271
							c-0.55,0.203-1.203,0.591-1.653,1.269c-0.108,0.165-0.188,0.354-0.286,0.54c-0.073,0.193-0.127,0.394-0.182,0.598
							l-0.063,0.623c0,0.207,0.014,0.41,0.023,0.617c0.025,0.385,0.128,0.797,0.242,1.166c0.111,0.377,0.293,0.729,0.479,1.055
							c0.39,0.652,0.923,1.163,1.458,1.445c0.251,0.165,0.525,0.232,0.747,0.311c0.233,0.047,0.437,0.094,0.604,0.101
							c0.338,0.008,0.523,0.001,0.523,0.001s-0.172-0.069-0.475-0.193c-0.149-0.059-0.311-0.171-0.507-0.263
							c-0.171-0.128-0.384-0.243-0.569-0.426c-0.191-0.169-0.373-0.378-0.545-0.607c-0.178-0.229-0.318-0.499-0.457-0.783
							c-0.137-0.284-0.24-0.597-0.334-0.919c-0.088-0.328-0.162-0.642-0.172-0.995l-0.039-0.491l0.035-0.473
							c0.039-0.147,0.068-0.298,0.104-0.445c0.057-0.135,0.098-0.281,0.166-0.408c0.27-0.521,0.717-0.92,1.153-1.207
							c0.438-0.284,0.858-0.471,1.157-0.592C95.096,122.737,95.277,122.683,95.277,122.683z"/>
					</g>
					<path style="fill:#D1D3D4;" d="M94.275,127.223c0,0.802,0.561,1.452,1.256,1.452c0.699,0,1.258-0.65,1.258-1.452
						c0-0.802-0.559-1.453-1.258-1.453C94.836,125.77,94.275,126.421,94.275,127.223z"/>
				</g>
				<path style="fill:#FAB58F;" d="M163.994,119.549c0,23.957-11.947,40.777-34.391,40.777c-22.438,0-34.386-16.82-34.386-40.777
					c0-23.956,12.405-43.377,34.843-43.377C152.503,76.172,163.994,95.593,163.994,119.549z"/>
			</g>
			<path style="fill:#FBBD9C;" d="M172.802,179.967c-0.786-8.211-8.788-8.822-8.788-8.822l-29.746-6.758l-5.136,0.068l-5.13-0.068
				l-29.744,6.758c0,0-8.003,0.611-8.792,8.822l-1.46,15.222h44.219h1.822h44.216L172.802,179.967z"/>
			<g>
				<path style="fill:#FBBD9C;" d="M113.65,397.568c2.705-0.329,4.801-1.041,6.588-3.203c0.565-0.689,1.516-0.897,2.326-0.709
					c0.314-0.881-0.117-0.945,0.056-4.748h-8.342c0,0-0.632,3.613-7.618,7.25c0,0-1.33,0.241-2.508,0.803
					C107.068,398.414,110.484,397.957,113.65,397.568z"/>
				<path style="fill:#001E2B;" d="M105.93,396.328c0,0,7.633,4.137,14.854-2.42c0,0,0.633-0.736,1.986-0.953
					c0,0,4.948,7.154-6.469,7.343c0,0-16.728,4.322-18.059-2.374C98.242,397.924,100.766,397.207,105.93,396.328z"/>
			</g>
			<g>
				<path style="fill:#E6E7E8;" d="M104.83,200.695c0,0,0.274,0.349,0.704,0.98c0.213,0.316,0.479,0.698,0.754,1.148
					c0.31,0.421,0.662,0.884,1.009,1.4c0.329,0.526,0.809,1.013,1.223,1.574c0.401,0.583,0.982,1.029,1.468,1.583
					c0.239,0.287,0.566,0.467,0.843,0.714c0.302,0.212,0.55,0.509,0.89,0.669c0.321,0.189,0.646,0.372,0.962,0.574
					c0.314,0.204,0.693,0.294,1.034,0.452c0.669,0.355,1.455,0.448,2.179,0.681l0.137,0.039l0.035,0.01
					c0.018,0.003-0.13-0.017-0.063-0.008l0.01,0.001l0.02,0.003l0.078,0.011l0.311,0.044l0.617,0.097
					c0.438,0.09,0.736,0.057,1.082,0.091c0.333,0.044,0.682,0.014,1.031-0.002c0.349-0.004,0.691-0.022,1.021-0.092
					c0.668-0.084,1.301-0.262,1.902-0.395c0.58-0.21,1.147-0.335,1.631-0.526c0.482-0.185,0.929-0.309,1.281-0.449
					c0.712-0.262,1.141-0.387,1.141-0.387s-0.303,0.321-0.869,0.842c-0.279,0.265-0.643,0.561-1.068,0.891
					c-0.412,0.348-0.939,0.669-1.509,1.033c-0.603,0.316-1.253,0.69-2.029,0.92c-0.375,0.15-0.778,0.251-1.198,0.336
					c-0.415,0.106-0.851,0.174-1.324,0.19c-0.455,0.029-0.978,0.069-1.359,0.023l-0.623-0.04l-0.313-0.025l-0.079-0.007
					l-0.111-0.014l-0.042-0.009l-0.17-0.035c-0.902-0.206-1.841-0.333-2.716-0.755c-0.434-0.203-0.897-0.343-1.3-0.604
					c-0.406-0.253-0.8-0.525-1.191-0.787c-0.415-0.236-0.703-0.612-1.046-0.914c-0.313-0.33-0.686-0.606-0.922-0.974
					c-0.51-0.704-1.049-1.359-1.375-2.066c-0.363-0.688-0.722-1.323-0.929-1.97c-0.242-0.627-0.436-1.209-0.599-1.719
					c-0.134-0.51-0.226-0.967-0.307-1.34C104.893,201.135,104.83,200.695,104.83,200.695z"/>
			</g>
			<g>
				<path style="fill:#E6E7E8;" d="M155.825,200.695c0,0-0.061,0.439-0.22,1.188c-0.081,0.373-0.172,0.83-0.307,1.34
					c-0.162,0.51-0.355,1.092-0.598,1.719c-0.207,0.647-0.565,1.282-0.929,1.97c-0.327,0.707-0.866,1.362-1.376,2.066
					c-0.236,0.368-0.608,0.645-0.922,0.974c-0.342,0.302-0.631,0.679-1.045,0.914c-0.393,0.262-0.785,0.533-1.192,0.787
					c-0.402,0.26-0.866,0.4-1.3,0.603c-0.875,0.421-1.813,0.549-2.716,0.755l-0.169,0.035l-0.043,0.009l-0.111,0.014l-0.078,0.006
					l-0.313,0.025l-0.623,0.04c-0.382,0.045-0.903,0.006-1.359-0.023c-0.474-0.016-0.909-0.085-1.323-0.19
					c-0.422-0.085-0.824-0.186-1.199-0.336c-0.776-0.23-1.427-0.604-2.029-0.921c-0.568-0.364-1.097-0.684-1.509-1.033
					c-0.426-0.33-0.789-0.625-1.067-0.891c-0.567-0.521-0.87-0.842-0.87-0.842s0.429,0.125,1.142,0.387
					c0.352,0.14,0.798,0.264,1.28,0.449c0.483,0.191,1.051,0.316,1.632,0.526c0.602,0.133,1.233,0.311,1.901,0.395
					c0.33,0.07,0.673,0.088,1.022,0.092c0.35,0.016,0.697,0.046,1.029,0.002c0.347-0.033,0.645-0.001,1.083-0.091l0.616-0.097
					l0.312-0.044l0.078-0.011l0.02-0.003l0.01-0.001c-0.14,0.02-0.033,0.004-0.063,0.008l0.034-0.01l0.138-0.039
					c0.724-0.232,1.511-0.326,2.179-0.681c0.342-0.157,0.72-0.247,1.035-0.451c0.314-0.202,0.641-0.385,0.961-0.573
					c0.34-0.161,0.588-0.458,0.891-0.669c0.275-0.247,0.604-0.428,0.842-0.714c0.486-0.554,1.066-0.999,1.468-1.582
					c0.415-0.561,0.893-1.048,1.224-1.574c0.347-0.516,0.698-0.979,1.008-1.399c0.275-0.45,0.541-0.831,0.754-1.148
					C155.551,201.044,155.825,200.695,155.825,200.695z"/>
			</g>
			<g>
				<g>
					<path d="M118.354,116.602c0,1.605-1.301,2.905-2.905,2.905c-1.607,0-2.907-1.3-2.907-2.905c0-1.605,1.301-2.906,2.907-2.906
						C117.053,113.695,118.354,114.996,118.354,116.602z"/>
					<path d="M146.617,116.602c0,1.605-1.302,2.905-2.906,2.905c-1.604,0-2.906-1.3-2.906-2.905c0-1.605,1.303-2.906,2.906-2.906
						C145.316,113.695,146.617,114.996,146.617,116.602z"/>
					<g>
						<path style="fill:#FFFFFF;" d="M114.652,115.149c0,0.802-0.648,1.452-1.449,1.452c-0.803,0-1.456-0.65-1.456-1.452
							c0-0.804,0.653-1.454,1.456-1.454C114.004,113.695,114.652,114.346,114.652,115.149z"/>
						<path style="fill:#FFFFFF;" d="M115.384,117.329c0,0.4-0.33,0.726-0.731,0.726c-0.398,0-0.727-0.325-0.727-0.726
							c0-0.403,0.328-0.728,0.727-0.728C115.054,116.602,115.384,116.926,115.384,117.329z"/>
					</g>
					<g>
						<path style="fill:#FFFFFF;" d="M144.439,115.149c0,0.802,0.652,1.452,1.452,1.452s1.452-0.65,1.452-1.452
							c0-0.804-0.652-1.454-1.452-1.454S144.439,114.346,144.439,115.149z"/>
						<path style="fill:#FFFFFF;" d="M143.711,117.329c0,0.4,0.324,0.726,0.729,0.726c0.401,0,0.727-0.325,0.727-0.726
							c0-0.403-0.325-0.728-0.727-0.728C144.035,116.602,143.711,116.926,143.711,117.329z"/>
					</g>
					<g>
						<g>
							<path style="fill:#3C2415;" d="M137.104,109.52c0,0,0.188-0.184,0.558-0.441c0.367-0.262,0.914-0.596,1.61-0.91
								c0.348-0.158,0.731-0.317,1.145-0.46c0.42-0.123,0.859-0.278,1.334-0.361c0.939-0.208,1.98-0.306,3.032-0.259
								c0.523,0.011,1.055,0.113,1.568,0.19c0.514,0.124,1.018,0.266,1.487,0.448c0.463,0.225,0.916,0.402,1.299,0.676
								c0.379,0.282,0.741,0.524,1.02,0.82c0.28,0.296,0.512,0.583,0.709,0.833c0.193,0.254,0.296,0.533,0.401,0.732
								c0.198,0.413,0.276,0.653,0.276,0.653s-0.249-0.119-0.625-0.333c-0.192-0.102-0.4-0.245-0.658-0.372
								c-0.271-0.111-0.569-0.231-0.866-0.38c-0.308-0.136-0.682-0.203-1.025-0.336c-0.351-0.125-0.762-0.164-1.144-0.276
								c-0.404-0.061-0.821-0.124-1.245-0.188c-0.439-0.01-0.865-0.098-1.314-0.093c-0.888-0.045-1.796-0.05-2.662-0.028
								c-0.867,0.011-1.692,0.049-2.417,0.056c-0.719,0.032-1.342,0.029-1.78,0.036C137.359,109.522,137.104,109.52,137.104,109.52z
								"/>
						</g>
					</g>
					<g>
						<g>
							<path style="fill:#3C2415;" d="M122.162,109.51c0,0-0.258,0.005-0.708,0.015c-0.441-0.002-1.066,0.009-1.79-0.015
								c-0.729,0.002-1.559-0.026-2.431-0.027c-0.872-0.012-1.784,0.004-2.677,0.061c-0.451,0.001-0.88,0.094-1.32,0.11
								c-0.425,0.07-0.844,0.138-1.248,0.205c-0.384,0.117-0.797,0.162-1.147,0.291c-0.344,0.138-0.719,0.21-1.026,0.351
								c-0.297,0.154-0.594,0.278-0.867,0.393c-0.257,0.13-0.464,0.277-0.656,0.382c-0.375,0.22-0.624,0.343-0.624,0.343
								s0.076-0.242,0.27-0.66c0.104-0.202,0.204-0.483,0.396-0.741c0.194-0.254,0.424-0.545,0.701-0.846
								c0.276-0.301,0.638-0.55,1.015-0.837c0.382-0.28,0.836-0.464,1.298-0.696c0.471-0.189,0.975-0.337,1.49-0.468
								c0.516-0.084,1.049-0.193,1.575-0.211c1.057-0.06,2.104,0.026,3.051,0.224c0.478,0.078,0.922,0.229,1.346,0.347
								c0.419,0.138,0.806,0.294,1.157,0.448c0.704,0.308,1.258,0.637,1.63,0.896C121.971,109.327,122.162,109.51,122.162,109.51z"
								/>
						</g>
					</g>
				</g>
				<g>
					<path style="fill:#CB9A80;" d="M126.206,120.453c0,0,0.122,0.281,0.227,0.823c0.106,0.531,0.203,1.294,0.251,2.193
						c0.064,0.901,0.074,1.938,0.099,3.031c0.013,1.092,0.026,2.24,0.104,3.343c0.073,1.093,0.235,2.171,0.591,2.896
						c0.184,0.352,0.385,0.611,0.668,0.787c0.275,0.183,0.654,0.258,1.031,0.298c0.383,0.017,0.764-0.013,1.111-0.043
						c0.34-0.066,0.655-0.099,0.911-0.153c0.507-0.116,0.821-0.165,0.821-0.165s-0.217,0.216-0.637,0.565
						c-0.213,0.167-0.489,0.355-0.821,0.555c-0.345,0.181-0.745,0.386-1.249,0.506c-0.499,0.111-1.12,0.202-1.788-0.029
						c-0.665-0.198-1.304-0.684-1.71-1.273c-0.424-0.588-0.656-1.231-0.83-1.871c-0.182-0.642-0.251-1.282-0.307-1.915
						c-0.082-1.264-0.002-2.493,0.15-3.62c0.161-1.126,0.369-2.156,0.595-3.027c0.212-0.873,0.432-1.587,0.571-2.094
						C126.136,120.765,126.206,120.453,126.206,120.453z"/>
				</g>
				<path style="fill:#FFFFFF;" d="M118.971,140.383h23.461c0,0-1.627,8.164-11.729,8.718
					C130.703,149.101,120.252,149.128,118.971,140.383z"/>
				<g>
					<path style="fill:#C88075;" d="M118.971,140.328c1.955-0.181,3.91-0.271,5.865-0.398c1.955-0.13,3.91-0.163,5.865-0.249
						l2.933-0.11c0.978-0.048,1.955-0.046,2.933-0.061l5.865-0.073l1.186-0.015l-0.259,1.146c-0.178,0.792-0.419,1.417-0.711,2.086
						c-0.304,0.647-0.646,1.276-1.053,1.866c-0.412,0.586-0.884,1.129-1.39,1.635c-0.264,0.242-0.52,0.494-0.793,0.724l-0.856,0.645
						c-0.604,0.375-1.2,0.78-1.858,1.046c-0.325,0.139-0.641,0.307-0.975,0.418l-1.006,0.323c-0.668,0.222-1.364,0.303-2.044,0.457
						c-0.713,0.067-1.326,0.149-2.119,0.181c-0.733-0.051-1.396-0.142-2.078-0.283c-0.677-0.132-1.344-0.306-2-0.52
						c-0.652-0.217-1.303-0.455-1.92-0.771c-0.628-0.284-1.219-0.66-1.79-1.049l-0.822-0.638l-0.726-0.749
						c-0.255-0.234-0.428-0.545-0.639-0.816c-0.207-0.276-0.406-0.555-0.547-0.872c-0.154-0.307-0.32-0.606-0.458-0.915
						l-0.316-0.968c-0.124-0.315-0.161-0.653-0.206-0.986l-0.145-1.047L118.971,140.328z M119.04,140.439l0.201,0.896
						c0.068,0.321,0.136,0.643,0.275,0.941l0.36,0.914c0.151,0.29,0.33,0.566,0.492,0.849c0.151,0.293,0.357,0.547,0.57,0.796
						c0.217,0.245,0.392,0.528,0.649,0.734l0.724,0.664l0.8,0.569c0.554,0.346,1.122,0.681,1.729,0.927
						c0.594,0.277,1.222,0.48,1.85,0.663c1.262,0.354,2.57,0.569,3.876,0.619c0.644-0.038,1.303-0.127,1.952-0.196
						c0.636-0.157,1.292-0.238,1.91-0.455l0.932-0.313c0.309-0.107,0.596-0.269,0.895-0.4c0.606-0.251,1.145-0.633,1.693-0.982
						l0.775-0.6c0.247-0.213,0.476-0.447,0.715-0.67c0.455-0.467,0.877-0.968,1.247-1.507c0.748-1.066,1.33-2.27,1.645-3.526
						l0.101,0.123L119.04,140.439z"/>
				</g>
				<path style="fill:#C2C4C6;" d="M121.426,143.842c0,0,0.285-0.041,0.791-0.09c0.512-0.038,1.231-0.131,2.097-0.173
					c0.862-0.042,1.875-0.12,2.959-0.148c1.085-0.04,2.238-0.048,3.392-0.058c1.16,0.01,2.313,0.018,3.398,0.056
					c1.084,0.028,2.095,0.108,2.959,0.149c1.733,0.112,2.886,0.264,2.886,0.264s-1.152,0.151-2.886,0.266
					c-0.864,0.039-1.875,0.121-2.959,0.148c-1.086,0.039-2.238,0.046-3.398,0.055c-1.153-0.009-2.307-0.016-3.392-0.055
					c-1.084-0.031-2.097-0.109-2.959-0.15c-0.866-0.042-1.585-0.136-2.097-0.172C121.711,143.882,121.426,143.842,121.426,143.842z"
					/>
			</g>
			<path style="fill:#7AD0E2;" d="M179.058,274.587l-2.993-41.513c-0.081-0.544-0.182-1.036-0.291-1.503l-1.48-36.386
				c-0.019-0.127-0.045-0.236-0.065-0.36l-1.426-14.858c-0.786-8.211-8.788-8.822-8.788-8.822l-25.89-6.149l-8.989,7.133
				l-8.977-7.133l-25.9,6.149c0,0-8.003,0.611-8.792,8.822l-1.205,12.564c-0.003,0.019-0.006,0.034-0.009,0.053l-0.003,0.069
				l-0.243,2.535h0.137l-1.627,38.538c-0.113,0.478-0.218,0.98-0.301,1.539l-2.723,37.821h6.743l6.995-36.204
				c0,0,0.073-0.401,0.127-1.028l6.023-36.216c0,0,0.086-0.477,0.157-1.234c0.414,4.168,1.87,11.397,6.94,15.585
				c0,0,5.209,14.173-1.648,37.917h49.592c-4.791-25.358-0.168-37.352-0.168-37.352c3.307-2.818,5.003-6.494,5.851-9.886
				l4.819,28.992c0.053,0.629,0.127,1.031,0.127,1.031l7.711,39.896H179.058z"/>
			<g>
				<g>
					<path style="fill:#003A54;" d="M131.191,175.81c0,0,0-0.004-0.005-0.011C131.191,175.806,131.191,175.81,131.191,175.81
						l1.241-5.152c0.458-0.768,0.593-1.661,0.121-2.439c-0.428-0.706-1.015-1.072-1.681-1.255c-1.054-0.288-2.301-0.119-3.421-0.119
						c-1.116,0-1.913,0.101-2.65,0.977c-0.736,0.881-0.784,1.828-0.189,2.835l1.239,5.152c0,0,0.051-0.082,0.188-0.191
						c-0.063,0.062-0.126,0.122-0.188,0.191l-5.528,45.128l8.012,10.108l8.38-10.147L131.191,175.81z"/>
					<path style="fill:#BCBEC0;" d="M125.646,175.011c0,0,3.734-1.746,5.534,0.799c0,0-2.519-1.434-5.342,0L125.646,175.011z"/>
				</g>
				<g>
					<polygon style="fill:#BCBEC0;" points="121.957,166.796 107.795,168.105 124.023,179.116 129.142,167.013 					"/>
					<polygon style="fill:#FFFFFF;" points="121.383,164.996 107.795,168.105 123.452,177.317 129.142,167.013 					"/>
				</g>
				<g>
					<polygon style="fill:#BCBEC0;" points="136.33,166.796 150.488,168.105 134.259,179.116 129.142,167.013 					"/>
					<polygon style="fill:#FFFFFF;" points="136.899,164.996 150.488,168.105 134.832,177.317 129.142,167.013 					"/>
				</g>
			</g>
			<g>
				<g>
					<g>
						<path style="fill:#FBBD9C;" d="M155.195,257.687c0,0-0.107,0.507-0.309,1.457c-0.198,0.95-0.514,2.343-0.831,4.119
							c-0.167,0.887-0.351,1.87-0.552,2.939c-0.179,1.07-0.372,2.228-0.579,3.464c-0.435,2.473-0.84,5.265-1.278,8.311
							c-0.474,3.045-0.854,6.348-1.291,9.84c-0.469,3.491-0.806,7.177-1.203,10.988c-0.424,3.811-0.725,7.752-1.039,11.757
							c-0.281,4.006-0.826,8.068-0.521,12.154c0.268,4.085,1.154,8.186,1.578,12.211c0.228,2.013,0.303,4.006,0.26,5.972
							c-0.035,1.966-0.263,3.903-0.381,5.811c-0.171,1.907-0.408,3.78-0.633,5.613c-0.287,1.831-0.521,3.625-0.848,5.368
							c-0.63,3.486-1.226,6.783-1.775,9.826c-0.528,3.043-0.97,5.835-1.27,8.311c-0.351,2.475-0.547,4.636-0.618,6.418
							c-0.127,3.565,0.235,5.613,0.235,5.613c0.413,2.338-1.148,4.569-3.487,4.983c-2.338,0.413-4.568-1.147-4.982-3.486
							c-0.049-0.278-0.07-0.556-0.065-0.829l0.022-0.898c0,0,0.012-0.509,0.035-1.464c0.04-0.954,0.014-2.356,0.004-4.141
							c-0.065-1.785-0.099-3.952-0.26-6.441c-0.141-2.488-0.3-5.295-0.473-8.358c-0.201-3.063-0.457-6.383-0.656-9.892
							c-0.107-1.755-0.215-3.558-0.326-5.4c-0.067-1.841-0.136-3.723-0.205-5.636c-0.157-3.827-0.25-7.779-0.02-11.786
							c0.23-4.007,0.596-8.075,0.663-12.15c0.088-4.075-0.237-8.161-0.456-12.18c-0.226-4.02-0.444-7.976-0.731-11.806
							c-0.27-3.83-0.507-7.531-0.814-11.043c-0.29-3.512-0.546-6.832-0.852-9.897c-0.283-3.065-0.547-5.876-0.841-8.368
							c-0.276-2.492-0.518-4.665-0.716-6.454c-0.186-1.788-0.387-3.196-0.51-4.155c-0.126-0.959-0.193-1.47-0.193-1.47l-0.041-0.318
							c-0.948-7.217,4.135-13.837,11.352-14.784c7.218-0.948,13.836,4.135,14.784,11.352
							C155.568,254.744,155.488,256.278,155.195,257.687z"/>
					</g>
				</g>
				<path style="fill:#FBBD9C;" d="M135.592,398.975c0,0,11.291,3.107,15.331,0.087c0,0,1.697-1.889-3.063-4.583
					c0,0-2.742-1.492-3.661-6.111c0,0-0.894-3.9-4.202-4.106c0,0-3.471,0-4.404,3.528V398.975z"/>
			</g>
			<path style="fill:#001E2B;" d="M108.442,231.047h44.468l1.17,9.718c0,0,15.26,14.442,7.146,68.345h-61.27
				c0,0-7.692-54.669,6.886-69.675L108.442,231.047z"/>
			<polygon style="fill:#3C2415;" points="153.755,239.435 106.519,239.435 108.336,229.916 152.361,229.916 			"/>
			<path style="fill:#FBB040;" d="M135.543,228.592h-9.557c-1.193,0-2.154,0.965-2.154,2.156v9.559c0,1.192,0.961,2.157,2.154,2.157
				h9.557c1.193,0,2.16-0.965,2.16-2.157v-9.559C137.703,229.557,136.736,228.592,135.543,228.592z M135.734,238.953
				c0,0.854-0.691,1.545-1.547,1.545h-6.847c-0.854,0-1.547-0.691-1.547-1.545v-6.85c0-0.854,0.692-1.545,1.547-1.545h6.847
				c0.855,0,1.547,0.691,1.547,1.545V238.953z"/>
			<g>
				<path style="fill:#FBBD9C;" d="M144.792,397.568c-2.706-0.329-4.802-1.041-6.582-3.203c-0.571-0.689-1.519-0.897-2.333-0.709
					c-0.311-0.881,0.119-0.945-0.053-4.748h8.343c0,0,0.628,3.613,7.618,7.25c0,0,1.327,0.241,2.504,0.803
					C151.373,398.414,147.959,397.957,144.792,397.568z"/>
				<path style="fill:#001E2B;" d="M152.512,396.328c0,0-7.627,4.137-14.848-2.42c0,0-0.635-0.736-1.988-0.953
					c0,0-4.948,7.154,6.469,7.343c0,0,16.726,4.322,18.056-2.374C160.2,397.924,157.683,397.207,152.512,396.328z"/>
			</g>
		</g>
		<path style="fill:#3C2415;" d="M115.477,90.02c0,0,15.644,23.546,48.518,29.529c0,0,1.869,52.508-11.5,72.128
			c0,0,19.904-2.868,22.619-34.83c0,0,5.105-47.78-3.354-72.315c0,0-13.941-31.226-48.164-20.616
			C123.596,63.915,103.172,71.941,115.477,90.02z"/>
		<path style="fill:#3C2415;" d="M118.971,79.974c0,0-17.738,5.32-19.34,29.282c0,0-4.413,57.215,13.628,81.522
			c0,0-38.087,7.347-27.121-88.491c0,0,4.88-31.67,33.575-29.455L118.971,79.974z"/>
		<g>
			<path style="fill:#003A54;" d="M161.318,55.883c-22.033-2.437-31.836-18.461-31.836-18.461c-0.117,0.025-0.229,0.052-0.344,0.079
				c-0.115-0.027-0.225-0.054-0.34-0.079c0,0-9.807,16.024-31.839,18.461c0,0-1.711,8.507-16.427,18.211
				c1.711,16.018,16.427,18.3,16.427,18.3h32.179h32.18c0,0,14.717-2.282,16.43-18.3C163.029,64.39,161.318,55.883,161.318,55.883z"
				/>
			<path style="fill:#000F26;" d="M86.387,86.826c4.748,4.662,10.573,5.568,10.573,5.568h64.358c0,0,5.826-0.906,10.574-5.568
				H86.387z"/>
			<path style="fill:#002239;" d="M95.067,92.394h67.839c0,0-5.813,10.904-37.635,9.693
				C125.271,102.087,106.78,103.296,95.067,92.394z"/>
			<path style="fill:#FBB040;" d="M128.988,54.283c0,0-9.872,1.307-12.467,6.713c0,0,0.346,13.276,12.467,21.809
				c12.119-8.532,12.465-21.809,12.465-21.809C138.855,55.589,128.988,54.283,128.988,54.283z"/>
		</g>
	</g>
	<g>
		<g>
			<g>
				<rect x="249.465" y="172.469" style="fill:#FAB58F;" width="19.158" height="11.396"/>
				<path style="fill:#BCBEC0;" d="M250.559,180.981c2.26-2.266,5.175-3.536,8.373-3.777c2.734-0.205,7.411,0.383,8.865-2.471
					c0.227-0.447,0.512-0.787,0.826-1.047v-1.217h-19.158v9.846C249.787,181.85,250.142,181.398,250.559,180.981z"/>
				<g>
					<path style="fill:#FAB58F;" d="M306.998,135.909c0,4.71-3.953,8.529-8.83,8.529c-4.879,0-8.834-3.819-8.834-8.529
						c0-4.711,3.955-8.531,8.834-8.531C303.045,127.377,306.998,131.198,306.998,135.909z"/>
					<g>
						<path style="fill:#D1D3D4;" d="M299.305,131.162c0,0,0.215-0.032,0.596-0.021c0.379,0.017,0.932,0.071,1.561,0.312
							c0.627,0.229,1.363,0.671,1.881,1.439c0.127,0.189,0.219,0.405,0.328,0.615c0.078,0.22,0.142,0.449,0.205,0.682l0.072,0.707
							c0.002,0.235-0.016,0.467-0.025,0.701c-0.029,0.439-0.147,0.908-0.277,1.328c-0.129,0.432-0.332,0.829-0.547,1.201
							c-0.438,0.742-1.049,1.321-1.654,1.643c-0.287,0.188-0.602,0.264-0.855,0.352c-0.266,0.054-0.494,0.108-0.685,0.115
							c-0.385,0.009-0.598,0.003-0.598,0.003s0.197-0.081,0.543-0.222c0.168-0.065,0.355-0.192,0.574-0.297
							c0.197-0.146,0.436-0.278,0.646-0.487c0.221-0.188,0.43-0.428,0.623-0.69c0.201-0.26,0.363-0.566,0.521-0.89
							c0.156-0.323,0.27-0.68,0.375-1.045c0.102-0.374,0.186-0.73,0.199-1.135l0.041-0.557l-0.037-0.537
							c-0.047-0.168-0.074-0.34-0.115-0.507c-0.066-0.154-0.115-0.32-0.193-0.466c-0.311-0.592-0.815-1.046-1.311-1.373
							c-0.502-0.323-0.977-0.535-1.314-0.672C299.516,131.224,299.305,131.162,299.305,131.162z"/>
					</g>
					<path style="fill:#D1D3D4;" d="M300.445,136.329c0,0.91-0.641,1.65-1.43,1.65c-0.793,0-1.432-0.74-1.432-1.65
						c0-0.914,0.639-1.654,1.432-1.654C299.805,134.674,300.445,135.415,300.445,136.329z"/>
				</g>
				<g>
					<path style="fill:#FAB58F;" d="M212.293,135.909c0,4.71,3.953,8.529,8.833,8.529c4.876,0,8.831-3.819,8.831-8.529
						c0-4.711-3.955-8.531-8.831-8.531C216.246,127.377,212.293,131.198,212.293,135.909z"/>
					<g>
						<path style="fill:#D1D3D4;" d="M219.984,131.162c0,0-0.213-0.032-0.592-0.021c-0.381,0.017-0.928,0.071-1.563,0.312
							c-0.627,0.229-1.365,0.671-1.881,1.439c-0.127,0.189-0.218,0.405-0.328,0.615c-0.08,0.22-0.142,0.449-0.203,0.682
							l-0.076,0.707c0,0.235,0.018,0.467,0.031,0.701c0.028,0.439,0.144,0.908,0.275,1.328c0.127,0.432,0.333,0.829,0.546,1.201
							c0.438,0.742,1.05,1.321,1.655,1.643c0.286,0.188,0.599,0.264,0.855,0.352c0.266,0.054,0.492,0.108,0.684,0.115
							c0.388,0.009,0.596,0.003,0.596,0.003s-0.197-0.081-0.539-0.222c-0.17-0.065-0.356-0.192-0.574-0.297
							c-0.199-0.146-0.439-0.278-0.646-0.487c-0.224-0.188-0.43-0.428-0.627-0.69c-0.197-0.26-0.363-0.566-0.52-0.89
							c-0.154-0.323-0.266-0.68-0.374-1.045c-0.102-0.374-0.182-0.73-0.197-1.135l-0.044-0.557l0.037-0.537
							c0.047-0.168,0.078-0.34,0.117-0.507c0.066-0.154,0.111-0.32,0.195-0.466c0.305-0.592,0.814-1.046,1.306-1.373
							c0.503-0.323,0.981-0.535,1.319-0.672C219.778,131.224,219.984,131.162,219.984,131.162z"/>
					</g>
					<path style="fill:#D1D3D4;" d="M218.848,136.329c0,0.91,0.639,1.65,1.428,1.65c0.791,0,1.432-0.74,1.432-1.65
						c0-0.914-0.641-1.654-1.432-1.654C219.486,134.674,218.848,135.415,218.848,136.329z"/>
				</g>
				<path style="fill:#FAB58F;" d="M298.168,127.596c0,27.258-13.598,46.394-39.125,46.394c-25.53,0-39.127-19.136-39.127-46.394
					c0-27.256,14.115-49.352,39.645-49.352C285.088,78.245,298.168,100.34,298.168,127.596z"/>
				<path style="fill:#3D1711;" d="M218.848,112.604l1.409,22.242l3.454,0.917c-3.033-35.903,17.076-44.12,17.076-44.12
					l5.627-22.479c-17.189-0.383-24.707,12.833-24.707,12.833S215.342,88.069,218.848,112.604z"/>
				<path style="fill:#3D1711;" d="M298.943,116.961l-1.408,22.242l-3.461,0.917c3.51-47.89-15.473-48.688-15.473-48.688
					l-7.226-17.911c17.186-0.383,24.706,12.832,24.706,12.832S302.445,92.43,298.943,116.961z"/>
				<path style="fill:#3D1711;" d="M221.707,81.998c0,0,6.952-20.524,39.148-20.296c0,0,36.022,0.473,37.053,27.865l-19.307,1.866
					c0,0-15.78-2.46-18.793,8.115c0,0-0.91-11.031-19.021-7.905L221.707,81.998z"/>
			</g>
			<path style="fill:#FBBD9C;" d="M210.898,289.226c0,0,0.8,5.097,2.041,7.415c0,0,1.821,5.22,4.444,6.09
				c0,0-2.236,3.783-6.203-1.467c0,0,0.314,6.51,2.469,8.436c0,0-0.338,3.43-3.263,0.472c0,0-2.552-4.698-2.526-7.397
				c0,0-1.211,6.252,2.085,9.936c0,0-1.319,1.939-3.247,0.136c0,0-2.207-4.841-2.508-9.541c0,0-1.219,1.886-0.049,8.532
				c0,0-1.284,2.307-2.545,0.512c0,0-1.6-3.938-0.818-8.619c0,0-0.817,3.359-1.018,4.846c0,0-2.623,0.587-2.303-1.541
				c0,0-0.261-8.733,2.412-12.666c0,0,1.388-2.719,1.241-3.729L210.898,289.226z"/>
			<path style="fill:#FBBD9C;" d="M305.373,289.226c0,0-0.799,5.097-2.039,7.415c0,0-1.824,5.22-4.443,6.09
				c0,0,2.232,3.783,6.201-1.467c0,0-0.316,6.51-2.465,8.436c0,0,0.334,3.43,3.256,0.472c0,0,2.553-4.698,2.527-7.397
				c0,0,1.215,6.252-2.082,9.936c0,0,1.32,1.939,3.246,0.136c0,0,2.207-4.841,2.504-9.541c0,0,1.223,1.886,0.053,8.532
				c0,0,1.285,2.307,2.541,0.512c0,0,1.603-3.938,0.82-8.619c0,0,0.818,3.359,1.02,4.846c0,0,2.621,0.587,2.301-1.541
				c0,0,0.262-8.733-2.408-12.666c0,0-1.391-2.719-1.244-3.729L305.373,289.226z"/>
			<path style="fill:#001E2B;" d="M290.861,278.155h-32.594h-1.732h-32.597c0,0-6.02,32.657,33.464,30.869
				C296.883,310.812,290.861,278.155,290.861,278.155z"/>
			<g>
				<polygon style="fill:#001E2B;" points="283.613,301.418 280.454,392.405 264.113,392.405 264.113,301.418 				"/>
				<path style="fill:#00031D;" d="M264.113,390.693v10.978h11.781v-3.481l2.678,3.481h18.742c0,0,1.719-2.947-8.75-6.963
					l-10.465-4.015H264.113z"/>
			</g>
			<g>
				<polygon style="fill:#001E2B;" points="233.088,301.418 236.244,392.405 252.586,392.405 252.586,301.418 				"/>
				<path style="fill:#00031D;" d="M252.586,390.693v10.978h-11.781v-3.481l-2.678,3.481h-18.741c0,0-1.722-2.947,8.746-6.963
					l10.468-4.015H252.586z"/>
			</g>
			<polygon style="fill:#FBBD9C;" points="310.877,189.86 265.541,180.575 258.147,180.661 250.752,180.575 205.419,189.86 
				200.164,214.195 257.234,214.195 259.061,214.195 316.129,214.195 			"/>
			<path style="fill:#FBBD9C;" d="M295.102,285.159c6.316-22.244,0-70.964,0-70.964l-32.396-2.093v-0.684l-5.304,0.341l-5.307-0.341
				v0.684l-32.399,2.093c0,0-6.314,48.72,0,70.964H295.102z"/>
			<path style="fill:#7AD0E2;" d="M316.129,214.195l-5.252-24.335l-34.641-7.095l-18.09,0.229l-17.93-0.261l-34.798,7.127
				l-5.255,24.335h19.532c0,0-6.314,48.72,0,70.964h75.405c6.316-22.244,0-70.964,0-70.964H316.129z"/>
			<g>
				<path style="fill:#003A54;" d="M260.873,194.444c0,0-0.002-0.005-0.007-0.014C260.871,194.439,260.873,194.444,260.873,194.444
					l1.611-6.693c0.594-0.999,0.77-2.158,0.158-3.168c-0.557-0.918-1.319-1.393-2.184-1.631c-1.37-0.375-2.99-0.154-4.446-0.154
					c-1.449,0-2.484,0.131-3.442,1.27c-0.957,1.145-1.02,2.374-0.244,3.684l1.609,6.693c0,0,0.066-0.105,0.244-0.247
					c-0.082,0.079-0.164,0.157-0.244,0.247l-7.183,58.63l10.409,13.133l10.887-13.183L260.873,194.444z"/>
				<path style="fill:#BCBEC0;" d="M253.666,193.407c0,0,4.852-2.267,7.189,1.037c0,0-3.271-1.862-6.939,0L253.666,193.407z"/>
			</g>
			<path style="fill:#7AD0E2;" d="M208.439,201.121c0,0-6.447,0.738-8.275,13.074l-1.208,80.325h13.799l6.941-77.458
				C219.696,217.062,222.977,199.413,208.439,201.121z"/>
			<path style="fill:#7AD0E2;" d="M307.074,201.121c0,0,6.449,0.738,8.275,13.074l2.008,80.325h-13.799l-7.744-77.458
				C295.815,217.062,292.535,199.413,307.074,201.121z"/>
			<path style="fill:#D1D3D4;" d="M279.162,278.915c-8.938-0.929-17.814-3.465-25.842-7.531
				c-9.012-4.561-15.195-11.805-20.527-20.299c-3.324-5.295-6.145-10.876-9.434-16.187c-1.973-3.188-3.703-6.301-4.846-9.674
				c-1.461,15.704-3.246,44.33,1.183,59.934h75.405c0.76-2.669,1.334-5.723,1.758-9.022
				C291.664,279.112,284.988,279.523,279.162,278.915z"/>
			<g>
				<polygon style="fill:#BCBEC0;" points="249.529,182.733 232.544,184.303 252.008,197.51 258.147,182.994 				"/>
				<polygon style="fill:#FFFFFF;" points="248.841,180.575 232.544,184.303 251.323,195.352 258.147,182.994 				"/>
			</g>
			<g>
				<polygon style="fill:#BCBEC0;" points="266.768,182.733 283.748,184.303 264.284,197.51 258.147,182.994 				"/>
				<polygon style="fill:#FFFFFF;" points="267.451,180.575 283.748,184.303 264.971,195.352 258.147,182.994 				"/>
			</g>
			<polygon style="fill:#3C2415;" points="288.816,293.985 225.982,293.985 220.018,284.467 295.498,284.467 			"/>
			<path style="fill:#FBB040;" d="M262.535,282.289h-9.561c-1.19,0-2.154,0.965-2.154,2.156v9.56c0,1.19,0.964,2.157,2.154,2.157
				h9.561c1.193,0,2.158-0.967,2.158-2.157v-9.56C264.693,283.254,263.729,282.289,262.535,282.289z M262.727,292.65
				c0,0.854-0.691,1.546-1.547,1.546h-6.85c-0.852,0-1.543-0.691-1.543-1.546v-6.849c0-0.853,0.691-1.545,1.543-1.545h6.85
				c0.855,0,1.547,0.692,1.547,1.545V292.65z"/>
			<g>
				<g>
					<path d="M245.995,122.317c0,1.859-1.507,3.367-3.369,3.367c-1.858,0-3.366-1.508-3.366-3.367c0-1.861,1.508-3.369,3.366-3.369
						C244.488,118.948,245.995,120.456,245.995,122.317z"/>
					<path d="M278.761,122.317c0,1.859-1.507,3.367-3.366,3.367c-1.861,0-3.369-1.508-3.369-3.367c0-1.861,1.508-3.369,3.369-3.369
						C277.254,118.948,278.761,120.456,278.761,122.317z"/>
					<g>
						<path style="fill:#FFFFFF;" d="M241.707,120.632c0,0.929-0.75,1.685-1.68,1.685c-0.932,0-1.686-0.756-1.686-1.685
							c0-0.932,0.754-1.685,1.686-1.685C240.957,118.948,241.707,119.701,241.707,120.632z"/>
						<path style="fill:#FFFFFF;" d="M242.553,123.158c0,0.466-0.377,0.843-0.846,0.843c-0.461,0-0.838-0.377-0.838-0.843
							s0.377-0.841,0.838-0.841C242.176,122.317,242.553,122.692,242.553,123.158z"/>
					</g>
					<g>
						<path style="fill:#FFFFFF;" d="M276.236,120.632c0,0.929,0.754,1.685,1.683,1.685c0.931,0,1.683-0.756,1.683-1.685
							c0-0.932-0.752-1.685-1.683-1.685C276.99,118.948,276.236,119.701,276.236,120.632z"/>
						<path style="fill:#FFFFFF;" d="M275.395,123.158c0,0.466,0.373,0.843,0.842,0.843c0.465,0,0.842-0.377,0.842-0.843
							s-0.377-0.841-0.842-0.841C275.768,122.317,275.395,122.692,275.395,123.158z"/>
					</g>
					<g>
						<g>
							<path style="fill:#3C2415;" d="M267.734,114.105c0,0,0.219-0.213,0.647-0.511c0.426-0.304,1.06-0.691,1.866-1.056
								c0.403-0.183,0.848-0.368,1.328-0.533c0.486-0.142,0.996-0.323,1.547-0.419c0.545-0.118,1.116-0.219,1.709-0.256
								c0.586-0.076,1.196-0.055,1.805-0.043c0.606,0.013,1.223,0.132,1.818,0.221c0.596,0.145,1.179,0.308,1.724,0.519
								c0.536,0.26,1.062,0.466,1.506,0.784c0.439,0.326,0.858,0.608,1.181,0.951c0.325,0.342,0.594,0.675,0.821,0.965
								c0.224,0.295,0.344,0.618,0.466,0.848c0.229,0.479,0.32,0.757,0.32,0.757s-0.289-0.138-0.725-0.386
								c-0.223-0.118-0.463-0.284-0.762-0.431c-0.316-0.129-0.661-0.268-1.005-0.441c-0.357-0.157-0.79-0.235-1.189-0.39
								c-0.406-0.145-0.883-0.19-1.326-0.319c-0.468-0.071-0.951-0.145-1.442-0.219c-0.508-0.012-1.003-0.114-1.523-0.108
								c-1.029-0.053-2.081-0.058-3.086-0.033c-0.503-0.008-0.991,0.036-1.463,0.032c-0.468,0.023-0.92,0.021-1.338,0.033
								c-0.834,0.037-1.555,0.034-2.063,0.042C268.041,114.114,267.734,114.105,267.734,114.105z"/>
						</g>
					</g>
					<g>
						<g>
							<path style="fill:#3C2415;" d="M250.414,114.092c0,0-0.309,0.013-0.82,0.018c-0.512-0.002-1.237,0.011-2.076-0.016
								c-0.42-0.006-0.875,0.001-1.346-0.017c-0.474,0.01-0.966-0.028-1.472-0.014c-1.011-0.014-2.067,0.005-3.102,0.071
								c-0.523,0.001-1.02,0.109-1.53,0.127c-0.493,0.081-0.979,0.161-1.448,0.238c-0.444,0.135-0.923,0.187-1.329,0.337
								c-0.399,0.16-0.834,0.244-1.191,0.407c-0.344,0.178-0.688,0.322-1.004,0.455c-0.299,0.151-0.539,0.321-0.762,0.442
								c-0.436,0.255-0.724,0.397-0.724,0.397s0.088-0.28,0.313-0.765c0.12-0.233,0.236-0.56,0.458-0.859
								c0.226-0.294,0.491-0.632,0.814-0.98c0.319-0.349,0.738-0.637,1.176-0.971c0.442-0.325,0.969-0.539,1.504-0.807
								c0.545-0.219,1.13-0.391,1.728-0.543c0.597-0.098,1.216-0.225,1.825-0.245c0.611-0.019,1.225-0.047,1.815,0.021
								c0.597,0.03,1.171,0.125,1.722,0.237c0.554,0.09,1.068,0.265,1.559,0.402c0.485,0.16,0.935,0.341,1.343,0.52
								c0.815,0.356,1.457,0.738,1.889,1.038C250.191,113.88,250.414,114.092,250.414,114.092z"/>
						</g>
					</g>
				</g>
				<g>
					<path style="fill:#CB9A80;" d="M255.098,126.78c0,0,0.142,0.325,0.263,0.954c0.123,0.616,0.235,1.501,0.292,2.542
						c0.075,1.044,0.098,2.248,0.114,3.514c0.016,1.266,0.03,2.597,0.12,3.876c0.044,0.635,0.109,1.265,0.221,1.837
						c0.119,0.567,0.25,1.115,0.465,1.521c0.211,0.412,0.452,0.701,0.776,0.905c0.314,0.22,0.756,0.307,1.193,0.353
						c0.443,0.02,0.885-0.015,1.288-0.05c0.393-0.077,0.76-0.115,1.056-0.178c0.589-0.135,0.952-0.191,0.952-0.191
						s-0.251,0.251-0.738,0.655c-0.247,0.194-0.566,0.412-0.951,0.643c-0.399,0.209-0.863,0.447-1.448,0.586
						c-0.579,0.128-1.297,0.234-2.076-0.026c-0.775-0.23-1.505-0.804-1.979-1.484c-0.491-0.681-0.761-1.427-0.963-2.168
						c-0.21-0.744-0.29-1.486-0.354-2.22c-0.096-1.466-0.003-2.89,0.173-4.196c0.177-1.307,0.427-2.5,0.69-3.509
						c0.244-1.011,0.5-1.84,0.661-2.427C255.017,127.141,255.098,126.78,255.098,126.78z"/>
				</g>
				<path style="fill:#FFFFFF;" d="M246.715,149.881h27.194c0,0-1.884,9.465-13.599,10.107
					C260.311,159.989,248.201,160.02,246.715,149.881z"/>
				<path style="fill:none;stroke:#CB9A80;stroke-width:1.2834;stroke-miterlimit:10;" d="M246.715,149.881h27.194
					c0,0-1.884,9.465-13.599,10.107C260.311,159.989,248.201,160.02,246.715,149.881z"/>
				<path style="fill:#C2C4C6;" d="M249.557,153.893c0,0,0.335-0.049,0.924-0.105c0.584-0.043,1.421-0.151,2.425-0.2
					c1.005-0.048,2.175-0.138,3.431-0.174c1.257-0.046,2.596-0.054,3.934-0.066c1.338,0.013,2.678,0.019,3.935,0.065
					c1.253,0.033,2.427,0.125,3.433,0.173c2.008,0.132,3.346,0.308,3.346,0.308s-1.338,0.175-3.346,0.307
					c-1.006,0.047-2.18,0.139-3.433,0.172c-1.257,0.046-2.597,0.054-3.935,0.064c-1.338-0.013-2.677-0.021-3.934-0.064
					c-1.256-0.036-2.426-0.127-3.431-0.174c-1.004-0.049-1.841-0.156-2.425-0.201C249.892,153.941,249.557,153.893,249.557,153.893z
					"/>
			</g>
		</g>
		<g>
			<path style="fill:#003A54;" d="M289.055,49.085c-22.033-2.437-31.836-18.461-31.836-18.461c-0.117,0.025-0.229,0.052-0.344,0.079
				c-0.115-0.027-0.225-0.054-0.34-0.079c0,0-9.807,16.024-31.839,18.461c0,0-1.711,8.507-16.427,18.211
				c1.711,16.018,16.427,18.3,16.427,18.3h32.179h32.18c0,0,14.717-2.282,16.43-18.3C290.766,57.592,289.055,49.085,289.055,49.085z
				"/>
			<path style="fill:#000F26;" d="M214.123,80.028c4.748,4.662,10.573,5.568,10.573,5.568h64.358c0,0,5.826-0.906,10.574-5.568
				H214.123z"/>
			<path style="fill:#002239;" d="M222.804,85.596h67.839c0,0-5.813,10.904-37.635,9.693
				C253.008,95.289,234.517,96.498,222.804,85.596z"/>
			<path style="fill:#FBB040;" d="M256.725,47.485c0,0-9.872,1.307-12.467,6.713c0,0,0.346,13.276,12.467,21.809
				c12.119-8.532,12.465-21.809,12.465-21.809C266.592,48.792,256.725,47.485,256.725,47.485z"/>
		</g>
	</g>
</g>
</svg>
