<?xml version="1.0" encoding="utf-8"?>
<!-- Generator: Adobe Illustrator 27.5.0, SVG Export Plug-In . SVG Version: 6.00 Build 0)  -->
<svg version="1.1" id="Capa_1" xmlns="http://www.w3.org/2000/svg" xmlns:xlink="http://www.w3.org/1999/xlink" x="0px" y="0px"
	 viewBox="0 0 424.851 426.195" style="enable-background:new 0 0 424.851 426.195;" xml:space="preserve">
<g>
	<rect x="-0.173" y="0.5" style="opacity:0.11;fill:transparent;" width="425.196" height="425.195"/>
	
		<ellipse transform="matrix(0.9063 -0.4225 0.4225 0.9063 -70.1477 109.7166)" style="fill:none;stroke:#000000;stroke-width:3;stroke-miterlimit:10;" cx="212.425" cy="213.098" rx="147.52" ry="147.519"/>
	<g>
		<path style="fill:#84CAD0;" d="M69.542,250.277c-21.538,0-38.994-17.457-38.994-38.992c0-21.533,17.456-38.992,38.994-38.992
			c21.531,0,38.992,17.459,38.992,38.992C108.534,232.82,91.073,250.277,69.542,250.277z"/>
	</g>
	<g>
		<path style="fill:#84CAD0;" d="M286.355,126.816c-21.549,0-39.018-17.465-39.018-39.014c0-21.547,17.469-39.012,39.018-39.012
			c21.546,0,39.014,17.465,39.014,39.012C325.369,109.352,307.901,126.816,286.355,126.816z"/>
	</g>
	<g>
		<path style="fill:#84CAD0;" d="M355.354,250.236c-21.511,0-38.953-17.439-38.953-38.951s17.442-38.951,38.953-38.951
			c21.512,0,38.949,17.439,38.949,38.951S376.866,250.236,355.354,250.236z"/>
	</g>
	<g>
		<path style="fill:#84CAD0;" d="M143.893,377.547c-21.542,0-39.006-17.463-39.006-39.002c0-21.541,17.464-39.004,39.006-39.004
			c21.544,0,39.004,17.463,39.004,39.004C182.896,360.084,165.437,377.547,143.893,377.547z"/>
	</g>
	<g>
		<path style="fill:#84CAD0;" d="M143.775,126.436c-21.479,0-38.889-17.412-38.889-38.893c0-21.482,17.409-38.895,38.889-38.895
			c21.481,0,38.896,17.412,38.896,38.895C182.672,109.023,165.257,126.436,143.775,126.436z"/>
	</g>
	<g>
		<path style="fill:#84CAD0;" d="M282.409,373.873c-21.688,0-39.267-17.582-39.267-39.272c0-21.686,17.579-39.27,39.267-39.27
			s39.271,17.584,39.271,39.27C321.681,356.291,304.097,373.873,282.409,373.873z"/>
	</g>
	<g>
		<path style="fill:#9DA1A2;" d="M298.71,212.039c0,48.654-39.441,88.098-88.098,88.098c-48.654,0-88.097-39.443-88.097-88.098
			s39.442-88.096,88.097-88.096C259.269,123.943,298.71,163.385,298.71,212.039z"/>
	</g>
</g>
<g>
	<path style="fill:#FDCDA2;" d="M160.833,275.15v9.578c4.526,3.106,9.356,5.797,14.438,8.025V275.15H160.833z"/>
	<path style="fill:#FDCDA2;" d="M249.583,275.15v15.913c4.877-2.41,9.502-5.254,13.818-8.489v-7.424H249.583z"/>
	<path style="fill:#EFB98E;" d="M212.427,244.994c13.729-0.025,16.268-10.785,16.805-12.105v-8.545
		c-5.29,4.931-11.106,7.254-16.105,7.254c-5.101,0-11.593-2.82-17.629-8.025v9.341l0.119-0.034
		C196.14,234.16,198.662,244.969,212.427,244.994z"/>
	<path style="fill:#FDCDA2;" d="M229.232,224.344c6.03-5.622,11.377-14.634,14.049-27.467c0.795-0.07,2.109-0.691,3.854-3.256
		c3.025-4.438,3.334-13.525,0-14.313c-0.69-0.164-1.266-0.025-1.759,0.277c-0.05,0.176-0.099,0.346-0.144,0.496
		c-0.025,2.287-0.158,3.717-0.158,3.717c-2.195,0.689-3.633-0.223-3.633-6.543c0-1.943-0.804-3.804-2.2-5.523
		c-18.625-1.289-37.338-1.24-55.956,0.121c-1.137,1.621-1.788,3.422-1.788,5.402c0,6.32-1.98,7.232-4.172,6.543
		c0,0-0.102-1.068-0.145-2.816c-0.092,0.426-0.135,0.682-0.135,0.682s-0.136-0.771-0.311-2.111c-0.484-0.28-1.049-0.399-1.713-0.244
		c-3.354,0.787-3.053,9.875,0,14.313c2.107,3.074,3.58,3.361,4.289,3.246c2.933,11.615,9.259,20.73,16.186,26.705
		c6.036,5.205,12.528,8.025,17.629,8.025C218.126,231.598,223.942,229.274,229.232,224.344z"/>
	<path style="fill:#3C2415;" d="M247.577,166.396c0.002-0.033,0.004-0.069,0.006-0.104h-1.307
		C246.71,166.33,247.144,166.358,247.577,166.396z"/>
	<path style="fill:#3C2415;" d="M176.216,166.293v-4.205c-0.116,1.479-0.181,2.934-0.208,4.345c0.581-0.053,1.163-0.09,1.744-0.14
		H176.216z"/>
	<path style="fill:#3C2415;" d="M241.441,177.256c0,6.32,1.438,7.232,3.633,6.543c0,0,0.133-1.43,0.158-3.717
		c0.045-0.15,0.094-0.32,0.144-0.496c0.436-1.531,1.053-4.018,1.549-7.239c-2.559-0.227-5.12-0.436-7.683-0.614
		C240.637,173.452,241.441,175.313,241.441,177.256z"/>
	<path style="fill:#3C2415;" d="M177.181,180.982c0.043,1.748,0.145,2.816,0.145,2.816c2.191,0.689,4.172-0.223,4.172-6.543
		c0-1.98,0.651-3.781,1.788-5.402c-2.375,0.173-4.75,0.352-7.122,0.568c-0.021,0.002-0.04,0-0.06,0.002
		c0.149,2.995,0.419,5.49,0.632,7.129c0.174,1.34,0.311,2.111,0.311,2.111S177.089,181.408,177.181,180.982z"/>
	<path style="fill:#FFFFFF;" d="M175.271,238.748c-1.802,0.256-7.017,1.999-11.439,13.475c-4.988,12.936-3.209,22.928-3.209,22.928
		h0.211h14.438V238.748z"/>
	<path style="fill:#FFFFFF;" d="M263.402,275.15h0.826c0,0,1.781-9.992-3.211-22.928c-4.41-11.461-9.618-13.215-11.434-13.475
		v36.402H263.402z"/>
	<path style="fill:#F1F2F2;" d="M231.736,262.461v-28.856l-0.506-0.146l-0.173,0.393c0,0-1.135,5.139-5.824,9.021
		c-0.034,0.028-0.071,0.055-0.105,0.083c-0.202,0.164-0.407,0.327-0.622,0.486c-0.071,0.054-0.149,0.104-0.222,0.156
		c-0.184,0.131-0.366,0.264-0.559,0.391c-0.11,0.072-0.228,0.141-0.341,0.211c-0.165,0.104-0.326,0.208-0.497,0.307
		c-0.152,0.088-0.313,0.171-0.47,0.256c-0.142,0.076-0.279,0.155-0.425,0.229c-0.195,0.099-0.402,0.191-0.605,0.284
		c-0.118,0.054-0.23,0.111-0.351,0.164c-0.24,0.104-0.492,0.199-0.743,0.296c-0.093,0.035-0.18,0.074-0.274,0.108
		c-0.275,0.101-0.563,0.192-0.852,0.283c-0.079,0.023-0.152,0.052-0.232,0.076c-0.311,0.093-0.634,0.176-0.96,0.256
		c-0.064,0.016-0.124,0.035-0.188,0.051c-0.346,0.081-0.705,0.152-1.068,0.22c-0.05,0.009-0.098,0.02-0.148,0.03
		c-0.374,0.065-0.761,0.12-1.154,0.169c-0.045,0.006-0.087,0.014-0.133,0.019c-0.395,0.047-0.803,0.082-1.217,0.11
		c-0.048,0.003-0.093,0.009-0.142,0.013c-0.413,0.025-0.838,0.039-1.27,0.045c-0.053,0.001-0.102,0.006-0.155,0.006v0.006
		c-0.027-0.004-0.047-0.004-0.07-0.004c-0.027,0-0.047,0-0.078,0.004v-0.006c-0.087-0.001-0.169-0.008-0.256-0.01
		c-0.392-0.007-0.78-0.018-1.156-0.041c-0.131-0.008-0.255-0.023-0.385-0.033c-0.327-0.025-0.654-0.051-0.968-0.088
		c-0.165-0.02-0.321-0.047-0.483-0.069c-0.269-0.038-0.54-0.072-0.8-0.118c-0.198-0.034-0.386-0.078-0.579-0.117
		c-0.212-0.043-0.429-0.082-0.635-0.131c-0.228-0.054-0.445-0.116-0.665-0.176c-0.16-0.044-0.326-0.083-0.483-0.129
		c-0.246-0.074-0.482-0.156-0.718-0.236c-0.121-0.041-0.247-0.078-0.365-0.121c-0.271-0.099-0.53-0.205-0.789-0.313
		c-0.075-0.031-0.155-0.06-0.229-0.091c-0.287-0.124-0.562-0.255-0.833-0.389c-0.041-0.02-0.085-0.039-0.125-0.059
		c-0.305-0.153-0.599-0.313-0.884-0.477c-0.004-0.003-0.009-0.005-0.013-0.007c-6.308-3.648-7.997-9.905-8.167-10.595
		c-0.01-0.041-0.017-0.069-0.017-0.069l-0.18-0.392l-1.746,0.502v28.499H231.736z"/>
	<path style="fill:#F1F2F2;" d="M177.742,274.234v-36.205l-2.471,0.711v0.008v36.402v17.604c0.821,0.36,1.648,0.709,2.482,1.045
		v-19.564H177.742z"/>
	<path style="fill:#F1F2F2;" d="M249.583,238.748v-0.008l-3.725-1.072v24.793h0.01v30.33c1.254-0.548,2.492-1.124,3.715-1.727
		V275.15V238.748z"/>
	<path style="fill:#6D6E71;" d="M193.815,233.921c0.17,0.689,1.859,6.946,8.167,10.595c0.004,0.002,0.009,0.004,0.013,0.007
		c0.286,0.165,0.58,0.324,0.884,0.477c0.04,0.02,0.084,0.038,0.125,0.059c0.271,0.134,0.546,0.265,0.833,0.389
		c0.074,0.031,0.154,0.06,0.229,0.091c0.259,0.108,0.518,0.215,0.789,0.313c0.118,0.043,0.245,0.08,0.365,0.121
		c0.237,0.08,0.472,0.162,0.718,0.236c0.157,0.046,0.323,0.085,0.483,0.129c0.22,0.06,0.437,0.122,0.665,0.176
		c0.206,0.049,0.423,0.088,0.635,0.131c0.193,0.039,0.38,0.083,0.579,0.117c0.26,0.046,0.531,0.08,0.8,0.118
		c0.162,0.023,0.318,0.05,0.483,0.069c0.315,0.037,0.642,0.063,0.968,0.088c0.13,0.01,0.254,0.025,0.385,0.033
		c0.376,0.023,0.765,0.034,1.156,0.041c0.087,0.002,0.169,0.009,0.256,0.01v0.006c0.031-0.004,0.051-0.004,0.078-0.004
		c0.023,0,0.043,0,0.07,0.004v-0.006c0.053,0,0.102-0.005,0.155-0.006c0.432-0.006,0.857-0.02,1.27-0.045
		c0.048-0.004,0.093-0.01,0.142-0.013c0.415-0.028,0.822-0.063,1.217-0.11c0.045-0.005,0.087-0.013,0.133-0.019
		c0.393-0.049,0.779-0.104,1.154-0.169c0.05-0.01,0.098-0.021,0.148-0.03c0.364-0.067,0.722-0.139,1.068-0.22
		c0.064-0.016,0.124-0.035,0.188-0.051c0.327-0.08,0.649-0.163,0.96-0.256c0.08-0.024,0.153-0.053,0.232-0.076
		c0.289-0.091,0.576-0.183,0.852-0.283c0.094-0.034,0.182-0.073,0.274-0.108c0.251-0.097,0.503-0.192,0.743-0.296
		c0.121-0.053,0.233-0.11,0.351-0.164c0.204-0.094,0.41-0.186,0.605-0.284c0.146-0.074,0.284-0.153,0.425-0.229
		c0.157-0.085,0.318-0.168,0.47-0.256c0.171-0.099,0.333-0.203,0.497-0.307c0.113-0.07,0.232-0.139,0.341-0.211
		c0.193-0.127,0.375-0.26,0.559-0.391c0.073-0.053,0.151-0.103,0.222-0.156c0.215-0.159,0.42-0.322,0.622-0.486
		c0.034-0.028,0.071-0.055,0.105-0.083c4.688-3.882,5.824-9.021,5.824-9.021l0.173-0.393l0.001-0.002l-1.994-0.578
		c-0.001,0.003-0.003,0.008-0.004,0.01c-0.537,1.32-3.075,12.08-16.805,12.105c-13.766-0.025-16.287-10.834-16.811-12.115
		l-0.119,0.034l-1.881,0.544l0.002,0.003l0.18,0.392C193.798,233.852,193.805,233.88,193.815,233.921z"/>
	<path style="fill:#FFC632;" d="M245.859,262.461v11.773h-14.123v-11.773h-39.863v11.773h-14.119v19.564
		c10.154,4.085,21.243,6.338,32.859,6.338c12.537,0,24.46-2.625,35.256-7.346v-30.33H245.859z"/>
	<path style="fill:#EFAA15;" d="M177.753,274.234h14.119v-11.773v-28.499v-0.102l-14.131,4.064v0.105v36.205H177.753z
		 M184.701,265.129c1.877,0,3.396,1.506,3.396,3.353c0,1.855-1.52,3.359-3.396,3.359c-1.869,0-3.387-1.504-3.387-3.359
		C181.314,266.635,182.831,265.129,184.701,265.129z"/>
	<path style="fill:#EFAA15;" d="M231.736,274.234h14.123v-11.773v-24.793v-0.098l-14.123-4.064v0.099v28.856V274.234z
		 M238.314,265.129c1.873,0,3.389,1.506,3.389,3.353c0,1.855-1.516,3.359-3.389,3.359c-1.875,0-3.387-1.504-3.387-3.359
		C234.927,266.635,236.439,265.129,238.314,265.129z"/>
	<path style="fill:#3C2415;" d="M184.701,271.842c1.877,0,3.396-1.504,3.396-3.359c0-1.848-1.52-3.353-3.396-3.353
		c-1.869,0-3.387,1.506-3.387,3.353C181.314,270.338,182.831,271.842,184.701,271.842z"/>
	<path style="fill:#3C2415;" d="M238.314,271.842c1.873,0,3.389-1.504,3.389-3.359c0-1.848-1.516-3.353-3.389-3.353
		c-1.875,0-3.387,1.506-3.387,3.353C234.927,270.338,236.439,271.842,238.314,271.842z"/>
	<path style="fill:#FFC709;" d="M225.009,139.156v23.07c0,1.428-1.346,2.586-3,2.586h-9.652c11.138,0.01,22.274,0.501,33.373,1.436
		c0.055-0.667,0.09-1.334,0.09-2.007c0-2.274-0.311-4.484-0.881-6.609c-2.673-9.967-11.249-17.974-22.381-21.128
		C224.348,137.639,225.009,138.814,225.009,139.156z"/>
	<path style="fill:#FFC709;" d="M178.302,166.249c11.098-0.935,22.232-1.427,33.369-1.436h-9.65c-1.664,0-3.002-1.158-3.002-2.586
		v-23.07c0-0.351,0.787-1.575,2.73-2.732c-11.27,3.098-19.968,11.159-22.663,21.209c-0.57,2.125-0.881,4.335-0.881,6.609
		C178.205,164.915,178.24,165.582,178.302,166.249z"/>
	<path style="fill:#E9901B;" d="M209.105,159.934c0,0.93,1.303,1.686,2.91,1.686c1.605,0,2.906-0.756,2.906-1.686v-25.074
		c0-0.231-0.081-0.451-0.227-0.652c-0.44-0.605-1.474-1.027-2.679-1.027c-1.213,0-2.25,0.428-2.688,1.037
		c-0.142,0.197-0.223,0.414-0.223,0.643V159.934z"/>
	<path style="fill:#EFAA15;" d="M183.286,171.854c18.617-1.361,37.331-1.41,55.956-0.121c2.563,0.178,5.124,0.387,7.683,0.614
		c0.314,0.028,0.63,0.046,0.944,0.075c0.836,0.08,1.568-0.268,1.633-0.779c0.174-1.365,0.35-2.734,0.527-4.098
		c0.061-0.51-0.576-0.988-1.434-1.066c-0.339-0.031-0.679-0.051-1.018-0.082c-0.433-0.038-0.867-0.066-1.3-0.104h1.307h0.227v-7.516
		c0-0.631-0.602-1.145-1.326-1.145h-1.545c0.57,2.125,0.881,4.335,0.881,6.609c0,0.673-0.035,1.34-0.09,2.007
		c-11.099-0.935-22.235-1.427-33.373-1.436h9.652c1.654,0,3-1.158,3-2.586v-23.07c0-0.342-0.661-1.518-2.451-2.651
		c-1.595-1.01-4.105-1.976-7.864-2.298c0.146,0.201,0.227,0.421,0.227,0.652v25.074c0,0.93-1.301,1.686-2.906,1.686
		c-1.607,0-2.91-0.756-2.91-1.686v-25.074c0-0.229,0.081-0.445,0.223-0.643c-3.492,0.321-5.95,1.235-7.579,2.207
		c-1.943,1.157-2.73,2.382-2.73,2.732v23.07c0,1.428,1.338,2.586,3.002,2.586h9.65c-11.137,0.01-22.271,0.501-33.369,1.436
		c-0.062-0.667-0.098-1.334-0.098-2.007c0-2.274,0.311-4.484,0.881-6.609h-1.539c-0.732,0-1.33,0.514-1.33,1.145v3.311v4.205h1.535
		c-0.581,0.05-1.163,0.087-1.744,0.14c-0.191,0.017-0.383,0.028-0.575,0.046c-0.854,0.078-1.502,0.557-1.436,1.066
		c0.178,1.363,0.355,2.732,0.527,4.098c0.067,0.499,0.763,0.84,1.579,0.781c0.021-0.002,0.04,0,0.06-0.002
		C178.535,172.205,180.91,172.026,183.286,171.854z"/>
</g>
<g>
	<g>
		<g>
			<path style="fill:#FFC632;" d="M154.569,80.113c0.478,0.588,0.384,1.457-0.21,1.941l0,0c-0.596,0.483-1.466,0.396-1.944-0.191
				l-3.313-4.076c-0.479-0.59-0.385-1.459,0.21-1.942l0,0c0.595-0.483,1.464-0.398,1.943,0.191L154.569,80.113z"/>
			<path style="fill:#200C00;" d="M154.438,80.658c-0.13,0.105-0.323,0.088-0.429-0.042c-0.105-0.13-0.084-0.323,0.046-0.429
				l0.42-0.342l-0.284-0.349l-0.42,0.341c-0.13,0.106-0.323,0.089-0.429-0.042c-0.105-0.13-0.083-0.322,0.046-0.429l0.42-0.341
				l-0.283-0.349l-0.42,0.341c-0.13,0.106-0.323,0.088-0.429-0.042c-0.106-0.131-0.084-0.322,0.046-0.429l0.42-0.341l-0.284-0.35
				l-0.42,0.342c-0.13,0.105-0.323,0.088-0.428-0.043c-0.106-0.13-0.084-0.322,0.046-0.428l0.42-0.342l-0.284-0.35l-0.42,0.342
				c-0.13,0.105-0.322,0.09-0.428-0.042c-0.106-0.131-0.084-0.323,0.046-0.429l0.421-0.342l-0.284-0.349l-0.42,0.341
				c-0.13,0.106-0.323,0.089-0.428-0.042c-0.106-0.13-0.084-0.322,0.046-0.429l0.392-0.318c-0.497-0.389-1.216-0.394-1.73,0.024
				c-0.597,0.485-0.691,1.358-0.211,1.948l3.328,4.094c0.48,0.592,1.354,0.678,1.95,0.191c0.514-0.418,0.655-1.124,0.377-1.688
				L154.438,80.658z"/>
		</g>
	</g>
	
		<rect x="137.003" y="85.983" transform="matrix(0.776 -0.6307 0.6307 0.776 -20.804 116.5702)" style="fill:#FBAE34;" width="33.441" height="3.186"/>
	<path style="fill:#200C00;" d="M168.904,79.479c0.082,0.102,0.067,0.25-0.036,0.334l-0.997,0.811
		c-0.103,0.083-0.253,0.068-0.335-0.033l-3.024-3.721c-0.082-0.101-0.065-0.25,0.037-0.334l0.997-0.81
		c0.104-0.085,0.253-0.069,0.335,0.032L168.904,79.479z"/>
	<g>
		<rect x="141.907" y="95.202" transform="matrix(0.7769 -0.6296 0.6296 0.7769 -28.7109 110.8594)" width="0.338" height="1.483"/>
		<rect x="142.589" y="94.647" transform="matrix(0.7764 -0.6302 0.6302 0.7764 -28.1982 111.2933)" width="0.338" height="1.484"/>
		<rect x="143.27" y="94.094" transform="matrix(0.7757 -0.6311 0.6311 0.7757 -27.6783 111.7895)" width="0.338" height="1.483"/>
		<polygon points="144.72,94.75 144.457,94.963 143.522,93.813 143.784,93.599 		"/>
		<rect x="145.315" y="92.432" transform="matrix(0.7757 -0.6311 0.6311 0.7757 -26.1705 112.7075)" width="0.338" height="1.483"/>
		<rect x="145.996" y="91.878" transform="matrix(0.7755 -0.6314 0.6314 0.7755 -25.6597 113.0854)" width="0.339" height="1.483"/>
		<rect x="146.679" y="91.323" transform="matrix(0.7757 -0.6311 0.6311 0.7757 -25.1653 113.3192)" width="0.337" height="1.483"/>
		<rect x="147.359" y="90.77" transform="matrix(0.7758 -0.6309 0.6309 0.7758 -24.6674 113.5939)" width="0.338" height="1.483"/>
		<rect x="148.723" y="89.662" transform="matrix(0.7769 -0.6296 0.6296 0.7769 -23.7026 113.9138)" width="0.338" height="1.484"/>
		<rect x="149.404" y="89.108" transform="matrix(0.775 -0.632 0.632 0.775 -23.1276 114.7395)" width="0.339" height="1.483"/>
		<rect x="150.087" y="88.554" transform="matrix(0.7766 -0.63 0.63 0.7766 -22.6878 114.6124)" width="0.337" height="1.483"/>
		<rect x="150.768" y="88" transform="matrix(0.7753 -0.6316 0.6316 0.7753 -22.1313 115.2831)" width="0.337" height="1.483"/>
		<rect x="152.13" y="86.892" transform="matrix(0.7754 -0.6314 0.6314 0.7754 -21.1336 115.8416)" width="0.339" height="1.483"/>
		<rect x="152.814" y="86.338" transform="matrix(0.7753 -0.6317 0.6317 0.7753 -20.6212 116.2027)" width="0.337" height="1.483"/>
		<rect x="153.495" y="85.784" transform="matrix(0.7769 -0.6296 0.6296 0.7769 -20.196 116.0541)" width="0.338" height="1.483"/>
		<rect x="154.176" y="85.23" transform="matrix(0.7779 -0.6284 0.6284 0.7779 -19.7421 116.0884)" width="0.337" height="1.483"/>
		<polygon points="156.308,85.332 156.045,85.545 155.11,84.395 155.373,84.182 		"/>
		<rect x="156.221" y="83.568" transform="matrix(0.7756 -0.6312 0.6312 0.7756 -18.1239 117.6369)" width="0.339" height="1.483"/>
		<rect x="156.903" y="83.014" transform="matrix(0.7757 -0.6311 0.6311 0.7757 -17.6284 117.908)" width="0.338" height="1.483"/>
		<rect x="157.585" y="82.46" transform="matrix(0.7757 -0.6311 0.6311 0.7757 -17.1255 118.2142)" width="0.338" height="1.483"/>
		<rect x="158.948" y="81.352" transform="matrix(0.7763 -0.6303 0.6303 0.7763 -16.1551 118.662)" width="0.338" height="1.483"/>
		<rect x="159.629" y="80.798" transform="matrix(0.7755 -0.6314 0.6314 0.7755 -15.6023 119.2063)" width="0.338" height="1.483"/>
		<polygon points="161.079,81.455 160.817,81.667 159.881,80.516 160.143,80.304 		"/>
		<rect x="160.993" y="79.69" transform="matrix(0.7758 -0.6309 0.6309 0.7758 -14.6209 119.7107)" width="0.337" height="1.483"/>
		<g>
			<polygon points="145.893,94.802 144.466,93.046 144.204,93.258 145.631,95.016 			"/>
			<rect x="148.288" y="90.128" transform="matrix(0.776 -0.6307 0.6307 0.776 -24.3075 114.0713)" width="0.338" height="2.264"/>
			<rect x="151.695" y="87.359" transform="matrix(0.7757 -0.631 0.631 0.7757 -21.7852 115.6785)" width="0.338" height="2.264"/>
			<polygon points="156.119,86.492 154.69,84.735 154.428,84.948 155.856,86.705 			"/>
			
				<rect x="158.512" y="81.818" transform="matrix(0.7759 -0.6308 0.6308 0.7759 -16.7702 118.6889)" width="0.339" height="2.264"/>
			<rect x="161.92" y="79.048" transform="matrix(0.776 -0.6308 0.6308 0.776 -14.2626 120.2019)" width="0.338" height="2.263"/>
		</g>
		<polygon points="163.124,79.792 162.861,80.006 161.926,78.854 162.189,78.641 		"/>
		
			<rect x="163.037" y="78.028" transform="matrix(0.7755 -0.6314 0.6314 0.7755 -13.0877 120.7365)" style="fill:#200C00;" width="0.339" height="1.483"/>
		
			<rect x="163.72" y="77.474" transform="matrix(0.7772 -0.6293 0.6293 0.7772 -12.7011 120.5607)" style="fill:#200C00;" width="0.337" height="1.483"/>
		
			<rect x="164.401" y="76.919" transform="matrix(0.7769 -0.6296 0.6296 0.7769 -12.1817 120.9432)" style="fill:#200C00;" width="0.338" height="1.483"/>
	</g>
	<path style="fill:#FFC632;" d="M147.341,73.725l0.009-0.033c-0.126-0.096-0.253-0.189-0.382-0.284
		c-2.496-2.06-5.996-3.722-10.519-2.803c-1.001,0.156-1.975,0.208-3.06,0.628l-1.801,6.461c-0.415,0.258-0.821,0.541-1.212,0.858
		c-4.893,3.977-5.704,11.086-1.811,15.875c3.894,4.791,11.017,5.449,15.91,1.473c4.893-3.978,5.704-11.083,1.81-15.875
		c-0.173-0.213-0.355-0.416-0.541-0.612l0.419-1.496c0.573,0.539,0.913,0.912,0.913,0.912l9.021,11.1
		c0.73-0.598,1.167-1.423,1.291-2.28c0.018-0.255,0.027-0.521,0.026-0.804c-0.057-0.669-0.306-1.324-0.758-1.881l-5.152-6.339
		C151.048,78.061,149.667,75.759,147.341,73.725z"/>
	<path style="fill:#3C2415;" d="M147.165,78.621c0,0-5.121-5.641-9.172-4.865c-3.031,0.58-4.348-2.563-4.115-2.654
		c-2.176,0.691-4.524,1.953-7.029,3.988c-13.116,10.66-2.286,22.812-1.058,24.322l5.185,6.379c1.228,1.511,3.458,1.73,4.984,0.49
		l20.251-16.459c0.013-0.011,0.022-0.02,0.035-0.029L147.165,78.621z"/>
	<g>
		<path style="fill:#200C00;" d="M156.279,89.766l-0.212,0.173l-8.954-11.017l0,0c0,0-0.277-0.305-0.742-0.75l-0.343,1.215
			c0.196,0.209,0.356,0.39,0.501,0.568c3.96,4.872,3.123,12.133-1.866,16.188c-4.988,4.055-12.267,3.39-16.227-1.482
			c-3.959-4.872-3.123-12.134,1.866-16.188c0.363-0.295,0.764-0.582,1.189-0.848c1.515-5.528,1.668-6.278,1.665-6.282l0.288-0.092
			c-0.024,0.086-1.132,4.312-1.704,6.488l-0.014,0.054l-0.048,0.031c-0.433,0.27-0.839,0.557-1.207,0.856
			c-4.872,3.959-5.688,11.05-1.822,15.806c3.866,4.758,10.974,5.407,15.845,1.448c4.871-3.958,5.687-11.05,1.821-15.807
			c-0.153-0.188-0.325-0.382-0.539-0.608l-0.051-0.056l0.507-1.8l0.162,0.154c0.574,0.539,0.921,0.921,0.924,0.925L156.279,89.766z"
			/>
	</g>
	<path style="fill:#200C00;" d="M144.63,80.996c3.318,4.082,2.665,10.109-1.458,13.46c-4.124,3.351-10.156,2.758-13.474-1.324
		c-3.318-4.084-2.666-10.11,1.458-13.461C135.279,76.319,141.312,76.913,144.63,80.996z"/>
	<path style="fill:#3C2415;" d="M143.444,81.96c2.79,3.434,2.241,8.502-1.226,11.32c-3.468,2.819-8.542,2.32-11.333-1.112
		c-2.791-3.435-2.241-8.504,1.227-11.322C135.579,78.027,140.653,78.525,143.444,81.96z"/>
	<path style="fill:#FFC632;" d="M142.616,82.633c2.422,2.98,1.945,7.381-1.064,9.828c-3.011,2.446-7.415,2.014-9.838-0.967
		c-2.423-2.981-1.947-7.383,1.064-9.829C135.787,79.219,140.193,79.652,142.616,82.633z"/>
	<g>
		<path style="fill:#200C00;" d="M129.598,77.691c0.221,0.247,0.196,0.627-0.056,0.85l0,0c-0.25,0.22-0.632,0.199-0.85-0.05
			l-1.437-1.624c-0.219-0.246-0.194-0.628,0.056-0.85l0,0c0.251-0.222,0.632-0.199,0.85,0.049L129.598,77.691z"/>
		<path style="fill:#200C00;" d="M126.902,80.665c0.266,0.196,0.321,0.573,0.121,0.841l0,0c-0.2,0.268-0.578,0.324-0.844,0.129
			l-1.745-1.29c-0.267-0.196-0.321-0.572-0.123-0.841l0,0c0.201-0.268,0.579-0.324,0.845-0.13L126.902,80.665z"/>
		<path style="fill:#200C00;" d="M128.16,79.056c0.245,0.224,0.26,0.604,0.033,0.851l0,0c-0.225,0.246-0.607,0.264-0.852,0.039
			l-1.602-1.462c-0.245-0.222-0.259-0.604-0.033-0.849l0,0c0.227-0.248,0.607-0.265,0.852-0.042L128.16,79.056z"/>
	</g>
	<g>
		<path style="fill:#200C00;" d="M124.578,85.991c0.333-0.004,0.603,0.262,0.604,0.595l0,0c0.001,0.332-0.267,0.605-0.601,0.609
			l-2.18,0.028c-0.334,0.005-0.604-0.261-0.606-0.594l0,0c-0.002-0.331,0.268-0.604,0.601-0.608L124.578,85.991z"/>
		<path style="fill:#200C00;" d="M125.04,89.951c0.323-0.072,0.645,0.131,0.715,0.455l0,0c0.069,0.322-0.138,0.646-0.463,0.72
			l-2.132,0.478c-0.326,0.074-0.646-0.129-0.717-0.453l0,0c-0.069-0.324,0.138-0.646,0.464-0.719L125.04,89.951z"/>
		<path style="fill:#200C00;" d="M124.656,87.961c0.33-0.04,0.628,0.196,0.664,0.527l0,0c0.036,0.33-0.202,0.628-0.533,0.667
			l-2.17,0.26c-0.331,0.038-0.629-0.197-0.665-0.527l0,0c-0.036-0.329,0.203-0.629,0.533-0.669L124.656,87.961z"/>
	</g>
	<g>
		<path style="fill:#200C00;" d="M128.133,96.094c0.238-0.237,0.619-0.238,0.853-0.003l0,0c0.234,0.233,0.23,0.614-0.004,0.851
			l-1.554,1.545c-0.237,0.235-0.617,0.236-0.852,0.002l0,0c-0.232-0.233-0.23-0.614,0.006-0.85L128.133,96.094z"/>
		<path style="fill:#200C00;" d="M131.245,98.571c0.183-0.279,0.556-0.359,0.836-0.179l0,0c0.277,0.18,0.355,0.553,0.17,0.832
			l-1.2,1.829c-0.184,0.279-0.558,0.358-0.836,0.18l0,0c-0.278-0.182-0.354-0.555-0.172-0.833L131.245,98.571z"/>
		<path style="fill:#200C00;" d="M129.573,97.431c0.209-0.259,0.589-0.3,0.847-0.093l0,0c0.259,0.208,0.296,0.588,0.084,0.846
			l-1.382,1.697c-0.21,0.261-0.59,0.302-0.849,0.094l0,0c-0.257-0.209-0.295-0.587-0.082-0.846L129.573,97.431z"/>
	</g>
</g>
<g>
	<path style="fill:#3C2415;" d="M155.471,331.758c-0.399-1.372-1.674-2.378-3.186-2.378c-0.664,0-1.273,0.196-1.792,0.529
		c0.003-0.072,0.01-0.148,0.01-0.222c0-2.353-1.922-4.259-4.3-4.259c-0.255,0-0.505,0.025-0.748,0.069
		c-0.589-2.75-3.054-4.814-6.008-4.814c-3.067,0-5.601,2.23-6.06,5.141c-0.549-0.256-1.158-0.396-1.802-0.396
		c-2.295,0-4.167,1.786-4.288,4.031c-1.414,0.071-2.591,1.014-2.994,2.298H155.471z"/>
	<polygon style="fill:#F15D35;" points="146.254,345.081 158.169,332.84 121.993,332.84 133.736,344.93 139.435,346.121 	"/>
	<polygon style="fill:#F58350;" points="127.365,333.675 124.254,333.675 133.975,343.588 136.553,343.728 	"/>
	<path style="fill:#3C2415;" d="M161.857,335.885c0.248,0.611-0.054,1.307-0.669,1.555l-25.395,13.598
		c-0.617,0.247-1.32-0.049-1.567-0.662l0,0c-0.248-0.611,0.05-1.307,0.669-1.552l25.394-13.601
		C160.906,334.978,161.607,335.274,161.857,335.885L161.857,335.885z"/>
	<path style="fill:#3C2415;" d="M154.497,339.085c-2.84,1.429-5.682,2.855-8.523,4.28c-0.432,0.219-0.585,0.581-0.555,0.939
		c-0.004,0.18,0.039,0.373,0.156,0.567c1.77,2.976,3.54,5.952,5.313,8.929c0.474,0.8,1.801,0.678,2.031-0.263
		c1.07-4.404,2.139-8.807,3.209-13.208C156.365,339.359,155.369,338.648,154.497,339.085z M151.485,350.808
		c-1.232-2.068-2.462-4.137-3.692-6.205c1.974-0.991,3.949-1.984,5.924-2.976C152.973,344.689,152.229,347.748,151.485,350.808z"/>
	<path style="fill:#3C2415;" d="M160.934,337.43c-0.564,0-1.02-0.451-1.02-1.008v-5.075c0-0.559,0.456-1.01,1.02-1.01l0,0
		c0.561,0,1.018,0.451,1.018,1.01v5.075C161.952,336.978,161.495,337.43,160.934,337.43L160.934,337.43z"/>
	<path style="fill:#3C2415;" d="M159.909,331.351c0-0.558,0.458-1.01,1.02-1.01h4.826c0.563,0,1.018,0.452,1.018,1.01l0,0
		c0,0.557-0.455,1.009-1.018,1.009h-4.826C160.368,332.359,159.909,331.907,159.909,331.351L159.909,331.351z"/>
	<path style="fill:#F15D35;" d="M163.495,331.351c0-0.852-1.3-1.177-0.641-1.177h3.058c0.658,0,1.19,0.525,1.19,1.177l0,0
		c0,0.649-0.532,1.177-1.19,1.177h-3.058C162.195,332.527,163.495,332.198,163.495,331.351L163.495,331.351z"/>
	<g>
		<path style="fill:#1C0200;" d="M141.771,349.965c0,3.557-2.912,6.438-6.502,6.438c-3.592,0-6.501-2.882-6.501-6.438
			c0-3.556,2.91-6.44,6.501-6.44C138.859,343.525,141.771,346.409,141.771,349.965z"/>
		<path style="fill:#442A1B;" d="M135.268,345.374c2.564,0,4.663,1.948,4.881,4.428c0.012-0.138,0.02-0.278,0.02-0.422
			c0-2.68-2.195-4.852-4.901-4.852c-2.707,0-4.9,2.172-4.9,4.852c0,0.144,0.008,0.284,0.019,0.422
			C130.604,347.322,132.705,345.374,135.268,345.374z"/>
		<g>
			<path style="fill:#C8CBB9;" d="M139.008,349.965c0,2.043-1.675,3.701-3.738,3.701c-2.066,0-3.739-1.658-3.739-3.701
				c0-2.044,1.673-3.701,3.739-3.701C137.333,346.264,139.008,347.921,139.008,349.965z"/>
			<path style="fill:#95998C;" d="M131.756,350.338c0-2.044,1.671-3.701,3.737-3.701c1.26,0,2.375,0.618,3.051,1.568
				c-0.631-1.157-1.867-1.941-3.287-1.941c-2.065,0-3.739,1.657-3.739,3.701c0,0.796,0.256,1.53,0.688,2.135
				C131.918,351.575,131.756,350.977,131.756,350.338z"/>
			<path style="fill:#E5E7D1;" d="M138.78,349.596c0,2.043-1.673,3.701-3.736,3.701c-1.263,0-2.376-0.619-3.054-1.566
				c0.633,1.154,1.869,1.94,3.29,1.94c2.062,0,3.737-1.659,3.737-3.702c0-0.795-0.254-1.531-0.687-2.134
				C138.619,348.359,138.78,348.958,138.78,349.596z"/>
			<g>
				<path style="fill:#1C0200;" d="M136.604,349.965c0,0.73-0.597,1.321-1.334,1.321c-0.738,0-1.335-0.591-1.335-1.321
					c0-0.729,0.598-1.322,1.335-1.322C136.007,348.643,136.604,349.236,136.604,349.965z"/>
				<g>
					<g>
						<g>
							<path style="fill:#1C0200;" d="M135.872,347.527c0,0.332-0.27,0.599-0.602,0.599c-0.333,0-0.603-0.267-0.603-0.599
								c0-0.327,0.27-0.595,0.603-0.595C135.603,346.933,135.872,347.2,135.872,347.527z"/>
							<path style="fill:#1C0200;" d="M135.872,352.399c0,0.329-0.27,0.597-0.602,0.597c-0.333,0-0.603-0.268-0.603-0.597
								c0-0.329,0.27-0.597,0.603-0.597C135.603,351.803,135.872,352.07,135.872,352.399z"/>
						</g>
						<g>
							<path style="fill:#1C0200;" d="M137.73,350.561c-0.333,0-0.603-0.266-0.603-0.596c0-0.328,0.27-0.596,0.603-0.596
								c0.333,0,0.601,0.267,0.601,0.596C138.331,350.295,138.063,350.561,137.73,350.561z"/>
							<path style="fill:#1C0200;" d="M132.809,350.561c-0.329,0-0.6-0.266-0.6-0.596c0-0.328,0.271-0.596,0.6-0.596
								c0.334,0,0.604,0.267,0.604,0.596C133.413,350.295,133.143,350.561,132.809,350.561z"/>
						</g>
					</g>
					<g>
						<g>
							<path style="fill:#1C0200;" d="M133.956,347.82c0.234,0.233,0.234,0.611,0,0.845c-0.236,0.23-0.617,0.23-0.852,0
								c-0.234-0.233-0.234-0.611,0-0.845C133.34,347.588,133.721,347.588,133.956,347.82z"/>
							<path style="fill:#1C0200;" d="M137.434,351.265c0.236,0.232,0.236,0.61,0,0.844c-0.234,0.233-0.617,0.233-0.851,0
								c-0.235-0.233-0.235-0.611,0-0.844C136.817,351.031,137.199,351.031,137.434,351.265z"/>
						</g>
						<g>
							<path style="fill:#1C0200;" d="M137.434,348.665c-0.234,0.23-0.617,0.23-0.851,0c-0.235-0.233-0.235-0.611,0-0.845
								c0.234-0.232,0.616-0.232,0.851,0C137.669,348.054,137.669,348.432,137.434,348.665z"/>
							<path style="fill:#1C0200;" d="M133.956,352.108c-0.236,0.233-0.617,0.233-0.852,0c-0.234-0.233-0.234-0.611,0-0.844
								c0.236-0.233,0.617-0.233,0.852,0C134.191,351.497,134.191,351.875,133.956,352.108z"/>
						</g>
					</g>
				</g>
			</g>
		</g>
	</g>
	<path style="fill:#98381A;" d="M159.157,332.629c0,0.557-0.456,1.01-1.019,1.01h-36.438c-0.562,0-1.019-0.453-1.019-1.01l0,0
		c0-0.557,0.457-1.008,1.019-1.008h36.438C158.701,331.621,159.157,332.072,159.157,332.629L159.157,332.629z"/>
</g>
<g>
	<g>
		<polygon style="fill:#2A1402;" points="83.685,207.617 81.572,204.907 82.16,204.456 84.276,207.166 		"/>
	</g>
	<rect x="81.617" y="194.738" style="fill:#3C2415;" width="1.118" height="5.396"/>
	<g>
		<polygon style="fill:#1C0200;" points="78.072,193.398 60.155,188.987 54.193,193.291 53.566,192.374 59.923,187.806 
			78.306,192.314 		"/>
	</g>
	<g>
		<polygon style="fill:#1C0200;" points="81.264,201.572 83.092,201.572 83.377,200.671 83.362,200.648 83.362,199.849 
			80.995,199.849 80.995,200.773 81.017,200.789 		"/>
	</g>
	<g>
		<path style="fill:#FFC632;" d="M82.68,202.029v-0.549h-0.882l0.004,1.447l0.194-0.048c0.085-0.02,0.162-0.03,0.244-0.03
			c0.552,0,1,0.445,1,0.992c0,0.547-0.448,0.991-1,0.991c-0.518,0-0.957-0.397-0.999-0.909c-0.002-0.232-0.157-0.691-0.728-0.691
			h-0.156l0.001,0.704c0.055,0.996,0.881,1.771,1.882,1.771c1.039,0,1.883-0.838,1.883-1.865
			C84.123,202.971,83.523,202.228,82.68,202.029z"/>
	</g>
	<rect x="59.106" y="187.657" style="fill:#3C2415;" width="3.359" height="45.408"/>
	<rect x="54.442" y="231.219" style="fill:#1C0200;" width="13.058" height="3.694"/>
	<path style="fill:#FFC632;" d="M51.457,192.274v4.434l33.207-1.323v-3.11H51.457z M56.41,194.094l1.315,1.287l-2.637,0.112
		L56.41,194.094z M54.491,194.564l-1.205-1.181h2.321L54.491,194.564z M57.216,193.384h2.179l-1.048,1.107L57.216,193.384z
		 M60.268,194.02l1.223,1.199l-2.458,0.105L60.268,194.02z M61.148,193.384h2.035l-0.979,1.034L61.148,193.384z M64.122,193.95
		l1.134,1.107l-2.276,0.097L64.122,193.95z M65.076,193.384h1.892l-0.91,0.961L65.076,193.384z M67.976,193.875l1.046,1.021
		l-2.097,0.09L67.976,193.875z M69.005,193.384h1.749l-0.841,0.889L69.005,193.384z M71.834,193.802l0.952,0.935l-1.913,0.082
		L71.834,193.802z M72.937,193.384h1.604l-0.772,0.814L72.937,193.384z M75.69,193.729l0.864,0.847l-1.737,0.073L75.69,193.729z
		 M76.868,193.384h1.461l-0.704,0.742L76.868,193.384z M79.548,193.655l0.774,0.759l-1.555,0.065L79.548,193.655z M80.801,193.384
		h1.319l-0.634,0.669L80.801,193.384z M52.576,194.189l1.383,1.352l-1.383,0.059V194.189z M82.716,194.311l0.826-0.872v0.836
		L82.716,194.311z"/>
	<g>
		<rect x="77.24" y="207.084" style="fill:#FFC632;" width="10.385" height="14.061"/>
	</g>
	<g>
		<polygon style="fill:#3C2415;" points="80.322,207.621 79.739,207.162 82.033,204.305 82.615,204.766 		"/>
	</g>
</g>
<g>
	<rect x="262.833" y="320.799" style="fill:#FFC709;" width="39.156" height="10.113"/>
	<g>
		<polygon style="fill:#1C0200;" points="266.822,332.036 261.25,332.036 268.537,319.488 274.107,319.488 		"/>
		<polygon style="fill:#1C0200;" points="276.643,332.036 271.072,332.036 278.357,319.488 283.93,319.488 		"/>
		<polygon style="fill:#1C0200;" points="286.465,332.036 280.893,332.036 288.179,319.488 293.752,319.488 		"/>
		<polygon style="fill:#1C0200;" points="296.286,332.036 290.715,332.036 298,319.488 303.574,319.488 		"/>
	</g>
	<rect x="264.962" y="331.568" style="fill:#3C2415;" width="3.877" height="26.053"/>
	<rect x="295.985" y="331.568" style="fill:#3C2415;" width="3.877" height="26.053"/>
	<path style="fill:#1C0200;" d="M269.313,320.424c-2.659,0-4.824-2.143-4.824-4.775c0-2.635,2.165-4.776,4.824-4.776
		c2.658,0,4.824,2.142,4.824,4.776C274.137,318.281,271.971,320.424,269.313,320.424z"/>
	<path style="fill:#1C0200;" d="M295.51,320.424c-2.658,0-4.822-2.143-4.822-4.775c0-2.635,2.164-4.776,4.822-4.776
		c2.659,0,4.823,2.142,4.823,4.776C300.333,318.281,298.169,320.424,295.51,320.424z"/>
	<g>
		<path style="fill:#F15D35;" d="M269.313,313.118c-1.408,0-2.554,1.136-2.554,2.53c0,1.395,1.145,2.528,2.554,2.528
			c1.407,0,2.553-1.134,2.553-2.528C271.866,314.254,270.72,313.118,269.313,313.118z"/>
		<path style="fill:#F15D35;" d="M295.51,313.118c-1.407,0-2.553,1.136-2.553,2.53c0,1.395,1.146,2.528,2.553,2.528
			c1.408,0,2.555-1.134,2.555-2.528C298.065,314.254,296.918,313.118,295.51,313.118z"/>
	</g>
	<path style="fill:#1C0200;" d="M260.942,318.926v13.859h42.94v-13.859H260.942z M301.99,330.912h-39.156v-10.113h39.156V330.912z"
		/>
	<rect x="262.171" y="355.42" style="fill:#1C0200;" width="9.175" height="3.84"/>
	<rect x="293.478" y="355.42" style="fill:#1C0200;" width="9.174" height="3.84"/>
</g>
<g>
	<polygon style="fill:#3C2415;" points="376.237,232.451 376.237,207.398 355.348,197.93 344.841,202.667 334.462,207.398 
		334.462,232.451 	"/>
	<g>
		<rect x="363.202" y="209.339" style="fill:#1C0200;" width="11.151" height="11.674"/>
		<rect x="336.609" y="209.339" style="fill:#1C0200;" width="11.151" height="11.674"/>
	</g>
	<polygon style="fill:#C14A29;" points="355.358,190.113 332.941,200.282 332.941,208.075 355.358,197.933 	"/>
	<polygon style="fill:#F15D35;" points="355.345,190.113 377.764,200.282 377.764,208.075 355.345,197.933 	"/>
	<g>
		<rect x="337.918" y="215.808" style="fill:#C14A29;" width="3.63" height="3.909"/>
		<rect x="337.918" y="210.637" style="fill:#C14A29;" width="3.63" height="3.91"/>
		<rect x="342.82" y="210.637" style="fill:#C14A29;" width="3.629" height="3.91"/>
		<rect x="342.82" y="215.808" style="fill:#C14A29;" width="3.629" height="3.909"/>
	</g>
	<g>
		<rect x="369.414" y="210.637" style="fill:#F15D35;" width="3.629" height="3.91"/>
		<rect x="364.51" y="215.808" style="fill:#F15D35;" width="3.63" height="3.909"/>
		<rect x="364.51" y="210.637" style="fill:#F15D35;" width="3.63" height="3.91"/>
		<rect x="369.414" y="215.808" style="fill:#F15D35;" width="3.629" height="3.909"/>
	</g>
	<rect x="349.898" y="214.6" style="fill:#F15D35;" width="10.902" height="17.858"/>
	<polygon style="fill:#1C0200;" points="339.362,200.857 346.203,197.792 346.203,192.175 346.203,192.099 346.37,192.099 
		347.249,192.099 347.249,191.698 347.249,190.199 338.314,190.199 338.314,192.099 339.362,192.099 	"/>
</g>
<g>
	<g>
		
			<line style="fill:none;stroke:#2A1402;stroke-width:2;stroke-miterlimit:10;" x1="280.887" y1="86.159" x2="272.427" y2="82.515"/>
		<rect x="272.233" y="68.789" style="fill:#3C2415;" width="0.861" height="10.229"/>
		<polygon style="fill:#1C0200;" points="271.963,80.126 273.369,80.126 273.589,79.433 273.577,79.414 273.577,78.8 271.756,78.8 
			271.756,79.51 271.774,79.522 		"/>
		<path style="fill:#F15D35;" d="M273.052,80.476v-0.422h-0.677l0.003,1.113l0.149-0.036c0.064-0.016,0.125-0.024,0.186-0.024
			c0.424,0,0.77,0.342,0.77,0.763c0,0.42-0.346,0.763-0.77,0.763c-0.398,0-0.734-0.308-0.766-0.7
			c-0.003-0.179-0.124-0.531-0.561-0.531h-0.12l0.001,0.541c0.041,0.767,0.676,1.362,1.445,1.362c0.799,0,1.447-0.645,1.447-1.435
			C274.16,81.2,273.702,80.629,273.052,80.476z"/>
		
			<line style="fill:none;stroke:#3C2415;stroke-width:2;stroke-miterlimit:10;" x1="263.917" y1="86.525" x2="272.779" y2="82.402"/>
	</g>
	<polygon style="fill:#F15D35;" points="272.752,69.778 273.582,68.037 292.947,87.1 292.118,88.842 	"/>
	<path style="fill:#1C0200;" d="M275.088,68.702c0,0.891-0.731,1.615-1.631,1.615c-0.902,0-1.633-0.725-1.633-1.615
		c0-0.892,0.73-1.616,1.633-1.616C274.357,67.086,275.088,67.811,275.088,68.702z"/>
	<path style="fill:#6D6E71;" d="M282.855,86.782v-0.818h-20.052v0.818h0.896v3.113h-0.896v0.818h20.052v-0.818h-1.041v-3.113
		H282.855z M280.718,87.627v1.446c0,0.189-0.155,0.345-0.347,0.345h-2.593c-0.192,0-0.349-0.155-0.349-0.345v-1.446
		c0-0.189,0.157-0.343,0.349-0.343h2.593C280.564,87.284,280.718,87.438,280.718,87.627z M276.521,87.627v1.446
		c0,0.189-0.155,0.345-0.348,0.345h-2.592c-0.191,0-0.347-0.155-0.347-0.345v-1.446c0-0.189,0.156-0.343,0.347-0.343h2.592
		C276.365,87.284,276.521,87.438,276.521,87.627z M272.323,87.627v1.446c0,0.189-0.154,0.345-0.347,0.345h-2.594
		c-0.191,0-0.349-0.155-0.349-0.345v-1.446c0-0.189,0.158-0.343,0.349-0.343h2.594C272.168,87.284,272.323,87.438,272.323,87.627z
		 M268.125,87.627v1.446c0,0.189-0.156,0.345-0.347,0.345h-2.595c-0.191,0-0.347-0.155-0.347-0.345v-1.446
		c0-0.189,0.156-0.343,0.347-0.343h2.595C267.969,87.284,268.125,87.438,268.125,87.627z"/>
	<rect x="287.272" y="87.102" style="fill:#1C0200;" width="5.691" height="11.273"/>
	<g>
		<path style="fill:#3C2415;" d="M260.796,99.403h3.524c0.12-1.381,0.72-2.625,1.635-3.575h-5.16V99.403z"/>
		<path style="fill:#3C2415;" d="M295.048,95.828h-20.442c0.914,0.95,1.515,2.194,1.636,3.575h18.806v0.001h2.53
			c0.127-1.401,0.766-2.657,1.728-3.588h-4.258V95.828z"/>
		<path style="fill:#3C2415;" d="M313.991,95.816h-6.586c0.96,0.931,1.602,2.187,1.728,3.588h4.5c0.521,0,0.943-0.419,0.943-0.935
			v-1.791C314.577,96.289,314.333,95.956,313.991,95.816z"/>
	</g>
	<path style="fill:#F15D35;" d="M312.754,95.827v-6.807c0-0.486-6.581-8.066-7.942-9.143h-11.257v15.949H312.754z"/>
	<g>
		<path style="fill:#1C0200;" d="M307.833,89.009h-11.588c-0.547,0-0.993-0.44-0.993-0.982v-5.992c0-0.541,0.445-0.982,0.993-0.982
			h6.7c0.166,0,0.418,0,3.162,3.133c2.719,3.103,2.719,3.372,2.719,3.502v0.34C308.825,88.568,308.379,89.009,307.833,89.009z
			 M296.245,81.729c-0.171,0-0.309,0.137-0.309,0.306v5.992c0,0.169,0.138,0.306,0.309,0.306h11.588c0.17,0,0.31-0.137,0.31-0.306
			v-0.281c-0.377-0.714-4.603-5.527-5.278-6.017H296.245z"/>
	</g>
	<path style="fill:#9AD7D9;" d="M308.084,87.882c0,0.34-0.277,0.613-0.622,0.613h-11.028c-0.342,0-0.619-0.273-0.619-0.613v-5.703
		c0-0.338,0.277-0.613,0.619-0.613h6.375c0.342,0,5.274,5.654,5.274,5.992V87.882z"/>
	<path style="fill:#FFFFFF;" d="M296.299,88.343v-5.704c0-0.338,0.276-0.613,0.618-0.613h6.376c0.021,0,0.061,0.022,0.115,0.063
		c-0.323-0.324-0.549-0.523-0.614-0.523h-6.375c-0.342,0-0.619,0.275-0.619,0.613v5.703c0,0.305,0.223,0.554,0.516,0.603
		C296.306,88.438,296.299,88.392,296.299,88.343z"/>
	<g>
		<path style="fill:#1C0200;" d="M276.228,99.126c0,3.273-2.682,5.929-5.988,5.929c-3.308,0-5.991-2.655-5.991-5.929
			c0-3.277,2.683-5.932,5.991-5.932C273.547,93.194,276.228,95.849,276.228,99.126z"/>
		<path style="fill:#442A1B;" d="M270.24,94.896c2.358,0,4.295,1.794,4.494,4.079c0.011-0.127,0.018-0.257,0.018-0.39
			c0-2.467-2.021-4.469-4.512-4.469c-2.494,0-4.514,2.002-4.514,4.469c0,0.133,0.006,0.263,0.019,0.39
			C265.943,96.689,267.879,94.896,270.24,94.896z"/>
		<g>
			<path style="fill:#C8CBB9;" d="M273.683,99.126c0,1.881-1.542,3.408-3.443,3.408c-1.901,0-3.443-1.527-3.443-3.408
				c0-1.885,1.542-3.41,3.443-3.41C272.141,95.716,273.683,97.241,273.683,99.126z"/>
			<path style="fill:#95998C;" d="M267.002,99.468c0-1.882,1.543-3.408,3.443-3.408c1.163,0,2.189,0.569,2.812,1.442
				c-0.583-1.063-1.72-1.786-3.028-1.786c-1.901,0-3.442,1.525-3.442,3.41c0,0.731,0.233,1.409,0.631,1.964
				C267.153,100.608,267.002,100.057,267.002,99.468z"/>
			<path style="fill:#E5E7D1;" d="M273.475,98.784c0,1.883-1.54,3.41-3.442,3.41c-1.162,0-2.189-0.57-2.812-1.443
				c0.582,1.064,1.721,1.787,3.029,1.787c1.9,0,3.442-1.525,3.442-3.41c0-0.731-0.234-1.41-0.631-1.965
				C273.325,97.646,273.475,98.197,273.475,98.784z"/>
			<g>
				<path style="fill:#1C0200;" d="M271.47,99.126c0,0.672-0.55,1.217-1.23,1.217c-0.679,0-1.229-0.545-1.229-1.217
					c0-0.673,0.55-1.219,1.229-1.219C270.92,97.907,271.47,98.453,271.47,99.126z"/>
				<g>
					<g>
						<g>
							<path style="fill:#1C0200;" d="M270.795,96.881c0,0.305-0.247,0.55-0.555,0.55c-0.308,0-0.555-0.245-0.555-0.55
								c0-0.303,0.247-0.549,0.555-0.549C270.547,96.332,270.795,96.578,270.795,96.881z"/>
							<path style="fill:#1C0200;" d="M270.795,101.368c0,0.304-0.247,0.549-0.555,0.549c-0.308,0-0.555-0.245-0.555-0.549
								c0-0.304,0.247-0.551,0.555-0.551C270.547,100.817,270.795,101.064,270.795,101.368z"/>
						</g>
						<g>
							<path style="fill:#1C0200;" d="M272.505,99.675c-0.306,0-0.553-0.246-0.553-0.549c0-0.305,0.248-0.55,0.553-0.55
								c0.307,0,0.556,0.245,0.556,0.55C273.061,99.429,272.811,99.675,272.505,99.675z"/>
							<path style="fill:#1C0200;" d="M267.974,99.675c-0.305,0-0.555-0.246-0.555-0.549c0-0.305,0.25-0.55,0.555-0.55
								c0.308,0,0.555,0.245,0.555,0.55C268.529,99.429,268.282,99.675,267.974,99.675z"/>
						</g>
					</g>
					<g>
						<g>
							<path style="fill:#1C0200;" d="M269.03,97.149c0.217,0.215,0.217,0.563,0,0.779c-0.217,0.213-0.568,0.213-0.785,0
								c-0.215-0.216-0.215-0.564,0-0.779C268.462,96.935,268.813,96.935,269.03,97.149z"/>
							<path style="fill:#1C0200;" d="M272.233,100.323c0.218,0.215,0.218,0.56,0,0.776c-0.216,0.214-0.568,0.214-0.783,0
								c-0.217-0.216-0.217-0.562,0-0.776C271.665,100.106,272.017,100.106,272.233,100.323z"/>
						</g>
						<g>
							<path style="fill:#1C0200;" d="M272.233,97.929c-0.216,0.213-0.568,0.213-0.783,0c-0.217-0.216-0.217-0.564,0-0.779
								c0.215-0.215,0.567-0.215,0.783,0C272.452,97.364,272.452,97.713,272.233,97.929z"/>
							<path style="fill:#1C0200;" d="M269.03,101.1c-0.217,0.214-0.568,0.214-0.785,0c-0.215-0.216-0.215-0.562,0-0.776
								c0.217-0.217,0.568-0.217,0.785,0C269.247,100.538,269.247,100.884,269.03,101.1z"/>
						</g>
					</g>
				</g>
			</g>
		</g>
	</g>
	<g>
		<path style="fill:#1C0200;" d="M309.211,99.126c0,3.273-2.681,5.929-5.988,5.929c-3.309,0-5.989-2.655-5.989-5.929
			c0-3.277,2.681-5.932,5.989-5.932C306.53,93.194,309.211,95.849,309.211,99.126z"/>
		<path style="fill:#442A1B;" d="M303.224,94.896c2.359,0,4.295,1.794,4.494,4.079c0.012-0.127,0.019-0.257,0.019-0.39
			c0-2.467-2.021-4.469-4.513-4.469c-2.493,0-4.514,2.002-4.514,4.469c0,0.133,0.006,0.263,0.018,0.39
			C298.926,96.689,300.862,94.896,303.224,94.896z"/>
		<g>
			<path style="fill:#C8CBB9;" d="M306.667,99.126c0,1.881-1.542,3.408-3.443,3.408c-1.901,0-3.442-1.527-3.442-3.408
				c0-1.885,1.541-3.41,3.442-3.41C305.125,95.716,306.667,97.241,306.667,99.126z"/>
			<path style="fill:#95998C;" d="M299.987,99.468c0-1.882,1.542-3.408,3.443-3.408c1.161,0,2.188,0.569,2.813,1.442
				c-0.583-1.063-1.721-1.786-3.03-1.786c-1.901,0-3.442,1.525-3.442,3.41c0,0.731,0.234,1.409,0.631,1.964
				C300.138,100.608,299.987,100.057,299.987,99.468z"/>
			<path style="fill:#E5E7D1;" d="M306.458,98.784c0,1.883-1.54,3.41-3.442,3.41c-1.163,0-2.189-0.57-2.813-1.443
				c0.582,1.064,1.72,1.787,3.029,1.787c1.901,0,3.441-1.525,3.441-3.41c0-0.731-0.234-1.41-0.63-1.965
				C306.308,97.646,306.458,98.197,306.458,98.784z"/>
			<g>
				<path style="fill:#1C0200;" d="M304.452,99.126c0,0.672-0.549,1.217-1.228,1.217c-0.678,0-1.229-0.545-1.229-1.217
					c0-0.673,0.551-1.219,1.229-1.219C303.903,97.907,304.452,98.453,304.452,99.126z"/>
				<g>
					<g>
						<g>
							<path style="fill:#1C0200;" d="M303.778,96.881c0,0.305-0.248,0.55-0.555,0.55c-0.307,0-0.553-0.245-0.553-0.55
								c0-0.303,0.247-0.549,0.553-0.549C303.53,96.332,303.778,96.578,303.778,96.881z"/>
							<path style="fill:#1C0200;" d="M303.778,101.368c0,0.304-0.248,0.549-0.555,0.549c-0.307,0-0.553-0.245-0.553-0.549
								c0-0.304,0.247-0.551,0.553-0.551C303.53,100.817,303.778,101.064,303.778,101.368z"/>
						</g>
						<g>
							<path style="fill:#1C0200;" d="M305.489,99.675c-0.307,0-0.555-0.246-0.555-0.549c0-0.305,0.247-0.55,0.555-0.55
								c0.307,0,0.555,0.245,0.555,0.55C306.044,99.429,305.796,99.675,305.489,99.675z"/>
							<path style="fill:#1C0200;" d="M300.96,99.675c-0.308,0-0.555-0.246-0.555-0.549c0-0.305,0.247-0.55,0.555-0.55
								c0.307,0,0.555,0.245,0.555,0.55C301.514,99.429,301.266,99.675,300.96,99.675z"/>
						</g>
					</g>
					<g>
						<g>
							<path style="fill:#1C0200;" d="M302.013,97.149c0.217,0.215,0.217,0.563,0,0.779c-0.215,0.213-0.566,0.213-0.783,0
								c-0.218-0.216-0.218-0.564,0-0.779C301.447,96.935,301.798,96.935,302.013,97.149z"/>
							<path style="fill:#1C0200;" d="M305.217,100.323c0.217,0.215,0.217,0.56,0,0.776c-0.215,0.214-0.568,0.214-0.782,0
								c-0.219-0.216-0.219-0.562,0-0.776C304.649,100.106,305.002,100.106,305.217,100.323z"/>
						</g>
						<g>
							<path style="fill:#1C0200;" d="M305.217,97.929c-0.215,0.213-0.568,0.213-0.782,0c-0.219-0.216-0.219-0.564,0-0.779
								c0.214-0.215,0.567-0.215,0.782,0C305.434,97.364,305.434,97.713,305.217,97.929z"/>
							<path style="fill:#1C0200;" d="M302.013,101.1c-0.215,0.214-0.566,0.214-0.783,0c-0.218-0.216-0.218-0.562,0-0.776
								c0.216-0.217,0.568-0.217,0.783,0C302.23,100.538,302.23,100.884,302.013,101.1z"/>
						</g>
					</g>
				</g>
			</g>
		</g>
	</g>
	<path style="fill:#F15D35;" d="M313.597,97.661c0,0.583-0.477,1.057-1.066,1.057c-0.589,0-1.066-0.474-1.066-1.057
		c0-0.582,0.477-1.057,1.066-1.057C313.12,96.604,313.597,97.079,313.597,97.661z"/>
	<g>
		<path style="fill:#1C0200;" d="M312.769,94.78h-1.766c-0.244,0-0.44-0.196-0.44-0.436l-0.421-3.333
			c0.004-0.238,0.201-0.429,0.441-0.429h2.186l0.004-0.302h-2.19c-0.409,0-0.744,0.332-0.744,0.738l0.419,3.334
			c0.005,0.402,0.338,0.729,0.745,0.729h1.764L312.769,94.78z"/>
	</g>
	<path style="fill:#9AD7D9;" d="M312.766,90.582h-2.186c-0.241,0-0.436,0.19-0.442,0.429l0.421,3.333
		c0,0.24,0.198,0.436,0.442,0.436h1.767L312.766,90.582z"/>
	<path style="fill:#F15D35;" d="M311.861,94.225c0,0,0.24-2.175,0.24-2.937c0-0.559-0.527-0.681-0.808-0.706h-0.725
		c-0.241,0-0.439,0.19-0.441,0.429l0.419,3.333c0,0.24,0.196,0.436,0.44,0.436h0.045C311.716,94.718,311.861,94.225,311.861,94.225z
		"/>
	<path style="fill:#1C0200;" d="M299.812,90.865c0,0.345-0.282,0.624-0.631,0.624h-2.726c-0.348,0-0.632-0.279-0.632-0.624l0,0
		c0-0.347,0.284-0.625,0.632-0.625h2.726C299.53,90.24,299.812,90.519,299.812,90.865L299.812,90.865z"/>
</g>
</svg>
